<svg xmlns="http://www.w3.org/2000/svg" xmlns:xlink="http://www.w3.org/1999/xlink" width="236" zoomAndPan="magnify" viewBox="0 0 177 177.000001" height="236" preserveAspectRatio="xMidYMid meet" version="1.0"><defs><clipPath id="id1"><path d="M 73 58.410156 L 105 58.410156 L 105 61 L 73 61 Z M 73 58.410156 " clip-rule="nonzero"/></clipPath><clipPath id="id2"><path d="M 30 81 L 71 81 L 71 117.328125 L 30 117.328125 Z M 30 81 " clip-rule="nonzero"/></clipPath><clipPath id="id3"><path d="M 18.390625 79 L 55 79 L 55 99 L 18.390625 99 Z M 18.390625 79 " clip-rule="nonzero"/></clipPath><clipPath id="id4"><path d="M 40 88 L 55 88 L 55 117.328125 L 40 117.328125 Z M 40 88 " clip-rule="nonzero"/></clipPath><clipPath id="id5"><path d="M 83 58.410156 L 86 58.410156 L 86 76 L 83 76 Z M 83 58.410156 " clip-rule="nonzero"/></clipPath><clipPath id="id6"><path d="M 23 73 L 158.601562 73 L 158.601562 108 L 23 108 Z M 23 73 " clip-rule="nonzero"/></clipPath><clipPath id="id7"><path d="M 18.390625 58.410156 L 158.601562 58.410156 L 158.601562 117.328125 L 18.390625 117.328125 Z M 18.390625 58.410156 " clip-rule="nonzero"/></clipPath></defs><path fill="rgb(90.979004%, 90.979004%, 90.979004%)" d="M 66.054688 90.648438 C 65.992188 90.648438 65.933594 90.613281 65.90625 90.550781 C 65.863281 90.472656 65.90625 90.375 65.984375 90.335938 L 80.332031 83.746094 L 95.109375 77.371094 L 109.578125 72.074219 L 123.007812 68.546875 C 123.011719 68.546875 123.023438 68.542969 123.03125 68.542969 L 134.753906 67.132812 C 134.765625 67.132812 134.773438 67.132812 134.78125 67.132812 L 144.304688 67.660156 C 144.316406 67.660156 144.328125 67.660156 144.332031 67.664062 L 151.308594 69.425781 C 151.320312 69.425781 151.332031 69.429688 151.335938 69.4375 L 155.589844 71.46875 C 155.605469 71.476562 155.617188 71.488281 155.636719 71.5 L 157.132812 72.980469 C 157.195312 73.042969 157.195312 73.144531 157.132812 73.207031 C 157.070312 73.269531 156.96875 73.269531 156.90625 73.207031 L 155.421875 71.742188 L 151.210938 69.726562 L 144.265625 67.976562 L 134.773438 67.453125 L 123.070312 68.859375 L 109.664062 72.382812 L 95.21875 77.675781 L 80.449219 84.042969 L 66.109375 90.628906 C 66.097656 90.640625 66.078125 90.648438 66.054688 90.648438 Z M 66.054688 90.648438 " fill-opacity="1" fill-rule="nonzero"/><path fill="rgb(90.979004%, 90.979004%, 90.979004%)" d="M 55.253906 112.496094 C 55.1875 112.496094 55.117188 112.453125 55.101562 112.378906 C 55.078125 112.292969 55.128906 112.199219 55.214844 112.179688 L 67.570312 108.726562 L 80.953125 104.351562 L 94.726562 99.679688 L 108.210938 95.46875 L 120.734375 92.449219 C 120.742188 92.449219 120.746094 92.449219 120.753906 92.441406 L 131.714844 91.085938 C 131.726562 91.085938 131.734375 91.085938 131.746094 91.085938 L 140.675781 91.429688 C 140.6875 91.429688 140.699219 91.429688 140.710938 91.433594 L 147.285156 93.046875 C 147.296875 93.050781 147.316406 93.050781 147.328125 93.0625 L 151.367188 95.210938 C 151.390625 95.222656 151.40625 95.238281 151.417969 95.257812 L 152.886719 97.175781 C 152.945312 97.246094 152.929688 97.347656 152.859375 97.40625 C 152.785156 97.460938 152.6875 97.445312 152.628906 97.375 L 151.175781 95.484375 L 147.183594 93.363281 L 140.644531 91.757812 L 131.738281 91.417969 L 120.796875 92.765625 L 108.289062 95.78125 L 94.820312 99.984375 L 81.050781 104.65625 L 67.660156 109.03125 L 55.296875 112.484375 C 55.285156 112.496094 55.265625 112.496094 55.253906 112.496094 Z M 55.253906 112.496094 " fill-opacity="1" fill-rule="nonzero"/><g clip-path="url(#id1)"><path fill="rgb(90.979004%, 90.979004%, 90.979004%)" d="M 104.679688 60.566406 C 104.671875 60.566406 104.667969 60.566406 104.667969 60.566406 L 94.242188 59.710938 L 83.632812 58.988281 L 73.167969 58.742188 C 73.074219 58.742188 73.007812 58.667969 73.007812 58.578125 C 73.007812 58.484375 73.082031 58.417969 73.171875 58.417969 L 83.644531 58.664062 L 94.265625 59.386719 L 104.695312 60.242188 C 104.789062 60.246094 104.851562 60.324219 104.84375 60.417969 C 104.839844 60.503906 104.765625 60.566406 104.679688 60.566406 Z M 104.679688 60.566406 " fill-opacity="1" fill-rule="nonzero"/></g><path fill="rgb(90.979004%, 90.979004%, 90.979004%)" d="M 125.554688 62.742188 C 125.546875 62.742188 125.546875 62.742188 125.542969 62.742188 L 119.675781 62.359375 L 111.625 61.875 L 102.835938 61.351562 C 102.746094 61.34375 102.675781 61.273438 102.679688 61.179688 C 102.6875 61.089844 102.765625 61.027344 102.851562 61.027344 L 111.640625 61.550781 L 119.695312 62.035156 L 125.558594 62.417969 C 125.652344 62.421875 125.71875 62.503906 125.714844 62.585938 C 125.707031 62.671875 125.640625 62.742188 125.554688 62.742188 Z M 125.554688 62.742188 " fill-opacity="1" fill-rule="nonzero"/><g clip-path="url(#id2)"><path fill="rgb(90.979004%, 90.979004%, 90.979004%)" d="M 47.027344 117.328125 L 40.972656 117.078125 C 40.957031 117.078125 40.9375 117.070312 40.921875 117.066406 L 35.707031 115.0625 C 35.691406 115.054688 35.667969 115.042969 35.65625 115.027344 L 32.113281 111.734375 C 32.09375 111.714844 32.082031 111.6875 32.070312 111.664062 L 30.78125 107.5625 C 30.769531 107.535156 30.769531 107.507812 30.78125 107.472656 L 31.960938 102.855469 C 31.964844 102.839844 31.972656 102.816406 31.984375 102.804688 L 35.433594 97.917969 C 35.457031 97.882812 35.492188 97.867188 35.527344 97.855469 L 44.246094 95.597656 L 55.015625 91.175781 L 67.359375 85.378906 L 69.445312 82.234375 C 69.464844 82.203125 69.488281 82.1875 69.515625 82.175781 L 69.933594 81.988281 C 70.011719 81.953125 70.109375 81.988281 70.152344 82.066406 C 70.183594 82.148438 70.152344 82.242188 70.070312 82.285156 L 69.691406 82.449219 L 67.605469 85.59375 C 67.585938 85.617188 67.5625 85.640625 67.535156 85.652344 L 55.148438 91.472656 L 44.359375 95.902344 C 44.355469 95.90625 44.347656 95.90625 44.335938 95.90625 L 35.664062 98.152344 L 32.265625 102.964844 L 31.101562 107.507812 L 32.367188 111.523438 L 35.855469 114.765625 L 41.011719 116.746094 L 47.03125 116.992188 L 53.984375 116.980469 L 62.488281 115.949219 C 62.582031 115.9375 62.660156 116 62.671875 116.09375 C 62.683594 116.183594 62.621094 116.261719 62.527344 116.273438 L 54.019531 117.3125 C 54.015625 117.3125 54.007812 117.3125 54.003906 117.3125 Z M 47.027344 117.328125 " fill-opacity="1" fill-rule="nonzero"/></g><path fill="rgb(90.979004%, 90.979004%, 90.979004%)" d="M 136.460938 106.382812 C 136.453125 106.382812 136.449219 106.382812 136.4375 106.382812 L 132.226562 105.867188 L 131.675781 105.746094 L 129.953125 105.460938 L 126.382812 105.011719 L 121.445312 104.160156 C 121.359375 104.144531 121.300781 104.058594 121.320312 103.972656 C 121.335938 103.886719 121.421875 103.832031 121.507812 103.847656 L 121.53125 103.855469 L 126.429688 104.691406 L 130 105.140625 L 131.734375 105.425781 L 132.277344 105.546875 L 136.460938 106.066406 L 138.878906 105.972656 L 139.457031 105.371094 C 139.476562 105.351562 139.5 105.335938 139.519531 105.328125 L 146.621094 102.675781 C 146.707031 102.644531 146.800781 102.6875 146.835938 102.773438 C 146.867188 102.855469 146.824219 102.949219 146.738281 102.984375 L 139.667969 105.621094 L 139.074219 106.242188 C 139.046875 106.269531 139.007812 106.292969 138.960938 106.292969 L 136.460938 106.390625 C 136.464844 106.382812 136.464844 106.382812 136.460938 106.382812 Z M 136.460938 106.382812 " fill-opacity="1" fill-rule="nonzero"/><path fill="rgb(90.979004%, 90.979004%, 90.979004%)" d="M 23.964844 89.546875 C 23.910156 89.546875 23.851562 89.519531 23.824219 89.46875 C 23.777344 89.386719 23.804688 89.292969 23.886719 89.246094 L 29.90625 85.832031 C 29.917969 85.828125 29.929688 85.820312 29.945312 85.816406 L 37.066406 83.867188 C 37.082031 83.863281 37.097656 83.863281 37.109375 83.863281 L 44.242188 84.066406 C 44.261719 84.066406 44.28125 84.074219 44.304688 84.078125 L 50.359375 86.734375 C 50.390625 86.75 50.421875 86.777344 50.4375 86.8125 L 51.386719 88.75 C 51.425781 88.828125 51.394531 88.925781 51.3125 88.964844 C 51.234375 89.007812 51.136719 88.972656 51.09375 88.894531 L 50.167969 87 L 44.195312 84.386719 L 37.121094 84.179688 L 30.050781 86.117188 L 24.050781 89.523438 C 24.023438 89.542969 23.996094 89.546875 23.964844 89.546875 Z M 23.964844 89.546875 " fill-opacity="1" fill-rule="nonzero"/><path fill="rgb(90.979004%, 90.979004%, 90.979004%)" d="M 35.558594 98.183594 C 35.554688 98.183594 35.554688 98.183594 35.546875 98.183594 L 29.164062 97.804688 C 29.128906 97.804688 29.097656 97.792969 29.070312 97.769531 L 25.191406 94.734375 C 25.164062 94.710938 25.144531 94.679688 25.132812 94.648438 L 23.804688 89.429688 C 23.785156 89.34375 23.835938 89.25 23.925781 89.230469 C 24.011719 89.207031 24.105469 89.257812 24.125 89.347656 L 25.441406 94.511719 L 29.238281 97.484375 L 35.503906 97.859375 L 40.605469 93.28125 C 40.617188 93.273438 40.625 93.261719 40.636719 93.257812 L 46.671875 89.871094 C 46.753906 89.828125 46.851562 89.855469 46.894531 89.933594 C 46.941406 90.015625 46.914062 90.113281 46.832031 90.15625 L 40.8125 93.53125 L 35.675781 98.144531 C 35.640625 98.167969 35.601562 98.183594 35.558594 98.183594 Z M 35.558594 98.183594 " fill-opacity="1" fill-rule="nonzero"/><path fill="rgb(90.979004%, 90.979004%, 90.979004%)" d="M 148.875 64.828125 C 148.855469 64.828125 148.832031 64.820312 148.808594 64.808594 L 145.488281 63.226562 C 145.410156 63.1875 145.375 63.089844 145.414062 63.007812 C 145.453125 62.929688 145.550781 62.894531 145.632812 62.933594 L 148.953125 64.519531 C 149.03125 64.558594 149.066406 64.65625 149.027344 64.734375 C 148.996094 64.792969 148.933594 64.828125 148.875 64.828125 Z M 148.875 64.828125 " fill-opacity="1" fill-rule="nonzero"/><path fill="rgb(90.979004%, 90.979004%, 90.979004%)" d="M 128.28125 104.195312 C 128.195312 104.195312 128.128906 104.132812 128.121094 104.046875 C 128.117188 103.957031 128.179688 103.882812 128.269531 103.871094 L 134.804688 103.335938 L 141.433594 99.582031 C 141.476562 99.558594 141.53125 99.550781 141.574219 99.574219 L 145.316406 101.171875 C 145.339844 101.183594 145.359375 101.195312 145.375 101.210938 L 146.804688 102.726562 C 146.867188 102.789062 146.863281 102.890625 146.800781 102.953125 C 146.738281 103.015625 146.632812 103.011719 146.570312 102.949219 L 145.164062 101.457031 L 141.523438 99.90625 L 134.9375 103.644531 C 134.914062 103.65625 134.890625 103.660156 134.867188 103.667969 L 128.300781 104.207031 C 128.292969 104.195312 128.289062 104.195312 128.28125 104.195312 Z M 128.28125 104.195312 " fill-opacity="1" fill-rule="nonzero"/><path fill="rgb(90.979004%, 90.979004%, 90.979004%)" d="M 79.140625 78.089844 C 79.058594 78.089844 78.992188 78.035156 78.980469 77.949219 L 78.074219 71.511719 L 76.535156 65.066406 L 74.757812 60.582031 C 74.722656 60.496094 74.761719 60.40625 74.847656 60.371094 C 74.933594 60.335938 75.027344 60.378906 75.058594 60.460938 L 76.839844 64.957031 C 76.839844 64.964844 76.84375 64.976562 76.84375 64.980469 L 78.390625 71.445312 L 79.300781 77.898438 C 79.3125 77.988281 79.25 78.066406 79.164062 78.078125 C 79.15625 78.085938 79.144531 78.089844 79.140625 78.089844 Z M 79.140625 78.089844 " fill-opacity="1" fill-rule="nonzero"/><path fill="rgb(90.979004%, 90.979004%, 90.979004%)" d="M 123.652344 104.03125 C 123.574219 104.03125 123.503906 103.972656 123.492188 103.894531 C 123.476562 103.804688 123.539062 103.722656 123.628906 103.707031 L 129.46875 102.753906 L 135.414062 98.492188 C 135.445312 98.464844 135.492188 98.457031 135.539062 98.464844 L 141.457031 99.535156 L 147.109375 93.121094 L 150.984375 85.046875 L 152.402344 76.78125 L 151.125 69.648438 L 147.378906 64.667969 L 141.722656 62.480469 C 141.636719 62.445312 141.597656 62.355469 141.632812 62.269531 C 141.667969 62.183594 141.757812 62.144531 141.84375 62.175781 L 147.539062 64.382812 C 147.566406 64.394531 147.589844 64.410156 147.605469 64.433594 L 151.402344 69.480469 C 151.417969 69.503906 151.421875 69.527344 151.429688 69.550781 L 152.714844 76.75 C 152.722656 76.769531 152.722656 76.792969 152.714844 76.808594 L 151.292969 85.125 C 151.292969 85.144531 151.285156 85.15625 151.28125 85.167969 L 147.382812 93.28125 C 147.378906 93.292969 147.367188 93.308594 147.359375 93.320312 L 141.632812 99.824219 C 141.59375 99.871094 141.535156 99.890625 141.476562 99.878906 L 135.539062 98.800781 L 129.617188 103.046875 C 129.59375 103.0625 129.570312 103.066406 129.546875 103.074219 L 123.671875 104.03125 C 123.671875 104.03125 123.660156 104.03125 123.652344 104.03125 Z M 123.652344 104.03125 " fill-opacity="1" fill-rule="nonzero"/><path fill="rgb(90.979004%, 90.979004%, 90.979004%)" d="M 50.699219 88.945312 C 50.683594 88.945312 50.667969 88.945312 50.648438 88.933594 L 45.34375 87.148438 L 38.339844 87.796875 C 38.25 87.804688 38.167969 87.742188 38.164062 87.652344 C 38.15625 87.558594 38.21875 87.480469 38.3125 87.472656 L 45.351562 86.820312 C 45.375 86.820312 45.394531 86.820312 45.417969 86.824219 L 50.757812 88.621094 C 50.84375 88.648438 50.890625 88.738281 50.859375 88.824219 C 50.832031 88.898438 50.769531 88.945312 50.699219 88.945312 Z M 50.699219 88.945312 " fill-opacity="1" fill-rule="nonzero"/><path fill="rgb(90.979004%, 90.979004%, 90.979004%)" d="M 117.507812 104.40625 C 117.433594 104.40625 117.363281 104.355469 117.347656 104.28125 C 117.324219 104.195312 117.382812 104.105469 117.46875 104.085938 L 122.324219 102.949219 L 127.292969 98.453125 C 127.320312 98.425781 127.363281 98.414062 127.402344 98.414062 L 135.417969 98.46875 L 140.515625 91.523438 L 144.019531 83.054688 L 145.292969 74.699219 L 144.140625 67.886719 L 140.761719 63.527344 L 135.679688 62.019531 C 135.59375 61.988281 135.542969 61.902344 135.574219 61.820312 C 135.59375 61.734375 135.6875 61.683594 135.773438 61.710938 L 140.90625 63.238281 C 140.941406 63.25 140.96875 63.265625 140.984375 63.292969 L 144.417969 67.726562 C 144.4375 67.75 144.449219 67.773438 144.453125 67.800781 L 145.621094 74.683594 C 145.625 74.699219 145.625 74.71875 145.621094 74.734375 L 144.332031 83.132812 C 144.332031 83.144531 144.328125 83.15625 144.320312 83.171875 L 140.808594 91.679688 C 140.804688 91.691406 140.796875 91.703125 140.792969 91.714844 L 135.628906 98.738281 C 135.601562 98.777344 135.550781 98.804688 135.5 98.804688 L 127.464844 98.75 L 122.515625 103.234375 C 122.492188 103.25 122.46875 103.265625 122.441406 103.273438 L 117.542969 104.425781 C 117.53125 104.40625 117.519531 104.40625 117.507812 104.40625 Z M 117.507812 104.40625 " fill-opacity="1" fill-rule="nonzero"/><g clip-path="url(#id3)"><path fill="rgb(90.979004%, 90.979004%, 90.979004%)" d="M 18.617188 98.363281 C 18.605469 98.363281 18.59375 98.363281 18.582031 98.355469 C 18.496094 98.339844 18.4375 98.253906 18.457031 98.164062 L 19.8125 91.691406 L 21.109375 86.757812 C 21.117188 86.726562 21.132812 86.703125 21.152344 86.683594 L 25.003906 82.734375 C 25.019531 82.714844 25.035156 82.707031 25.054688 82.699219 L 30.878906 80.113281 C 30.894531 80.105469 30.90625 80.101562 30.925781 80.101562 L 37.835938 79.265625 C 37.855469 79.265625 37.871094 79.265625 37.890625 79.265625 L 44.839844 80.546875 C 44.859375 80.550781 44.875 80.558594 44.894531 80.570312 L 50.816406 84.054688 C 50.832031 84.066406 50.847656 84.078125 50.859375 84.09375 L 54.042969 88.289062 C 54.09375 88.363281 54.082031 88.460938 54.007812 88.515625 C 53.933594 88.566406 53.835938 88.554688 53.78125 88.484375 L 50.621094 84.3125 L 44.75 80.855469 L 37.855469 79.578125 L 30.988281 80.410156 L 25.214844 82.972656 L 21.421875 86.886719 L 20.132812 91.769531 L 18.777344 98.238281 C 18.765625 98.3125 18.695312 98.363281 18.617188 98.363281 Z M 18.617188 98.363281 " fill-opacity="1" fill-rule="nonzero"/></g><path fill="rgb(90.979004%, 90.979004%, 90.979004%)" d="M 55.253906 112.496094 C 55.191406 112.496094 55.136719 112.464844 55.105469 112.40625 L 52.800781 107.738281 C 52.796875 107.722656 52.789062 107.710938 52.785156 107.695312 L 51.929688 102.105469 C 51.929688 102.089844 51.929688 102.078125 51.929688 102.058594 L 52.679688 96.378906 C 52.679688 96.363281 52.6875 96.351562 52.691406 96.332031 L 54.917969 91.273438 C 54.921875 91.257812 54.933594 91.246094 54.941406 91.234375 L 58.265625 87.371094 C 58.277344 87.355469 58.300781 87.34375 58.316406 87.332031 L 59.480469 86.75 L 62.191406 85.253906 C 62.269531 85.207031 62.367188 85.234375 62.414062 85.316406 C 62.460938 85.394531 62.429688 85.492188 62.351562 85.535156 L 59.632812 87.042969 L 58.496094 87.609375 L 55.203125 91.433594 L 52.996094 96.453125 L 52.25 102.089844 L 53.097656 107.632812 L 55.394531 112.273438 C 55.433594 112.355469 55.398438 112.453125 55.320312 112.492188 C 55.300781 112.492188 55.277344 112.496094 55.253906 112.496094 Z M 55.253906 112.496094 " fill-opacity="1" fill-rule="nonzero"/><g clip-path="url(#id4)"><path fill="rgb(90.979004%, 90.979004%, 90.979004%)" d="M 53.992188 117.324219 C 53.984375 117.324219 53.984375 117.324219 53.980469 117.324219 L 48.886719 116.929688 C 48.863281 116.929688 48.839844 116.925781 48.824219 116.914062 L 44.417969 114.578125 C 44.394531 114.566406 44.378906 114.554688 44.367188 114.53125 L 41.355469 110.703125 C 41.339844 110.683594 41.332031 110.664062 41.328125 110.640625 L 40.230469 105.917969 C 40.222656 105.894531 40.222656 105.871094 40.230469 105.847656 L 41.21875 100.753906 C 41.226562 100.738281 41.230469 100.71875 41.234375 100.703125 L 44.15625 95.683594 C 44.160156 95.671875 44.171875 95.660156 44.175781 95.648438 L 48.53125 91.269531 C 48.542969 91.257812 48.554688 91.25 48.566406 91.238281 L 53.652344 88.324219 C 53.734375 88.277344 53.832031 88.304688 53.875 88.378906 C 53.921875 88.460938 53.894531 88.554688 53.820312 88.601562 L 48.75 91.507812 L 44.421875 95.859375 L 41.527344 100.839844 L 40.550781 105.875 L 41.636719 110.53125 L 44.601562 114.304688 L 48.945312 116.609375 L 54.003906 117.003906 C 54.09375 117.007812 54.15625 117.089844 54.152344 117.179688 C 54.144531 117.253906 54.078125 117.324219 53.992188 117.324219 Z M 53.992188 117.324219 " fill-opacity="1" fill-rule="nonzero"/></g><path fill="rgb(90.979004%, 90.979004%, 90.979004%)" d="M 151.542969 66.097656 C 151.519531 66.097656 151.492188 66.089844 151.46875 66.082031 L 146.929688 63.785156 C 146.851562 63.746094 146.816406 63.648438 146.863281 63.566406 C 146.902344 63.488281 147 63.453125 147.082031 63.5 L 151.617188 65.796875 C 151.699219 65.835938 151.730469 65.933594 151.6875 66.011719 C 151.664062 66.0625 151.605469 66.097656 151.542969 66.097656 Z M 151.542969 66.097656 " fill-opacity="1" fill-rule="nonzero"/><path fill="rgb(90.979004%, 90.979004%, 90.979004%)" d="M 32.222656 111.785156 C 32.21875 111.785156 32.207031 111.785156 32.199219 111.785156 L 25.460938 110.726562 C 25.429688 110.71875 25.410156 110.707031 25.386719 110.695312 L 21.339844 107.644531 C 21.265625 107.585938 21.253906 107.488281 21.3125 107.414062 C 21.363281 107.347656 21.464844 107.328125 21.539062 107.386719 L 25.558594 110.417969 L 32.234375 111.464844 L 41.464844 110.445312 L 52.914062 107.511719 L 66.09375 103.050781 L 80.40625 97.636719 L 95.144531 92.03125 L 109.570312 87.113281 L 122.960938 83.707031 C 122.964844 83.707031 122.972656 83.703125 122.984375 83.703125 L 134.675781 82.316406 C 134.6875 82.316406 134.699219 82.316406 134.703125 82.316406 L 144.203125 82.921875 C 144.214844 82.921875 144.226562 82.925781 144.234375 82.925781 L 151.1875 84.933594 C 151.199219 84.9375 151.210938 84.945312 151.222656 84.949219 L 155.457031 87.421875 C 155.476562 87.433594 155.492188 87.453125 155.507812 87.46875 L 157.003906 89.519531 C 157.054688 89.59375 157.035156 89.695312 156.96875 89.746094 C 156.894531 89.796875 156.789062 89.78125 156.738281 89.714844 L 155.269531 87.691406 L 151.078125 85.246094 L 144.160156 83.253906 L 134.699219 82.648438 L 123.03125 84.027344 L 109.664062 87.429688 L 95.253906 92.339844 L 80.519531 97.941406 L 66.203125 103.351562 L 53.007812 107.820312 L 41.527344 110.757812 C 41.523438 110.757812 41.511719 110.765625 41.503906 110.765625 L 32.242188 111.785156 C 32.234375 111.785156 32.230469 111.785156 32.222656 111.785156 Z M 32.222656 111.785156 " fill-opacity="1" fill-rule="nonzero"/><path fill="rgb(90.979004%, 90.979004%, 90.979004%)" d="M 24.070312 106.855469 C 24.050781 106.855469 24.039062 106.855469 24.023438 106.851562 C 23.9375 106.824219 23.886719 106.738281 23.914062 106.652344 L 25.214844 102.292969 C 25.21875 102.269531 25.230469 102.253906 25.242188 102.234375 L 29.046875 97.542969 C 29.054688 97.53125 29.066406 97.523438 29.070312 97.519531 L 34.765625 92.984375 C 34.777344 92.976562 34.78125 92.972656 34.792969 92.964844 L 41.480469 89.597656 C 41.5 89.59375 41.511719 89.585938 41.527344 89.582031 L 48.183594 88.464844 C 48.269531 88.449219 48.355469 88.511719 48.371094 88.597656 C 48.390625 88.683594 48.324219 88.765625 48.238281 88.785156 L 41.609375 89.902344 L 34.953125 93.25 L 29.28125 97.761719 L 25.511719 102.425781 L 24.21875 106.75 C 24.207031 106.8125 24.136719 106.855469 24.070312 106.855469 Z M 24.070312 106.855469 " fill-opacity="1" fill-rule="nonzero"/><path fill="rgb(90.979004%, 90.979004%, 90.979004%)" d="M 110.085938 105.4375 C 110.015625 105.4375 109.949219 105.390625 109.929688 105.320312 C 109.910156 105.234375 109.953125 105.140625 110.039062 105.117188 L 113.667969 104.078125 L 117.386719 99.71875 C 117.417969 99.6875 117.449219 99.667969 117.492188 99.660156 L 127.304688 98.417969 L 131.578125 91.1875 L 134.519531 82.453125 L 135.59375 74 L 134.617188 67.363281 L 131.785156 63.425781 L 127.53125 62.398438 C 127.445312 62.375 127.390625 62.292969 127.414062 62.207031 C 127.4375 62.121094 127.523438 62.0625 127.609375 62.085938 L 131.917969 63.128906 C 131.957031 63.140625 131.984375 63.164062 132.007812 63.191406 L 134.898438 67.207031 C 134.914062 67.230469 134.921875 67.253906 134.925781 67.277344 L 135.917969 73.976562 C 135.917969 73.992188 135.917969 74.003906 135.917969 74.023438 L 134.839844 82.515625 C 134.839844 82.527344 134.835938 82.539062 134.835938 82.550781 L 131.882812 91.320312 C 131.875 91.332031 131.875 91.34375 131.871094 91.347656 L 127.542969 98.65625 C 127.523438 98.703125 127.476562 98.730469 127.425781 98.738281 L 117.59375 99.984375 L 113.878906 104.332031 C 113.855469 104.355469 113.835938 104.371094 113.800781 104.382812 L 110.125 105.4375 C 110.113281 105.4375 110.101562 105.4375 110.085938 105.4375 Z M 110.085938 105.4375 " fill-opacity="1" fill-rule="nonzero"/><path fill="rgb(90.979004%, 90.979004%, 90.979004%)" d="M 99.820312 69.539062 C 99.808594 69.539062 99.792969 69.539062 99.78125 69.53125 C 99.695312 69.511719 99.644531 69.425781 99.664062 69.332031 L 100.816406 64.917969 C 100.816406 64.90625 100.820312 64.894531 100.828125 64.890625 L 102.699219 61.117188 C 102.738281 61.039062 102.835938 61.003906 102.917969 61.042969 C 102.996094 61.082031 103.03125 61.179688 102.992188 61.261719 L 101.125 65.019531 L 99.980469 69.417969 C 99.964844 69.488281 99.894531 69.539062 99.820312 69.539062 Z M 99.820312 69.539062 " fill-opacity="1" fill-rule="nonzero"/><g clip-path="url(#id5)"><path fill="rgb(90.979004%, 90.979004%, 90.979004%)" d="M 85.433594 75.308594 C 85.347656 75.308594 85.273438 75.242188 85.273438 75.15625 L 85.085938 71.066406 L 84.585938 64.667969 L 84.027344 60.421875 L 83.484375 58.878906 C 83.453125 58.792969 83.5 58.703125 83.585938 58.671875 C 83.671875 58.644531 83.765625 58.691406 83.792969 58.777344 L 84.339844 60.335938 C 84.347656 60.347656 84.347656 60.359375 84.347656 60.371094 L 84.914062 64.644531 L 85.410156 71.054688 L 85.601562 75.152344 C 85.605469 75.242188 85.539062 75.316406 85.445312 75.320312 C 85.441406 75.308594 85.441406 75.308594 85.433594 75.308594 Z M 85.433594 75.308594 " fill-opacity="1" fill-rule="nonzero"/></g><path fill="rgb(90.979004%, 90.979004%, 90.979004%)" d="M 38.324219 87.796875 C 38.253906 87.796875 38.191406 87.757812 38.167969 87.691406 L 36.945312 84.074219 C 36.933594 84.050781 36.933594 84.019531 36.9375 83.992188 L 37.699219 79.40625 C 37.707031 79.390625 37.710938 79.371094 37.71875 79.355469 L 40.359375 74.457031 C 40.367188 74.445312 40.378906 74.433594 40.382812 74.421875 L 44.75 69.8125 C 44.761719 69.800781 44.765625 69.796875 44.777344 69.789062 L 50.660156 65.921875 C 50.734375 65.871094 50.839844 65.890625 50.882812 65.964844 C 50.933594 66.039062 50.914062 66.144531 50.839844 66.1875 L 44.972656 70.046875 L 40.636719 74.625 L 38.015625 79.484375 L 37.265625 84.003906 L 38.476562 87.582031 C 38.507812 87.667969 38.460938 87.757812 38.375 87.789062 C 38.363281 87.792969 38.339844 87.796875 38.324219 87.796875 Z M 38.324219 87.796875 " fill-opacity="1" fill-rule="nonzero"/><path fill="rgb(90.979004%, 90.979004%, 90.979004%)" d="M 101.695312 107.074219 C 101.628906 107.074219 101.558594 107.027344 101.542969 106.960938 C 101.515625 106.875 101.566406 106.78125 101.652344 106.753906 L 103.84375 106.085938 L 106.113281 102.242188 C 106.136719 102.203125 106.175781 102.171875 106.21875 102.167969 L 117.398438 99.683594 L 120.613281 92.554688 L 122.828125 83.84375 L 123.636719 75.371094 L 122.890625 68.757812 L 120.757812 64.945312 L 117.578125 64.0625 C 117.492188 64.039062 117.4375 63.949219 117.460938 63.863281 C 117.484375 63.777344 117.578125 63.726562 117.664062 63.75 L 120.914062 64.648438 C 120.953125 64.660156 120.992188 64.691406 121.007812 64.730469 L 123.195312 68.628906 C 123.207031 68.644531 123.210938 68.667969 123.210938 68.691406 L 123.960938 75.355469 C 123.960938 75.367188 123.960938 75.378906 123.960938 75.390625 L 123.15625 83.894531 C 123.15625 83.902344 123.15625 83.914062 123.148438 83.917969 L 120.929688 92.660156 C 120.929688 92.671875 120.925781 92.675781 120.917969 92.6875 L 117.664062 99.898438 C 117.640625 99.945312 117.597656 99.980469 117.546875 99.992188 L 106.359375 102.480469 L 104.09375 106.320312 C 104.070312 106.355469 104.042969 106.382812 104.003906 106.394531 L 101.75 107.078125 C 101.730469 107.074219 101.714844 107.074219 101.695312 107.074219 Z M 101.695312 107.074219 " fill-opacity="1" fill-rule="nonzero"/><path fill="rgb(90.979004%, 90.979004%, 90.979004%)" d="M 111.824219 65.664062 C 111.820312 65.664062 111.820312 65.664062 111.8125 65.664062 L 108.585938 65.488281 C 108.496094 65.480469 108.425781 65.40625 108.433594 65.316406 C 108.4375 65.226562 108.511719 65.15625 108.605469 65.164062 L 111.832031 65.339844 C 111.921875 65.34375 111.992188 65.417969 111.984375 65.511719 C 111.980469 65.597656 111.910156 65.664062 111.824219 65.664062 Z M 111.824219 65.664062 " fill-opacity="1" fill-rule="nonzero"/><path fill="rgb(90.979004%, 90.979004%, 90.979004%)" d="M 72.203125 114.359375 C 72.175781 114.359375 72.148438 114.355469 72.117188 114.335938 L 69.664062 112.875 C 69.640625 112.855469 69.617188 112.839844 69.605469 112.808594 L 67.46875 108.953125 C 67.460938 108.941406 67.457031 108.929688 67.449219 108.914062 L 65.980469 103.238281 C 65.980469 103.226562 65.972656 103.222656 65.972656 103.210938 L 65.417969 96.699219 C 65.417969 96.6875 65.417969 96.679688 65.417969 96.667969 L 65.886719 90.464844 C 65.894531 90.375 65.972656 90.3125 66.066406 90.316406 C 66.15625 90.324219 66.21875 90.402344 66.214844 90.492188 L 65.746094 96.6875 L 66.292969 103.171875 L 67.757812 108.8125 L 69.863281 112.609375 L 72.285156 114.050781 C 72.359375 114.097656 72.386719 114.199219 72.34375 114.273438 C 72.3125 114.332031 72.261719 114.359375 72.203125 114.359375 Z M 72.203125 114.359375 " fill-opacity="1" fill-rule="nonzero"/><path fill="rgb(90.979004%, 90.979004%, 90.979004%)" d="M 117.695312 64.058594 C 117.652344 64.058594 117.605469 64.039062 117.570312 64 C 117.511719 63.933594 117.519531 63.828125 117.585938 63.773438 L 119.574219 62.074219 C 119.597656 62.050781 119.628906 62.039062 119.664062 62.035156 L 123.710938 61.660156 C 123.796875 61.648438 123.882812 61.714844 123.886719 61.808594 C 123.894531 61.898438 123.832031 61.976562 123.738281 61.984375 L 119.746094 62.355469 L 117.800781 64.019531 C 117.769531 64.039062 117.738281 64.058594 117.695312 64.058594 Z M 117.695312 64.058594 " fill-opacity="1" fill-rule="nonzero"/><path fill="rgb(90.979004%, 90.979004%, 90.979004%)" d="M 51.988281 89.011719 C 51.941406 89.011719 51.898438 88.996094 51.863281 88.957031 L 50.164062 86.976562 C 50.132812 86.945312 50.117188 86.894531 50.128906 86.847656 L 50.574219 84.175781 C 50.582031 84.152344 50.585938 84.136719 50.597656 84.113281 L 52.464844 81.195312 C 52.46875 81.183594 52.480469 81.171875 52.492188 81.160156 L 55.667969 78.308594 C 55.671875 78.300781 55.683594 78.296875 55.695312 78.289062 L 60.039062 75.753906 C 60.046875 75.75 60.054688 75.75 60.0625 75.742188 L 65.390625 73.703125 C 65.394531 73.703125 65.402344 73.699219 65.414062 73.699219 L 71.523438 72.234375 C 71.53125 72.234375 71.535156 72.234375 71.542969 72.226562 L 78.21875 71.320312 L 85.246094 70.890625 L 92.375 70.816406 L 95.214844 70.878906 C 95.304688 70.878906 95.375 70.953125 95.375 71.042969 C 95.375 71.128906 95.300781 71.203125 95.214844 71.203125 C 95.214844 71.203125 95.214844 71.203125 95.207031 71.203125 L 92.375 71.140625 L 85.261719 71.207031 L 78.253906 71.636719 L 71.59375 72.542969 L 65.5 74.003906 L 60.195312 76.035156 L 55.878906 78.550781 L 52.730469 81.378906 L 50.902344 84.25 L 50.472656 86.8125 L 52.121094 88.726562 C 52.175781 88.796875 52.171875 88.898438 52.101562 88.957031 C 52.0625 89 52.023438 89.011719 51.988281 89.011719 Z M 51.988281 89.011719 " fill-opacity="1" fill-rule="nonzero"/><path fill="rgb(90.979004%, 90.979004%, 90.979004%)" d="M 82.675781 111.808594 C 82.613281 111.808594 82.550781 111.769531 82.523438 111.707031 L 81.628906 109.425781 C 81.625 109.414062 81.625 109.402344 81.617188 109.390625 L 80.835938 104.53125 L 80.285156 97.804688 L 80.074219 90.460938 L 80.234375 83.890625 L 80.738281 79.144531 C 80.738281 79.132812 80.742188 79.121094 80.742188 79.109375 L 81.503906 76.707031 C 81.53125 76.621094 81.625 76.574219 81.710938 76.597656 C 81.796875 76.625 81.839844 76.71875 81.816406 76.804688 L 81.0625 79.195312 L 80.558594 83.90625 L 80.40625 90.453125 L 80.617188 97.78125 L 81.160156 104.488281 L 81.9375 109.316406 L 82.824219 111.578125 C 82.859375 111.664062 82.8125 111.757812 82.734375 111.789062 C 82.714844 111.808594 82.695312 111.808594 82.675781 111.808594 Z M 82.675781 111.808594 " fill-opacity="1" fill-rule="nonzero"/><g clip-path="url(#id6)"><path fill="rgb(90.979004%, 90.979004%, 90.979004%)" d="M 30.9375 107.683594 C 30.929688 107.683594 30.925781 107.683594 30.917969 107.683594 L 24.050781 106.855469 C 23.960938 106.84375 23.898438 106.765625 23.910156 106.675781 C 23.921875 106.582031 24 106.519531 24.09375 106.53125 L 30.9375 107.359375 L 40.347656 105.722656 L 52.050781 101.929688 L 65.53125 96.550781 L 80.183594 90.316406 L 95.277344 84.089844 L 110.050781 78.785156 L 123.761719 75.21875 C 123.769531 75.21875 123.777344 75.214844 123.785156 75.214844 L 135.746094 73.839844 C 135.757812 73.839844 135.765625 73.839844 135.773438 73.839844 L 145.476562 74.539062 C 145.488281 74.539062 145.5 74.546875 145.511719 74.546875 L 152.609375 76.625 C 152.621094 76.632812 152.628906 76.632812 152.640625 76.644531 L 156.949219 79.082031 C 156.96875 79.09375 156.984375 79.105469 156.996094 79.121094 L 158.496094 81 C 158.554688 81.070312 158.542969 81.171875 158.46875 81.230469 C 158.398438 81.285156 158.296875 81.273438 158.238281 81.203125 L 156.757812 79.347656 L 152.492188 76.933594 L 145.433594 74.867188 L 135.761719 74.164062 L 123.824219 75.53125 L 110.136719 79.09375 L 95.378906 84.390625 L 80.289062 90.613281 L 65.636719 96.847656 L 52.144531 102.230469 L 40.433594 106.03125 C 40.429688 106.03125 40.417969 106.035156 40.414062 106.035156 L 30.964844 107.683594 C 30.953125 107.683594 30.941406 107.683594 30.9375 107.683594 Z M 30.9375 107.683594 " fill-opacity="1" fill-rule="nonzero"/></g><g clip-path="url(#id7)"><path fill="rgb(90.979004%, 90.979004%, 90.979004%)" d="M 40.980469 117.082031 C 40.96875 117.082031 40.957031 117.082031 40.945312 117.078125 L 35.121094 115.914062 C 35.113281 115.914062 35.101562 115.910156 35.097656 115.910156 L 29.339844 113.886719 C 29.335938 113.886719 29.335938 113.886719 29.328125 113.882812 C 29.328125 113.882812 29.328125 113.882812 29.324219 113.882812 C 29.316406 113.882812 29.316406 113.875 29.316406 113.875 L 25.453125 111.128906 L 21.328125 107.632812 C 21.304688 107.613281 21.289062 107.589844 21.28125 107.5625 L 19.800781 103.496094 C 19.800781 103.488281 19.796875 103.484375 19.796875 103.476562 L 18.460938 98.238281 C 18.457031 98.207031 18.457031 98.179688 18.460938 98.152344 L 19.816406 93.554688 C 19.824219 93.53125 19.839844 93.507812 19.859375 93.484375 L 23.816406 89.304688 L 24.96875 82.820312 C 24.96875 82.800781 24.972656 82.789062 24.984375 82.773438 L 28.476562 75.9375 C 28.480469 75.925781 28.492188 75.914062 28.5 75.902344 L 34.101562 69.667969 C 34.113281 69.65625 34.117188 69.652344 34.128906 69.640625 L 41.566406 64.667969 C 41.589844 64.65625 41.609375 64.644531 41.636719 64.640625 L 45.757812 64.023438 L 53.871094 60.851562 C 53.882812 60.84375 53.886719 60.84375 53.898438 60.84375 L 63.128906 59.03125 C 63.136719 59.03125 63.140625 59.03125 63.152344 59.03125 L 73.167969 58.410156 C 73.21875 58.410156 73.261719 58.429688 73.296875 58.460938 L 74.984375 60.355469 L 84.191406 60.21875 L 93.605469 60.519531 L 102.8125 61.019531 L 104.617188 60.25 C 104.636719 60.242188 104.667969 60.234375 104.691406 60.242188 L 114.617188 61.015625 L 123.738281 61.660156 L 128.742188 62.023438 L 135.714844 61.699219 C 135.722656 61.699219 135.726562 61.699219 135.738281 61.699219 L 141.792969 62.167969 C 141.796875 62.167969 141.804688 62.167969 141.808594 62.167969 L 145.585938 62.917969 C 145.597656 62.917969 145.605469 62.921875 145.617188 62.921875 L 147.0625 63.480469 C 147.070312 63.480469 147.074219 63.488281 147.082031 63.492188 L 148.953125 64.519531 L 151.613281 65.789062 C 151.617188 65.796875 151.628906 65.796875 151.636719 65.800781 L 153.121094 66.804688 C 153.140625 66.816406 153.15625 66.832031 153.167969 66.847656 L 157.15625 73.003906 C 157.167969 73.019531 157.179688 73.042969 157.179688 73.066406 L 158.519531 81.0625 C 158.523438 81.082031 158.523438 81.097656 158.519531 81.121094 L 157.015625 89.652344 C 157.007812 89.667969 157.003906 89.683594 156.996094 89.695312 L 152.894531 97.347656 C 152.882812 97.363281 152.875 97.375 152.859375 97.394531 L 146.800781 102.9375 L 145.980469 103.90625 C 145.964844 103.929688 145.9375 103.945312 145.90625 103.957031 L 139.007812 106.28125 C 138.984375 106.285156 138.960938 106.292969 138.9375 106.285156 L 132.042969 105.496094 C 132.019531 105.496094 131.996094 105.484375 131.972656 105.472656 L 130.441406 104.539062 L 128.257812 104.191406 L 123.636719 104.023438 L 117.507812 104.402344 L 110.097656 105.425781 L 101.71875 107.0625 L 95.34375 108.519531 L 93.457031 108.988281 L 82.710938 111.789062 L 72.238281 114.34375 L 62.535156 116.285156 C 62.511719 116.292969 62.488281 116.292969 62.472656 116.285156 L 58.621094 115.484375 L 48.925781 116.929688 C 48.921875 116.929688 48.914062 116.929688 48.902344 116.929688 Z M 35.195312 115.597656 L 40.996094 116.753906 L 48.886719 116.597656 L 58.253906 115.203125 L 55.210938 112.507812 L 44.527344 114.589844 C 44.519531 114.589844 44.507812 114.589844 44.503906 114.589844 L 35.777344 115.078125 C 35.765625 115.078125 35.75 115.078125 35.738281 115.078125 L 31.429688 114.28125 Z M 59.375 115.304688 L 62.5 115.960938 L 72.171875 114.042969 L 82.628906 111.488281 L 93.378906 108.6875 L 95.269531 108.21875 L 101.65625 106.761719 L 110.050781 105.117188 L 117.480469 104.085938 L 123.636719 103.710938 L 128.289062 103.878906 C 128.292969 103.878906 128.300781 103.878906 128.3125 103.878906 L 130.53125 104.230469 C 130.554688 104.234375 130.570312 104.242188 130.589844 104.253906 L 132.121094 105.1875 L 138.941406 105.96875 L 145.769531 103.667969 L 146.566406 102.726562 C 146.570312 102.71875 146.578125 102.714844 146.582031 102.710938 L 152.628906 97.175781 L 156.710938 89.570312 L 158.203125 81.09375 L 156.875 73.152344 L 152.921875 67.054688 L 151.46875 66.074219 L 148.808594 64.808594 L 146.941406 63.789062 L 145.519531 63.238281 L 141.765625 62.492188 L 135.734375 62.023438 L 128.757812 62.347656 C 128.757812 62.347656 128.75 62.347656 128.75 62.347656 L 127.597656 62.40625 L 117.65625 64.070312 L 106.703125 67.082031 L 108.363281 68.027344 C 108.398438 68.046875 108.425781 68.078125 108.4375 68.121094 L 109.789062 72.183594 C 109.792969 72.195312 109.792969 72.210938 109.792969 72.222656 L 110.261719 78.929688 C 110.261719 78.933594 110.261719 78.9375 110.261719 78.949219 L 109.769531 87.292969 C 109.769531 87.296875 109.769531 87.304688 109.769531 87.308594 L 108.410156 95.660156 C 108.410156 95.667969 108.410156 95.671875 108.402344 95.683594 L 106.40625 102.382812 C 106.390625 102.433594 106.347656 102.480469 106.292969 102.492188 L 94.191406 105.867188 L 81.824219 109.535156 L 69.796875 112.894531 Z M 55.253906 112.171875 C 55.296875 112.171875 55.335938 112.191406 55.363281 112.210938 L 58.671875 115.136719 L 69.714844 112.578125 L 81.738281 109.210938 L 94.105469 105.539062 L 106.125 102.191406 L 108.09375 95.585938 L 109.449219 87.25 L 109.941406 78.929688 L 109.472656 72.257812 L 108.144531 68.273438 L 106.261719 67.203125 L 94.15625 71.601562 L 81.726562 76.90625 L 69.648438 82.476562 L 68.113281 83.109375 L 62.339844 85.535156 L 53.789062 88.613281 C 53.785156 88.613281 53.78125 88.621094 53.769531 88.621094 L 46.78125 90.167969 C 46.765625 90.175781 46.753906 90.175781 46.734375 90.175781 L 41.546875 89.902344 C 41.515625 89.902344 41.488281 89.890625 41.464844 89.871094 L 38.300781 87.816406 L 31.347656 90.636719 L 25.398438 94.722656 L 21.449219 99.152344 L 20.132812 103.382812 L 24.160156 106.566406 C 24.183594 106.582031 24.203125 106.613281 24.210938 106.640625 L 25.613281 110.46875 L 29.449219 113.585938 L 35.765625 114.757812 L 44.457031 114.269531 L 55.210938 112.179688 C 55.234375 112.171875 55.246094 112.171875 55.253906 112.171875 Z M 21.574219 107.414062 L 25.328125 110.605469 L 23.933594 106.792969 L 20.304688 103.921875 Z M 18.789062 98.203125 L 19.972656 102.839844 L 21.15625 99.023438 C 21.164062 99 21.175781 98.984375 21.191406 98.964844 L 25.175781 94.492188 C 25.183594 94.480469 25.191406 94.476562 25.203125 94.464844 L 31.183594 90.355469 C 31.195312 90.351562 31.207031 90.34375 31.210938 90.339844 L 38.261719 87.480469 C 38.3125 87.457031 38.371094 87.460938 38.410156 87.496094 L 41.609375 89.578125 L 46.730469 89.851562 L 53.6875 88.3125 L 62.21875 85.242188 L 67.980469 82.820312 L 69.507812 82.1875 L 69.925781 82.003906 L 81.589844 76.621094 L 94.035156 71.308594 L 106.222656 66.882812 C 106.234375 66.878906 106.242188 66.878906 106.253906 66.878906 L 117.570312 63.761719 C 117.578125 63.761719 117.582031 63.761719 117.585938 63.753906 L 117.667969 63.746094 L 126.789062 62.21875 L 123.714844 61.996094 L 114.601562 61.339844 L 104.707031 60.566406 L 102.90625 61.335938 C 102.882812 61.34375 102.851562 61.34375 102.832031 61.34375 L 93.589844 60.851562 L 84.179688 60.546875 L 74.90625 60.691406 C 74.859375 60.691406 74.8125 60.671875 74.78125 60.632812 L 73.09375 58.746094 L 63.167969 59.363281 L 53.960938 61.167969 L 45.847656 64.34375 C 45.835938 64.347656 45.824219 64.347656 45.8125 64.355469 L 41.710938 64.96875 L 34.324219 69.910156 L 28.75 76.109375 L 25.277344 82.90625 L 24.125 89.410156 C 24.121094 89.441406 24.105469 89.472656 24.085938 89.496094 L 20.121094 93.691406 Z M 18.789062 98.203125 " fill-opacity="1" fill-rule="nonzero"/></g><path fill="rgb(90.979004%, 90.979004%, 90.979004%)" d="M 63.386719 85.085938 C 63.308594 85.085938 63.238281 85.03125 63.226562 84.949219 L 62.890625 82.773438 L 59.972656 75.980469 L 55.667969 70.222656 L 50.648438 66.183594 C 50.582031 66.125 50.570312 66.023438 50.625 65.953125 C 50.683594 65.886719 50.785156 65.875 50.855469 65.933594 L 55.890625 69.984375 C 55.902344 69.996094 55.914062 70 55.917969 70.011719 L 60.246094 75.804688 C 60.25 75.816406 60.257812 75.828125 60.261719 75.839844 L 63.191406 82.664062 C 63.199219 82.675781 63.203125 82.695312 63.203125 82.707031 L 63.542969 84.90625 C 63.554688 84.996094 63.496094 85.074219 63.402344 85.085938 C 63.402344 85.085938 63.394531 85.085938 63.386719 85.085938 Z M 63.386719 85.085938 " fill-opacity="1" fill-rule="nonzero"/><path fill="rgb(90.979004%, 90.979004%, 90.979004%)" d="M 68.050781 83.125 C 67.96875 83.125 67.894531 83.0625 67.890625 82.984375 L 67.65625 81.0625 L 65.292969 73.929688 L 61.820312 67.742188 L 57.800781 63.316406 L 53.886719 61.179688 L 50.648438 61.597656 L 41.710938 64.964844 C 41.625 64.996094 41.535156 64.953125 41.5 64.867188 C 41.464844 64.78125 41.511719 64.691406 41.597656 64.65625 L 50.550781 61.28125 C 50.5625 61.277344 50.574219 61.277344 50.585938 61.273438 L 53.898438 60.84375 C 53.933594 60.839844 53.96875 60.84375 53.996094 60.863281 L 57.972656 63.039062 C 57.992188 63.050781 58.003906 63.0625 58.015625 63.070312 L 62.066406 67.53125 C 62.070312 67.542969 62.082031 67.550781 62.089844 67.5625 L 65.578125 73.773438 C 65.585938 73.78125 65.589844 73.789062 65.589844 73.800781 L 67.960938 80.96875 C 67.964844 80.980469 67.964844 80.992188 67.964844 80.996094 L 68.199219 82.933594 C 68.210938 83.023438 68.148438 83.105469 68.054688 83.117188 C 68.0625 83.125 68.054688 83.125 68.050781 83.125 Z M 68.050781 83.125 " fill-opacity="1" fill-rule="nonzero"/><path fill="rgb(90.979004%, 90.979004%, 90.979004%)" d="M 93.429688 109.003906 C 93.417969 109.003906 93.40625 109.003906 93.394531 109 C 93.308594 108.976562 93.25 108.890625 93.273438 108.804688 L 93.996094 105.671875 L 94.617188 99.820312 L 95.035156 92.179688 L 95.179688 84.230469 L 95.019531 77.53125 L 94.585938 73.179688 L 93.953125 71.515625 C 93.921875 71.429688 93.964844 71.339844 94.050781 71.304688 C 94.136719 71.269531 94.230469 71.316406 94.265625 71.402344 L 94.898438 73.089844 C 94.90625 73.097656 94.90625 73.117188 94.910156 73.128906 L 95.34375 77.515625 L 95.503906 84.238281 L 95.363281 92.195312 L 94.945312 99.847656 L 94.320312 105.722656 C 94.320312 105.730469 94.320312 105.734375 94.316406 105.738281 L 93.589844 108.886719 C 93.566406 108.953125 93.503906 109.003906 93.429688 109.003906 Z M 93.429688 109.003906 " fill-opacity="1" fill-rule="nonzero"/><path fill="rgb(90.979004%, 90.979004%, 90.979004%)" d="M 139.585938 105.644531 C 139.550781 105.644531 139.515625 105.632812 139.488281 105.609375 L 138.171875 104.644531 L 131.257812 104.667969 C 131.253906 104.667969 131.242188 104.667969 131.230469 104.667969 L 130.472656 104.550781 C 130.382812 104.539062 130.324219 104.453125 130.335938 104.359375 C 130.347656 104.269531 130.433594 104.214844 130.527344 104.222656 L 131.269531 104.34375 L 138.222656 104.320312 C 138.257812 104.320312 138.289062 104.332031 138.320312 104.355469 L 139.675781 105.347656 C 139.75 105.398438 139.761719 105.5 139.710938 105.574219 C 139.679688 105.621094 139.636719 105.644531 139.585938 105.644531 Z M 139.585938 105.644531 " fill-opacity="1" fill-rule="nonzero"/><path fill="rgb(90.979004%, 90.979004%, 90.979004%)" d="M 40.714844 93.558594 C 40.714844 93.558594 40.710938 93.558594 40.710938 93.558594 L 34.867188 93.269531 C 34.832031 93.269531 34.804688 93.257812 34.78125 93.238281 L 31.1875 90.628906 C 31.160156 90.609375 31.136719 90.578125 31.125 90.546875 L 29.832031 86.019531 C 29.824219 86 29.824219 85.976562 29.824219 85.945312 L 30.789062 80.242188 C 30.792969 80.226562 30.792969 80.210938 30.804688 80.199219 L 33.898438 74.183594 C 33.90625 74.171875 33.917969 74.160156 33.921875 74.148438 L 38.953125 68.597656 C 38.992188 68.554688 39.050781 68.535156 39.109375 68.546875 L 44.902344 69.761719 C 44.921875 69.765625 44.9375 69.773438 44.949219 69.777344 L 50.820312 73.128906 C 50.832031 73.132812 50.84375 73.144531 50.855469 73.15625 L 55.886719 78.324219 C 55.898438 78.335938 55.902344 78.347656 55.914062 78.359375 L 59.3125 84.726562 C 59.320312 84.746094 59.324219 84.757812 59.328125 84.773438 L 59.628906 86.367188 C 59.644531 86.453125 59.585938 86.539062 59.496094 86.558594 C 59.410156 86.574219 59.324219 86.515625 59.308594 86.425781 L 59.015625 84.851562 L 55.640625 78.527344 L 50.636719 73.394531 L 44.8125 70.074219 L 39.128906 68.882812 L 34.175781 74.347656 L 31.101562 80.324219 L 30.148438 85.964844 L 31.410156 90.398438 L 34.917969 92.949219 L 40.691406 93.234375 L 48.59375 91.230469 L 58.335938 87.324219 L 59.484375 86.75 L 63.351562 85.019531 L 69.5 82.199219 C 69.578125 82.160156 69.675781 82.199219 69.714844 82.277344 C 69.753906 82.359375 69.714844 82.453125 69.636719 82.496094 L 63.488281 85.316406 L 59.628906 87.042969 L 58.472656 87.617188 L 48.710938 91.53125 C 48.703125 91.53125 48.699219 91.535156 48.6875 91.535156 L 40.753906 93.554688 C 40.738281 93.554688 40.726562 93.558594 40.714844 93.558594 Z M 40.714844 93.558594 " fill-opacity="1" fill-rule="nonzero"/><path fill="rgb(90.979004%, 90.979004%, 90.979004%)" d="M 136.460938 106.382812 C 136.453125 106.382812 136.441406 106.382812 136.4375 106.382812 L 131.691406 105.746094 L 130.101562 105.550781 L 126.382812 105.003906 C 126.355469 105 126.332031 104.992188 126.308594 104.976562 L 125.027344 104.054688 C 124.953125 104.003906 124.933594 103.898438 124.992188 103.824219 C 125.042969 103.75 125.148438 103.734375 125.222656 103.792969 L 126.46875 104.691406 L 130.140625 105.226562 L 131.726562 105.421875 L 136.476562 106.058594 C 136.570312 106.070312 136.632812 106.148438 136.613281 106.242188 C 136.613281 106.328125 136.546875 106.382812 136.460938 106.382812 Z M 136.460938 106.382812 " fill-opacity="1" fill-rule="nonzero"/><path fill="rgb(90.979004%, 90.979004%, 90.979004%)" d="M 145.859375 103.960938 C 145.816406 103.960938 145.777344 103.945312 145.742188 103.910156 C 145.679688 103.84375 145.683594 103.738281 145.753906 103.683594 L 151.625 98.316406 L 152.636719 97.171875 C 152.695312 97.101562 152.796875 97.097656 152.867188 97.152344 C 152.933594 97.210938 152.941406 97.3125 152.882812 97.382812 L 151.863281 98.53125 C 151.859375 98.539062 151.859375 98.542969 151.851562 98.542969 L 145.976562 103.917969 C 145.941406 103.949219 145.902344 103.960938 145.859375 103.960938 Z M 145.859375 103.960938 " fill-opacity="1" fill-rule="nonzero"/><path fill="rgb(90.979004%, 90.979004%, 90.979004%)" d="M 132.515625 105.1875 C 132.496094 105.1875 132.476562 105.183594 132.453125 105.175781 L 131.195312 104.664062 C 131.109375 104.628906 131.074219 104.53125 131.109375 104.453125 C 131.144531 104.367188 131.242188 104.332031 131.320312 104.367188 L 132.578125 104.878906 C 132.664062 104.914062 132.699219 105.011719 132.664062 105.089844 C 132.644531 105.148438 132.578125 105.1875 132.515625 105.1875 Z M 132.515625 105.1875 " fill-opacity="1" fill-rule="nonzero"/><path fill="rgb(90.979004%, 90.979004%, 90.979004%)" d="M 108.082031 66.695312 C 108.058594 66.695312 108.039062 66.691406 108.019531 66.683594 C 107.941406 66.648438 107.898438 66.554688 107.933594 66.472656 L 108.449219 65.265625 C 108.484375 65.1875 108.582031 65.144531 108.660156 65.179688 C 108.742188 65.214844 108.78125 65.3125 108.746094 65.390625 L 108.230469 66.597656 C 108.210938 66.65625 108.144531 66.695312 108.082031 66.695312 Z M 108.082031 66.695312 " fill-opacity="1" fill-rule="nonzero"/><path fill="rgb(90.979004%, 90.979004%, 90.979004%)" d="M 92.308594 72.382812 C 92.308594 72.382812 92.300781 72.382812 92.300781 72.382812 C 92.210938 72.375 92.140625 72.300781 92.148438 72.210938 L 92.210938 70.980469 L 92.777344 64.679688 L 93.441406 60.660156 C 93.445312 60.644531 93.453125 60.621094 93.457031 60.605469 L 94.109375 59.464844 C 94.15625 59.386719 94.253906 59.363281 94.332031 59.402344 C 94.414062 59.449219 94.4375 59.546875 94.394531 59.625 L 93.753906 60.742188 L 93.097656 64.71875 L 92.53125 70.996094 L 92.46875 72.222656 C 92.46875 72.3125 92.394531 72.382812 92.308594 72.382812 Z M 92.308594 72.382812 " fill-opacity="1" fill-rule="nonzero"/><path fill="rgb(90.979004%, 90.979004%, 90.979004%)" d="M 73.367188 80.757812 C 73.28125 80.757812 73.210938 80.695312 73.207031 80.609375 L 73.136719 79.8125 L 71.398438 72.445312 L 68.855469 66.046875 L 65.925781 61.492188 L 63.054688 59.328125 C 62.980469 59.273438 62.96875 59.175781 63.027344 59.101562 C 63.078125 59.03125 63.179688 59.015625 63.253906 59.074219 L 66.152344 61.253906 C 66.167969 61.265625 66.179688 61.28125 66.191406 61.292969 L 69.144531 65.878906 C 69.148438 65.890625 69.15625 65.898438 69.160156 65.910156 L 71.710938 72.332031 C 71.71875 72.335938 71.71875 72.347656 71.71875 72.351562 L 73.457031 79.738281 C 73.457031 79.742188 73.464844 79.753906 73.464844 79.757812 L 73.53125 80.570312 C 73.539062 80.660156 73.476562 80.734375 73.382812 80.746094 C 73.371094 80.757812 73.371094 80.757812 73.367188 80.757812 Z M 73.367188 80.757812 " fill-opacity="1" fill-rule="nonzero"/><path fill="rgb(90.979004%, 90.979004%, 90.979004%)" d="M 55.976562 87.820312 C 55.941406 87.820312 55.914062 87.808594 55.886719 87.792969 C 55.8125 87.742188 55.792969 87.640625 55.84375 87.566406 L 56.222656 87.023438 C 56.234375 87.011719 56.238281 87 56.25 86.988281 L 59.074219 84.675781 C 59.078125 84.671875 59.089844 84.664062 59.101562 84.660156 L 62.976562 82.578125 C 62.980469 82.574219 62.992188 82.574219 62.996094 82.570312 L 67.765625 80.871094 C 67.769531 80.871094 67.777344 80.863281 67.78125 80.863281 L 73.261719 79.617188 L 75.832031 79.28125 C 75.925781 79.269531 76.003906 79.332031 76.015625 79.421875 C 76.027344 79.515625 75.964844 79.59375 75.871094 79.605469 L 73.320312 79.941406 L 67.867188 81.183594 L 63.125 82.875 L 59.277344 84.9375 L 56.484375 87.222656 L 56.121094 87.746094 C 56.078125 87.796875 56.027344 87.820312 55.976562 87.820312 Z M 55.976562 87.820312 " fill-opacity="1" fill-rule="nonzero"/><path fill="rgb(90.979004%, 90.979004%, 90.979004%)" d="M 56.433594 87.65625 C 56.359375 87.65625 56.292969 87.605469 56.273438 87.523438 L 56.199219 87.179688 L 52.476562 81.402344 L 46.945312 77.066406 L 40.476562 74.695312 L 34.066406 74.414062 L 28.703125 76.160156 L 25.15625 79.800781 C 25.09375 79.863281 24.992188 79.867188 24.929688 79.804688 C 24.863281 79.742188 24.859375 79.640625 24.921875 79.578125 L 28.5 75.910156 C 28.515625 75.890625 28.539062 75.875 28.566406 75.867188 L 33.992188 74.101562 C 34.007812 74.097656 34.03125 74.089844 34.050781 74.097656 L 40.515625 74.375 C 40.53125 74.375 40.550781 74.382812 40.566406 74.386719 L 47.085938 76.773438 C 47.101562 76.78125 47.113281 76.792969 47.128906 76.796875 L 52.703125 81.167969 C 52.722656 81.179688 52.730469 81.191406 52.738281 81.207031 L 56.496094 87.035156 C 56.507812 87.050781 56.515625 87.070312 56.519531 87.085938 L 56.601562 87.460938 C 56.617188 87.546875 56.558594 87.640625 56.472656 87.65625 C 56.457031 87.65625 56.445312 87.65625 56.433594 87.65625 Z M 56.433594 87.65625 " fill-opacity="1" fill-rule="nonzero"/><path fill="rgb(90.979004%, 90.979004%, 90.979004%)" d="M 95.316406 108.539062 C 95.242188 108.539062 95.179688 108.484375 95.15625 108.414062 C 95.132812 108.328125 95.183594 108.234375 95.277344 108.210938 L 103.910156 106.070312 L 113.726562 104.058594 L 122.382812 102.929688 C 122.390625 102.929688 122.394531 102.929688 122.398438 102.929688 L 129.519531 102.75 C 129.523438 102.75 129.535156 102.75 129.542969 102.75 L 134.867188 103.328125 C 134.878906 103.328125 134.886719 103.335938 134.898438 103.335938 L 138.210938 104.308594 L 145.15625 101.171875 L 151.144531 95.257812 L 155.207031 87.515625 L 156.695312 79.210938 L 155.371094 71.675781 L 151.445312 66.070312 L 147.441406 64.683594 L 140.855469 63.542969 L 131.898438 63.4375 L 120.894531 64.964844 L 108.324219 68.320312 L 94.789062 73.28125 L 80.964844 79.308594 L 67.597656 85.632812 L 66.207031 90.535156 C 66.195312 90.578125 66.164062 90.617188 66.117188 90.636719 L 52.914062 96.550781 L 41.4375 100.9375 C 41.429688 100.9375 41.417969 100.941406 41.414062 100.941406 L 32.148438 103.066406 C 32.132812 103.074219 32.113281 103.074219 32.097656 103.074219 L 25.355469 102.503906 C 25.324219 102.503906 25.292969 102.488281 25.269531 102.46875 L 21.214844 99.203125 C 21.1875 99.183594 21.167969 99.152344 21.15625 99.121094 L 19.816406 93.648438 C 19.8125 93.628906 19.8125 93.605469 19.816406 93.582031 L 21.109375 86.773438 C 21.117188 86.757812 21.117188 86.746094 21.128906 86.726562 L 24.894531 79.613281 C 24.898438 79.601562 24.910156 79.589844 24.917969 79.578125 L 30.90625 73.089844 L 34.09375 69.675781 C 34.117188 69.652344 34.144531 69.636719 34.179688 69.628906 L 39.003906 68.558594 L 45.699219 64.0625 C 45.746094 64.035156 45.796875 64.027344 45.847656 64.046875 L 50.746094 65.886719 L 57.835938 63.042969 C 57.84375 63.039062 57.855469 63.039062 57.859375 63.039062 L 66.007812 61.230469 C 66.011719 61.230469 66.019531 61.230469 66.023438 61.226562 L 74.882812 60.367188 C 74.972656 60.359375 75.054688 60.421875 75.058594 60.515625 C 75.070312 60.605469 75.003906 60.683594 74.910156 60.691406 L 66.078125 61.546875 L 57.949219 63.34375 L 50.816406 66.207031 C 50.773438 66.222656 50.734375 66.222656 50.695312 66.207031 L 45.8125 64.375 L 39.164062 68.84375 C 39.148438 68.855469 39.128906 68.859375 39.109375 68.867188 L 34.300781 69.9375 L 31.148438 73.316406 L 25.175781 79.789062 L 21.425781 86.863281 L 20.136719 93.609375 L 21.453125 98.988281 L 25.429688 102.183594 L 32.097656 102.75 L 41.328125 100.628906 L 52.785156 96.253906 L 65.917969 90.375 L 67.300781 85.472656 C 67.3125 85.429688 67.347656 85.394531 67.386719 85.371094 L 80.824219 79.023438 L 94.671875 72.984375 L 108.226562 68.011719 L 120.820312 64.644531 C 120.828125 64.644531 120.832031 64.640625 120.839844 64.640625 L 131.859375 63.113281 C 131.863281 63.113281 131.871094 63.113281 131.882812 63.113281 L 140.859375 63.21875 C 140.871094 63.21875 140.878906 63.21875 140.890625 63.21875 L 147.503906 64.367188 C 147.515625 64.367188 147.519531 64.371094 147.527344 64.371094 L 151.59375 65.777344 C 151.628906 65.789062 151.65625 65.8125 151.675781 65.839844 L 155.652344 71.515625 C 155.664062 71.53125 155.675781 71.554688 155.679688 71.578125 L 157.019531 79.183594 C 157.023438 79.203125 157.023438 79.222656 157.019531 79.242188 L 155.519531 87.59375 C 155.515625 87.609375 155.515625 87.628906 155.503906 87.640625 L 151.417969 95.425781 C 151.410156 95.445312 151.402344 95.457031 151.390625 95.46875 L 145.363281 101.421875 C 145.351562 101.433594 145.335938 101.445312 145.316406 101.457031 L 138.289062 104.628906 C 138.257812 104.644531 138.214844 104.644531 138.175781 104.632812 L 134.816406 103.648438 L 129.519531 103.074219 L 122.417969 103.257812 L 113.777344 104.378906 L 103.980469 106.382812 L 95.351562 108.527344 C 95.34375 108.53125 95.328125 108.539062 95.316406 108.539062 Z M 95.316406 108.539062 " fill-opacity="1" fill-rule="nonzero"/><path fill="rgb(90.979004%, 90.979004%, 90.979004%)" d="M 139.585938 105.644531 C 139.578125 105.644531 139.578125 105.644531 139.574219 105.644531 L 132.5625 105.191406 L 132.15625 105.476562 C 132.128906 105.496094 132.09375 105.507812 132.058594 105.507812 L 129.980469 105.464844 C 129.953125 105.464844 129.917969 105.457031 129.894531 105.4375 L 127.980469 104.160156 C 127.90625 104.109375 127.882812 104.015625 127.933594 103.933594 C 127.984375 103.859375 128.082031 103.835938 128.164062 103.886719 L 130.039062 105.136719 L 132.019531 105.175781 L 132.425781 104.890625 C 132.453125 104.867188 132.496094 104.863281 132.527344 104.863281 L 139.59375 105.320312 C 139.6875 105.324219 139.753906 105.402344 139.75 105.488281 C 139.746094 105.574219 139.667969 105.644531 139.585938 105.644531 Z M 139.585938 105.644531 " fill-opacity="1" fill-rule="nonzero"/><path fill="rgb(90.979004%, 90.979004%, 90.979004%)" d="M 50.609375 61.597656 C 50.527344 61.597656 50.460938 61.539062 50.449219 61.460938 C 50.433594 61.375 50.496094 61.289062 50.582031 61.273438 L 59.445312 59.757812 C 59.53125 59.738281 59.617188 59.800781 59.632812 59.886719 C 59.648438 59.972656 59.585938 60.058594 59.5 60.074219 L 50.636719 61.589844 C 50.632812 61.597656 50.621094 61.597656 50.609375 61.597656 Z M 50.609375 61.597656 " fill-opacity="1" fill-rule="nonzero"/><path fill="rgb(90.979004%, 90.979004%, 90.979004%)" d="M 51.949219 89.023438 C 51.941406 89.023438 51.941406 89.023438 51.9375 89.023438 L 48.207031 88.777344 C 48.183594 88.777344 48.15625 88.765625 48.136719 88.757812 L 45.28125 87.121094 C 45.253906 87.105469 45.222656 87.074219 45.214844 87.042969 L 44.082031 84.285156 C 44.070312 84.253906 44.0625 84.226562 44.070312 84.199219 L 44.648438 80.695312 C 44.652344 80.675781 44.65625 80.652344 44.664062 80.636719 L 46.878906 76.835938 C 46.882812 76.824219 46.894531 76.8125 46.90625 76.804688 L 50.625 73.152344 C 50.632812 73.144531 50.644531 73.132812 50.65625 73.128906 L 55.703125 69.964844 C 55.707031 69.960938 55.71875 69.953125 55.730469 69.953125 L 61.894531 67.5 C 61.898438 67.492188 61.910156 67.492188 61.917969 67.492188 L 68.964844 65.8125 C 68.972656 65.8125 68.976562 65.8125 68.984375 65.808594 L 76.667969 64.855469 L 84.746094 64.492188 L 92.9375 64.53125 L 100.976562 64.796875 L 108.53125 65.15625 L 111.511719 61.609375 C 111.535156 61.578125 111.566406 61.554688 111.609375 61.550781 L 114.589844 61.015625 C 114.679688 61 114.761719 61.054688 114.777344 61.144531 C 114.796875 61.230469 114.734375 61.316406 114.648438 61.335938 L 111.722656 61.859375 L 108.730469 65.425781 C 108.695312 65.464844 108.648438 65.488281 108.597656 65.480469 L 100.96875 65.117188 L 92.9375 64.847656 L 84.757812 64.808594 L 76.703125 65.175781 L 69.035156 66.125 L 62.003906 67.800781 L 55.863281 70.25 L 50.84375 73.394531 L 47.152344 77.019531 L 44.96875 80.773438 L 44.402344 84.203125 L 45.492188 86.871094 L 48.261719 88.460938 L 51.953125 88.699219 C 52.046875 88.703125 52.113281 88.785156 52.109375 88.871094 C 52.101562 88.957031 52.035156 89.023438 51.949219 89.023438 Z M 51.949219 89.023438 " fill-opacity="1" fill-rule="nonzero"/></svg>