<svg xmlns="http://www.w3.org/2000/svg" xmlns:xlink="http://www.w3.org/1999/xlink" width="700" zoomAndPan="magnify" viewBox="0 0 525 396.749985" height="529" preserveAspectRatio="xMidYMid meet" version="1.0"><defs><clipPath id="id1"><path d="M 223 123.210938 L 304 123.210938 L 304 129 L 223 129 Z M 223 123.210938 " clip-rule="nonzero"/></clipPath><clipPath id="id2"><path d="M 116 183 L 216 183 L 216 273.117188 L 116 273.117188 Z M 116 183 " clip-rule="nonzero"/></clipPath><clipPath id="id3"><path d="M 84.71875 176 L 176 176 L 176 225 L 84.71875 225 Z M 84.71875 176 " clip-rule="nonzero"/></clipPath><clipPath id="id4"><path d="M 140 199 L 176 199 L 176 273.117188 L 140 273.117188 Z M 140 199 " clip-rule="nonzero"/></clipPath><clipPath id="id5"><path d="M 249 123.210938 L 256 123.210938 L 256 167 L 249 167 Z M 249 123.210938 " clip-rule="nonzero"/></clipPath><clipPath id="id6"><path d="M 98 162 L 439.996094 162 L 439.996094 249 L 98 249 Z M 98 162 " clip-rule="nonzero"/></clipPath><clipPath id="id7"><path d="M 84.71875 123.210938 L 439.996094 123.210938 L 439.996094 273 L 84.71875 273 Z M 84.71875 123.210938 " clip-rule="nonzero"/></clipPath></defs><path fill="rgb(90.979004%, 90.979004%, 90.979004%)" d="M 205.488281 205.230469 C 205.328125 205.230469 205.183594 205.144531 205.109375 204.984375 C 205.007812 204.78125 205.109375 204.535156 205.3125 204.433594 L 241.667969 187.675781 L 279.121094 171.457031 L 315.777344 157.972656 L 349.8125 149 C 349.824219 149 349.855469 148.988281 349.871094 148.988281 L 379.582031 145.40625 C 379.609375 145.40625 379.625 145.40625 379.652344 145.40625 L 403.78125 146.738281 C 403.8125 146.738281 403.839844 146.738281 403.855469 146.753906 L 421.53125 151.234375 C 421.5625 151.234375 421.589844 151.246094 421.605469 151.261719 L 432.378906 156.4375 C 432.421875 156.453125 432.449219 156.480469 432.492188 156.511719 L 436.292969 160.277344 C 436.453125 160.4375 436.453125 160.699219 436.292969 160.859375 C 436.132812 161.019531 435.871094 161.019531 435.714844 160.859375 L 431.957031 157.132812 L 421.285156 152 L 403.679688 147.550781 L 379.625 146.21875 L 349.972656 149.796875 L 315.996094 158.757812 L 279.398438 172.222656 L 241.96875 188.429688 L 205.632812 205.1875 C 205.601562 205.21875 205.546875 205.230469 205.488281 205.230469 Z M 205.488281 205.230469 " fill-opacity="1" fill-rule="nonzero"/><path fill="rgb(90.979004%, 90.979004%, 90.979004%)" d="M 178.125 260.824219 C 177.949219 260.824219 177.777344 260.710938 177.734375 260.519531 C 177.675781 260.304688 177.804688 260.070312 178.023438 260.011719 L 209.328125 251.226562 L 243.246094 240.09375 L 278.148438 228.207031 L 312.3125 217.496094 L 344.054688 209.8125 C 344.070312 209.8125 344.082031 209.8125 344.097656 209.796875 L 371.882812 206.347656 C 371.910156 206.347656 371.925781 206.347656 371.953125 206.347656 L 394.589844 207.21875 C 394.617188 207.21875 394.648438 207.21875 394.675781 207.230469 L 411.335938 211.335938 C 411.367188 211.347656 411.410156 211.347656 411.4375 211.378906 L 421.675781 216.84375 C 421.734375 216.871094 421.777344 216.914062 421.808594 216.960938 L 425.535156 221.84375 C 425.679688 222.019531 425.636719 222.28125 425.460938 222.425781 C 425.273438 222.570312 425.027344 222.527344 424.882812 222.351562 L 421.199219 217.539062 L 411.078125 212.148438 L 394.503906 208.058594 L 371.941406 207.1875 L 344.214844 210.625 L 312.515625 218.292969 L 278.382812 228.992188 L 243.492188 240.878906 L 209.5625 252.011719 L 178.226562 260.796875 C 178.195312 260.824219 178.152344 260.824219 178.125 260.824219 Z M 178.125 260.824219 " fill-opacity="1" fill-rule="nonzero"/><g clip-path="url(#id1)"><path fill="rgb(90.979004%, 90.979004%, 90.979004%)" d="M 303.367188 128.691406 C 303.351562 128.691406 303.335938 128.691406 303.335938 128.691406 L 276.917969 126.515625 L 250.03125 124.675781 L 223.511719 124.054688 C 223.277344 124.054688 223.105469 123.863281 223.105469 123.632812 C 223.105469 123.402344 223.292969 123.226562 223.527344 123.226562 L 250.0625 123.851562 L 276.976562 125.691406 L 303.410156 127.867188 C 303.640625 127.878906 303.800781 128.082031 303.785156 128.316406 C 303.773438 128.53125 303.582031 128.691406 303.367188 128.691406 Z M 303.367188 128.691406 " fill-opacity="1" fill-rule="nonzero"/></g><path fill="rgb(90.979004%, 90.979004%, 90.979004%)" d="M 356.265625 134.230469 C 356.25 134.230469 356.25 134.230469 356.234375 134.230469 L 341.371094 133.257812 L 320.96875 132.027344 L 298.695312 130.691406 C 298.464844 130.679688 298.289062 130.488281 298.304688 130.257812 C 298.320312 130.027344 298.523438 129.867188 298.742188 129.867188 L 321.011719 131.199219 L 341.414062 132.433594 L 356.277344 133.402344 C 356.511719 133.417969 356.683594 133.621094 356.671875 133.839844 C 356.65625 134.054688 356.480469 134.230469 356.265625 134.230469 Z M 356.265625 134.230469 " fill-opacity="1" fill-rule="nonzero"/><g clip-path="url(#id2)"><path fill="rgb(90.979004%, 90.979004%, 90.979004%)" d="M 157.273438 273.117188 L 141.929688 272.480469 C 141.886719 272.480469 141.84375 272.464844 141.800781 272.449219 L 128.589844 267.347656 C 128.546875 267.332031 128.488281 267.304688 128.460938 267.261719 L 119.484375 258.882812 C 119.425781 258.839844 119.398438 258.765625 119.367188 258.707031 L 116.105469 248.269531 C 116.078125 248.199219 116.078125 248.125 116.105469 248.039062 L 119.09375 236.296875 C 119.105469 236.253906 119.121094 236.195312 119.148438 236.167969 L 127.894531 223.730469 C 127.953125 223.640625 128.039062 223.597656 128.125 223.570312 L 150.226562 217.828125 L 177.515625 206.582031 L 208.792969 191.824219 L 214.085938 183.820312 C 214.128906 183.75 214.1875 183.703125 214.261719 183.675781 L 215.320312 183.199219 C 215.519531 183.109375 215.769531 183.199219 215.871094 183.402344 C 215.957031 183.605469 215.871094 183.851562 215.667969 183.953125 L 214.710938 184.371094 L 209.417969 192.375 C 209.375 192.433594 209.316406 192.488281 209.242188 192.519531 L 177.847656 207.332031 L 150.515625 218.597656 C 150.5 218.613281 150.484375 218.613281 150.457031 218.613281 L 128.472656 224.324219 L 119.859375 236.574219 L 116.917969 248.125 L 120.121094 258.347656 L 128.96875 266.59375 L 142.03125 271.640625 L 157.285156 272.261719 L 174.90625 272.234375 L 196.453125 269.609375 C 196.683594 269.582031 196.886719 269.738281 196.917969 269.972656 C 196.945312 270.203125 196.785156 270.40625 196.554688 270.4375 L 174.992188 273.074219 C 174.976562 273.074219 174.964844 273.074219 174.949219 273.074219 Z M 157.273438 273.117188 " fill-opacity="1" fill-rule="nonzero"/></g><path fill="rgb(90.979004%, 90.979004%, 90.979004%)" d="M 383.902344 245.269531 C 383.886719 245.269531 383.875 245.269531 383.84375 245.269531 L 373.171875 243.953125 L 371.78125 243.648438 L 367.414062 242.921875 L 358.367188 241.777344 L 345.851562 239.617188 C 345.636719 239.574219 345.492188 239.355469 345.535156 239.136719 C 345.578125 238.921875 345.796875 238.777344 346.011719 238.820312 L 346.070312 238.835938 L 358.484375 240.964844 L 367.53125 242.109375 L 371.925781 242.835938 L 373.300781 243.140625 L 383.902344 244.457031 L 390.035156 244.226562 L 391.5 242.691406 C 391.542969 242.648438 391.601562 242.601562 391.660156 242.589844 L 409.65625 235.832031 C 409.875 235.761719 410.105469 235.863281 410.191406 236.078125 C 410.277344 236.296875 410.164062 236.527344 409.945312 236.617188 L 392.039062 243.328125 L 390.53125 244.90625 C 390.457031 244.980469 390.355469 245.039062 390.238281 245.039062 L 383.902344 245.285156 C 383.917969 245.269531 383.917969 245.269531 383.902344 245.269531 Z M 383.902344 245.269531 " fill-opacity="1" fill-rule="nonzero"/><path fill="rgb(90.979004%, 90.979004%, 90.979004%)" d="M 98.835938 202.433594 C 98.691406 202.433594 98.546875 202.363281 98.472656 202.230469 C 98.355469 202.027344 98.429688 201.78125 98.632812 201.664062 L 113.886719 192.984375 C 113.914062 192.96875 113.945312 192.953125 113.988281 192.9375 L 132.027344 187.980469 C 132.070312 187.96875 132.113281 187.96875 132.144531 187.96875 L 150.210938 188.488281 C 150.269531 188.488281 150.3125 188.503906 150.371094 188.519531 L 165.710938 195.273438 C 165.800781 195.316406 165.871094 195.390625 165.914062 195.476562 L 168.320312 200.40625 C 168.421875 200.609375 168.335938 200.855469 168.132812 200.957031 C 167.929688 201.058594 167.683594 200.96875 167.582031 200.765625 L 165.234375 195.953125 L 150.09375 189.300781 L 132.171875 188.777344 L 114.25 193.707031 L 99.050781 202.375 C 98.980469 202.417969 98.90625 202.433594 98.835938 202.433594 Z M 98.835938 202.433594 " fill-opacity="1" fill-rule="nonzero"/><path fill="rgb(90.979004%, 90.979004%, 90.979004%)" d="M 128.214844 224.410156 C 128.199219 224.410156 128.199219 224.410156 128.183594 224.410156 L 112 223.4375 C 111.914062 223.4375 111.84375 223.410156 111.769531 223.351562 L 101.9375 215.625 C 101.867188 215.566406 101.820312 215.496094 101.792969 215.410156 L 98.429688 202.128906 C 98.371094 201.914062 98.5 201.679688 98.734375 201.621094 C 98.949219 201.5625 99.183594 201.695312 99.242188 201.925781 L 102.574219 215.058594 L 112.191406 222.628906 L 128.066406 223.585938 L 141.003906 211.929688 C 141.03125 211.914062 141.046875 211.886719 141.074219 211.871094 L 156.375 203.261719 C 156.578125 203.144531 156.824219 203.21875 156.9375 203.417969 C 157.054688 203.621094 156.984375 203.871094 156.78125 203.984375 L 141.523438 212.566406 L 128.503906 224.308594 C 128.417969 224.367188 128.316406 224.410156 128.214844 224.410156 Z M 128.214844 224.410156 " fill-opacity="1" fill-rule="nonzero"/><path fill="rgb(90.979004%, 90.979004%, 90.979004%)" d="M 415.367188 139.535156 C 415.3125 139.535156 415.253906 139.519531 415.195312 139.492188 L 406.785156 135.460938 C 406.582031 135.359375 406.496094 135.113281 406.597656 134.910156 C 406.699219 134.707031 406.945312 134.621094 407.148438 134.722656 L 415.558594 138.753906 C 415.761719 138.855469 415.847656 139.101562 415.746094 139.304688 C 415.671875 139.449219 415.515625 139.535156 415.367188 139.535156 Z M 415.367188 139.535156 " fill-opacity="1" fill-rule="nonzero"/><path fill="rgb(90.979004%, 90.979004%, 90.979004%)" d="M 363.179688 239.703125 C 362.964844 239.703125 362.789062 239.542969 362.773438 239.328125 C 362.761719 239.09375 362.921875 238.90625 363.152344 238.878906 L 379.710938 237.515625 L 396.503906 227.960938 C 396.621094 227.902344 396.75 227.890625 396.867188 227.949219 L 406.347656 232.007812 C 406.40625 232.035156 406.449219 232.066406 406.496094 232.109375 L 410.121094 235.964844 C 410.277344 236.125 410.265625 236.382812 410.105469 236.542969 C 409.945312 236.703125 409.683594 236.6875 409.523438 236.53125 L 405.957031 232.730469 L 396.734375 228.789062 L 380.046875 238.296875 C 379.988281 238.328125 379.929688 238.339844 379.871094 238.355469 L 363.226562 239.734375 C 363.210938 239.703125 363.195312 239.703125 363.179688 239.703125 Z M 363.179688 239.703125 " fill-opacity="1" fill-rule="nonzero"/><path fill="rgb(90.979004%, 90.979004%, 90.979004%)" d="M 238.648438 173.28125 C 238.445312 173.28125 238.273438 173.136719 238.242188 172.917969 L 235.953125 156.539062 L 232.050781 140.144531 L 227.542969 128.734375 C 227.457031 128.519531 227.558594 128.285156 227.773438 128.199219 C 227.992188 128.113281 228.222656 128.214844 228.3125 128.429688 L 232.820312 139.867188 C 232.820312 139.882812 232.835938 139.910156 232.835938 139.925781 L 236.75 156.378906 L 239.054688 172.789062 C 239.085938 173.019531 238.925781 173.222656 238.707031 173.253906 C 238.695312 173.269531 238.664062 173.28125 238.648438 173.28125 Z M 238.648438 173.28125 " fill-opacity="1" fill-rule="nonzero"/><path fill="rgb(90.979004%, 90.979004%, 90.979004%)" d="M 351.449219 239.285156 C 351.246094 239.285156 351.074219 239.136719 351.042969 238.9375 C 351 238.703125 351.160156 238.5 351.390625 238.457031 L 366.183594 236.035156 L 381.25 225.191406 C 381.335938 225.121094 381.453125 225.105469 381.566406 225.121094 L 396.5625 227.847656 L 410.886719 211.523438 L 420.707031 190.980469 L 424.300781 169.949219 L 421.066406 151.800781 L 411.570312 139.128906 L 397.242188 133.5625 C 397.027344 133.476562 396.925781 133.242188 397.011719 133.027344 C 397.097656 132.808594 397.332031 132.707031 397.546875 132.792969 L 411.976562 138.40625 C 412.046875 138.433594 412.105469 138.476562 412.148438 138.535156 L 421.761719 151.378906 C 421.808594 151.4375 421.820312 151.496094 421.835938 151.550781 L 425.097656 169.875 C 425.113281 169.917969 425.113281 169.976562 425.097656 170.019531 L 421.488281 191.183594 C 421.488281 191.230469 421.472656 191.257812 421.460938 191.285156 L 411.585938 211.929688 C 411.570312 211.957031 411.539062 212 411.527344 212.03125 L 397.011719 228.585938 C 396.910156 228.703125 396.765625 228.746094 396.621094 228.714844 L 381.566406 225.976562 L 366.558594 236.777344 C 366.5 236.820312 366.445312 236.832031 366.386719 236.847656 L 351.492188 239.285156 C 351.492188 239.285156 351.464844 239.285156 351.449219 239.285156 Z M 351.449219 239.285156 " fill-opacity="1" fill-rule="nonzero"/><path fill="rgb(90.979004%, 90.979004%, 90.979004%)" d="M 166.582031 200.898438 C 166.539062 200.898438 166.496094 200.898438 166.453125 200.867188 L 153.007812 196.332031 L 135.261719 197.984375 C 135.027344 198 134.824219 197.839844 134.8125 197.605469 C 134.796875 197.375 134.957031 197.171875 135.1875 197.15625 L 153.023438 195.492188 C 153.082031 195.492188 153.140625 195.492188 153.199219 195.503906 L 166.726562 200.070312 C 166.945312 200.144531 167.058594 200.375 166.988281 200.59375 C 166.914062 200.78125 166.757812 200.898438 166.582031 200.898438 Z M 166.582031 200.898438 " fill-opacity="1" fill-rule="nonzero"/><path fill="rgb(90.979004%, 90.979004%, 90.979004%)" d="M 335.875 240.242188 C 335.6875 240.242188 335.515625 240.109375 335.46875 239.921875 C 335.414062 239.703125 335.558594 239.472656 335.773438 239.429688 L 348.085938 236.53125 L 360.671875 225.089844 C 360.746094 225.019531 360.847656 224.992188 360.949219 224.992188 L 381.261719 225.136719 L 394.183594 207.464844 L 403.058594 185.910156 L 406.292969 164.65625 L 403.363281 147.320312 L 394.808594 136.230469 L 381.929688 132.386719 C 381.714844 132.316406 381.582031 132.097656 381.65625 131.882812 C 381.714844 131.664062 381.945312 131.53125 382.164062 131.605469 L 395.167969 135.492188 C 395.257812 135.519531 395.328125 135.5625 395.371094 135.636719 L 404.074219 146.914062 C 404.117188 146.972656 404.144531 147.03125 404.160156 147.101562 L 407.117188 164.613281 C 407.132812 164.65625 407.132812 164.699219 407.117188 164.742188 L 403.855469 186.113281 C 403.855469 186.140625 403.839844 186.167969 403.828125 186.214844 L 394.921875 207.855469 C 394.910156 207.882812 394.894531 207.914062 394.878906 207.941406 L 381.800781 225.816406 C 381.726562 225.917969 381.597656 225.992188 381.464844 225.992188 L 361.109375 225.84375 L 348.566406 237.253906 C 348.507812 237.296875 348.449219 237.339844 348.375 237.355469 L 335.964844 240.285156 C 335.933594 240.242188 335.90625 240.242188 335.875 240.242188 Z M 335.875 240.242188 " fill-opacity="1" fill-rule="nonzero"/><g clip-path="url(#id3)"><path fill="rgb(90.979004%, 90.979004%, 90.979004%)" d="M 85.277344 224.859375 C 85.246094 224.859375 85.21875 224.859375 85.191406 224.84375 C 84.972656 224.800781 84.828125 224.585938 84.871094 224.351562 L 88.308594 207.882812 L 91.597656 195.332031 C 91.613281 195.257812 91.65625 195.199219 91.699219 195.140625 L 101.460938 185.097656 C 101.503906 185.054688 101.546875 185.023438 101.589844 185.007812 L 116.351562 178.429688 C 116.394531 178.414062 116.425781 178.398438 116.46875 178.398438 L 133.984375 176.269531 C 134.027344 176.269531 134.070312 176.269531 134.113281 176.269531 L 151.734375 179.53125 C 151.777344 179.542969 151.820312 179.558594 151.863281 179.589844 L 166.871094 188.460938 C 166.914062 188.488281 166.957031 188.519531 166.988281 188.5625 L 175.050781 199.230469 C 175.179688 199.417969 175.152344 199.664062 174.964844 199.808594 C 174.773438 199.941406 174.527344 199.910156 174.382812 199.722656 L 166.378906 189.113281 L 151.5 180.3125 L 134.027344 177.066406 L 116.628906 179.183594 L 101.996094 185.707031 L 92.382812 195.664062 L 89.121094 208.085938 L 85.683594 224.539062 C 85.652344 224.730469 85.480469 224.859375 85.277344 224.859375 Z M 85.277344 224.859375 " fill-opacity="1" fill-rule="nonzero"/></g><path fill="rgb(90.979004%, 90.979004%, 90.979004%)" d="M 178.125 260.824219 C 177.964844 260.824219 177.820312 260.738281 177.746094 260.59375 L 171.902344 248.71875 C 171.890625 248.675781 171.875 248.648438 171.859375 248.605469 L 169.699219 234.382812 C 169.699219 234.339844 169.699219 234.3125 169.699219 234.269531 L 171.597656 219.816406 C 171.597656 219.773438 171.613281 219.742188 171.628906 219.699219 L 177.269531 206.828125 C 177.285156 206.78125 177.3125 206.753906 177.328125 206.726562 L 185.75 196.898438 C 185.78125 196.851562 185.839844 196.824219 185.882812 196.796875 L 188.824219 195.316406 L 195.699219 191.503906 C 195.902344 191.386719 196.148438 191.460938 196.265625 191.664062 C 196.378906 191.867188 196.308594 192.113281 196.105469 192.230469 L 189.21875 196.054688 L 186.332031 197.503906 L 177.992188 207.230469 L 172.398438 220.003906 L 170.511719 234.339844 L 172.65625 248.445312 L 178.472656 260.257812 C 178.574219 260.460938 178.488281 260.710938 178.285156 260.808594 C 178.242188 260.808594 178.183594 260.824219 178.125 260.824219 Z M 178.125 260.824219 " fill-opacity="1" fill-rule="nonzero"/><g clip-path="url(#id4)"><path fill="rgb(90.979004%, 90.979004%, 90.979004%)" d="M 174.917969 273.101562 C 174.90625 273.101562 174.90625 273.101562 174.890625 273.101562 L 161.984375 272.101562 C 161.925781 272.101562 161.871094 272.089844 161.824219 272.058594 L 150.660156 266.117188 C 150.601562 266.085938 150.558594 266.058594 150.53125 266 L 142.902344 256.257812 C 142.859375 256.214844 142.84375 256.15625 142.828125 256.097656 L 140.046875 244.082031 C 140.03125 244.023438 140.03125 243.964844 140.046875 243.90625 L 142.554688 230.949219 C 142.570312 230.90625 142.582031 230.859375 142.597656 230.816406 L 149.992188 218.046875 C 150.007812 218.019531 150.035156 217.988281 150.050781 217.960938 L 161.085938 206.8125 C 161.113281 206.78125 161.144531 206.769531 161.171875 206.738281 L 174.0625 199.316406 C 174.265625 199.203125 174.515625 199.273438 174.628906 199.460938 C 174.746094 199.664062 174.671875 199.910156 174.484375 200.027344 L 161.636719 207.421875 L 150.675781 218.496094 L 143.335938 231.164062 L 140.859375 243.980469 L 143.613281 255.824219 L 151.125 265.421875 L 162.128906 271.292969 L 174.949219 272.292969 C 175.179688 272.304688 175.339844 272.507812 175.324219 272.742188 C 175.3125 272.929688 175.136719 273.101562 174.917969 273.101562 Z M 174.917969 273.101562 " fill-opacity="1" fill-rule="nonzero"/></g><path fill="rgb(90.979004%, 90.979004%, 90.979004%)" d="M 422.125 142.769531 C 422.066406 142.769531 421.996094 142.753906 421.9375 142.722656 L 410.4375 136.882812 C 410.234375 136.78125 410.148438 136.535156 410.265625 136.332031 C 410.367188 136.128906 410.613281 136.042969 410.816406 136.15625 L 422.316406 142 C 422.519531 142.101562 422.605469 142.347656 422.488281 142.550781 C 422.429688 142.679688 422.285156 142.769531 422.125 142.769531 Z M 422.125 142.769531 " fill-opacity="1" fill-rule="nonzero"/><path fill="rgb(90.979004%, 90.979004%, 90.979004%)" d="M 119.757812 259.011719 C 119.746094 259.011719 119.714844 259.011719 119.703125 259.011719 L 102.621094 256.316406 C 102.546875 256.300781 102.488281 256.273438 102.429688 256.246094 L 92.179688 248.472656 C 91.992188 248.328125 91.960938 248.082031 92.105469 247.894531 C 92.238281 247.71875 92.5 247.675781 92.6875 247.820312 L 102.867188 255.535156 L 119.789062 258.203125 L 143.179688 255.605469 L 172.195312 248.140625 L 205.589844 236.789062 L 241.855469 223.019531 L 279.207031 208.753906 L 315.765625 196.246094 L 349.695312 187.574219 C 349.710938 187.574219 349.726562 187.5625 349.753906 187.5625 L 379.378906 184.039062 C 379.40625 184.039062 379.4375 184.039062 379.449219 184.039062 L 403.523438 185.574219 C 403.550781 185.574219 403.578125 185.589844 403.609375 185.589844 L 421.226562 190.691406 C 421.257812 190.707031 421.285156 190.722656 421.3125 190.734375 L 432.042969 197.027344 C 432.089844 197.054688 432.132812 197.097656 432.175781 197.144531 L 435.960938 202.363281 C 436.089844 202.550781 436.046875 202.8125 435.871094 202.941406 C 435.683594 203.070312 435.421875 203.027344 435.292969 202.855469 L 431.566406 197.707031 L 420.953125 191.488281 L 403.421875 186.414062 L 379.4375 184.878906 L 349.871094 188.386719 L 315.996094 197.042969 L 279.484375 209.539062 L 242.144531 223.785156 L 205.863281 237.558594 L 172.425781 248.921875 L 143.335938 256.402344 C 143.324219 256.402344 143.292969 256.417969 143.28125 256.417969 L 119.804688 259.011719 C 119.789062 259.011719 119.773438 259.011719 119.757812 259.011719 Z M 119.757812 259.011719 " fill-opacity="1" fill-rule="nonzero"/><path fill="rgb(90.979004%, 90.979004%, 90.979004%)" d="M 99.097656 246.472656 C 99.050781 246.472656 99.023438 246.472656 98.980469 246.460938 C 98.761719 246.386719 98.632812 246.167969 98.703125 245.953125 L 101.996094 234.863281 C 102.011719 234.804688 102.039062 234.761719 102.070312 234.71875 L 111.710938 222.773438 C 111.726562 222.742188 111.753906 222.730469 111.769531 222.714844 L 126.199219 211.175781 C 126.226562 211.160156 126.242188 211.144531 126.269531 211.132812 L 143.222656 202.566406 C 143.265625 202.550781 143.292969 202.535156 143.335938 202.519531 L 160.203125 199.679688 C 160.417969 199.636719 160.636719 199.796875 160.679688 200.011719 C 160.722656 200.230469 160.5625 200.449219 160.347656 200.492188 L 143.539062 203.332031 L 126.675781 211.855469 L 112.304688 223.335938 L 102.75 235.195312 L 99.472656 246.199219 C 99.445312 246.359375 99.269531 246.472656 99.097656 246.472656 Z M 99.097656 246.472656 " fill-opacity="1" fill-rule="nonzero"/><path fill="rgb(90.979004%, 90.979004%, 90.979004%)" d="M 317.070312 242.863281 C 316.894531 242.863281 316.722656 242.75 316.675781 242.558594 C 316.621094 242.34375 316.734375 242.109375 316.953125 242.050781 L 326.148438 239.398438 L 335.570312 228.308594 C 335.644531 228.238281 335.730469 228.179688 335.832031 228.164062 L 360.703125 225.003906 L 371.535156 206.609375 L 378.988281 184.386719 L 381.714844 162.875 L 379.234375 145.984375 L 372.054688 135.96875 L 361.28125 133.359375 C 361.0625 133.300781 360.917969 133.085938 360.976562 132.867188 C 361.035156 132.648438 361.253906 132.503906 361.46875 132.5625 L 372.390625 135.214844 C 372.492188 135.242188 372.5625 135.300781 372.621094 135.375 L 379.945312 145.59375 C 379.988281 145.652344 380 145.710938 380.015625 145.769531 L 382.523438 162.816406 C 382.523438 162.859375 382.523438 162.886719 382.523438 162.933594 L 379.800781 184.546875 C 379.800781 184.574219 379.785156 184.605469 379.785156 184.632812 L 372.300781 206.941406 C 372.289062 206.972656 372.289062 207 372.273438 207.015625 L 361.3125 225.613281 C 361.253906 225.730469 361.136719 225.800781 361.007812 225.816406 L 336.09375 228.992188 L 326.683594 240.050781 C 326.625 240.109375 326.566406 240.152344 326.480469 240.183594 L 317.171875 242.863281 C 317.140625 242.863281 317.113281 242.863281 317.070312 242.863281 Z M 317.070312 242.863281 " fill-opacity="1" fill-rule="nonzero"/><path fill="rgb(90.979004%, 90.979004%, 90.979004%)" d="M 291.054688 151.523438 C 291.027344 151.523438 290.984375 151.523438 290.953125 151.507812 C 290.734375 151.449219 290.605469 151.234375 290.664062 151 L 293.578125 139.765625 C 293.578125 139.738281 293.59375 139.707031 293.605469 139.695312 L 298.347656 130.097656 C 298.449219 129.894531 298.695312 129.808594 298.898438 129.910156 C 299.101562 130.011719 299.191406 130.257812 299.089844 130.460938 L 294.359375 140.027344 L 291.460938 151.21875 C 291.417969 151.394531 291.242188 151.523438 291.054688 151.523438 Z M 291.054688 151.523438 " fill-opacity="1" fill-rule="nonzero"/><g clip-path="url(#id5)"><path fill="rgb(90.979004%, 90.979004%, 90.979004%)" d="M 254.601562 166.207031 C 254.382812 166.207031 254.195312 166.035156 254.195312 165.816406 L 253.714844 155.410156 L 252.453125 139.128906 L 251.035156 128.328125 L 249.65625 124.402344 C 249.582031 124.183594 249.699219 123.953125 249.917969 123.878906 C 250.132812 123.804688 250.367188 123.921875 250.4375 124.140625 L 251.832031 128.113281 C 251.84375 128.140625 251.84375 128.171875 251.84375 128.199219 L 253.28125 139.070312 L 254.542969 155.378906 L 255.019531 165.800781 C 255.035156 166.035156 254.863281 166.222656 254.628906 166.238281 C 254.613281 166.207031 254.613281 166.207031 254.601562 166.207031 Z M 254.601562 166.207031 " fill-opacity="1" fill-rule="nonzero"/></g><path fill="rgb(90.979004%, 90.979004%, 90.979004%)" d="M 135.21875 197.984375 C 135.042969 197.984375 134.882812 197.882812 134.824219 197.707031 L 131.722656 188.503906 C 131.695312 188.445312 131.695312 188.371094 131.707031 188.300781 L 133.636719 176.632812 C 133.652344 176.585938 133.664062 176.542969 133.679688 176.5 L 140.378906 164.035156 C 140.394531 164.003906 140.421875 163.976562 140.4375 163.945312 L 151.5 152.21875 C 151.53125 152.191406 151.542969 152.175781 151.574219 152.160156 L 166.480469 142.316406 C 166.667969 142.1875 166.929688 142.246094 167.046875 142.433594 C 167.175781 142.621094 167.117188 142.882812 166.929688 143 L 152.066406 152.8125 L 141.074219 164.46875 L 134.433594 176.832031 L 132.535156 188.328125 L 135.609375 197.433594 C 135.679688 197.652344 135.566406 197.882812 135.347656 197.953125 C 135.320312 197.96875 135.261719 197.984375 135.21875 197.984375 Z M 135.21875 197.984375 " fill-opacity="1" fill-rule="nonzero"/><path fill="rgb(90.979004%, 90.979004%, 90.979004%)" d="M 295.8125 247.023438 C 295.636719 247.023438 295.464844 246.910156 295.417969 246.734375 C 295.347656 246.515625 295.476562 246.285156 295.695312 246.210938 L 301.25 244.515625 L 307.003906 234.730469 C 307.0625 234.628906 307.164062 234.558594 307.265625 234.542969 L 335.601562 228.222656 L 343.75 210.089844 L 349.363281 187.921875 L 351.40625 166.367188 L 349.523438 149.539062 L 344.113281 139.839844 L 336.050781 137.59375 C 335.832031 137.535156 335.703125 137.300781 335.761719 137.085938 C 335.820312 136.867188 336.050781 136.738281 336.269531 136.796875 L 344.503906 139.085938 C 344.605469 139.113281 344.707031 139.1875 344.75 139.289062 L 350.289062 149.203125 C 350.320312 149.246094 350.332031 149.304688 350.332031 149.363281 L 352.234375 166.324219 C 352.234375 166.351562 352.234375 166.382812 352.234375 166.410156 L 350.1875 188.054688 C 350.1875 188.070312 350.1875 188.097656 350.175781 188.113281 L 344.546875 210.347656 C 344.546875 210.378906 344.535156 210.394531 344.519531 210.421875 L 336.269531 228.773438 C 336.210938 228.890625 336.109375 228.976562 335.976562 229.003906 L 307.628906 235.339844 L 301.886719 245.109375 C 301.828125 245.199219 301.757812 245.269531 301.65625 245.300781 L 295.941406 247.039062 C 295.898438 247.023438 295.855469 247.023438 295.8125 247.023438 Z M 295.8125 247.023438 " fill-opacity="1" fill-rule="nonzero"/><path fill="rgb(90.979004%, 90.979004%, 90.979004%)" d="M 321.476562 141.664062 C 321.464844 141.664062 321.464844 141.664062 321.449219 141.664062 L 313.269531 141.214844 C 313.039062 141.203125 312.863281 141.011719 312.878906 140.78125 C 312.894531 140.550781 313.082031 140.375 313.3125 140.390625 L 321.492188 140.839844 C 321.722656 140.855469 321.898438 141.042969 321.882812 141.273438 C 321.867188 141.492188 321.695312 141.664062 321.476562 141.664062 Z M 321.476562 141.664062 " fill-opacity="1" fill-rule="nonzero"/><path fill="rgb(90.979004%, 90.979004%, 90.979004%)" d="M 221.074219 265.566406 C 221.003906 265.566406 220.929688 265.550781 220.859375 265.507812 L 214.636719 261.78125 C 214.578125 261.738281 214.519531 261.695312 214.492188 261.621094 L 209.070312 251.808594 C 209.054688 251.78125 209.039062 251.75 209.023438 251.707031 L 205.296875 237.269531 C 205.296875 237.238281 205.285156 237.226562 205.285156 237.195312 L 203.878906 220.625 C 203.878906 220.597656 203.878906 220.582031 203.878906 220.554688 L 205.066406 204.769531 C 205.082031 204.535156 205.285156 204.375 205.515625 204.390625 C 205.746094 204.40625 205.90625 204.609375 205.894531 204.839844 L 204.703125 220.597656 L 206.097656 237.09375 L 209.808594 251.445312 L 215.144531 261.113281 L 221.277344 264.78125 C 221.464844 264.898438 221.539062 265.160156 221.421875 265.347656 C 221.351562 265.492188 221.21875 265.566406 221.074219 265.566406 Z M 221.074219 265.566406 " fill-opacity="1" fill-rule="nonzero"/><path fill="rgb(90.979004%, 90.979004%, 90.979004%)" d="M 336.355469 137.578125 C 336.238281 137.578125 336.125 137.535156 336.035156 137.433594 C 335.890625 137.257812 335.90625 137 336.078125 136.851562 L 341.109375 132.535156 C 341.167969 132.476562 341.257812 132.445312 341.34375 132.433594 L 351.59375 131.476562 C 351.8125 131.445312 352.03125 131.621094 352.042969 131.851562 C 352.058594 132.082031 351.898438 132.285156 351.667969 132.300781 L 341.546875 133.242188 L 336.617188 137.476562 C 336.542969 137.535156 336.457031 137.578125 336.355469 137.578125 Z M 336.355469 137.578125 " fill-opacity="1" fill-rule="nonzero"/><path fill="rgb(90.979004%, 90.979004%, 90.979004%)" d="M 169.84375 201.070312 C 169.726562 201.070312 169.613281 201.027344 169.527344 200.925781 L 165.21875 195.894531 C 165.144531 195.808594 165.101562 195.679688 165.132812 195.5625 L 166.261719 188.765625 C 166.277344 188.707031 166.292969 188.664062 166.320312 188.605469 L 171.046875 181.183594 C 171.0625 181.152344 171.089844 181.125 171.121094 181.097656 L 179.167969 173.832031 C 179.183594 173.820312 179.210938 173.804688 179.242188 173.789062 L 190.246094 167.339844 C 190.261719 167.324219 190.289062 167.324219 190.304688 167.308594 L 203.804688 162.121094 C 203.820312 162.121094 203.832031 162.105469 203.863281 162.105469 L 219.351562 158.378906 C 219.363281 158.378906 219.378906 158.378906 219.394531 158.367188 L 236.316406 156.0625 L 254.121094 154.960938 L 272.191406 154.769531 L 279.382812 154.929688 C 279.613281 154.929688 279.789062 155.117188 279.789062 155.351562 C 279.789062 155.566406 279.601562 155.757812 279.382812 155.757812 C 279.382812 155.757812 279.382812 155.757812 279.367188 155.757812 L 272.191406 155.597656 L 254.164062 155.769531 L 236.402344 156.859375 L 219.523438 159.164062 L 204.082031 162.886719 L 190.636719 168.050781 L 179.703125 174.457031 L 171.730469 181.648438 L 167.089844 188.953125 L 166 195.476562 L 170.179688 200.347656 C 170.324219 200.519531 170.308594 200.78125 170.132812 200.925781 C 170.03125 201.042969 169.929688 201.070312 169.84375 201.070312 Z M 169.84375 201.070312 " fill-opacity="1" fill-rule="nonzero"/><path fill="rgb(90.979004%, 90.979004%, 90.979004%)" d="M 247.609375 259.070312 C 247.453125 259.070312 247.292969 258.96875 247.21875 258.808594 L 244.957031 253.011719 C 244.941406 252.984375 244.941406 252.953125 244.929688 252.925781 L 242.941406 240.558594 L 241.550781 223.4375 L 241.011719 204.753906 L 241.417969 188.039062 L 242.695312 175.964844 C 242.695312 175.933594 242.710938 175.90625 242.710938 175.878906 L 244.640625 169.757812 C 244.710938 169.542969 244.941406 169.425781 245.160156 169.484375 C 245.378906 169.558594 245.496094 169.789062 245.4375 170.007812 L 243.523438 176.09375 L 242.246094 188.082031 L 241.855469 204.738281 L 242.390625 223.382812 L 243.769531 240.441406 L 245.742188 252.734375 L 247.988281 258.492188 C 248.074219 258.707031 247.960938 258.941406 247.757812 259.027344 C 247.710938 259.070312 247.65625 259.070312 247.609375 259.070312 Z M 247.609375 259.070312 " fill-opacity="1" fill-rule="nonzero"/><g clip-path="url(#id6)"><path fill="rgb(90.979004%, 90.979004%, 90.979004%)" d="M 116.496094 248.574219 C 116.480469 248.574219 116.46875 248.574219 116.453125 248.574219 L 99.050781 246.472656 C 98.820312 246.445312 98.660156 246.242188 98.691406 246.011719 C 98.71875 245.777344 98.921875 245.617188 99.152344 245.648438 L 116.496094 247.75 L 140.351562 243.589844 L 170.003906 233.933594 L 204.167969 220.25 L 241.289062 204.390625 L 279.542969 188.546875 L 316.980469 175.050781 L 351.726562 165.976562 C 351.738281 165.976562 351.769531 165.960938 351.785156 165.960938 L 382.089844 162.46875 C 382.117188 162.46875 382.148438 162.46875 382.164062 162.46875 L 406.753906 164.25 C 406.785156 164.25 406.8125 164.265625 406.84375 164.265625 L 424.824219 169.558594 C 424.851562 169.570312 424.882812 169.570312 424.910156 169.601562 L 435.828125 175.804688 C 435.871094 175.832031 435.917969 175.863281 435.945312 175.90625 L 439.746094 180.691406 C 439.890625 180.863281 439.859375 181.125 439.671875 181.269531 C 439.496094 181.414062 439.238281 181.386719 439.09375 181.195312 L 435.335938 176.484375 L 424.535156 170.339844 L 406.640625 165.078125 L 382.132812 163.292969 L 351.886719 166.773438 L 317.199219 175.832031 L 279.804688 189.316406 L 241.566406 205.144531 L 204.429688 221.003906 L 170.234375 234.703125 L 140.566406 244.371094 C 140.554688 244.371094 140.523438 244.386719 140.511719 244.386719 L 116.570312 248.574219 C 116.539062 248.574219 116.511719 248.574219 116.496094 248.574219 Z M 116.496094 248.574219 " fill-opacity="1" fill-rule="nonzero"/></g><g clip-path="url(#id7)"><path fill="rgb(90.979004%, 90.979004%, 90.979004%)" d="M 141.945312 272.496094 C 141.917969 272.496094 141.886719 272.496094 141.859375 272.480469 L 127.097656 269.523438 C 127.082031 269.523438 127.054688 269.507812 127.039062 269.507812 L 112.449219 264.363281 C 112.4375 264.363281 112.4375 264.363281 112.421875 264.347656 C 112.421875 264.347656 112.421875 264.347656 112.40625 264.347656 C 112.394531 264.347656 112.394531 264.332031 112.394531 264.332031 L 102.605469 257.347656 L 92.148438 248.445312 C 92.09375 248.402344 92.046875 248.34375 92.035156 248.269531 L 88.277344 237.921875 C 88.277344 237.90625 88.265625 237.890625 88.265625 237.878906 L 84.886719 224.539062 C 84.871094 224.46875 84.871094 224.394531 84.886719 224.324219 L 88.320312 212.625 C 88.335938 212.566406 88.378906 212.507812 88.421875 212.449219 L 98.457031 201.8125 L 101.371094 185.3125 C 101.371094 185.269531 101.386719 185.242188 101.417969 185.199219 L 110.261719 167.800781 C 110.277344 167.773438 110.304688 167.746094 110.320312 167.714844 L 124.515625 151.855469 C 124.542969 151.828125 124.558594 151.8125 124.589844 151.785156 L 143.4375 139.128906 C 143.496094 139.101562 143.539062 139.070312 143.613281 139.054688 L 154.054688 137.492188 L 174.613281 129.417969 C 174.644531 129.402344 174.660156 129.402344 174.6875 129.402344 L 198.078125 124.792969 C 198.089844 124.792969 198.105469 124.792969 198.136719 124.792969 L 223.511719 123.210938 C 223.640625 123.210938 223.757812 123.253906 223.84375 123.34375 L 228.121094 128.15625 L 251.453125 127.808594 L 275.308594 128.574219 L 298.640625 129.851562 L 303.207031 127.894531 C 303.265625 127.867188 303.335938 127.851562 303.394531 127.867188 L 328.554688 129.835938 L 351.667969 131.476562 L 364.339844 132.402344 L 382.015625 131.578125 C 382.03125 131.578125 382.046875 131.578125 382.074219 131.578125 L 397.417969 132.765625 C 397.433594 132.765625 397.445312 132.765625 397.460938 132.765625 L 407.03125 134.679688 C 407.058594 134.679688 407.074219 134.691406 407.105469 134.691406 L 410.773438 136.113281 C 410.785156 136.113281 410.800781 136.128906 410.816406 136.144531 L 415.558594 138.753906 L 422.300781 141.984375 C 422.316406 142 422.34375 142 422.359375 142.015625 L 426.128906 144.566406 C 426.171875 144.59375 426.214844 144.636719 426.246094 144.679688 L 436.351562 160.335938 C 436.378906 160.378906 436.410156 160.4375 436.410156 160.496094 L 439.800781 180.847656 C 439.816406 180.894531 439.816406 180.9375 439.800781 180.996094 L 435.988281 202.695312 C 435.972656 202.738281 435.960938 202.78125 435.945312 202.8125 L 425.546875 222.28125 C 425.519531 222.324219 425.503906 222.351562 425.460938 222.394531 L 410.105469 236.5 L 408.03125 238.964844 C 407.988281 239.023438 407.914062 239.066406 407.84375 239.09375 L 390.355469 245.007812 C 390.296875 245.023438 390.238281 245.039062 390.179688 245.023438 L 372.707031 243.007812 C 372.648438 243.007812 372.59375 242.980469 372.535156 242.949219 L 368.648438 240.574219 L 363.125 239.691406 L 351.40625 239.269531 L 335.875 240.226562 L 317.097656 242.835938 L 295.871094 246.996094 L 279.714844 250.707031 L 274.929688 251.894531 L 247.699219 259.027344 L 221.160156 265.523438 L 196.570312 270.464844 C 196.511719 270.480469 196.453125 270.480469 196.410156 270.464844 L 186.652344 268.421875 L 162.085938 272.101562 C 162.070312 272.101562 162.058594 272.101562 162.027344 272.101562 Z M 127.285156 268.710938 L 141.988281 271.652344 L 161.984375 271.261719 L 185.722656 267.710938 L 178.007812 260.855469 L 150.9375 266.144531 C 150.921875 266.144531 150.890625 266.144531 150.878906 266.144531 L 128.765625 267.390625 C 128.734375 267.390625 128.691406 267.390625 128.664062 267.390625 L 117.742188 265.363281 Z M 188.566406 267.972656 L 196.480469 269.640625 L 220.988281 264.753906 L 247.496094 258.257812 L 274.726562 251.128906 L 279.527344 249.9375 L 295.710938 246.226562 L 316.980469 242.050781 L 335.804688 239.429688 L 351.40625 238.472656 L 363.195312 238.890625 C 363.210938 238.890625 363.226562 238.890625 363.253906 238.890625 L 368.878906 239.789062 C 368.9375 239.804688 368.980469 239.820312 369.023438 239.847656 L 372.910156 242.226562 L 390.195312 244.210938 L 407.496094 238.355469 L 409.511719 235.964844 C 409.523438 235.949219 409.539062 235.933594 409.554688 235.921875 L 424.882812 221.84375 L 435.21875 202.492188 L 439.003906 180.921875 L 435.640625 160.714844 L 425.621094 145.203125 L 421.9375 142.710938 L 415.195312 139.492188 L 410.46875 136.898438 L 406.855469 135.492188 L 397.34375 133.589844 L 382.0625 132.402344 L 364.386719 133.230469 C 364.386719 133.230469 364.371094 133.230469 364.371094 133.230469 L 361.441406 133.375 L 336.253906 137.605469 L 308.5 145.277344 L 312.703125 147.683594 C 312.792969 147.726562 312.863281 147.8125 312.894531 147.914062 L 316.316406 158.25 C 316.328125 158.277344 316.328125 158.320312 316.328125 158.351562 L 317.519531 175.414062 C 317.519531 175.425781 317.519531 175.441406 317.519531 175.472656 L 316.273438 196.695312 C 316.273438 196.707031 316.273438 196.722656 316.273438 196.738281 L 312.820312 217.988281 C 312.820312 218.003906 312.820312 218.019531 312.804688 218.046875 L 307.746094 235.09375 C 307.703125 235.226562 307.601562 235.339844 307.457031 235.371094 L 276.785156 243.953125 L 245.449219 253.285156 L 214.96875 261.839844 Z M 178.125 260 C 178.226562 260 178.328125 260.042969 178.398438 260.101562 L 186.78125 267.535156 L 214.765625 261.027344 L 245.234375 252.460938 L 276.570312 243.125 L 307.035156 234.601562 L 312.023438 217.800781 L 315.460938 196.59375 L 316.707031 175.414062 L 315.519531 158.4375 L 312.152344 148.304688 L 307.382812 145.578125 L 276.699219 156.769531 L 245.203125 170.265625 L 214.59375 184.445312 L 210.707031 186.054688 L 196.074219 192.230469 L 174.414062 200.058594 C 174.398438 200.058594 174.382812 200.070312 174.355469 200.070312 L 156.648438 204.015625 C 156.605469 204.027344 156.578125 204.027344 156.53125 204.027344 L 143.382812 203.332031 C 143.308594 203.332031 143.234375 203.304688 143.179688 203.261719 L 135.160156 198.027344 L 117.539062 205.203125 L 102.460938 215.597656 L 92.453125 226.875 L 89.121094 237.632812 L 99.328125 245.734375 C 99.386719 245.777344 99.429688 245.851562 99.457031 245.921875 L 103.011719 255.664062 L 112.726562 263.59375 L 128.734375 266.578125 L 150.761719 265.332031 L 178.007812 260.011719 C 178.066406 260 178.09375 260 178.125 260 Z M 92.773438 247.894531 L 102.285156 256.011719 L 98.746094 246.3125 L 89.554688 239.007812 Z M 85.710938 224.453125 L 88.714844 236.253906 L 91.714844 226.542969 C 91.730469 226.484375 91.757812 226.441406 91.800781 226.394531 L 101.894531 215.015625 C 101.921875 214.988281 101.9375 214.972656 101.96875 214.945312 L 117.121094 204.492188 C 117.148438 204.476562 117.179688 204.464844 117.191406 204.449219 L 135.058594 197.171875 C 135.1875 197.113281 135.332031 197.128906 135.433594 197.214844 L 143.539062 202.507812 L 156.519531 203.203125 L 174.152344 199.289062 L 195.773438 191.476562 L 210.375 185.3125 L 214.246094 183.703125 L 215.304688 183.242188 L 244.855469 169.542969 L 276.394531 156.03125 L 307.28125 144.769531 C 307.308594 144.753906 307.324219 144.753906 307.355469 144.753906 L 336.035156 136.824219 C 336.050781 136.824219 336.066406 136.824219 336.078125 136.808594 L 336.28125 136.78125 L 359.398438 132.894531 L 351.609375 132.332031 L 328.511719 130.664062 L 303.4375 128.691406 L 298.871094 130.648438 C 298.8125 130.679688 298.742188 130.679688 298.683594 130.679688 L 275.265625 129.417969 L 251.425781 128.648438 L 227.917969 129.011719 C 227.804688 129.011719 227.6875 128.96875 227.601562 128.867188 L 223.324219 124.066406 L 198.179688 125.632812 L 174.847656 130.226562 L 154.285156 138.304688 C 154.257812 138.316406 154.226562 138.316406 154.199219 138.332031 L 143.800781 139.898438 L 125.082031 152.464844 L 110.957031 168.238281 L 102.15625 185.53125 L 99.242188 202.085938 C 99.226562 202.160156 99.183594 202.246094 99.140625 202.304688 L 89.089844 212.972656 Z M 85.710938 224.453125 " fill-opacity="1" fill-rule="nonzero"/></g><path fill="rgb(90.979004%, 90.979004%, 90.979004%)" d="M 198.730469 191.082031 C 198.527344 191.082031 198.351562 190.9375 198.324219 190.734375 L 197.46875 185.199219 L 190.074219 167.917969 L 179.167969 153.261719 L 166.453125 142.984375 C 166.277344 142.839844 166.25 142.578125 166.394531 142.40625 C 166.539062 142.230469 166.800781 142.203125 166.972656 142.347656 L 179.734375 152.652344 C 179.761719 152.683594 179.792969 152.699219 179.804688 152.726562 L 190.769531 167.46875 C 190.785156 167.5 190.796875 167.527344 190.8125 167.554688 L 198.238281 184.921875 C 198.25 184.953125 198.265625 184.996094 198.265625 185.023438 L 199.121094 190.621094 C 199.148438 190.851562 199.003906 191.054688 198.773438 191.082031 C 198.773438 191.082031 198.746094 191.082031 198.730469 191.082031 Z M 198.730469 191.082031 " fill-opacity="1" fill-rule="nonzero"/><path fill="rgb(90.979004%, 90.979004%, 90.979004%)" d="M 210.546875 186.097656 C 210.34375 186.097656 210.15625 185.9375 210.140625 185.734375 L 209.546875 180.847656 L 203.558594 162.699219 L 194.757812 146.957031 L 184.578125 135.695312 L 174.660156 130.257812 L 166.453125 131.316406 L 143.800781 139.882812 C 143.582031 139.96875 143.351562 139.855469 143.265625 139.636719 C 143.179688 139.417969 143.292969 139.1875 143.511719 139.101562 L 166.203125 130.519531 C 166.234375 130.503906 166.261719 130.503906 166.292969 130.488281 L 174.6875 129.402344 C 174.773438 129.386719 174.863281 129.402344 174.933594 129.445312 L 185.011719 134.984375 C 185.054688 135.011719 185.085938 135.042969 185.113281 135.070312 L 195.378906 146.421875 C 195.394531 146.449219 195.421875 146.464844 195.4375 146.492188 L 204.285156 162.292969 C 204.296875 162.324219 204.3125 162.335938 204.3125 162.367188 L 210.316406 180.601562 C 210.332031 180.632812 210.332031 180.660156 210.332031 180.675781 L 210.925781 185.605469 C 210.953125 185.835938 210.792969 186.039062 210.5625 186.066406 C 210.578125 186.097656 210.5625 186.097656 210.546875 186.097656 Z M 210.546875 186.097656 " fill-opacity="1" fill-rule="nonzero"/><path fill="rgb(90.979004%, 90.979004%, 90.979004%)" d="M 274.859375 251.9375 C 274.828125 251.9375 274.800781 251.9375 274.769531 251.925781 C 274.554688 251.867188 274.410156 251.648438 274.464844 251.429688 L 276.292969 243.457031 L 277.875 228.570312 L 278.933594 209.132812 L 279.296875 188.910156 L 278.890625 171.863281 L 277.785156 160.785156 L 276.191406 156.554688 C 276.105469 156.335938 276.222656 156.105469 276.4375 156.015625 C 276.65625 155.929688 276.886719 156.046875 276.976562 156.261719 L 278.585938 160.554688 C 278.597656 160.582031 278.597656 160.628906 278.613281 160.65625 L 279.714844 171.816406 L 280.121094 188.921875 L 279.757812 209.175781 L 278.699219 228.644531 L 277.121094 243.589844 C 277.121094 243.601562 277.121094 243.617188 277.105469 243.632812 L 275.265625 251.632812 C 275.207031 251.808594 275.046875 251.9375 274.859375 251.9375 Z M 274.859375 251.9375 " fill-opacity="1" fill-rule="nonzero"/><path fill="rgb(90.979004%, 90.979004%, 90.979004%)" d="M 391.820312 243.386719 C 391.734375 243.386719 391.644531 243.355469 391.574219 243.300781 L 388.238281 240.847656 L 370.722656 240.90625 C 370.707031 240.90625 370.679688 240.90625 370.648438 240.90625 L 368.734375 240.601562 C 368.503906 240.574219 368.359375 240.355469 368.386719 240.125 C 368.414062 239.890625 368.632812 239.746094 368.867188 239.777344 L 370.75 240.082031 L 388.367188 240.023438 C 388.457031 240.023438 388.542969 240.050781 388.617188 240.109375 L 392.050781 242.632812 C 392.242188 242.761719 392.269531 243.023438 392.140625 243.210938 C 392.066406 243.328125 391.949219 243.386719 391.820312 243.386719 Z M 391.820312 243.386719 " fill-opacity="1" fill-rule="nonzero"/><path fill="rgb(90.979004%, 90.979004%, 90.979004%)" d="M 141.277344 212.640625 C 141.277344 212.640625 141.265625 212.640625 141.265625 212.640625 L 126.457031 211.898438 C 126.371094 211.898438 126.300781 211.871094 126.242188 211.828125 L 117.136719 205.1875 C 117.0625 205.128906 117.003906 205.058594 116.976562 204.972656 L 113.699219 193.460938 C 113.683594 193.402344 113.683594 193.34375 113.683594 193.273438 L 116.121094 178.761719 C 116.132812 178.71875 116.132812 178.675781 116.164062 178.644531 L 124.007812 163.335938 C 124.023438 163.308594 124.050781 163.28125 124.066406 163.25 L 136.8125 149.132812 C 136.914062 149.015625 137.058594 148.972656 137.203125 149 L 151.894531 152.089844 C 151.9375 152.101562 151.980469 152.117188 152.007812 152.132812 L 166.886719 160.65625 C 166.914062 160.671875 166.945312 160.699219 166.972656 160.726562 L 179.71875 173.875 C 179.75 173.90625 179.761719 173.933594 179.792969 173.964844 L 188.40625 190.171875 C 188.417969 190.214844 188.433594 190.242188 188.449219 190.285156 L 189.203125 194.34375 C 189.246094 194.5625 189.101562 194.78125 188.871094 194.824219 C 188.652344 194.867188 188.433594 194.722656 188.390625 194.492188 L 187.652344 190.488281 L 179.097656 174.398438 L 166.421875 161.335938 L 151.660156 152.886719 L 137.261719 149.855469 L 124.703125 163.757812 L 116.917969 178.964844 L 114.496094 193.316406 L 117.699219 204.59375 L 126.589844 211.089844 L 141.21875 211.8125 L 161.246094 206.710938 L 185.925781 196.78125 L 188.839844 195.316406 L 198.644531 190.910156 L 214.214844 183.734375 C 214.417969 183.632812 214.664062 183.734375 214.765625 183.9375 C 214.867188 184.140625 214.765625 184.386719 214.5625 184.488281 L 198.992188 191.664062 L 189.203125 196.054688 L 186.273438 197.519531 L 161.535156 207.480469 C 161.519531 207.480469 161.507812 207.492188 161.476562 207.492188 L 141.378906 212.625 C 141.335938 212.625 141.308594 212.640625 141.277344 212.640625 Z M 141.277344 212.640625 " fill-opacity="1" fill-rule="nonzero"/><path fill="rgb(90.979004%, 90.979004%, 90.979004%)" d="M 383.902344 245.269531 C 383.886719 245.269531 383.859375 245.269531 383.84375 245.269531 L 371.824219 243.648438 L 367.792969 243.152344 L 358.367188 241.761719 C 358.292969 241.746094 358.238281 241.734375 358.179688 241.691406 L 354.929688 239.339844 C 354.742188 239.210938 354.699219 238.949219 354.84375 238.761719 C 354.972656 238.574219 355.234375 238.53125 355.421875 238.675781 L 358.585938 240.964844 L 367.894531 242.328125 L 371.910156 242.820312 L 383.945312 244.445312 C 384.179688 244.472656 384.335938 244.675781 384.292969 244.90625 C 384.292969 245.125 384.121094 245.269531 383.902344 245.269531 Z M 383.902344 245.269531 " fill-opacity="1" fill-rule="nonzero"/><path fill="rgb(90.979004%, 90.979004%, 90.979004%)" d="M 407.726562 239.109375 C 407.609375 239.109375 407.507812 239.066406 407.421875 238.980469 C 407.261719 238.804688 407.277344 238.542969 407.453125 238.398438 L 422.328125 224.742188 L 424.894531 221.832031 C 425.039062 221.65625 425.300781 221.640625 425.476562 221.785156 C 425.648438 221.929688 425.664062 222.191406 425.519531 222.367188 L 422.9375 225.292969 C 422.921875 225.308594 422.921875 225.324219 422.910156 225.324219 L 408.015625 238.992188 C 407.929688 239.082031 407.828125 239.109375 407.726562 239.109375 Z M 407.726562 239.109375 " fill-opacity="1" fill-rule="nonzero"/><path fill="rgb(90.979004%, 90.979004%, 90.979004%)" d="M 373.910156 242.226562 C 373.855469 242.226562 373.808594 242.210938 373.753906 242.199219 L 370.5625 240.894531 C 370.34375 240.804688 370.257812 240.558594 370.34375 240.355469 C 370.429688 240.140625 370.679688 240.050781 370.882812 240.140625 L 374.070312 241.445312 C 374.289062 241.53125 374.375 241.777344 374.289062 241.980469 C 374.230469 242.125 374.070312 242.226562 373.910156 242.226562 Z M 373.910156 242.226562 " fill-opacity="1" fill-rule="nonzero"/><path fill="rgb(90.979004%, 90.979004%, 90.979004%)" d="M 311.992188 144.289062 C 311.9375 144.289062 311.878906 144.273438 311.835938 144.261719 C 311.632812 144.171875 311.53125 143.925781 311.617188 143.722656 L 312.921875 140.652344 C 313.007812 140.449219 313.253906 140.347656 313.457031 140.433594 C 313.660156 140.519531 313.761719 140.765625 313.675781 140.96875 L 312.371094 144.042969 C 312.3125 144.1875 312.152344 144.289062 311.992188 144.289062 Z M 311.992188 144.289062 " fill-opacity="1" fill-rule="nonzero"/><path fill="rgb(90.979004%, 90.979004%, 90.979004%)" d="M 272.015625 158.757812 C 272.015625 158.757812 272 158.757812 272 158.757812 C 271.769531 158.742188 271.59375 158.554688 271.609375 158.320312 L 271.769531 155.191406 L 273.203125 139.15625 L 274.886719 128.9375 C 274.902344 128.894531 274.914062 128.835938 274.929688 128.792969 L 276.582031 125.894531 C 276.699219 125.691406 276.945312 125.632812 277.148438 125.734375 C 277.351562 125.851562 277.410156 126.097656 277.308594 126.300781 L 275.683594 129.140625 L 274.015625 139.257812 L 272.582031 155.234375 L 272.421875 158.351562 C 272.421875 158.582031 272.234375 158.757812 272.015625 158.757812 Z M 272.015625 158.757812 " fill-opacity="1" fill-rule="nonzero"/><path fill="rgb(90.979004%, 90.979004%, 90.979004%)" d="M 224.019531 180.066406 C 223.800781 180.066406 223.628906 179.90625 223.613281 179.691406 L 223.4375 177.660156 L 219.03125 158.917969 L 212.59375 142.636719 L 205.167969 131.054688 L 197.890625 125.546875 C 197.699219 125.402344 197.671875 125.15625 197.816406 124.964844 C 197.945312 124.792969 198.207031 124.75 198.394531 124.894531 L 205.734375 130.445312 C 205.777344 130.476562 205.804688 130.519531 205.835938 130.546875 L 213.316406 142.21875 C 213.332031 142.246094 213.347656 142.261719 213.359375 142.289062 L 219.828125 158.625 C 219.84375 158.640625 219.84375 158.671875 219.84375 158.683594 L 224.25 177.472656 C 224.25 177.484375 224.265625 177.515625 224.265625 177.53125 L 224.4375 179.589844 C 224.453125 179.820312 224.292969 180.007812 224.0625 180.039062 C 224.035156 180.066406 224.035156 180.066406 224.019531 180.066406 Z M 224.019531 180.066406 " fill-opacity="1" fill-rule="nonzero"/><path fill="rgb(90.979004%, 90.979004%, 90.979004%)" d="M 179.953125 198.042969 C 179.863281 198.042969 179.792969 198.011719 179.71875 197.96875 C 179.53125 197.839844 179.488281 197.578125 179.617188 197.390625 L 180.574219 196.011719 C 180.605469 195.984375 180.617188 195.953125 180.648438 195.925781 L 187.796875 190.039062 C 187.8125 190.027344 187.839844 190.011719 187.867188 189.996094 L 197.6875 184.707031 C 197.699219 184.691406 197.730469 184.691406 197.742188 184.675781 L 209.824219 180.355469 C 209.835938 180.355469 209.851562 180.34375 209.867188 180.34375 L 223.757812 177.167969 L 230.269531 176.3125 C 230.5 176.28125 230.703125 176.441406 230.734375 176.675781 C 230.761719 176.90625 230.601562 177.109375 230.371094 177.136719 L 223.902344 177.992188 L 210.082031 181.152344 L 198.0625 185.460938 L 188.316406 190.707031 L 181.242188 196.519531 L 180.3125 197.851562 C 180.210938 197.984375 180.082031 198.042969 179.953125 198.042969 Z M 179.953125 198.042969 " fill-opacity="1" fill-rule="nonzero"/><path fill="rgb(90.979004%, 90.979004%, 90.979004%)" d="M 181.113281 197.621094 C 180.921875 197.621094 180.75 197.492188 180.707031 197.289062 L 180.515625 196.402344 L 171.078125 181.703125 L 157.070312 170.671875 L 140.667969 164.640625 L 124.429688 163.933594 L 110.839844 168.367188 L 101.851562 177.632812 C 101.691406 177.789062 101.429688 177.804688 101.269531 177.644531 C 101.113281 177.484375 101.097656 177.226562 101.257812 177.066406 L 110.320312 167.730469 C 110.363281 167.6875 110.421875 167.644531 110.492188 167.628906 L 124.238281 163.136719 C 124.285156 163.121094 124.339844 163.105469 124.386719 163.121094 L 140.769531 163.832031 C 140.8125 163.832031 140.859375 163.84375 140.902344 163.859375 L 157.417969 169.933594 C 157.460938 169.949219 157.488281 169.976562 157.535156 169.992188 L 171.65625 181.109375 C 171.699219 181.140625 171.730469 181.167969 171.742188 181.210938 L 181.269531 196.042969 C 181.300781 196.085938 181.316406 196.128906 181.328125 196.171875 L 181.53125 197.128906 C 181.574219 197.347656 181.429688 197.578125 181.214844 197.621094 C 181.167969 197.621094 181.140625 197.621094 181.113281 197.621094 Z M 181.113281 197.621094 " fill-opacity="1" fill-rule="nonzero"/><path fill="rgb(90.979004%, 90.979004%, 90.979004%)" d="M 279.644531 250.75 C 279.453125 250.75 279.296875 250.621094 279.238281 250.429688 C 279.179688 250.214844 279.308594 249.980469 279.542969 249.925781 L 301.421875 244.472656 L 326.292969 239.355469 L 348.230469 236.484375 C 348.246094 236.484375 348.261719 236.484375 348.273438 236.484375 L 366.3125 236.023438 C 366.328125 236.023438 366.355469 236.023438 366.371094 236.023438 L 379.871094 237.5 C 379.902344 237.5 379.914062 237.515625 379.945312 237.515625 L 388.339844 239.992188 L 405.945312 232.007812 L 421.109375 216.960938 L 431.40625 197.257812 L 435.175781 176.136719 L 431.828125 156.960938 L 421.878906 142.695312 L 411.730469 139.171875 L 395.039062 136.273438 L 372.34375 135.996094 L 344.460938 139.882812 L 312.601562 148.421875 L 278.308594 161.046875 L 243.277344 176.382812 L 209.402344 192.476562 L 205.878906 204.941406 C 205.847656 205.058594 205.761719 205.160156 205.648438 205.203125 L 172.195312 220.25 L 143.105469 231.414062 C 143.089844 231.414062 143.0625 231.425781 143.046875 231.425781 L 119.570312 236.832031 C 119.527344 236.847656 119.484375 236.847656 119.441406 236.847656 L 102.359375 235.398438 C 102.273438 235.398438 102.199219 235.355469 102.140625 235.3125 L 91.859375 227.003906 C 91.789062 226.949219 91.746094 226.875 91.714844 226.789062 L 88.320312 212.871094 C 88.308594 212.8125 88.308594 212.753906 88.320312 212.699219 L 91.597656 195.375 C 91.613281 195.332031 91.613281 195.300781 91.644531 195.257812 L 101.183594 177.152344 C 101.199219 177.125 101.226562 177.09375 101.242188 177.066406 L 116.425781 160.554688 L 124.5 151.871094 C 124.558594 151.8125 124.632812 151.769531 124.71875 151.753906 L 136.941406 149.03125 L 153.910156 137.59375 C 154.023438 137.519531 154.15625 137.503906 154.285156 137.550781 L 166.699219 142.230469 L 184.664062 134.996094 C 184.679688 134.984375 184.707031 134.984375 184.722656 134.984375 L 205.371094 130.386719 C 205.386719 130.386719 205.398438 130.386719 205.414062 130.375 L 227.863281 128.183594 C 228.09375 128.171875 228.296875 128.328125 228.3125 128.5625 C 228.339844 128.792969 228.164062 128.996094 227.933594 129.011719 L 205.546875 131.183594 L 184.953125 135.765625 L 166.871094 143.042969 C 166.769531 143.085938 166.667969 143.085938 166.566406 143.042969 L 154.199219 138.390625 L 137.347656 149.753906 C 137.304688 149.785156 137.261719 149.796875 137.203125 149.8125 L 125.023438 152.539062 L 117.035156 161.132812 L 101.894531 177.601562 L 92.398438 195.605469 L 89.132812 212.769531 L 92.46875 226.453125 L 102.546875 234.585938 L 119.441406 236.023438 L 142.828125 230.628906 L 171.859375 219.496094 L 205.140625 204.535156 L 208.648438 192.070312 C 208.675781 191.953125 208.765625 191.867188 208.867188 191.808594 L 242.914062 175.660156 L 278.003906 160.292969 L 312.355469 147.636719 L 344.273438 139.070312 C 344.285156 139.070312 344.300781 139.058594 344.316406 139.058594 L 372.242188 135.171875 C 372.257812 135.171875 372.273438 135.171875 372.300781 135.171875 L 395.054688 135.445312 C 395.082031 135.445312 395.097656 135.445312 395.125 135.445312 L 411.890625 138.359375 C 411.917969 138.359375 411.933594 138.375 411.945312 138.375 L 422.257812 141.957031 C 422.34375 141.984375 422.417969 142.042969 422.460938 142.117188 L 432.539062 156.554688 C 432.566406 156.597656 432.59375 156.65625 432.609375 156.714844 L 436.003906 176.066406 C 436.019531 176.109375 436.019531 176.167969 436.003906 176.210938 L 432.203125 197.460938 C 432.191406 197.503906 432.191406 197.550781 432.160156 197.578125 L 421.808594 217.394531 C 421.792969 217.4375 421.761719 217.464844 421.734375 217.496094 L 406.464844 232.644531 C 406.4375 232.671875 406.394531 232.703125 406.347656 232.730469 L 388.542969 240.804688 C 388.457031 240.847656 388.355469 240.847656 388.253906 240.820312 L 379.742188 238.3125 L 366.3125 236.847656 L 348.316406 237.3125 L 326.421875 240.167969 L 301.597656 245.269531 L 279.730469 250.722656 C 279.714844 250.734375 279.671875 250.75 279.644531 250.75 Z M 279.644531 250.75 " fill-opacity="1" fill-rule="nonzero"/><path fill="rgb(90.979004%, 90.979004%, 90.979004%)" d="M 391.820312 243.386719 C 391.804688 243.386719 391.804688 243.386719 391.789062 243.386719 L 374.027344 242.242188 L 373 242.964844 C 372.925781 243.007812 372.839844 243.039062 372.75 243.039062 L 367.488281 242.9375 C 367.414062 242.9375 367.328125 242.90625 367.269531 242.863281 L 362.414062 239.617188 C 362.222656 239.488281 362.167969 239.238281 362.296875 239.039062 C 362.425781 238.847656 362.671875 238.789062 362.875 238.921875 L 367.632812 242.097656 L 372.648438 242.199219 L 373.679688 241.472656 C 373.753906 241.414062 373.855469 241.398438 373.941406 241.398438 L 391.847656 242.558594 C 392.082031 242.574219 392.253906 242.777344 392.242188 242.996094 C 392.226562 243.210938 392.039062 243.386719 391.820312 243.386719 Z M 391.820312 243.386719 " fill-opacity="1" fill-rule="nonzero"/><path fill="rgb(90.979004%, 90.979004%, 90.979004%)" d="M 166.351562 131.316406 C 166.148438 131.316406 165.972656 131.171875 165.945312 130.96875 C 165.898438 130.75 166.058594 130.53125 166.277344 130.488281 L 188.738281 126.632812 C 188.957031 126.589844 189.175781 126.75 189.21875 126.964844 C 189.261719 127.183594 189.101562 127.402344 188.882812 127.445312 L 166.421875 131.300781 C 166.40625 131.316406 166.378906 131.316406 166.351562 131.316406 Z M 166.351562 131.316406 " fill-opacity="1" fill-rule="nonzero"/><path fill="rgb(90.979004%, 90.979004%, 90.979004%)" d="M 169.742188 201.101562 C 169.726562 201.101562 169.726562 201.101562 169.714844 201.101562 L 160.257812 200.476562 C 160.203125 200.476562 160.128906 200.449219 160.085938 200.417969 L 152.851562 196.257812 C 152.777344 196.214844 152.703125 196.144531 152.675781 196.054688 L 149.804688 189.039062 C 149.777344 188.96875 149.761719 188.894531 149.777344 188.820312 L 151.238281 179.90625 C 151.253906 179.863281 151.269531 179.804688 151.285156 179.761719 L 156.894531 170.09375 C 156.910156 170.0625 156.9375 170.035156 156.96875 170.007812 L 166.394531 160.714844 C 166.40625 160.699219 166.4375 160.671875 166.464844 160.65625 L 179.253906 152.609375 C 179.269531 152.597656 179.300781 152.582031 179.328125 152.582031 L 194.945312 146.332031 C 194.960938 146.320312 194.988281 146.320312 195.003906 146.320312 L 212.867188 142.042969 C 212.882812 142.042969 212.898438 142.042969 212.910156 142.027344 L 232.386719 139.609375 L 252.859375 138.679688 L 273.609375 138.78125 L 293.984375 139.460938 L 313.125 140.375 L 320.679688 131.34375 C 320.738281 131.273438 320.824219 131.214844 320.925781 131.199219 L 328.480469 129.835938 C 328.714844 129.792969 328.917969 129.9375 328.960938 130.171875 C 329.003906 130.386719 328.84375 130.605469 328.625 130.648438 L 321.214844 131.984375 L 313.632812 141.058594 C 313.546875 141.160156 313.429688 141.214844 313.300781 141.203125 L 293.96875 140.273438 L 273.609375 139.59375 L 252.890625 139.492188 L 232.472656 140.417969 L 213.042969 142.839844 L 195.21875 147.101562 L 179.660156 153.335938 L 166.945312 161.335938 L 157.589844 170.558594 L 152.050781 180.109375 L 150.617188 188.835938 L 153.386719 195.621094 L 160.40625 199.664062 L 169.757812 200.273438 C 169.988281 200.289062 170.164062 200.492188 170.148438 200.710938 C 170.132812 200.925781 169.960938 201.101562 169.742188 201.101562 Z M 169.742188 201.101562 " fill-opacity="1" fill-rule="nonzero"/></svg>