<svg xmlns="http://www.w3.org/2000/svg" xmlns:xlink="http://www.w3.org/1999/xlink" width="47" zoomAndPan="magnify" viewBox="0 0 35.25 35.250001" height="47" preserveAspectRatio="xMidYMid meet" version="1.0"><defs><clipPath id="id1"><path d="M 11 12 L 33.847656 12 L 33.847656 18 L 11 18 Z M 11 12 " clip-rule="nonzero"/></clipPath><clipPath id="id2"><path d="M 13 10.3125 L 22 10.3125 L 22 11 L 13 11 Z M 13 10.3125 " clip-rule="nonzero"/></clipPath><clipPath id="id3"><path d="M 20 10.3125 L 27 10.3125 L 27 12 L 20 12 Z M 20 10.3125 " clip-rule="nonzero"/></clipPath><clipPath id="id4"><path d="M 3 15 L 14 15 L 14 24.265625 L 3 24.265625 Z M 3 15 " clip-rule="nonzero"/></clipPath><clipPath id="id5"><path d="M 14 10.3125 L 16 10.3125 L 16 15 L 14 15 Z M 14 10.3125 " clip-rule="nonzero"/></clipPath><clipPath id="id6"><path d="M 0.800781 15 L 10 15 L 10 20 L 0.800781 20 Z M 0.800781 15 " clip-rule="nonzero"/></clipPath><clipPath id="id7"><path d="M 5 17 L 10 17 L 10 24.265625 L 5 24.265625 Z M 5 17 " clip-rule="nonzero"/></clipPath><clipPath id="id8"><path d="M 1 15 L 33.847656 15 L 33.847656 23 L 1 23 Z M 1 15 " clip-rule="nonzero"/></clipPath><clipPath id="id9"><path d="M 19 10.3125 L 21 10.3125 L 21 13 L 19 13 Z M 19 10.3125 " clip-rule="nonzero"/></clipPath><clipPath id="id10"><path d="M 16 10.3125 L 17 10.3125 L 17 15 L 16 15 Z M 16 10.3125 " clip-rule="nonzero"/></clipPath><clipPath id="id11"><path d="M 2 13 L 33.847656 13 L 33.847656 22 L 2 22 Z M 2 13 " clip-rule="nonzero"/></clipPath><clipPath id="id12"><path d="M 0.800781 10.3125 L 33.847656 10.3125 L 33.847656 24.265625 L 0.800781 24.265625 Z M 0.800781 10.3125 " clip-rule="nonzero"/></clipPath><clipPath id="id13"><path d="M 6 10.3125 L 13 10.3125 L 13 17 L 6 17 Z M 6 10.3125 " clip-rule="nonzero"/></clipPath><clipPath id="id14"><path d="M 18 10.3125 L 19 10.3125 L 19 14 L 18 14 Z M 18 10.3125 " clip-rule="nonzero"/></clipPath><clipPath id="id15"><path d="M 11 10.3125 L 14 10.3125 L 14 16 L 11 16 Z M 11 10.3125 " clip-rule="nonzero"/></clipPath><clipPath id="id16"><path d="M 1 10.3125 L 33.847656 10.3125 L 33.847656 23 L 1 23 Z M 1 10.3125 " clip-rule="nonzero"/></clipPath><clipPath id="id17"><path d="M 8 10.3125 L 11 10.3125 L 11 12 L 8 12 Z M 8 10.3125 " clip-rule="nonzero"/></clipPath><clipPath id="id18"><path d="M 6 10.3125 L 24 10.3125 L 24 18 L 6 18 Z M 6 10.3125 " clip-rule="nonzero"/></clipPath></defs><g clip-path="url(#id1)"><path fill="rgb(90.979004%, 90.979004%, 90.979004%)" d="M 12.035156 17.945312 C 12.019531 17.945312 12.007812 17.9375 12 17.921875 C 11.988281 17.902344 12 17.878906 12.019531 17.871094 L 15.398438 16.3125 L 18.882812 14.800781 L 22.289062 13.546875 L 25.453125 12.710938 C 25.457031 12.710938 25.457031 12.710938 25.460938 12.710938 L 28.222656 12.375 C 28.222656 12.375 28.226562 12.375 28.230469 12.375 L 30.472656 12.5 C 30.476562 12.5 30.476562 12.5 30.480469 12.503906 L 32.121094 12.917969 C 32.125 12.917969 32.128906 12.921875 32.128906 12.921875 L 33.132812 13.402344 C 33.136719 13.40625 33.136719 13.40625 33.140625 13.410156 L 33.496094 13.761719 C 33.511719 13.777344 33.511719 13.800781 33.496094 13.816406 C 33.480469 13.828125 33.457031 13.828125 33.441406 13.816406 L 33.09375 13.46875 L 32.097656 12.992188 L 30.460938 12.578125 L 28.226562 12.453125 L 25.46875 12.785156 L 22.308594 13.621094 L 18.90625 14.871094 L 15.425781 16.382812 L 12.046875 17.941406 C 12.046875 17.945312 12.039062 17.945312 12.035156 17.945312 Z M 12.035156 17.945312 " fill-opacity="1" fill-rule="nonzero"/></g><path fill="rgb(90.979004%, 90.979004%, 90.979004%)" d="M 9.492188 23.121094 C 9.472656 23.121094 9.457031 23.109375 9.453125 23.089844 C 9.449219 23.070312 9.460938 23.050781 9.480469 23.042969 L 12.390625 22.226562 L 15.546875 21.191406 L 18.789062 20.082031 L 21.96875 19.085938 L 24.917969 18.371094 C 24.921875 18.371094 24.921875 18.371094 24.921875 18.371094 L 27.507812 18.050781 C 27.507812 18.050781 27.511719 18.050781 27.511719 18.050781 L 29.617188 18.128906 C 29.621094 18.128906 29.621094 18.128906 29.625 18.132812 L 31.175781 18.511719 C 31.175781 18.515625 31.179688 18.515625 31.183594 18.515625 L 32.136719 19.027344 C 32.140625 19.027344 32.144531 19.03125 32.148438 19.035156 L 32.496094 19.492188 C 32.507812 19.507812 32.503906 19.53125 32.488281 19.546875 C 32.46875 19.558594 32.449219 19.554688 32.433594 19.539062 L 32.089844 19.089844 L 31.148438 18.589844 L 29.609375 18.207031 L 27.511719 18.128906 L 24.933594 18.445312 L 21.984375 19.160156 L 18.8125 20.15625 L 15.570312 21.261719 L 12.414062 22.300781 L 9.5 23.117188 C 9.496094 23.121094 9.492188 23.121094 9.492188 23.121094 Z M 9.492188 23.121094 " fill-opacity="1" fill-rule="nonzero"/><g clip-path="url(#id2)"><path fill="rgb(90.979004%, 90.979004%, 90.979004%)" d="M 21.136719 10.820312 C 21.132812 10.820312 21.132812 10.820312 21.132812 10.820312 L 18.675781 10.617188 L 16.175781 10.445312 L 13.710938 10.390625 C 13.6875 10.390625 13.671875 10.371094 13.671875 10.351562 C 13.671875 10.328125 13.691406 10.3125 13.710938 10.3125 L 16.179688 10.371094 L 18.679688 10.542969 L 21.140625 10.742188 C 21.160156 10.746094 21.175781 10.765625 21.175781 10.785156 C 21.171875 10.804688 21.15625 10.820312 21.136719 10.820312 Z M 21.136719 10.820312 " fill-opacity="1" fill-rule="nonzero"/></g><g clip-path="url(#id3)"><path fill="rgb(90.979004%, 90.979004%, 90.979004%)" d="M 26.054688 11.335938 C 26.050781 11.335938 26.050781 11.335938 26.050781 11.335938 L 24.667969 11.246094 L 22.773438 11.132812 L 20.703125 11.007812 C 20.679688 11.003906 20.664062 10.988281 20.664062 10.964844 C 20.667969 10.945312 20.683594 10.929688 20.707031 10.929688 L 22.777344 11.054688 L 24.671875 11.167969 L 26.054688 11.257812 C 26.078125 11.261719 26.09375 11.28125 26.089844 11.300781 C 26.089844 11.320312 26.074219 11.335938 26.054688 11.335938 Z M 26.054688 11.335938 " fill-opacity="1" fill-rule="nonzero"/></g><g clip-path="url(#id4)"><path fill="rgb(90.979004%, 90.979004%, 90.979004%)" d="M 7.550781 24.265625 L 6.125 24.203125 C 6.121094 24.203125 6.117188 24.203125 6.113281 24.203125 L 4.886719 23.726562 C 4.878906 23.726562 4.875 23.722656 4.871094 23.71875 L 4.039062 22.9375 C 4.03125 22.933594 4.03125 22.929688 4.027344 22.921875 L 3.722656 21.953125 C 3.722656 21.945312 3.722656 21.9375 3.722656 21.929688 L 4 20.835938 C 4.003906 20.832031 4.003906 20.828125 4.007812 20.824219 L 4.820312 19.667969 C 4.824219 19.660156 4.832031 19.65625 4.839844 19.652344 L 6.894531 19.117188 L 9.433594 18.070312 L 12.34375 16.695312 L 12.835938 15.953125 C 12.839844 15.945312 12.84375 15.941406 12.851562 15.9375 L 12.949219 15.894531 C 12.96875 15.886719 12.992188 15.894531 13 15.914062 C 13.007812 15.933594 13 15.953125 12.980469 15.964844 L 12.890625 16.003906 L 12.398438 16.75 C 12.394531 16.753906 12.390625 16.757812 12.382812 16.761719 L 9.464844 18.140625 L 6.921875 19.1875 C 6.921875 19.191406 6.921875 19.191406 6.917969 19.191406 L 4.875 19.722656 L 4.074219 20.863281 L 3.800781 21.9375 L 4.097656 22.890625 L 4.917969 23.65625 L 6.132812 24.125 L 7.554688 24.183594 L 9.191406 24.183594 L 11.195312 23.9375 C 11.214844 23.933594 11.234375 23.949219 11.238281 23.972656 C 11.242188 23.992188 11.226562 24.011719 11.203125 24.015625 L 9.199219 24.261719 C 9.199219 24.261719 9.195312 24.261719 9.195312 24.261719 Z M 7.550781 24.265625 " fill-opacity="1" fill-rule="nonzero"/></g><path fill="rgb(90.979004%, 90.979004%, 90.979004%)" d="M 28.625 21.671875 C 28.621094 21.671875 28.621094 21.671875 28.617188 21.671875 L 27.625 21.550781 L 27.496094 21.519531 L 27.089844 21.453125 L 26.25 21.347656 L 25.085938 21.144531 C 25.066406 21.140625 25.050781 21.121094 25.054688 21.101562 C 25.058594 21.082031 25.082031 21.066406 25.101562 21.070312 L 25.105469 21.074219 L 26.261719 21.269531 L 27.101562 21.378906 L 27.511719 21.445312 L 27.636719 21.472656 L 28.625 21.597656 L 29.195312 21.574219 L 29.332031 21.433594 C 29.335938 21.429688 29.339844 21.421875 29.34375 21.421875 L 31.019531 20.792969 C 31.039062 20.785156 31.058594 20.796875 31.066406 20.816406 C 31.078125 20.835938 31.066406 20.859375 31.046875 20.867188 L 29.378906 21.492188 L 29.238281 21.636719 C 29.234375 21.644531 29.222656 21.652344 29.214844 21.652344 Z M 28.625 21.671875 " fill-opacity="1" fill-rule="nonzero"/><path fill="rgb(90.979004%, 90.979004%, 90.979004%)" d="M 2.117188 17.683594 C 2.105469 17.683594 2.089844 17.679688 2.085938 17.664062 C 2.074219 17.648438 2.082031 17.625 2.097656 17.613281 L 3.519531 16.804688 C 3.519531 16.804688 3.523438 16.800781 3.527344 16.800781 L 5.203125 16.339844 C 5.207031 16.339844 5.210938 16.339844 5.214844 16.339844 L 6.894531 16.386719 C 6.902344 16.386719 6.90625 16.386719 6.910156 16.390625 L 8.335938 17.019531 C 8.34375 17.023438 8.351562 17.027344 8.355469 17.039062 L 8.578125 17.496094 C 8.589844 17.515625 8.582031 17.539062 8.5625 17.546875 C 8.542969 17.554688 8.519531 17.546875 8.511719 17.53125 L 8.292969 17.082031 L 6.882812 16.460938 L 5.21875 16.414062 L 3.550781 16.871094 L 2.136719 17.679688 C 2.132812 17.683594 2.125 17.683594 2.117188 17.683594 Z M 2.117188 17.683594 " fill-opacity="1" fill-rule="nonzero"/><path fill="rgb(90.979004%, 90.979004%, 90.979004%)" d="M 4.851562 19.730469 C 4.847656 19.730469 4.847656 19.730469 4.847656 19.730469 L 3.34375 19.640625 C 3.335938 19.640625 3.328125 19.636719 3.320312 19.632812 L 2.40625 18.914062 C 2.398438 18.90625 2.394531 18.902344 2.394531 18.890625 L 2.082031 17.65625 C 2.074219 17.636719 2.085938 17.613281 2.109375 17.609375 C 2.128906 17.605469 2.152344 17.617188 2.15625 17.636719 L 2.464844 18.859375 L 3.359375 19.5625 L 4.835938 19.652344 L 6.039062 18.570312 C 6.042969 18.566406 6.042969 18.566406 6.046875 18.5625 L 7.46875 17.761719 C 7.488281 17.75 7.511719 17.757812 7.519531 17.777344 C 7.53125 17.796875 7.523438 17.820312 7.507812 17.828125 L 6.085938 18.628906 L 4.875 19.722656 C 4.867188 19.726562 4.859375 19.730469 4.851562 19.730469 Z M 4.851562 19.730469 " fill-opacity="1" fill-rule="nonzero"/><path fill="rgb(90.979004%, 90.979004%, 90.979004%)" d="M 31.550781 11.832031 C 31.542969 11.832031 31.539062 11.828125 31.535156 11.824219 L 30.75 11.449219 C 30.730469 11.441406 30.722656 11.417969 30.734375 11.398438 C 30.742188 11.382812 30.765625 11.371094 30.785156 11.382812 L 31.566406 11.757812 C 31.585938 11.765625 31.59375 11.789062 31.585938 11.808594 C 31.578125 11.820312 31.5625 11.832031 31.550781 11.832031 Z M 31.550781 11.832031 " fill-opacity="1" fill-rule="nonzero"/><path fill="rgb(90.979004%, 90.979004%, 90.979004%)" d="M 26.695312 21.152344 C 26.675781 21.152344 26.660156 21.140625 26.660156 21.117188 C 26.65625 21.097656 26.671875 21.078125 26.695312 21.078125 L 28.234375 20.949219 L 29.796875 20.0625 C 29.804688 20.054688 29.816406 20.054688 29.828125 20.058594 L 30.710938 20.4375 C 30.714844 20.441406 30.71875 20.441406 30.722656 20.445312 L 31.0625 20.804688 C 31.078125 20.820312 31.074219 20.84375 31.058594 20.859375 C 31.046875 20.875 31.019531 20.875 31.007812 20.859375 L 30.675781 20.503906 L 29.816406 20.136719 L 28.265625 21.023438 C 28.257812 21.027344 28.253906 21.027344 28.25 21.027344 L 26.699219 21.15625 C 26.699219 21.152344 26.699219 21.152344 26.695312 21.152344 Z M 26.695312 21.152344 " fill-opacity="1" fill-rule="nonzero"/><g clip-path="url(#id5)"><path fill="rgb(90.979004%, 90.979004%, 90.979004%)" d="M 15.117188 14.972656 C 15.097656 14.972656 15.082031 14.957031 15.082031 14.9375 L 14.867188 13.414062 L 14.503906 11.886719 L 14.085938 10.824219 C 14.078125 10.804688 14.085938 10.78125 14.105469 10.773438 C 14.128906 10.765625 14.148438 10.777344 14.15625 10.796875 L 14.574219 11.859375 C 14.574219 11.863281 14.578125 11.867188 14.578125 11.867188 L 14.941406 13.398438 L 15.15625 14.925781 C 15.160156 14.945312 15.144531 14.964844 15.125 14.96875 C 15.121094 14.96875 15.121094 14.972656 15.117188 14.972656 Z M 15.117188 14.972656 " fill-opacity="1" fill-rule="nonzero"/></g><path fill="rgb(90.979004%, 90.979004%, 90.979004%)" d="M 25.605469 21.113281 C 25.585938 21.113281 25.570312 21.101562 25.570312 21.082031 C 25.566406 21.0625 25.578125 21.042969 25.601562 21.039062 L 26.976562 20.8125 L 28.378906 19.804688 C 28.386719 19.796875 28.394531 19.796875 28.40625 19.796875 L 29.800781 20.050781 L 31.132812 18.53125 L 32.046875 16.617188 L 32.378906 14.660156 L 32.078125 12.972656 L 31.195312 11.792969 L 29.863281 11.273438 C 29.84375 11.265625 29.835938 11.246094 29.84375 11.222656 C 29.851562 11.203125 29.871094 11.195312 29.890625 11.203125 L 31.234375 11.726562 C 31.242188 11.726562 31.246094 11.730469 31.25 11.738281 L 32.144531 12.933594 C 32.148438 12.9375 32.148438 12.945312 32.152344 12.949219 L 32.453125 14.652344 C 32.457031 14.660156 32.457031 14.664062 32.453125 14.667969 L 32.117188 16.636719 C 32.117188 16.640625 32.117188 16.644531 32.117188 16.648438 L 31.199219 18.570312 C 31.195312 18.570312 31.195312 18.574219 31.191406 18.578125 L 29.84375 20.117188 C 29.832031 20.128906 29.820312 20.132812 29.804688 20.132812 L 28.40625 19.875 L 27.011719 20.882812 C 27.003906 20.886719 27 20.886719 26.996094 20.886719 L 25.609375 21.113281 C 25.609375 21.113281 25.609375 21.113281 25.605469 21.113281 Z M 25.605469 21.113281 " fill-opacity="1" fill-rule="nonzero"/><path fill="rgb(90.979004%, 90.979004%, 90.979004%)" d="M 8.417969 17.542969 C 8.414062 17.542969 8.410156 17.542969 8.40625 17.539062 L 7.15625 17.117188 L 5.503906 17.269531 C 5.484375 17.273438 5.464844 17.257812 5.464844 17.234375 C 5.460938 17.214844 5.476562 17.195312 5.5 17.195312 L 7.15625 17.039062 C 7.160156 17.039062 7.167969 17.039062 7.171875 17.039062 L 8.429688 17.464844 C 8.449219 17.472656 8.460938 17.492188 8.453125 17.511719 C 8.449219 17.53125 8.433594 17.542969 8.417969 17.542969 Z M 8.417969 17.542969 " fill-opacity="1" fill-rule="nonzero"/><path fill="rgb(90.979004%, 90.979004%, 90.979004%)" d="M 24.160156 21.203125 C 24.140625 21.203125 24.125 21.191406 24.121094 21.175781 C 24.113281 21.152344 24.128906 21.132812 24.148438 21.128906 L 25.292969 20.859375 L 26.464844 19.792969 C 26.46875 19.785156 26.480469 19.785156 26.488281 19.785156 L 28.378906 19.796875 L 29.578125 18.152344 L 30.40625 16.148438 L 30.707031 14.167969 L 30.433594 12.554688 L 29.636719 11.523438 L 28.441406 11.164062 C 28.421875 11.160156 28.40625 11.136719 28.414062 11.117188 C 28.421875 11.097656 28.441406 11.085938 28.460938 11.09375 L 29.671875 11.453125 C 29.679688 11.457031 29.6875 11.460938 29.691406 11.46875 L 30.5 12.515625 C 30.503906 12.523438 30.507812 12.527344 30.507812 12.535156 L 30.78125 14.164062 C 30.785156 14.167969 30.785156 14.171875 30.78125 14.175781 L 30.480469 16.164062 C 30.480469 16.167969 30.476562 16.171875 30.476562 16.175781 L 29.648438 18.191406 C 29.648438 18.191406 29.644531 18.195312 29.644531 18.199219 L 28.429688 19.859375 C 28.421875 19.871094 28.410156 19.878906 28.398438 19.878906 L 26.503906 19.863281 L 25.339844 20.925781 C 25.332031 20.929688 25.328125 20.933594 25.320312 20.933594 L 24.167969 21.207031 C 24.164062 21.203125 24.160156 21.203125 24.160156 21.203125 Z M 24.160156 21.203125 " fill-opacity="1" fill-rule="nonzero"/><g clip-path="url(#id6)"><path fill="rgb(90.979004%, 90.979004%, 90.979004%)" d="M 0.859375 19.773438 C 0.855469 19.773438 0.851562 19.773438 0.847656 19.769531 C 0.828125 19.765625 0.816406 19.746094 0.820312 19.726562 L 1.140625 18.191406 L 1.445312 17.023438 C 1.445312 17.015625 1.449219 17.011719 1.453125 17.007812 L 2.363281 16.070312 C 2.367188 16.066406 2.371094 16.0625 2.375 16.0625 L 3.746094 15.449219 C 3.75 15.449219 3.753906 15.449219 3.757812 15.449219 L 5.386719 15.25 C 5.390625 15.25 5.394531 15.25 5.398438 15.25 L 7.035156 15.554688 C 7.039062 15.554688 7.042969 15.554688 7.046875 15.558594 L 8.445312 16.382812 C 8.449219 16.386719 8.453125 16.390625 8.453125 16.394531 L 9.203125 17.386719 C 9.21875 17.402344 9.214844 17.425781 9.195312 17.441406 C 9.179688 17.453125 9.15625 17.449219 9.144531 17.433594 L 8.398438 16.445312 L 7.015625 15.625 L 5.390625 15.324219 L 3.773438 15.519531 L 2.414062 16.128906 L 1.519531 17.054688 L 1.214844 18.210938 L 0.894531 19.742188 C 0.894531 19.761719 0.875 19.773438 0.859375 19.773438 Z M 0.859375 19.773438 " fill-opacity="1" fill-rule="nonzero"/></g><path fill="rgb(90.979004%, 90.979004%, 90.979004%)" d="M 9.492188 23.121094 C 9.476562 23.121094 9.460938 23.113281 9.457031 23.097656 L 8.914062 21.992188 C 8.910156 21.988281 8.910156 21.988281 8.90625 21.980469 L 8.707031 20.660156 C 8.707031 20.65625 8.707031 20.652344 8.707031 20.648438 L 8.882812 19.300781 C 8.882812 19.296875 8.886719 19.296875 8.886719 19.292969 L 9.410156 18.09375 C 9.414062 18.089844 9.414062 18.085938 9.417969 18.085938 L 10.199219 17.167969 C 10.203125 17.164062 10.207031 17.164062 10.210938 17.160156 L 10.484375 17.023438 L 11.125 16.667969 C 11.144531 16.65625 11.167969 16.664062 11.175781 16.683594 C 11.1875 16.703125 11.179688 16.722656 11.164062 16.734375 L 10.523438 17.089844 L 10.253906 17.226562 L 9.476562 18.132812 L 8.957031 19.320312 L 8.78125 20.65625 L 8.980469 21.96875 L 9.523438 23.066406 C 9.53125 23.085938 9.523438 23.109375 9.503906 23.117188 C 9.5 23.117188 9.496094 23.121094 9.492188 23.121094 Z M 9.492188 23.121094 " fill-opacity="1" fill-rule="nonzero"/><g clip-path="url(#id7)"><path fill="rgb(90.979004%, 90.979004%, 90.979004%)" d="M 9.191406 24.261719 L 7.988281 24.167969 C 7.984375 24.167969 7.980469 24.167969 7.976562 24.164062 L 6.9375 23.613281 C 6.929688 23.609375 6.925781 23.605469 6.925781 23.601562 L 6.214844 22.695312 C 6.210938 22.691406 6.210938 22.683594 6.207031 22.679688 L 5.949219 21.5625 C 5.949219 21.554688 5.949219 21.550781 5.949219 21.546875 L 6.183594 20.339844 C 6.183594 20.335938 6.1875 20.332031 6.1875 20.328125 L 6.875 19.136719 C 6.875 19.136719 6.878906 19.132812 6.878906 19.128906 L 7.90625 18.09375 C 7.910156 18.089844 7.910156 18.089844 7.914062 18.085938 L 9.113281 17.394531 C 9.132812 17.382812 9.15625 17.390625 9.164062 17.410156 C 9.175781 17.425781 9.167969 17.449219 9.152344 17.460938 L 7.957031 18.148438 L 6.9375 19.179688 L 6.257812 20.359375 L 6.027344 21.550781 L 6.28125 22.652344 L 6.980469 23.546875 L 8.003906 24.09375 L 9.195312 24.1875 C 9.21875 24.1875 9.230469 24.207031 9.230469 24.230469 C 9.230469 24.246094 9.210938 24.261719 9.191406 24.261719 Z M 9.191406 24.261719 " fill-opacity="1" fill-rule="nonzero"/></g><path fill="rgb(90.979004%, 90.979004%, 90.979004%)" d="M 32.175781 12.132812 C 32.171875 12.132812 32.164062 12.128906 32.160156 12.128906 L 31.089844 11.582031 C 31.070312 11.574219 31.0625 11.550781 31.074219 11.53125 C 31.085938 11.511719 31.105469 11.503906 31.125 11.515625 L 32.195312 12.058594 C 32.214844 12.070312 32.222656 12.09375 32.210938 12.109375 C 32.207031 12.121094 32.191406 12.132812 32.175781 12.132812 Z M 32.175781 12.132812 " fill-opacity="1" fill-rule="nonzero"/><g clip-path="url(#id8)"><path fill="rgb(90.979004%, 90.979004%, 90.979004%)" d="M 4.0625 22.949219 C 4.0625 22.949219 4.058594 22.949219 4.058594 22.949219 L 2.46875 22.699219 C 2.464844 22.699219 2.457031 22.695312 2.453125 22.695312 L 1.5 21.96875 C 1.480469 21.957031 1.480469 21.933594 1.492188 21.917969 C 1.503906 21.898438 1.527344 21.894531 1.546875 21.910156 L 2.492188 22.628906 L 4.066406 22.875 L 6.242188 22.632812 L 8.9375 21.9375 L 12.042969 20.882812 L 15.417969 19.601562 L 18.890625 18.273438 L 22.289062 17.109375 L 25.441406 16.300781 C 25.445312 16.300781 25.445312 16.300781 25.449219 16.300781 L 28.203125 15.972656 C 28.207031 15.972656 28.207031 15.972656 28.210938 15.972656 L 30.449219 16.117188 C 30.449219 16.117188 30.453125 16.117188 30.457031 16.117188 L 32.09375 16.59375 C 32.097656 16.59375 32.097656 16.59375 32.101562 16.597656 L 33.101562 17.179688 C 33.105469 17.183594 33.109375 17.1875 33.113281 17.191406 L 33.464844 17.679688 C 33.476562 17.695312 33.472656 17.71875 33.457031 17.730469 C 33.4375 17.746094 33.414062 17.738281 33.402344 17.722656 L 33.054688 17.246094 L 32.070312 16.667969 L 30.4375 16.195312 L 28.207031 16.050781 L 25.460938 16.378906 L 22.308594 17.183594 L 18.914062 18.347656 L 15.441406 19.671875 L 12.070312 20.953125 L 8.960938 22.011719 L 6.257812 22.707031 C 6.253906 22.707031 6.253906 22.710938 6.25 22.710938 L 4.066406 22.949219 C 4.066406 22.949219 4.066406 22.949219 4.0625 22.949219 Z M 4.0625 22.949219 " fill-opacity="1" fill-rule="nonzero"/></g><path fill="rgb(90.979004%, 90.979004%, 90.979004%)" d="M 2.140625 21.785156 C 2.136719 21.785156 2.136719 21.785156 2.132812 21.78125 C 2.113281 21.777344 2.097656 21.753906 2.105469 21.734375 L 2.414062 20.703125 C 2.414062 20.699219 2.417969 20.695312 2.417969 20.691406 L 3.316406 19.578125 C 3.316406 19.574219 3.320312 19.574219 3.320312 19.574219 L 4.664062 18.5 C 4.664062 18.496094 4.667969 18.496094 4.667969 18.496094 L 6.246094 17.695312 C 6.25 17.695312 6.253906 17.695312 6.257812 17.691406 L 7.824219 17.429688 C 7.84375 17.425781 7.863281 17.4375 7.867188 17.460938 C 7.871094 17.480469 7.859375 17.5 7.835938 17.503906 L 6.273438 17.769531 L 4.707031 18.5625 L 3.371094 19.628906 L 2.480469 20.734375 L 2.175781 21.757812 C 2.175781 21.773438 2.160156 21.785156 2.140625 21.785156 Z M 2.140625 21.785156 " fill-opacity="1" fill-rule="nonzero"/><path fill="rgb(90.979004%, 90.979004%, 90.979004%)" d="M 22.410156 21.449219 C 22.394531 21.449219 22.378906 21.4375 22.375 21.417969 C 22.367188 21.398438 22.378906 21.378906 22.398438 21.371094 L 23.253906 21.125 L 24.128906 20.09375 C 24.136719 20.085938 24.144531 20.082031 24.152344 20.078125 L 26.464844 19.785156 L 27.472656 18.074219 L 28.167969 16.003906 L 28.421875 14.003906 L 28.191406 12.429688 L 27.523438 11.5 L 26.519531 11.253906 C 26.5 11.25 26.488281 11.230469 26.492188 11.210938 C 26.496094 11.1875 26.519531 11.175781 26.539062 11.179688 L 27.554688 11.429688 C 27.5625 11.429688 27.570312 11.4375 27.574219 11.441406 L 28.253906 12.394531 C 28.257812 12.398438 28.261719 12.40625 28.261719 12.410156 L 28.496094 13.996094 C 28.496094 14 28.496094 14.003906 28.496094 14.007812 L 28.242188 16.019531 C 28.242188 16.023438 28.242188 16.023438 28.242188 16.027344 L 27.546875 18.105469 C 27.542969 18.105469 27.542969 18.109375 27.542969 18.109375 L 26.523438 19.84375 C 26.519531 19.851562 26.507812 19.859375 26.496094 19.859375 L 24.179688 20.15625 L 23.304688 21.1875 C 23.296875 21.191406 23.292969 21.195312 23.285156 21.199219 L 22.417969 21.449219 C 22.417969 21.449219 22.414062 21.449219 22.410156 21.449219 Z M 22.410156 21.449219 " fill-opacity="1" fill-rule="nonzero"/><g clip-path="url(#id9)"><path fill="rgb(90.979004%, 90.979004%, 90.979004%)" d="M 19.992188 12.945312 C 19.988281 12.945312 19.984375 12.945312 19.980469 12.945312 C 19.960938 12.9375 19.949219 12.917969 19.953125 12.898438 L 20.226562 11.851562 C 20.226562 11.847656 20.226562 11.847656 20.226562 11.84375 L 20.667969 10.953125 C 20.679688 10.933594 20.703125 10.925781 20.71875 10.933594 C 20.738281 10.945312 20.746094 10.964844 20.738281 10.984375 L 20.296875 11.875 L 20.027344 12.917969 C 20.023438 12.933594 20.007812 12.945312 19.992188 12.945312 Z M 19.992188 12.945312 " fill-opacity="1" fill-rule="nonzero"/></g><g clip-path="url(#id10)"><path fill="rgb(90.979004%, 90.979004%, 90.979004%)" d="M 16.601562 14.3125 C 16.582031 14.3125 16.5625 14.296875 16.5625 14.277344 L 16.519531 13.308594 L 16.402344 11.792969 L 16.269531 10.789062 L 16.140625 10.421875 C 16.132812 10.402344 16.144531 10.378906 16.164062 10.371094 C 16.1875 10.367188 16.207031 10.378906 16.214844 10.398438 L 16.34375 10.765625 C 16.34375 10.769531 16.34375 10.773438 16.34375 10.773438 L 16.480469 11.785156 L 16.597656 13.304688 L 16.640625 14.273438 C 16.640625 14.296875 16.625 14.3125 16.605469 14.316406 C 16.601562 14.3125 16.601562 14.3125 16.601562 14.3125 Z M 16.601562 14.3125 " fill-opacity="1" fill-rule="nonzero"/></g><path fill="rgb(90.979004%, 90.979004%, 90.979004%)" d="M 5.5 17.269531 C 5.484375 17.269531 5.46875 17.261719 5.464844 17.246094 L 5.175781 16.386719 C 5.171875 16.382812 5.171875 16.375 5.175781 16.371094 L 5.355469 15.28125 C 5.355469 15.277344 5.355469 15.273438 5.359375 15.269531 L 5.980469 14.109375 C 5.980469 14.109375 5.984375 14.105469 5.988281 14.101562 L 7.015625 13.011719 C 7.019531 13.007812 7.019531 13.007812 7.023438 13.003906 L 8.40625 12.089844 C 8.425781 12.078125 8.449219 12.082031 8.460938 12.101562 C 8.472656 12.117188 8.46875 12.140625 8.449219 12.152344 L 7.066406 13.066406 L 6.046875 14.152344 L 5.429688 15.300781 L 5.25 16.371094 L 5.539062 17.21875 C 5.542969 17.238281 5.535156 17.261719 5.511719 17.269531 C 5.511719 17.269531 5.503906 17.269531 5.5 17.269531 Z M 5.5 17.269531 " fill-opacity="1" fill-rule="nonzero"/><path fill="rgb(90.979004%, 90.979004%, 90.979004%)" d="M 20.433594 21.835938 C 20.417969 21.835938 20.402344 21.824219 20.398438 21.808594 C 20.390625 21.789062 20.402344 21.765625 20.421875 21.757812 L 20.9375 21.601562 L 21.472656 20.691406 C 21.480469 20.679688 21.488281 20.675781 21.5 20.671875 L 24.132812 20.085938 L 24.890625 18.398438 L 25.414062 16.335938 L 25.601562 14.328125 L 25.425781 12.761719 L 24.925781 11.859375 L 24.175781 11.648438 C 24.152344 11.644531 24.140625 11.621094 24.148438 11.601562 C 24.152344 11.582031 24.175781 11.570312 24.195312 11.574219 L 24.960938 11.789062 C 24.96875 11.792969 24.980469 11.796875 24.984375 11.808594 L 25.5 12.730469 C 25.5 12.734375 25.503906 12.738281 25.503906 12.746094 L 25.679688 14.324219 C 25.679688 14.328125 25.679688 14.328125 25.679688 14.332031 L 25.488281 16.347656 C 25.488281 16.347656 25.488281 16.351562 25.488281 16.351562 L 24.964844 18.421875 C 24.964844 18.425781 24.964844 18.425781 24.960938 18.429688 L 24.195312 20.136719 C 24.1875 20.148438 24.179688 20.15625 24.167969 20.15625 L 21.53125 20.746094 L 20.996094 21.65625 C 20.992188 21.664062 20.984375 21.671875 20.976562 21.675781 L 20.445312 21.835938 C 20.441406 21.835938 20.4375 21.835938 20.433594 21.835938 Z M 20.433594 21.835938 " fill-opacity="1" fill-rule="nonzero"/><path fill="rgb(90.979004%, 90.979004%, 90.979004%)" d="M 22.820312 12.027344 C 22.816406 12.027344 22.816406 12.027344 22.816406 12.027344 L 22.054688 11.988281 C 22.035156 11.984375 22.019531 11.96875 22.019531 11.945312 C 22.019531 11.925781 22.039062 11.910156 22.058594 11.910156 L 22.820312 11.953125 C 22.84375 11.953125 22.859375 11.96875 22.855469 11.992188 C 22.855469 12.011719 22.839844 12.027344 22.820312 12.027344 Z M 22.820312 12.027344 " fill-opacity="1" fill-rule="nonzero"/><path fill="rgb(90.979004%, 90.979004%, 90.979004%)" d="M 13.484375 23.5625 C 13.476562 23.5625 13.46875 23.558594 13.464844 23.554688 L 12.886719 23.207031 C 12.878906 23.203125 12.875 23.199219 12.871094 23.195312 L 12.367188 22.28125 C 12.367188 22.277344 12.363281 22.273438 12.363281 22.269531 L 12.015625 20.925781 C 12.015625 20.925781 12.015625 20.921875 12.015625 20.921875 L 11.886719 19.378906 C 11.886719 19.375 11.886719 19.375 11.886719 19.371094 L 11.996094 17.902344 C 11.996094 17.878906 12.015625 17.867188 12.039062 17.867188 C 12.058594 17.867188 12.074219 17.886719 12.074219 17.910156 L 11.960938 19.375 L 12.089844 20.910156 L 12.4375 22.246094 L 12.933594 23.148438 L 13.503906 23.488281 C 13.519531 23.5 13.527344 23.523438 13.515625 23.539062 C 13.507812 23.554688 13.496094 23.5625 13.484375 23.5625 Z M 13.484375 23.5625 " fill-opacity="1" fill-rule="nonzero"/><path fill="rgb(90.979004%, 90.979004%, 90.979004%)" d="M 24.203125 11.648438 C 24.191406 11.648438 24.179688 11.644531 24.171875 11.632812 C 24.160156 11.617188 24.160156 11.59375 24.175781 11.582031 L 24.644531 11.179688 C 24.648438 11.171875 24.660156 11.171875 24.667969 11.167969 L 25.621094 11.078125 C 25.640625 11.078125 25.660156 11.09375 25.660156 11.113281 C 25.664062 11.136719 25.648438 11.15625 25.625 11.15625 L 24.683594 11.246094 L 24.226562 11.636719 C 24.21875 11.644531 24.210938 11.648438 24.203125 11.648438 Z M 24.203125 11.648438 " fill-opacity="1" fill-rule="nonzero"/><path fill="rgb(90.979004%, 90.979004%, 90.979004%)" d="M 8.71875 17.558594 C 8.710938 17.558594 8.699219 17.554688 8.691406 17.542969 L 8.289062 17.078125 C 8.285156 17.066406 8.28125 17.054688 8.28125 17.046875 L 8.386719 16.414062 C 8.390625 16.40625 8.390625 16.402344 8.394531 16.398438 L 8.832031 15.707031 C 8.832031 15.703125 8.835938 15.703125 8.839844 15.699219 L 9.585938 15.023438 C 9.589844 15.019531 9.589844 15.019531 9.59375 15.019531 L 10.617188 14.417969 C 10.617188 14.417969 10.621094 14.417969 10.625 14.414062 L 11.878906 13.933594 C 11.878906 13.933594 11.882812 13.929688 11.882812 13.929688 L 13.324219 13.585938 C 13.324219 13.585938 13.328125 13.585938 13.328125 13.582031 L 14.902344 13.367188 L 16.558594 13.265625 L 18.238281 13.25 L 18.90625 13.261719 C 18.925781 13.261719 18.941406 13.28125 18.941406 13.300781 C 18.941406 13.324219 18.925781 13.339844 18.90625 13.339844 C 18.90625 13.339844 18.90625 13.339844 18.902344 13.339844 L 18.238281 13.324219 L 16.5625 13.339844 L 14.910156 13.441406 L 13.339844 13.65625 L 11.902344 14.003906 L 10.652344 14.484375 L 9.636719 15.082031 L 8.894531 15.75 L 8.464844 16.429688 L 8.363281 17.039062 L 8.75 17.492188 C 8.765625 17.507812 8.765625 17.53125 8.746094 17.542969 C 8.738281 17.554688 8.730469 17.558594 8.71875 17.558594 Z M 8.71875 17.558594 " fill-opacity="1" fill-rule="nonzero"/><path fill="rgb(90.979004%, 90.979004%, 90.979004%)" d="M 15.953125 22.957031 C 15.9375 22.957031 15.921875 22.945312 15.914062 22.933594 L 15.703125 22.390625 C 15.703125 22.390625 15.703125 22.386719 15.703125 22.382812 L 15.515625 21.234375 L 15.386719 19.640625 L 15.339844 17.902344 L 15.375 16.34375 L 15.496094 15.222656 C 15.496094 15.21875 15.496094 15.214844 15.496094 15.214844 L 15.675781 14.644531 C 15.683594 14.625 15.703125 14.613281 15.722656 14.617188 C 15.742188 14.625 15.753906 14.644531 15.75 14.667969 L 15.570312 15.234375 L 15.453125 16.347656 L 15.417969 17.898438 L 15.464844 19.632812 L 15.59375 21.222656 L 15.777344 22.367188 L 15.988281 22.902344 C 15.996094 22.921875 15.984375 22.945312 15.964844 22.953125 C 15.960938 22.957031 15.957031 22.957031 15.953125 22.957031 Z M 15.953125 22.957031 " fill-opacity="1" fill-rule="nonzero"/><g clip-path="url(#id11)"><path fill="rgb(90.979004%, 90.979004%, 90.979004%)" d="M 3.761719 21.980469 C 3.757812 21.980469 3.757812 21.980469 3.757812 21.980469 L 2.136719 21.785156 C 2.117188 21.78125 2.101562 21.761719 2.105469 21.742188 C 2.109375 21.71875 2.125 21.703125 2.148438 21.707031 L 3.761719 21.902344 L 5.976562 21.515625 L 8.734375 20.617188 L 11.910156 19.34375 L 15.363281 17.867188 L 18.921875 16.390625 L 22.402344 15.136719 L 25.632812 14.292969 C 25.632812 14.292969 25.636719 14.289062 25.636719 14.289062 L 28.457031 13.964844 C 28.457031 13.964844 28.460938 13.964844 28.460938 13.964844 L 30.75 14.128906 C 30.75 14.128906 30.753906 14.132812 30.757812 14.132812 L 32.429688 14.625 C 32.429688 14.625 32.433594 14.625 32.4375 14.628906 L 33.453125 15.207031 C 33.457031 15.207031 33.460938 15.210938 33.460938 15.214844 L 33.816406 15.660156 C 33.828125 15.675781 33.828125 15.703125 33.808594 15.714844 C 33.792969 15.726562 33.769531 15.726562 33.753906 15.707031 L 33.40625 15.269531 L 32.402344 14.699219 L 30.738281 14.207031 L 28.460938 14.042969 L 25.648438 14.367188 L 22.421875 15.207031 L 18.945312 16.464844 L 15.390625 17.9375 L 11.9375 19.414062 L 8.757812 20.6875 L 6 21.589844 C 5.996094 21.589844 5.996094 21.589844 5.992188 21.589844 L 3.765625 21.980469 C 3.765625 21.980469 3.761719 21.980469 3.761719 21.980469 Z M 3.761719 21.980469 " fill-opacity="1" fill-rule="nonzero"/></g><g clip-path="url(#id12)"><path fill="rgb(90.979004%, 90.979004%, 90.979004%)" d="M 6.125 24.207031 C 6.125 24.207031 6.121094 24.207031 6.117188 24.203125 L 4.746094 23.929688 C 4.746094 23.929688 4.742188 23.929688 4.742188 23.929688 L 3.382812 23.449219 C 3.382812 23.449219 3.382812 23.449219 3.378906 23.449219 C 3.378906 23.449219 3.378906 23.445312 3.378906 23.445312 L 2.46875 22.796875 L 1.496094 21.96875 C 1.492188 21.964844 1.488281 21.957031 1.484375 21.953125 L 1.136719 20.988281 C 1.136719 20.988281 1.136719 20.984375 1.136719 20.984375 L 0.820312 19.742188 C 0.820312 19.734375 0.820312 19.730469 0.820312 19.722656 L 1.140625 18.632812 C 1.140625 18.628906 1.144531 18.621094 1.148438 18.617188 L 2.082031 17.625 L 2.355469 16.089844 C 2.355469 16.085938 2.355469 16.085938 2.359375 16.082031 L 3.179688 14.460938 C 3.183594 14.457031 3.183594 14.457031 3.1875 14.453125 L 4.507812 12.976562 C 4.507812 12.972656 4.511719 12.972656 4.511719 12.96875 L 6.265625 11.792969 C 6.269531 11.789062 6.273438 11.785156 6.28125 11.785156 L 7.253906 11.640625 L 9.164062 10.886719 C 9.167969 10.886719 9.167969 10.886719 9.171875 10.886719 L 11.347656 10.457031 C 11.347656 10.457031 11.347656 10.457031 11.351562 10.457031 L 13.710938 10.3125 C 13.722656 10.3125 13.734375 10.316406 13.742188 10.324219 L 14.140625 10.769531 L 16.308594 10.738281 L 18.527344 10.808594 L 20.695312 10.929688 L 21.121094 10.746094 C 21.125 10.742188 21.132812 10.742188 21.136719 10.742188 L 23.476562 10.925781 L 25.625 11.078125 L 26.804688 11.167969 L 28.449219 11.089844 C 28.449219 11.089844 28.449219 11.089844 28.453125 11.089844 L 29.878906 11.199219 C 29.882812 11.199219 29.882812 11.199219 29.882812 11.199219 L 30.773438 11.378906 C 30.777344 11.378906 30.777344 11.378906 30.78125 11.378906 L 31.121094 11.511719 C 31.125 11.511719 31.125 11.511719 31.125 11.515625 L 31.566406 11.757812 L 32.195312 12.058594 C 32.195312 12.058594 32.199219 12.058594 32.199219 12.0625 L 32.550781 12.296875 C 32.554688 12.300781 32.558594 12.304688 32.5625 12.308594 L 33.5 13.765625 C 33.503906 13.769531 33.503906 13.777344 33.503906 13.78125 L 33.820312 15.675781 C 33.824219 15.679688 33.824219 15.683594 33.820312 15.6875 L 33.464844 17.710938 C 33.464844 17.714844 33.464844 17.71875 33.460938 17.71875 L 32.496094 19.53125 C 32.492188 19.535156 32.492188 19.539062 32.488281 19.542969 L 31.058594 20.855469 L 30.867188 21.085938 C 30.863281 21.089844 30.855469 21.09375 30.851562 21.097656 L 29.222656 21.648438 C 29.21875 21.648438 29.210938 21.652344 29.207031 21.648438 L 27.582031 21.460938 C 27.578125 21.460938 27.570312 21.457031 27.566406 21.457031 L 27.207031 21.234375 L 26.691406 21.152344 L 25.601562 21.113281 L 24.160156 21.203125 L 22.414062 21.445312 L 20.4375 21.832031 L 18.9375 22.179688 L 18.492188 22.289062 L 15.960938 22.953125 L 13.492188 23.558594 L 11.207031 24.015625 C 11.199219 24.019531 11.195312 24.019531 11.191406 24.015625 L 10.285156 23.828125 L 8 24.167969 C 7.996094 24.167969 7.996094 24.167969 7.992188 24.167969 Z M 4.761719 23.855469 L 6.128906 24.128906 L 7.988281 24.089844 L 10.195312 23.761719 L 9.480469 23.121094 L 6.960938 23.613281 C 6.960938 23.613281 6.957031 23.613281 6.957031 23.613281 L 4.902344 23.730469 C 4.898438 23.730469 4.894531 23.730469 4.890625 23.730469 L 3.875 23.542969 Z M 10.460938 23.785156 L 11.199219 23.941406 L 13.476562 23.484375 L 15.941406 22.882812 L 18.472656 22.21875 L 18.917969 22.105469 L 20.421875 21.761719 L 22.402344 21.371094 L 24.152344 21.128906 L 25.601562 21.039062 L 26.699219 21.078125 C 26.699219 21.078125 26.699219 21.078125 26.703125 21.078125 L 27.226562 21.160156 C 27.230469 21.164062 27.238281 21.164062 27.242188 21.167969 L 27.601562 21.386719 L 29.207031 21.574219 L 30.816406 21.027344 L 31.003906 20.804688 C 31.007812 20.804688 31.007812 20.804688 31.007812 20.800781 L 32.433594 19.492188 L 33.394531 17.691406 L 33.746094 15.683594 L 33.433594 13.800781 L 32.503906 12.359375 L 32.160156 12.125 L 31.535156 11.824219 L 31.09375 11.585938 L 30.757812 11.453125 L 29.875 11.277344 L 28.453125 11.167969 L 26.808594 11.242188 L 26.535156 11.257812 L 24.191406 11.652344 L 21.613281 12.363281 L 22.003906 12.589844 C 22.011719 12.59375 22.019531 12.601562 22.019531 12.609375 L 22.339844 13.570312 C 22.339844 13.574219 22.339844 13.578125 22.339844 13.582031 L 22.453125 15.167969 C 22.453125 15.171875 22.453125 15.171875 22.453125 15.175781 L 22.335938 17.152344 C 22.335938 17.152344 22.335938 17.152344 22.335938 17.15625 L 22.015625 19.132812 C 22.015625 19.132812 22.015625 19.136719 22.011719 19.136719 L 21.542969 20.726562 C 21.539062 20.738281 21.527344 20.746094 21.515625 20.75 L 18.664062 21.550781 L 15.75 22.417969 L 12.917969 23.214844 Z M 9.492188 23.042969 C 9.5 23.042969 9.507812 23.046875 9.515625 23.050781 L 10.296875 23.746094 L 12.898438 23.140625 L 15.730469 22.339844 L 18.644531 21.472656 L 21.476562 20.679688 L 21.941406 19.113281 L 22.261719 17.140625 L 22.375 15.167969 L 22.265625 13.589844 L 21.953125 12.648438 L 21.507812 12.394531 L 18.65625 13.433594 L 15.726562 14.691406 L 12.882812 16.011719 L 12.519531 16.160156 L 11.160156 16.734375 L 9.144531 17.464844 C 9.144531 17.464844 9.144531 17.464844 9.140625 17.464844 L 7.492188 17.832031 C 7.488281 17.832031 7.488281 17.832031 7.484375 17.832031 L 6.261719 17.769531 C 6.253906 17.769531 6.246094 17.765625 6.242188 17.761719 L 5.496094 17.273438 L 3.859375 17.941406 L 2.457031 18.910156 L 1.523438 19.960938 L 1.214844 20.960938 L 2.164062 21.714844 C 2.167969 21.71875 2.171875 21.726562 2.175781 21.734375 L 2.507812 22.640625 L 3.410156 23.378906 L 4.898438 23.65625 L 6.945312 23.539062 L 9.480469 23.042969 C 9.484375 23.042969 9.488281 23.042969 9.492188 23.042969 Z M 1.554688 21.917969 L 2.4375 22.671875 L 2.109375 21.769531 L 1.253906 21.089844 Z M 0.898438 19.734375 L 1.175781 20.832031 L 1.457031 19.929688 C 1.457031 19.921875 1.460938 19.917969 1.464844 19.914062 L 2.402344 18.855469 C 2.40625 18.851562 2.40625 18.851562 2.410156 18.847656 L 3.820312 17.875 C 3.820312 17.875 3.824219 17.875 3.824219 17.871094 L 5.484375 17.195312 C 5.5 17.191406 5.511719 17.191406 5.519531 17.199219 L 6.273438 17.691406 L 7.480469 17.757812 L 9.121094 17.390625 L 11.132812 16.664062 L 12.488281 16.089844 L 12.847656 15.941406 L 12.949219 15.898438 L 15.695312 14.625 L 18.628906 13.367188 L 21.5 12.316406 C 21.503906 12.316406 21.503906 12.316406 21.507812 12.316406 L 24.171875 11.578125 C 24.175781 11.578125 24.175781 11.578125 24.175781 11.578125 L 24.195312 11.574219 L 26.34375 11.210938 L 25.621094 11.160156 L 23.472656 11.003906 L 21.140625 10.820312 L 20.71875 11.003906 C 20.710938 11.003906 20.707031 11.003906 20.699219 11.003906 L 18.523438 10.886719 L 16.304688 10.816406 L 14.121094 10.851562 C 14.109375 10.851562 14.097656 10.847656 14.089844 10.835938 L 13.691406 10.390625 L 11.355469 10.535156 L 9.1875 10.964844 L 7.273438 11.714844 C 7.269531 11.71875 7.269531 11.71875 7.265625 11.71875 L 6.300781 11.863281 L 4.558594 13.035156 L 3.246094 14.5 L 2.425781 16.113281 L 2.15625 17.652344 C 2.15625 17.660156 2.152344 17.667969 2.148438 17.671875 L 1.210938 18.664062 Z M 0.898438 19.734375 " fill-opacity="1" fill-rule="nonzero"/></g><path fill="rgb(90.979004%, 90.979004%, 90.979004%)" d="M 11.40625 16.628906 C 11.386719 16.628906 11.371094 16.613281 11.367188 16.597656 L 11.289062 16.082031 L 10.601562 14.472656 L 9.585938 13.109375 L 8.40625 12.152344 C 8.390625 12.136719 8.386719 12.113281 8.398438 12.097656 C 8.414062 12.082031 8.4375 12.078125 8.453125 12.09375 L 9.640625 13.050781 C 9.644531 13.054688 9.644531 13.054688 9.648438 13.058594 L 10.667969 14.429688 C 10.667969 14.433594 10.667969 14.4375 10.671875 14.4375 L 11.359375 16.054688 C 11.363281 16.058594 11.363281 16.0625 11.363281 16.0625 L 11.441406 16.585938 C 11.445312 16.605469 11.433594 16.625 11.410156 16.628906 C 11.410156 16.628906 11.40625 16.628906 11.40625 16.628906 Z M 11.40625 16.628906 " fill-opacity="1" fill-rule="nonzero"/><g clip-path="url(#id13)"><path fill="rgb(90.979004%, 90.979004%, 90.979004%)" d="M 12.503906 16.164062 C 12.488281 16.164062 12.46875 16.148438 12.46875 16.128906 L 12.414062 15.675781 L 11.855469 13.988281 L 11.035156 12.519531 L 10.089844 11.472656 L 9.167969 10.964844 L 8.40625 11.066406 L 6.300781 11.863281 C 6.277344 11.871094 6.257812 11.859375 6.25 11.839844 C 6.242188 11.820312 6.253906 11.796875 6.273438 11.789062 L 8.382812 10.992188 C 8.386719 10.988281 8.386719 10.988281 8.390625 10.988281 L 9.171875 10.886719 C 9.179688 10.886719 9.1875 10.886719 9.195312 10.890625 L 10.132812 11.40625 C 10.136719 11.410156 10.136719 11.410156 10.140625 11.414062 L 11.09375 12.472656 C 11.097656 12.472656 11.097656 12.476562 11.101562 12.476562 L 11.921875 13.949219 C 11.925781 13.953125 11.925781 13.953125 11.925781 13.957031 L 12.484375 15.652344 C 12.484375 15.65625 12.484375 15.65625 12.484375 15.660156 L 12.539062 16.117188 C 12.542969 16.140625 12.527344 16.160156 12.507812 16.160156 C 12.507812 16.164062 12.507812 16.164062 12.503906 16.164062 Z M 12.503906 16.164062 " fill-opacity="1" fill-rule="nonzero"/></g><path fill="rgb(90.979004%, 90.979004%, 90.979004%)" d="M 18.484375 22.292969 C 18.480469 22.292969 18.480469 22.292969 18.476562 22.292969 C 18.457031 22.285156 18.441406 22.265625 18.449219 22.246094 L 18.617188 21.503906 L 18.765625 20.117188 L 18.863281 18.308594 L 18.898438 16.425781 L 18.859375 14.839844 L 18.757812 13.808594 L 18.609375 13.414062 C 18.601562 13.394531 18.613281 13.371094 18.632812 13.363281 C 18.652344 13.355469 18.671875 13.367188 18.679688 13.386719 L 18.832031 13.785156 C 18.832031 13.789062 18.832031 13.792969 18.832031 13.796875 L 18.9375 14.835938 L 18.972656 16.425781 L 18.941406 18.3125 L 18.84375 20.125 L 18.695312 21.515625 C 18.695312 21.515625 18.695312 21.519531 18.695312 21.519531 L 18.523438 22.265625 C 18.515625 22.28125 18.503906 22.292969 18.484375 22.292969 Z M 18.484375 22.292969 " fill-opacity="1" fill-rule="nonzero"/><path fill="rgb(90.979004%, 90.979004%, 90.979004%)" d="M 29.359375 21.496094 C 29.351562 21.496094 29.34375 21.492188 29.335938 21.488281 L 29.027344 21.261719 L 27.398438 21.265625 C 27.398438 21.265625 27.394531 21.265625 27.390625 21.265625 L 27.214844 21.238281 C 27.191406 21.234375 27.179688 21.214844 27.179688 21.191406 C 27.183594 21.171875 27.203125 21.15625 27.226562 21.160156 L 27.402344 21.1875 L 29.039062 21.183594 C 29.046875 21.183594 29.054688 21.1875 29.0625 21.191406 L 29.382812 21.425781 C 29.398438 21.4375 29.402344 21.460938 29.390625 21.480469 C 29.382812 21.492188 29.371094 21.496094 29.359375 21.496094 Z M 29.359375 21.496094 " fill-opacity="1" fill-rule="nonzero"/><path fill="rgb(90.979004%, 90.979004%, 90.979004%)" d="M 6.066406 18.632812 C 6.066406 18.632812 6.0625 18.632812 6.0625 18.632812 L 4.6875 18.566406 C 4.679688 18.566406 4.671875 18.5625 4.667969 18.558594 L 3.820312 17.941406 C 3.8125 17.9375 3.808594 17.929688 3.804688 17.921875 L 3.5 16.847656 C 3.5 16.84375 3.5 16.839844 3.5 16.832031 L 3.726562 15.480469 C 3.726562 15.476562 3.726562 15.472656 3.730469 15.46875 L 4.457031 14.046875 C 4.460938 14.042969 4.460938 14.039062 4.464844 14.039062 L 5.648438 12.722656 C 5.660156 12.710938 5.671875 12.707031 5.6875 12.710938 L 7.050781 13 C 7.054688 13 7.058594 13 7.0625 13.003906 L 8.445312 13.796875 C 8.449219 13.796875 8.449219 13.800781 8.453125 13.804688 L 9.640625 15.027344 C 9.640625 15.03125 9.644531 15.03125 9.644531 15.035156 L 10.445312 16.542969 C 10.449219 16.546875 10.449219 16.550781 10.449219 16.554688 L 10.519531 16.933594 C 10.523438 16.953125 10.511719 16.972656 10.488281 16.976562 C 10.46875 16.980469 10.449219 16.96875 10.445312 16.945312 L 10.375 16.574219 L 9.582031 15.074219 L 8.402344 13.859375 L 7.03125 13.074219 L 5.691406 12.789062 L 4.523438 14.085938 L 3.800781 15.5 L 3.574219 16.835938 L 3.871094 17.886719 L 4.699219 18.492188 L 6.058594 18.558594 L 7.921875 18.082031 L 10.214844 17.160156 L 10.488281 17.023438 L 11.398438 16.613281 L 12.847656 15.945312 C 12.863281 15.933594 12.886719 15.945312 12.898438 15.964844 C 12.90625 15.980469 12.898438 16.003906 12.878906 16.015625 L 11.429688 16.683594 L 10.519531 17.089844 L 10.25 17.226562 L 7.949219 18.15625 C 7.945312 18.15625 7.945312 18.15625 7.941406 18.15625 L 6.074219 18.632812 C 6.070312 18.632812 6.066406 18.632812 6.066406 18.632812 Z M 6.066406 18.632812 " fill-opacity="1" fill-rule="nonzero"/><path fill="rgb(90.979004%, 90.979004%, 90.979004%)" d="M 28.625 21.671875 C 28.621094 21.671875 28.621094 21.671875 28.617188 21.671875 L 27.5 21.519531 L 27.125 21.476562 L 26.25 21.34375 C 26.242188 21.34375 26.238281 21.34375 26.230469 21.339844 L 25.929688 21.121094 C 25.914062 21.109375 25.910156 21.082031 25.921875 21.066406 C 25.933594 21.046875 25.957031 21.042969 25.976562 21.058594 L 26.269531 21.269531 L 27.136719 21.398438 L 27.507812 21.445312 L 28.628906 21.59375 C 28.648438 21.597656 28.664062 21.617188 28.660156 21.636719 C 28.660156 21.660156 28.644531 21.671875 28.625 21.671875 Z M 28.625 21.671875 " fill-opacity="1" fill-rule="nonzero"/><path fill="rgb(90.979004%, 90.979004%, 90.979004%)" d="M 30.839844 21.097656 C 30.828125 21.097656 30.820312 21.09375 30.8125 21.085938 C 30.796875 21.070312 30.796875 21.046875 30.8125 21.03125 L 32.195312 19.761719 L 32.433594 19.488281 C 32.449219 19.472656 32.472656 19.472656 32.488281 19.484375 C 32.503906 19.5 32.507812 19.523438 32.492188 19.539062 L 32.253906 19.8125 C 32.25 19.8125 32.25 19.816406 32.25 19.816406 L 30.867188 21.085938 C 30.859375 21.097656 30.847656 21.097656 30.839844 21.097656 Z M 30.839844 21.097656 " fill-opacity="1" fill-rule="nonzero"/><path fill="rgb(90.979004%, 90.979004%, 90.979004%)" d="M 27.695312 21.386719 C 27.6875 21.386719 27.683594 21.386719 27.679688 21.386719 L 27.382812 21.265625 C 27.363281 21.257812 27.355469 21.234375 27.363281 21.214844 C 27.371094 21.195312 27.394531 21.1875 27.414062 21.195312 L 27.710938 21.316406 C 27.730469 21.324219 27.738281 21.347656 27.730469 21.367188 C 27.722656 21.378906 27.710938 21.386719 27.695312 21.386719 Z M 27.695312 21.386719 " fill-opacity="1" fill-rule="nonzero"/><path fill="rgb(90.979004%, 90.979004%, 90.979004%)" d="M 21.9375 12.273438 C 21.933594 12.273438 21.925781 12.269531 21.921875 12.269531 C 21.902344 12.261719 21.894531 12.238281 21.902344 12.21875 L 22.023438 11.933594 C 22.03125 11.914062 22.054688 11.90625 22.074219 11.914062 C 22.09375 11.921875 22.101562 11.945312 22.09375 11.964844 L 21.972656 12.25 C 21.96875 12.261719 21.953125 12.273438 21.9375 12.273438 Z M 21.9375 12.273438 " fill-opacity="1" fill-rule="nonzero"/><g clip-path="url(#id14)"><path fill="rgb(90.979004%, 90.979004%, 90.979004%)" d="M 18.21875 13.621094 C 18.199219 13.617188 18.179688 13.601562 18.183594 13.578125 L 18.199219 13.289062 L 18.332031 11.796875 L 18.488281 10.84375 C 18.488281 10.839844 18.488281 10.835938 18.492188 10.832031 L 18.644531 10.558594 C 18.65625 10.542969 18.679688 10.535156 18.699219 10.546875 C 18.714844 10.554688 18.722656 10.578125 18.710938 10.597656 L 18.5625 10.863281 L 18.40625 11.804688 L 18.273438 13.292969 L 18.257812 13.582031 C 18.257812 13.601562 18.242188 13.621094 18.21875 13.621094 Z M 18.21875 13.621094 " fill-opacity="1" fill-rule="nonzero"/></g><g clip-path="url(#id15)"><path fill="rgb(90.979004%, 90.979004%, 90.979004%)" d="M 13.757812 15.601562 C 13.738281 15.601562 13.722656 15.589844 13.71875 15.566406 L 13.703125 15.378906 L 13.292969 13.632812 L 12.695312 12.117188 L 12.003906 11.039062 L 11.328125 10.527344 C 11.3125 10.515625 11.308594 10.492188 11.320312 10.472656 C 11.332031 10.457031 11.359375 10.453125 11.375 10.46875 L 12.058594 10.984375 C 12.0625 10.988281 12.0625 10.992188 12.066406 10.992188 L 12.761719 12.078125 C 12.765625 12.082031 12.765625 12.082031 12.765625 12.085938 L 13.367188 13.605469 C 13.371094 13.609375 13.371094 13.609375 13.371094 13.613281 L 13.78125 15.359375 C 13.78125 15.363281 13.78125 15.367188 13.78125 15.367188 L 13.796875 15.558594 C 13.796875 15.578125 13.785156 15.597656 13.761719 15.601562 C 13.757812 15.601562 13.757812 15.601562 13.757812 15.601562 Z M 13.757812 15.601562 " fill-opacity="1" fill-rule="nonzero"/></g><path fill="rgb(90.979004%, 90.979004%, 90.979004%)" d="M 9.660156 17.277344 C 9.652344 17.277344 9.644531 17.273438 9.640625 17.269531 C 9.621094 17.257812 9.617188 17.234375 9.628906 17.214844 L 9.71875 17.085938 C 9.722656 17.085938 9.722656 17.082031 9.726562 17.078125 L 10.390625 16.53125 C 10.390625 16.53125 10.394531 16.527344 10.398438 16.527344 L 11.308594 16.035156 C 11.3125 16.035156 11.3125 16.035156 11.316406 16.03125 L 12.4375 15.628906 C 12.4375 15.628906 12.441406 15.628906 12.441406 15.628906 L 13.734375 15.332031 L 14.339844 15.253906 C 14.359375 15.25 14.378906 15.265625 14.382812 15.285156 C 14.382812 15.308594 14.371094 15.328125 14.347656 15.332031 L 13.746094 15.410156 L 12.460938 15.703125 L 11.34375 16.105469 L 10.4375 16.59375 L 9.78125 17.132812 L 9.695312 17.257812 C 9.683594 17.269531 9.671875 17.277344 9.660156 17.277344 Z M 9.660156 17.277344 " fill-opacity="1" fill-rule="nonzero"/><path fill="rgb(90.979004%, 90.979004%, 90.979004%)" d="M 9.769531 17.238281 C 9.75 17.238281 9.734375 17.226562 9.730469 17.207031 L 9.714844 17.125 L 8.835938 15.753906 L 7.53125 14.726562 L 6.007812 14.167969 L 4.496094 14.101562 L 3.234375 14.515625 L 2.398438 15.375 C 2.382812 15.390625 2.359375 15.390625 2.34375 15.378906 C 2.328125 15.363281 2.328125 15.339844 2.34375 15.324219 L 3.1875 14.453125 C 3.191406 14.449219 3.195312 14.445312 3.203125 14.445312 L 4.480469 14.027344 C 4.484375 14.027344 4.488281 14.023438 4.492188 14.027344 L 6.015625 14.089844 C 6.019531 14.089844 6.027344 14.09375 6.03125 14.09375 L 7.566406 14.660156 C 7.570312 14.660156 7.570312 14.664062 7.574219 14.664062 L 8.890625 15.699219 C 8.894531 15.703125 8.894531 15.707031 8.898438 15.710938 L 9.78125 17.089844 C 9.785156 17.09375 9.789062 17.097656 9.789062 17.101562 L 9.808594 17.191406 C 9.8125 17.210938 9.796875 17.234375 9.777344 17.238281 C 9.773438 17.238281 9.769531 17.238281 9.769531 17.238281 Z M 9.769531 17.238281 " fill-opacity="1" fill-rule="nonzero"/><g clip-path="url(#id16)"><path fill="rgb(90.979004%, 90.979004%, 90.979004%)" d="M 18.929688 22.183594 C 18.914062 22.183594 18.898438 22.167969 18.890625 22.152344 C 18.886719 22.132812 18.898438 22.109375 18.921875 22.105469 L 20.953125 21.597656 L 23.265625 21.121094 L 25.308594 20.855469 C 25.308594 20.855469 25.308594 20.855469 25.3125 20.855469 L 26.988281 20.8125 C 26.988281 20.8125 26.992188 20.8125 26.992188 20.8125 L 28.25 20.949219 C 28.25 20.949219 28.253906 20.949219 28.253906 20.949219 L 29.035156 21.179688 L 30.671875 20.4375 L 32.082031 19.035156 L 33.039062 17.203125 L 33.390625 15.238281 L 33.078125 13.453125 L 32.15625 12.125 L 31.210938 11.796875 L 29.660156 11.527344 L 27.550781 11.5 L 24.957031 11.863281 L 21.996094 12.65625 L 18.804688 13.832031 L 15.546875 15.261719 L 12.398438 16.757812 L 12.070312 17.917969 C 12.070312 17.929688 12.058594 17.9375 12.050781 17.941406 L 8.9375 19.34375 L 6.234375 20.382812 C 6.234375 20.382812 6.230469 20.382812 6.230469 20.382812 L 4.046875 20.886719 C 4.042969 20.886719 4.039062 20.886719 4.035156 20.886719 L 2.445312 20.753906 C 2.4375 20.753906 2.429688 20.75 2.425781 20.746094 L 1.46875 19.972656 C 1.464844 19.964844 1.457031 19.960938 1.457031 19.953125 L 1.140625 18.65625 C 1.140625 18.652344 1.140625 18.644531 1.140625 18.640625 L 1.445312 17.027344 C 1.445312 17.023438 1.445312 17.019531 1.449219 17.015625 L 2.335938 15.332031 C 2.339844 15.328125 2.339844 15.328125 2.34375 15.324219 L 3.753906 13.785156 L 4.503906 12.976562 C 4.511719 12.972656 4.515625 12.96875 4.523438 12.96875 L 5.660156 12.714844 L 7.238281 11.648438 C 7.25 11.644531 7.261719 11.640625 7.273438 11.644531 L 8.429688 12.082031 L 10.097656 11.40625 C 10.101562 11.40625 10.101562 11.40625 10.105469 11.40625 L 12.023438 10.980469 C 12.023438 10.980469 12.027344 10.980469 12.027344 10.976562 L 14.113281 10.773438 C 14.136719 10.773438 14.15625 10.789062 14.15625 10.808594 C 14.160156 10.832031 14.144531 10.847656 14.121094 10.851562 L 12.039062 11.054688 L 10.125 11.480469 L 8.445312 12.15625 C 8.433594 12.160156 8.425781 12.160156 8.414062 12.15625 L 7.265625 11.722656 L 5.699219 12.78125 C 5.695312 12.785156 5.691406 12.785156 5.6875 12.785156 L 4.554688 13.039062 L 3.808594 13.839844 L 2.402344 15.375 L 1.519531 17.050781 L 1.214844 18.648438 L 1.527344 19.921875 L 2.464844 20.675781 L 4.035156 20.8125 L 6.207031 20.308594 L 8.90625 19.273438 L 12.003906 17.878906 L 12.328125 16.71875 C 12.332031 16.710938 12.339844 16.703125 12.347656 16.695312 L 15.515625 15.191406 L 18.777344 13.761719 L 21.972656 12.585938 L 24.9375 11.785156 C 24.941406 11.785156 24.941406 11.785156 24.941406 11.785156 L 27.539062 11.425781 C 27.542969 11.425781 27.542969 11.425781 27.546875 11.425781 L 29.660156 11.449219 C 29.664062 11.449219 29.664062 11.449219 29.667969 11.449219 L 31.226562 11.722656 C 31.230469 11.722656 31.230469 11.722656 31.230469 11.722656 L 32.191406 12.054688 C 32.199219 12.058594 32.203125 12.0625 32.207031 12.070312 L 33.144531 13.414062 C 33.148438 13.417969 33.152344 13.421875 33.152344 13.429688 L 33.46875 15.230469 C 33.46875 15.234375 33.46875 15.238281 33.46875 15.242188 L 33.113281 17.222656 C 33.113281 17.226562 33.113281 17.230469 33.109375 17.234375 L 32.148438 19.078125 C 32.148438 19.082031 32.144531 19.085938 32.140625 19.085938 L 30.722656 20.496094 C 30.71875 20.5 30.714844 20.503906 30.710938 20.503906 L 29.054688 21.257812 C 29.046875 21.261719 29.039062 21.261719 29.027344 21.257812 L 28.238281 21.023438 L 26.988281 20.886719 L 25.316406 20.929688 L 23.277344 21.195312 L 20.972656 21.671875 L 18.9375 22.179688 C 18.9375 22.179688 18.933594 22.183594 18.929688 22.183594 Z M 18.929688 22.183594 " fill-opacity="1" fill-rule="nonzero"/></g><path fill="rgb(90.979004%, 90.979004%, 90.979004%)" d="M 29.359375 21.496094 C 29.359375 21.496094 29.359375 21.496094 29.355469 21.496094 L 27.707031 21.390625 L 27.609375 21.457031 C 27.601562 21.460938 27.59375 21.464844 27.585938 21.464844 L 27.097656 21.453125 C 27.089844 21.453125 27.082031 21.453125 27.078125 21.449219 L 26.625 21.144531 C 26.609375 21.132812 26.601562 21.109375 26.613281 21.09375 C 26.625 21.074219 26.648438 21.070312 26.667969 21.082031 L 27.109375 21.375 L 27.578125 21.386719 L 27.671875 21.320312 C 27.679688 21.3125 27.6875 21.3125 27.699219 21.3125 L 29.363281 21.417969 C 29.382812 21.421875 29.398438 21.441406 29.398438 21.460938 C 29.398438 21.480469 29.378906 21.496094 29.359375 21.496094 Z M 29.359375 21.496094 " fill-opacity="1" fill-rule="nonzero"/><g clip-path="url(#id17)"><path fill="rgb(90.979004%, 90.979004%, 90.979004%)" d="M 8.394531 11.066406 C 8.375 11.066406 8.359375 11.050781 8.359375 11.03125 C 8.355469 11.011719 8.367188 10.992188 8.390625 10.988281 L 10.476562 10.628906 C 10.496094 10.625 10.519531 10.640625 10.523438 10.660156 C 10.527344 10.679688 10.511719 10.699219 10.492188 10.703125 L 8.402344 11.0625 C 8.402344 11.066406 8.398438 11.066406 8.394531 11.066406 Z M 8.394531 11.066406 " fill-opacity="1" fill-rule="nonzero"/></g><g clip-path="url(#id18)"><path fill="rgb(90.979004%, 90.979004%, 90.979004%)" d="M 8.710938 17.5625 C 8.710938 17.5625 8.710938 17.5625 8.707031 17.5625 L 7.828125 17.503906 C 7.824219 17.503906 7.816406 17.5 7.8125 17.496094 L 7.140625 17.109375 C 7.132812 17.105469 7.128906 17.097656 7.125 17.089844 L 6.855469 16.4375 C 6.855469 16.429688 6.851562 16.425781 6.855469 16.417969 L 6.992188 15.589844 C 6.992188 15.582031 6.992188 15.578125 6.996094 15.574219 L 7.515625 14.675781 C 7.519531 14.671875 7.519531 14.667969 7.523438 14.667969 L 8.398438 13.800781 C 8.402344 13.800781 8.402344 13.796875 8.40625 13.796875 L 9.59375 13.046875 C 9.597656 13.046875 9.601562 13.042969 9.601562 13.042969 L 11.054688 12.464844 C 11.054688 12.460938 11.058594 12.460938 11.058594 12.460938 L 12.722656 12.0625 C 12.722656 12.0625 12.722656 12.0625 12.726562 12.0625 L 14.535156 11.835938 L 16.441406 11.75 L 18.367188 11.761719 L 20.261719 11.824219 L 22.042969 11.910156 L 22.746094 11.066406 C 22.75 11.0625 22.757812 11.054688 22.769531 11.054688 L 23.46875 10.925781 C 23.492188 10.921875 23.511719 10.9375 23.515625 10.957031 C 23.519531 10.980469 23.503906 11 23.484375 11.003906 L 22.796875 11.128906 L 22.089844 11.972656 C 22.082031 11.980469 22.070312 11.988281 22.058594 11.984375 L 20.261719 11.898438 L 18.367188 11.835938 L 16.441406 11.824219 L 14.542969 11.914062 L 12.738281 12.136719 L 11.082031 12.535156 L 9.632812 13.113281 L 8.449219 13.859375 L 7.582031 14.71875 L 7.066406 15.605469 L 6.933594 16.417969 L 7.191406 17.050781 L 7.84375 17.425781 L 8.710938 17.484375 C 8.734375 17.484375 8.75 17.503906 8.75 17.523438 C 8.746094 17.542969 8.730469 17.5625 8.710938 17.5625 Z M 8.710938 17.5625 " fill-opacity="1" fill-rule="nonzero"/></g></svg>