<svg xmlns="http://www.w3.org/2000/svg" xmlns:xlink="http://www.w3.org/1999/xlink" width="700" zoomAndPan="magnify" viewBox="0 0 525 396.749985" height="529" preserveAspectRatio="xMidYMid meet" version="1.0"><defs><clipPath id="id1"><path d="M 77.402344 266 L 447.667969 266 L 447.667969 269.265625 L 77.402344 269.265625 Z M 77.402344 266 " clip-rule="nonzero"/></clipPath><clipPath id="id2"><path d="M 122 127.605469 L 412 127.605469 L 412 130 L 122 130 Z M 122 127.605469 " clip-rule="nonzero"/></clipPath><clipPath id="id3"><path d="M 77.402344 127.605469 L 124 127.605469 L 124 267 L 77.402344 267 Z M 77.402344 127.605469 " clip-rule="nonzero"/></clipPath><clipPath id="id4"><path d="M 102 127.605469 L 143 127.605469 L 143 267 L 102 267 Z M 102 127.605469 " clip-rule="nonzero"/></clipPath><clipPath id="id5"><path d="M 126 127.605469 L 162 127.605469 L 162 268 L 126 268 Z M 126 127.605469 " clip-rule="nonzero"/></clipPath><clipPath id="id6"><path d="M 410 129 L 447.667969 129 L 447.667969 269.265625 L 410 269.265625 Z M 410 129 " clip-rule="nonzero"/></clipPath><clipPath id="id7"><path d="M 391 129 L 423 129 L 423 269.265625 L 391 269.265625 Z M 391 129 " clip-rule="nonzero"/></clipPath></defs><g clip-path="url(#id1)"><path fill="rgb(90.979004%, 90.979004%, 90.979004%)" d="M 447.214844 269.246094 C 447.214844 269.246094 447.199219 269.246094 447.214844 269.246094 L 422.492188 269.082031 L 397.769531 268.898438 L 373.042969 268.714844 L 323.671875 268.320312 L 299.054688 268.140625 L 274.464844 267.972656 L 176.175781 267.382812 L 126.984375 267.109375 L 102.414062 266.957031 L 77.855469 266.804688 C 77.644531 266.804688 77.460938 266.625 77.460938 266.414062 C 77.460938 266.199219 77.644531 266.019531 77.855469 266.019531 L 102.414062 266.167969 L 126.984375 266.320312 L 200.765625 266.746094 L 274.464844 267.199219 L 299.054688 267.367188 L 323.671875 267.550781 L 373.042969 267.941406 L 397.769531 268.125 L 422.492188 268.308594 L 447.214844 268.472656 C 447.425781 268.472656 447.609375 268.65625 447.609375 268.867188 C 447.59375 269.082031 447.425781 269.246094 447.214844 269.246094 Z M 447.214844 269.246094 " fill-opacity="1" fill-rule="nonzero"/></g><path fill="rgb(90.979004%, 90.979004%, 90.979004%)" d="M 444.160156 257.558594 L 419.875 257.394531 L 395.574219 257.210938 L 371.257812 257 L 346.960938 256.757812 L 322.734375 256.542969 L 298.617188 256.378906 L 250.542969 256.164062 L 226.5 256.027344 L 202.425781 255.863281 L 178.292969 255.710938 L 154.113281 255.589844 L 129.917969 255.484375 L 105.753906 255.363281 L 81.621094 255.226562 C 81.410156 255.226562 81.226562 255.042969 81.226562 254.832031 C 81.226562 254.617188 81.410156 254.4375 81.621094 254.4375 L 105.753906 254.574219 L 129.917969 254.695312 L 154.113281 254.800781 L 178.292969 254.921875 L 202.425781 255.074219 L 226.5 255.242188 L 250.542969 255.378906 L 298.617188 255.589844 L 322.734375 255.757812 L 346.960938 255.96875 L 371.257812 256.210938 L 395.574219 256.421875 L 419.875 256.605469 L 444.160156 256.773438 C 444.371094 256.773438 444.554688 256.953125 444.554688 257.164062 C 444.554688 257.378906 444.371094 257.558594 444.160156 257.558594 Z M 444.160156 257.558594 " fill-opacity="1" fill-rule="nonzero"/><path fill="rgb(90.979004%, 90.979004%, 90.979004%)" d="M 441.195312 246.265625 L 417.320312 246.101562 L 393.398438 245.886719 L 369.429688 245.613281 L 345.460938 245.328125 L 321.617188 245.128906 L 298.027344 245.144531 L 274.617188 245.234375 L 251.238281 245.234375 L 227.832031 245.039062 L 204.273438 244.71875 L 180.546875 244.449219 L 156.714844 244.296875 L 109.035156 244.113281 L 85.296875 243.992188 C 85.085938 243.992188 84.902344 243.8125 84.902344 243.597656 C 84.902344 243.386719 85.085938 243.203125 85.296875 243.203125 L 109.035156 243.324219 L 156.714844 243.507812 L 180.546875 243.660156 L 204.273438 243.933594 L 227.832031 244.25 L 251.238281 244.449219 L 274.617188 244.449219 L 298.027344 244.355469 L 321.628906 244.339844 L 345.476562 244.539062 L 369.460938 244.828125 L 393.429688 245.101562 L 417.351562 245.3125 L 441.226562 245.480469 C 441.4375 245.480469 441.621094 245.660156 441.621094 245.871094 C 441.589844 246.101562 441.421875 246.265625 441.195312 246.265625 Z M 441.195312 246.265625 " fill-opacity="1" fill-rule="nonzero"/><path fill="rgb(90.979004%, 90.979004%, 90.979004%)" d="M 211.789062 214.691406 C 211.726562 214.691406 211.667969 214.675781 211.605469 214.648438 L 190.738281 203.230469 L 168.296875 196.730469 L 145.738281 194.441406 L 123.597656 193.847656 L 101.71875 193.667969 C 101.507812 193.667969 101.324219 193.484375 101.324219 193.273438 C 101.324219 193.0625 101.507812 192.878906 101.71875 192.878906 L 123.613281 193.0625 L 145.796875 193.636719 L 168.417969 195.941406 C 168.449219 195.941406 168.464844 195.941406 168.496094 195.957031 L 191.011719 202.488281 C 191.039062 202.503906 191.070312 202.503906 191.085938 202.519531 L 211.984375 213.964844 C 212.179688 214.070312 212.242188 214.3125 212.136719 214.496094 C 212.058594 214.632812 211.921875 214.691406 211.789062 214.691406 Z M 211.789062 214.691406 " fill-opacity="1" fill-rule="nonzero"/><path fill="rgb(90.979004%, 90.979004%, 90.979004%)" d="M 251.980469 236.488281 L 229.34375 235.898438 L 206.328125 234.851562 L 182.949219 233.972656 L 159.359375 233.519531 L 135.757812 233.367188 L 112.226562 233.292969 L 88.820312 233.199219 C 88.605469 233.199219 88.425781 233.019531 88.425781 232.804688 C 88.425781 232.59375 88.605469 232.414062 88.820312 232.414062 L 112.226562 232.503906 L 135.757812 232.578125 L 159.375 232.730469 L 182.964844 233.183594 L 206.359375 234.0625 L 229.359375 235.109375 L 251.980469 235.703125 L 274.4375 235.566406 L 297.074219 234.867188 L 320.195312 234.035156 L 343.785156 233.671875 L 367.539062 233.851562 L 391.21875 234.15625 L 414.792969 234.414062 L 438.292969 234.59375 C 438.503906 234.59375 438.6875 234.777344 438.6875 234.988281 C 438.6875 235.203125 438.503906 235.382812 438.292969 235.382812 L 414.792969 235.203125 L 391.21875 234.945312 L 367.539062 234.640625 L 343.796875 234.457031 L 320.222656 234.808594 L 297.101562 235.640625 L 274.453125 236.339844 Z M 251.980469 236.488281 " fill-opacity="1" fill-rule="nonzero"/><path fill="rgb(90.979004%, 90.979004%, 90.979004%)" d="M 289.828125 230.910156 C 289.632812 230.910156 289.453125 230.761719 289.4375 230.546875 C 289.421875 230.335938 289.574219 230.136719 289.785156 230.125 L 295.878906 229.546875 L 318.605469 226.273438 L 342.03125 224.058594 L 365.632812 223.4375 L 389.074219 223.605469 L 412.316406 223.863281 L 435.449219 224.042969 C 435.664062 224.042969 435.84375 224.226562 435.84375 224.4375 C 435.84375 224.652344 435.664062 224.832031 435.449219 224.832031 L 412.316406 224.652344 L 389.074219 224.394531 L 365.648438 224.226562 L 342.074219 224.832031 L 318.695312 227.046875 L 295.96875 230.320312 L 289.859375 230.894531 C 289.859375 230.910156 289.84375 230.910156 289.828125 230.910156 Z M 289.828125 230.910156 " fill-opacity="1" fill-rule="nonzero"/><path fill="rgb(90.979004%, 90.979004%, 90.979004%)" d="M 299.6875 228.304688 C 299.523438 228.304688 299.371094 228.199219 299.3125 228.03125 C 299.25 227.820312 299.355469 227.605469 299.566406 227.53125 L 317.335938 221.890625 L 340.351562 216.328125 C 340.367188 216.328125 340.382812 216.328125 340.394531 216.3125 L 363.746094 213.949219 L 386.957031 213.554688 L 409.894531 213.738281 L 432.667969 213.902344 C 432.878906 213.902344 433.0625 214.085938 433.0625 214.296875 C 433.0625 214.511719 432.878906 214.691406 432.667969 214.691406 L 409.894531 214.523438 L 386.957031 214.34375 L 363.789062 214.738281 L 340.488281 217.101562 L 317.515625 222.648438 L 299.78125 228.289062 C 299.765625 228.304688 299.71875 228.304688 299.6875 228.304688 Z M 299.6875 228.304688 " fill-opacity="1" fill-rule="nonzero"/><path fill="rgb(90.979004%, 90.979004%, 90.979004%)" d="M 317.320312 219.632812 C 317.167969 219.632812 317.019531 219.542969 316.957031 219.390625 C 316.882812 219.195312 316.972656 218.964844 317.167969 218.875 L 339.109375 209.992188 C 339.125 209.976562 339.15625 209.976562 339.1875 209.976562 L 362.050781 205.386719 C 362.066406 205.386719 362.082031 205.386719 362.109375 205.386719 L 385.003906 204.097656 L 407.625 204.050781 L 430.035156 204.1875 C 430.25 204.1875 430.429688 204.371094 430.429688 204.582031 C 430.429688 204.792969 430.25 204.976562 430.035156 204.976562 L 407.625 204.839844 L 385.035156 204.882812 L 362.1875 206.171875 L 339.382812 210.75 L 317.472656 219.617188 C 317.410156 219.617188 317.367188 219.632812 317.320312 219.632812 Z M 317.320312 219.632812 " fill-opacity="1" fill-rule="nonzero"/><path fill="rgb(90.979004%, 90.979004%, 90.979004%)" d="M 316.808594 192.410156 C 316.65625 192.410156 316.503906 192.320312 316.445312 192.167969 C 316.367188 191.96875 316.460938 191.742188 316.671875 191.652344 L 336.917969 183.707031 C 336.933594 183.707031 336.949219 183.691406 336.980469 183.691406 L 358.527344 178.738281 C 358.542969 178.738281 358.574219 178.738281 358.585938 178.722656 L 380.257812 177.023438 L 401.730469 176.75 L 422.992188 176.828125 C 423.203125 176.828125 423.382812 177.007812 423.382812 177.222656 C 423.382812 177.433594 423.203125 177.613281 422.992188 177.613281 L 401.730469 177.539062 L 380.300781 177.8125 L 358.679688 179.496094 L 337.191406 184.4375 L 316.972656 192.363281 C 316.914062 192.394531 316.851562 192.410156 316.808594 192.410156 Z M 316.808594 192.410156 " fill-opacity="1" fill-rule="nonzero"/><path fill="rgb(90.979004%, 90.979004%, 90.979004%)" d="M 212.695312 191.695312 C 212.648438 191.695312 212.589844 191.683594 212.542969 191.667969 L 193.277344 183.691406 L 171.746094 178.3125 L 150.089844 176.417969 L 128.726562 175.960938 L 107.570312 175.796875 C 107.359375 175.796875 107.175781 175.613281 107.175781 175.402344 C 107.175781 175.191406 107.359375 175.007812 107.570312 175.007812 L 128.738281 175.175781 L 150.136719 175.628906 L 171.867188 177.523438 C 171.882812 177.523438 171.910156 177.523438 171.925781 177.539062 L 193.519531 182.933594 C 193.535156 182.933594 193.550781 182.949219 193.582031 182.949219 L 212.875 190.9375 C 213.074219 191.015625 213.179688 191.257812 213.089844 191.453125 C 212.996094 191.605469 212.847656 191.695312 212.695312 191.695312 Z M 212.695312 191.695312 " fill-opacity="1" fill-rule="nonzero"/><path fill="rgb(90.979004%, 90.979004%, 90.979004%)" d="M 214.117188 177.660156 C 214.085938 177.660156 214.054688 177.660156 214.011719 177.644531 L 194.683594 172.507812 L 173.453125 169.097656 L 152.222656 167.808594 L 131.191406 167.457031 L 110.351562 167.308594 C 110.140625 167.308594 109.957031 167.125 109.957031 166.914062 C 109.957031 166.699219 110.140625 166.519531 110.351562 166.519531 L 131.191406 166.671875 L 152.238281 167.019531 L 173.53125 168.308594 L 194.820312 171.734375 C 194.835938 171.734375 194.851562 171.734375 194.867188 171.75 L 214.207031 176.886719 C 214.417969 176.949219 214.539062 177.160156 214.480469 177.371094 C 214.449219 177.554688 214.28125 177.660156 214.117188 177.660156 Z M 214.117188 177.660156 " fill-opacity="1" fill-rule="nonzero"/><path fill="rgb(90.979004%, 90.979004%, 90.979004%)" d="M 219.121094 164.820312 C 219.105469 164.820312 219.089844 164.820312 219.0625 164.820312 L 216.171875 164.425781 L 195.726562 161.820312 L 175.011719 160.167969 L 154.25 159.5 L 133.59375 159.226562 L 113.089844 159.078125 C 112.878906 159.078125 112.695312 158.894531 112.695312 158.683594 C 112.695312 158.46875 112.878906 158.289062 113.089844 158.289062 L 133.59375 158.441406 L 154.265625 158.710938 L 175.058594 159.378906 L 195.835938 161.015625 L 216.292969 163.625 L 219.183594 164.03125 C 219.394531 164.0625 219.542969 164.261719 219.515625 164.472656 C 219.484375 164.667969 219.316406 164.820312 219.121094 164.820312 Z M 219.121094 164.820312 " fill-opacity="1" fill-rule="nonzero"/><path fill="rgb(90.979004%, 90.979004%, 90.979004%)" d="M 227.40625 153.679688 C 227.40625 153.679688 227.394531 153.679688 227.394531 153.679688 L 216.640625 153.148438 L 196.621094 152.300781 L 176.417969 151.769531 L 156.125 151.453125 L 135.863281 151.238281 L 115.71875 151.085938 C 115.507812 151.085938 115.328125 150.90625 115.328125 150.695312 C 115.328125 150.480469 115.507812 150.300781 115.71875 150.300781 L 135.863281 150.449219 L 156.125 150.664062 L 176.417969 150.980469 L 196.636719 151.511719 L 216.671875 152.359375 L 227.421875 152.890625 C 227.636719 152.90625 227.800781 153.089844 227.800781 153.300781 C 227.800781 153.511719 227.621094 153.679688 227.40625 153.679688 Z M 227.40625 153.679688 " fill-opacity="1" fill-rule="nonzero"/><path fill="rgb(90.979004%, 90.979004%, 90.979004%)" d="M 239.171875 144.539062 L 236.828125 144.507812 L 217.199219 144.207031 L 197.511719 143.976562 L 177.734375 143.796875 L 138.007812 143.464844 L 118.230469 143.34375 C 118.019531 143.34375 117.835938 143.160156 117.835938 142.949219 C 117.835938 142.734375 118.019531 142.554688 118.230469 142.554688 L 138.007812 142.675781 L 177.734375 143.007812 L 197.511719 143.191406 L 217.199219 143.417969 L 239.15625 143.75 C 239.371094 143.75 239.550781 143.933594 239.550781 144.144531 C 239.550781 144.371094 239.382812 144.539062 239.171875 144.539062 Z M 239.171875 144.539062 " fill-opacity="1" fill-rule="nonzero"/><path fill="rgb(90.979004%, 90.979004%, 90.979004%)" d="M 412.8125 137.308594 L 393.246094 137.203125 L 354.066406 137.050781 L 315.039062 136.871094 L 295.589844 136.792969 L 276.175781 136.734375 L 256.773438 136.640625 L 217.957031 136.398438 L 198.527344 136.277344 L 179.066406 136.15625 L 140.050781 135.882812 L 120.589844 135.777344 C 120.378906 135.777344 120.195312 135.597656 120.195312 135.382812 C 120.195312 135.171875 120.378906 134.988281 120.589844 134.988281 L 140.050781 135.097656 L 179.066406 135.367188 L 198.527344 135.488281 L 217.957031 135.609375 L 256.757812 135.882812 L 276.160156 135.976562 L 295.574219 136.035156 L 315.039062 136.097656 L 354.066406 136.277344 L 393.246094 136.429688 L 412.8125 136.535156 C 413.023438 136.535156 413.207031 136.71875 413.207031 136.929688 C 413.207031 137.125 413.023438 137.308594 412.8125 137.308594 Z M 412.8125 137.308594 " fill-opacity="1" fill-rule="nonzero"/><g clip-path="url(#id2)"><path fill="rgb(90.979004%, 90.979004%, 90.979004%)" d="M 410.96875 129.925781 L 333.820312 129.59375 L 295.425781 129.410156 L 257.152344 129.230469 L 161.386719 128.683594 L 122.949219 128.441406 C 122.738281 128.441406 122.554688 128.257812 122.554688 128.046875 C 122.554688 127.835938 122.738281 127.652344 122.949219 127.652344 L 180.578125 128 L 257.152344 128.425781 L 353.066406 128.878906 L 410.984375 129.125 C 411.195312 129.125 411.378906 129.304688 411.378906 129.515625 C 411.363281 129.746094 411.179688 129.925781 410.96875 129.925781 Z M 410.96875 129.925781 " fill-opacity="1" fill-rule="nonzero"/></g><path fill="rgb(90.979004%, 90.979004%, 90.979004%)" d="M 304.121094 225.667969 C 304 225.667969 303.894531 225.621094 303.816406 225.515625 C 303.679688 225.347656 303.710938 225.105469 303.878906 224.96875 L 317.53125 213.917969 C 317.546875 213.902344 317.578125 213.890625 317.609375 213.875 L 338.402344 203.246094 C 338.429688 203.230469 338.445312 203.230469 338.476562 203.21875 L 360.691406 197.0625 C 360.703125 197.0625 360.734375 197.046875 360.765625 197.046875 L 383.28125 194.941406 L 405.539062 194.652344 L 427.558594 194.742188 C 427.769531 194.742188 427.949219 194.925781 427.949219 195.136719 C 427.949219 195.351562 427.769531 195.53125 427.558594 195.53125 L 405.539062 195.441406 L 383.3125 195.730469 L 360.871094 197.820312 L 338.734375 203.960938 L 318 214.554688 L 304.375 225.574219 C 304.300781 225.636719 304.210938 225.667969 304.121094 225.667969 Z M 304.121094 225.667969 " fill-opacity="1" fill-rule="nonzero"/><path fill="rgb(90.979004%, 90.979004%, 90.979004%)" d="M 302.246094 153.96875 C 302.03125 153.96875 301.867188 153.800781 301.851562 153.589844 C 301.835938 153.375 302.019531 153.195312 302.230469 153.179688 L 315.355469 152.695312 L 335.46875 152.148438 L 355.761719 151.890625 L 376.113281 151.816406 L 396.4375 151.84375 L 416.65625 151.9375 C 416.867188 151.9375 417.046875 152.117188 417.046875 152.332031 C 417.046875 152.542969 416.867188 152.726562 416.65625 152.726562 L 396.4375 152.632812 L 376.128906 152.617188 L 355.773438 152.695312 L 335.496094 152.953125 L 315.386719 153.496094 L 302.246094 153.96875 C 302.261719 153.96875 302.261719 153.96875 302.246094 153.96875 Z M 302.246094 153.96875 " fill-opacity="1" fill-rule="nonzero"/><path fill="rgb(90.979004%, 90.979004%, 90.979004%)" d="M 224.113281 198.882812 C 224.082031 198.882812 224.066406 198.882812 224.035156 198.882812 C 223.824219 198.835938 223.6875 198.640625 223.71875 198.425781 L 225.972656 186.074219 C 225.972656 186.042969 225.988281 186.027344 225.988281 186.011719 L 230.554688 173.808594 C 230.570312 173.792969 230.570312 173.765625 230.582031 173.75 L 237.175781 162.488281 C 237.191406 162.472656 237.207031 162.441406 237.222656 162.425781 L 245.417969 152.816406 C 245.433594 152.800781 245.449219 152.785156 245.476562 152.769531 L 254.746094 145.402344 C 254.777344 145.386719 254.792969 145.375 254.824219 145.359375 L 264.578125 140.675781 C 264.667969 140.628906 264.773438 140.628906 264.863281 140.660156 L 276.160156 144.464844 C 276.191406 144.480469 276.21875 144.480469 276.234375 144.492188 L 286.941406 150.996094 C 286.972656 151.011719 286.988281 151.027344 287.003906 151.042969 L 296.4375 159.863281 C 296.453125 159.878906 296.46875 159.894531 296.484375 159.925781 L 304.042969 170.503906 C 304.058594 170.519531 304.074219 170.550781 304.089844 170.566406 L 309.320312 182.253906 C 309.335938 182.285156 309.335938 182.296875 309.351562 182.328125 L 311.921875 194.378906 C 311.96875 194.59375 311.832031 194.804688 311.621094 194.851562 C 311.410156 194.894531 311.195312 194.757812 311.152344 194.546875 L 308.582031 182.527344 L 303.394531 170.914062 L 295.878906 160.394531 L 286.503906 151.632812 L 275.871094 145.175781 L 264.773438 141.433594 L 255.203125 146.023438 L 245.992188 153.332031 L 237.84375 162.882812 L 231.292969 174.082031 L 226.757812 186.226562 L 224.519531 198.546875 C 224.460938 198.746094 224.292969 198.882812 224.113281 198.882812 Z M 224.113281 198.882812 " fill-opacity="1" fill-rule="nonzero"/><path fill="rgb(90.979004%, 90.979004%, 90.979004%)" d="M 290.375 230.304688 C 290.3125 230.304688 290.269531 230.289062 290.207031 230.273438 C 290.011719 230.183594 289.921875 229.957031 290.011719 229.757812 L 292.355469 224.5 L 294.261719 214.375 L 294.398438 202.625 L 292.734375 190 L 289.347656 177.328125 L 284.476562 165.414062 L 278.445312 155.042969 L 271.640625 146.859375 L 264.636719 141.417969 L 252.375 143.933594 L 240.683594 149.191406 L 230.417969 156.847656 L 222.222656 166.429688 L 216.550781 177.371094 C 216.445312 177.570312 216.21875 177.644531 216.023438 177.539062 C 215.824219 177.433594 215.75 177.207031 215.855469 177.007812 L 221.539062 166.035156 C 221.554688 166.003906 221.570312 165.988281 221.585938 165.957031 L 229.84375 156.316406 C 229.859375 156.300781 229.886719 156.273438 229.902344 156.257812 L 240.230469 148.542969 C 240.261719 148.527344 240.277344 148.511719 240.308594 148.496094 L 252.085938 143.207031 C 252.117188 143.191406 252.148438 143.191406 252.164062 143.175781 L 264.652344 140.613281 C 264.757812 140.582031 264.878906 140.613281 264.96875 140.6875 L 272.152344 146.265625 C 272.167969 146.28125 272.199219 146.296875 272.214844 146.328125 L 279.0625 154.574219 C 279.078125 154.589844 279.09375 154.605469 279.09375 154.636719 L 285.15625 165.0625 C 285.171875 165.078125 285.171875 165.09375 285.1875 165.109375 L 290.085938 177.070312 C 290.085938 177.085938 290.101562 177.097656 290.101562 177.113281 L 293.503906 189.847656 C 293.503906 189.863281 293.519531 189.878906 293.519531 189.894531 L 295.199219 202.566406 C 295.199219 202.582031 295.199219 202.597656 295.199219 202.625 L 295.0625 214.433594 C 295.0625 214.464844 295.0625 214.480469 295.0625 214.511719 L 293.140625 224.710938 C 293.140625 224.742188 293.125 224.773438 293.109375 224.800781 L 290.753906 230.109375 C 290.660156 230.230469 290.527344 230.304688 290.375 230.304688 Z M 290.375 230.304688 " fill-opacity="1" fill-rule="nonzero"/><g clip-path="url(#id3)"><path fill="rgb(90.979004%, 90.979004%, 90.979004%)" d="M 77.839844 266.804688 C 77.796875 266.804688 77.765625 266.804688 77.71875 266.792969 C 77.507812 266.730469 77.402344 266.503906 77.460938 266.289062 L 81.242188 254.679688 L 84.902344 243.476562 L 91.875 222.257812 L 95.15625 212.222656 L 101.339844 193.152344 L 104.304688 184.070312 L 107.191406 175.28125 L 115.355469 150.574219 L 117.851562 142.8125 L 122.554688 127.925781 C 122.617188 127.714844 122.84375 127.609375 123.054688 127.667969 C 123.265625 127.730469 123.371094 127.957031 123.3125 128.167969 L 118.609375 143.070312 L 116.113281 150.828125 L 113.46875 158.804688 L 107.933594 175.523438 L 105.042969 184.316406 L 99.042969 202.777344 L 95.894531 212.464844 L 92.613281 222.5 L 85.644531 243.71875 L 81.984375 254.90625 L 78.203125 266.519531 C 78.160156 266.699219 78.007812 266.804688 77.839844 266.804688 Z M 77.839844 266.804688 " fill-opacity="1" fill-rule="nonzero"/></g><g clip-path="url(#id4)"><path fill="rgb(90.979004%, 90.979004%, 90.979004%)" d="M 102.398438 266.957031 C 102.367188 266.957031 102.324219 266.957031 102.292969 266.941406 C 102.082031 266.882812 101.960938 266.671875 102.019531 266.457031 L 105.378906 254.832031 L 108.660156 243.613281 L 114.949219 222.363281 L 117.867188 212.34375 L 120.605469 202.703125 L 123.234375 193.347656 L 125.820312 184.269531 L 128.363281 175.460938 L 133.230469 158.726562 L 135.5 150.738281 L 139.703125 135.398438 L 141.789062 128.0625 C 141.851562 127.851562 142.0625 127.730469 142.273438 127.789062 C 142.484375 127.851562 142.605469 128.0625 142.546875 128.273438 L 140.460938 135.597656 L 136.238281 150.953125 L 133.972656 158.941406 L 129.101562 175.675781 L 126.5625 184.480469 L 123.976562 193.5625 L 121.34375 202.914062 L 118.609375 212.554688 L 115.691406 222.574219 L 109.398438 243.828125 L 106.117188 255.042969 L 102.761719 266.667969 C 102.730469 266.851562 102.566406 266.957031 102.398438 266.957031 Z M 102.398438 266.957031 " fill-opacity="1" fill-rule="nonzero"/></g><g clip-path="url(#id5)"><path fill="rgb(90.979004%, 90.979004%, 90.979004%)" d="M 126.984375 267.109375 C 126.957031 267.109375 126.925781 267.109375 126.894531 267.09375 C 126.683594 267.035156 126.5625 266.820312 126.609375 266.609375 L 129.554688 254.96875 L 132.488281 243.707031 L 135.410156 232.851562 L 138.25 222.46875 L 140.914062 212.601562 L 143.257812 203.15625 L 145.417969 193.925781 L 147.582031 184.816406 L 149.757812 175.917969 L 151.875 167.324219 L 153.886719 159.015625 L 155.746094 150.964844 L 159.210938 135.550781 L 160.996094 128.199219 C 161.039062 127.988281 161.25 127.863281 161.464844 127.910156 C 161.675781 127.957031 161.796875 128.167969 161.75 128.378906 L 159.964844 135.71875 L 156.503906 151.132812 L 154.644531 159.199219 L 152.632812 167.503906 L 150.5 176.113281 L 148.324219 185.011719 L 146.160156 194.121094 L 143.996094 203.355469 L 141.636719 212.8125 L 138.976562 222.679688 L 136.132812 233.0625 L 133.214844 243.902344 L 130.296875 255.148438 L 127.347656 266.792969 C 127.320312 266.988281 127.152344 267.109375 126.984375 267.109375 Z M 126.984375 267.109375 " fill-opacity="1" fill-rule="nonzero"/></g><path fill="rgb(90.979004%, 90.979004%, 90.979004%)" d="M 151.574219 267.246094 C 151.542969 267.246094 151.511719 267.246094 151.484375 267.230469 C 151.269531 267.183594 151.136719 266.972656 151.179688 266.761719 L 153.722656 255.089844 L 156.304688 243.8125 L 158.96875 233.019531 L 161.703125 222.953125 L 164.230469 213.753906 L 166.316406 205.082031 L 167.980469 196.257812 L 169.644531 187.105469 L 171.429688 177.84375 L 173.136719 168.640625 L 174.664062 159.710938 L 177.355469 143.328125 L 178.703125 135.6875 L 180.183594 128.320312 C 180.230469 128.109375 180.441406 127.972656 180.652344 128.015625 C 180.863281 128.0625 181 128.257812 180.953125 128.488281 L 179.472656 135.855469 L 178.125 143.476562 L 175.433594 159.863281 L 173.90625 168.792969 L 172.199219 178.007812 L 170.414062 187.269531 L 168.75 196.425781 L 167.074219 205.277344 L 164.984375 213.980469 L 162.460938 223.195312 L 159.753906 233.261719 L 157.09375 244.039062 L 154.507812 255.300781 L 151.964844 266.972656 C 151.921875 267.125 151.753906 267.246094 151.574219 267.246094 Z M 151.574219 267.246094 " fill-opacity="1" fill-rule="nonzero"/><path fill="rgb(90.979004%, 90.979004%, 90.979004%)" d="M 176.175781 267.382812 C 176.144531 267.382812 176.132812 267.382812 176.101562 267.382812 C 175.890625 267.335938 175.753906 267.140625 175.78125 266.925781 L 177.914062 255.242188 L 180.152344 243.992188 L 182.585938 233.503906 L 185.160156 224.378906 L 187.5625 216.964844 L 189.378906 210.507812 L 190.496094 202.824219 L 191.554688 193.589844 L 193.007812 183.269531 L 194.367188 172.097656 L 195.394531 161.394531 L 196.226562 151.890625 L 197.121094 143.554688 L 198.148438 135.839844 L 199.34375 128.457031 C 199.371094 128.246094 199.585938 128.09375 199.796875 128.136719 C 200.007812 128.167969 200.160156 128.378906 200.113281 128.59375 L 198.933594 135.960938 L 197.90625 143.644531 L 197.015625 151.96875 L 196.183594 161.472656 L 195.152344 172.1875 L 193.792969 183.390625 L 192.339844 193.714844 L 191.28125 202.945312 L 190.148438 210.660156 C 190.148438 210.675781 190.148438 210.691406 190.132812 210.707031 L 188.304688 217.207031 L 185.898438 224.621094 L 183.328125 233.714844 L 180.910156 244.175781 L 178.671875 255.40625 L 176.539062 267.09375 C 176.523438 267.246094 176.359375 267.382812 176.175781 267.382812 Z M 176.175781 267.382812 " fill-opacity="1" fill-rule="nonzero"/><path fill="rgb(90.979004%, 90.979004%, 90.979004%)" d="M 200.765625 267.535156 C 200.75 267.535156 200.734375 267.535156 200.703125 267.535156 C 200.492188 267.503906 200.339844 267.304688 200.371094 267.09375 L 202.050781 255.40625 L 203.878906 244.28125 L 205.964844 234.398438 L 208.234375 226.984375 C 208.234375 226.96875 208.25 226.957031 208.25 226.941406 L 210.261719 222.679688 L 211.199219 219.601562 L 211.378906 214.296875 C 211.394531 214.085938 211.574219 213.902344 211.789062 213.917969 C 212 213.917969 212.179688 214.101562 212.164062 214.328125 L 211.984375 219.679688 C 211.984375 219.710938 211.984375 219.753906 211.96875 219.785156 L 211.015625 222.9375 C 211.015625 222.953125 211 222.96875 211 223 L 208.988281 227.257812 L 206.738281 234.609375 L 204.664062 244.449219 L 202.835938 255.542969 L 201.15625 267.230469 C 201.113281 267.398438 200.945312 267.535156 200.765625 267.535156 Z M 200.765625 267.535156 " fill-opacity="1" fill-rule="nonzero"/><path fill="rgb(90.979004%, 90.979004%, 90.979004%)" d="M 225.320312 267.6875 C 225.304688 267.6875 225.292969 267.6875 225.277344 267.6875 C 225.0625 267.671875 224.898438 267.472656 224.929688 267.261719 L 226.109375 255.589844 L 227.421875 244.613281 L 228.964844 235.457031 C 228.964844 235.445312 228.980469 235.414062 228.980469 235.398438 L 230.75 230.183594 C 230.78125 230.09375 230.839844 230.03125 230.917969 229.988281 L 232.171875 229.167969 C 232.351562 229.046875 232.59375 229.109375 232.714844 229.289062 C 232.835938 229.472656 232.777344 229.714844 232.59375 229.835938 L 231.445312 230.578125 L 229.738281 235.640625 L 228.210938 244.75 L 226.894531 255.695312 L 225.714844 267.367188 C 225.699219 267.535156 225.53125 267.6875 225.320312 267.6875 Z M 225.320312 267.6875 " fill-opacity="1" fill-rule="nonzero"/><path fill="rgb(90.979004%, 90.979004%, 90.979004%)" d="M 249.894531 267.835938 C 249.894531 267.835938 249.878906 267.835938 249.878906 267.835938 C 249.667969 267.820312 249.5 267.640625 249.515625 267.429688 L 250.167969 255.742188 L 250.847656 244.828125 L 251.601562 236.066406 C 251.601562 236.050781 251.601562 236.019531 251.617188 236.003906 L 252.554688 232.125 C 252.601562 231.910156 252.8125 231.789062 253.023438 231.835938 C 253.234375 231.882812 253.355469 232.09375 253.3125 232.304688 L 252.390625 236.15625 L 251.632812 244.871094 L 250.953125 255.769531 L 250.300781 267.457031 C 250.273438 267.671875 250.105469 267.835938 249.894531 267.835938 Z M 249.894531 267.835938 " fill-opacity="1" fill-rule="nonzero"/><path fill="rgb(90.979004%, 90.979004%, 90.979004%)" d="M 270.203125 193.878906 L 257.832031 193.804688 C 257.816406 193.804688 257.800781 193.804688 257.789062 193.804688 L 245.871094 192.484375 C 245.855469 192.484375 245.839844 192.484375 245.824219 192.46875 L 235.105469 189.984375 C 235.089844 189.984375 235.074219 189.96875 235.042969 189.96875 L 226.199219 186.496094 C 226.167969 186.484375 226.152344 186.484375 226.121094 186.46875 L 219.664062 182.238281 C 219.636719 182.207031 219.605469 182.191406 219.574219 182.148438 L 215.855469 177.449219 C 215.71875 177.28125 215.75 177.023438 215.914062 176.902344 C 216.082031 176.765625 216.324219 176.796875 216.460938 176.964844 L 220.132812 181.617188 L 226.5 185.785156 L 235.269531 189.226562 L 245.933594 191.695312 L 257.816406 193.015625 L 270.140625 193.089844 L 282.117188 191.910156 L 292.960938 189.558594 L 301.988281 186.210938 L 308.640625 182.117188 L 312.585938 177.570312 L 313.691406 172.929688 L 308.019531 162.667969 C 308.007812 162.652344 308.007812 162.625 307.992188 162.609375 L 306.554688 158.515625 L 302.804688 154.769531 C 302.773438 154.742188 302.757812 154.710938 302.730469 154.679688 L 302.714844 154.648438 L 301.910156 153.863281 L 298.570312 150.558594 C 298.417969 150.40625 298.417969 150.164062 298.570312 149.996094 C 298.722656 149.84375 298.964844 149.84375 299.128906 149.996094 L 303.304688 154.132812 C 303.332031 154.164062 303.347656 154.195312 303.378906 154.226562 L 303.394531 154.253906 L 307.160156 158.015625 C 307.203125 158.0625 307.234375 158.105469 307.25 158.167969 L 308.703125 162.304688 L 314.433594 172.671875 C 314.476562 172.765625 314.492188 172.855469 314.476562 172.960938 L 313.3125 177.84375 C 313.296875 177.902344 313.269531 177.964844 313.222656 178.007812 L 309.183594 182.675781 C 309.15625 182.707031 309.125 182.738281 309.09375 182.753906 L 302.351562 186.90625 C 302.335938 186.921875 302.304688 186.9375 302.273438 186.9375 L 293.1875 190.300781 C 293.171875 190.300781 293.15625 190.316406 293.140625 190.316406 L 282.253906 192.683594 C 282.238281 192.683594 282.222656 192.683594 282.207031 192.683594 L 270.203125 193.863281 C 270.230469 193.863281 270.21875 193.878906 270.203125 193.878906 Z M 270.203125 193.878906 " fill-opacity="1" fill-rule="nonzero"/><path fill="rgb(90.979004%, 90.979004%, 90.979004%)" d="M 215.582031 207.429688 C 215.417969 207.429688 215.25 207.324219 215.203125 207.144531 L 213.253906 200.519531 C 213.253906 200.503906 213.238281 200.488281 213.238281 200.472656 L 212.890625 198.277344 C 212.859375 198.0625 212.996094 197.867188 213.207031 197.820312 C 213.421875 197.789062 213.617188 197.925781 213.664062 198.140625 L 214.011719 200.308594 L 215.960938 206.914062 C 216.023438 207.128906 215.902344 207.339844 215.703125 207.402344 C 215.660156 207.429688 215.628906 207.429688 215.582031 207.429688 Z M 215.582031 207.429688 " fill-opacity="1" fill-rule="nonzero"/><path fill="rgb(90.979004%, 90.979004%, 90.979004%)" d="M 304.375 224.167969 C 304.285156 224.167969 304.195312 224.136719 304.136719 224.074219 C 303.96875 223.9375 303.9375 223.695312 304.074219 223.53125 L 306.101562 221.042969 L 312 211.644531 C 312.117188 211.464844 312.359375 211.402344 312.542969 211.523438 C 312.722656 211.644531 312.785156 211.886719 312.664062 212.070312 L 306.75 221.5 C 306.734375 221.511719 306.734375 221.527344 306.722656 221.542969 L 304.679688 224.058594 C 304.605469 224.121094 304.496094 224.167969 304.375 224.167969 Z M 304.375 224.167969 " fill-opacity="1" fill-rule="nonzero"/><path fill="rgb(90.979004%, 90.979004%, 90.979004%)" d="M 303.726562 224.636719 C 303.652344 224.636719 303.589844 224.621094 303.515625 224.574219 C 303.332031 224.453125 303.273438 224.226562 303.394531 224.03125 L 308.007812 216.527344 C 308.019531 216.511719 308.019531 216.496094 308.035156 216.480469 L 311.984375 211.660156 L 315.144531 200.914062 L 316.339844 195.5625 L 316.339844 195.304688 C 316.339844 195.09375 316.503906 194.910156 316.714844 194.894531 C 316.714844 194.894531 316.714844 194.894531 316.730469 194.894531 C 316.941406 194.894531 317.125 195.0625 317.125 195.273438 L 317.125 195.578125 C 317.125 195.609375 317.125 195.636719 317.109375 195.667969 L 315.882812 201.09375 L 312.695312 211.933594 C 312.679688 211.980469 312.648438 212.023438 312.617188 212.070312 L 308.640625 216.933594 L 304.042969 224.421875 C 304 224.558594 303.863281 224.636719 303.726562 224.636719 Z M 303.726562 224.636719 " fill-opacity="1" fill-rule="nonzero"/><path fill="rgb(90.979004%, 90.979004%, 90.979004%)" d="M 270.535156 206.839844 L 257.425781 206.765625 C 257.410156 206.765625 257.394531 206.765625 257.378906 206.765625 L 244.753906 205.324219 C 244.738281 205.324219 244.722656 205.324219 244.707031 205.308594 L 233.367188 202.609375 C 233.351562 202.609375 233.335938 202.597656 233.304688 202.597656 L 223.960938 198.835938 C 223.765625 198.761719 223.65625 198.535156 223.75 198.320312 C 223.824219 198.125 224.050781 198.019531 224.261719 198.109375 L 233.578125 201.851562 L 244.875 204.535156 L 257.453125 205.960938 L 270.519531 206.035156 L 283.207031 204.75 L 294.683594 202.203125 L 304.226562 198.578125 L 311.316406 194.105469 C 311.5 193.984375 311.742188 194.046875 311.863281 194.226562 C 311.984375 194.410156 311.921875 194.652344 311.742188 194.773438 L 304.617188 199.261719 C 304.605469 199.277344 304.574219 199.292969 304.542969 199.292969 L 294.941406 202.945312 C 294.925781 202.945312 294.910156 202.960938 294.878906 202.960938 L 283.359375 205.519531 C 283.34375 205.519531 283.328125 205.519531 283.3125 205.519531 L 270.582031 206.808594 C 270.566406 206.839844 270.550781 206.839844 270.535156 206.839844 Z M 270.535156 206.839844 " fill-opacity="1" fill-rule="nonzero"/><g clip-path="url(#id6)"><path fill="rgb(90.979004%, 90.979004%, 90.979004%)" d="M 447.214844 269.246094 C 447.050781 269.246094 446.882812 269.125 446.835938 268.957031 L 443.796875 257.257812 L 440.832031 245.980469 L 437.929688 235.09375 L 435.085938 224.574219 L 429.660156 204.65625 L 427.164062 195.242188 L 424.835938 186.148438 L 420.449219 168.777344 L 416.308594 152.4375 L 410.605469 129.625 C 410.5625 129.410156 410.679688 129.199219 410.894531 129.152344 C 411.105469 129.109375 411.316406 129.230469 411.363281 129.441406 L 419.105469 160.289062 L 423.382812 177.128906 L 425.605469 185.953125 L 427.933594 195.046875 L 430.429688 204.460938 L 435.859375 224.378906 L 438.703125 234.898438 L 441.605469 245.796875 L 444.570312 257.074219 L 447.609375 268.777344 C 447.667969 268.988281 447.53125 269.203125 447.320312 269.261719 C 447.277344 269.246094 447.246094 269.246094 447.214844 269.246094 Z M 447.214844 269.246094 " fill-opacity="1" fill-rule="nonzero"/></g><g clip-path="url(#id7)"><path fill="rgb(90.979004%, 90.979004%, 90.979004%)" d="M 422.476562 269.082031 C 422.292969 269.082031 422.128906 268.957031 422.097656 268.777344 L 419.496094 257.074219 L 416.941406 245.796875 L 414.417969 234.898438 L 411.9375 224.378906 L 409.53125 214.253906 L 407.25 204.519531 L 405.148438 195.152344 L 403.195312 186.074219 L 399.535156 168.6875 L 396.074219 152.347656 L 392.867188 136.914062 L 391.265625 129.546875 C 391.21875 129.335938 391.355469 129.125 391.566406 129.078125 C 391.78125 129.03125 391.992188 129.167969 392.035156 129.382812 L 393.640625 136.746094 L 396.84375 152.179688 L 403.96875 185.90625 L 405.917969 194.984375 L 408.019531 204.339844 L 410.304688 214.070312 L 412.707031 224.195312 L 415.1875 234.714844 L 417.714844 245.613281 L 420.269531 256.90625 L 422.871094 268.609375 C 422.914062 268.824219 422.777344 269.035156 422.566406 269.082031 C 422.535156 269.082031 422.507812 269.082031 422.476562 269.082031 Z M 422.476562 269.082031 " fill-opacity="1" fill-rule="nonzero"/></g><path fill="rgb(90.979004%, 90.979004%, 90.979004%)" d="M 397.769531 268.898438 C 397.585938 268.898438 397.417969 268.761719 397.390625 268.578125 L 395.210938 256.878906 L 393.035156 245.570312 L 390.855469 234.625 L 388.695312 224.089844 L 386.59375 214.039062 L 384.640625 204.535156 L 382.902344 195.410156 L 381.359375 186.40625 L 378.457031 168.777344 L 377.066406 160.394531 L 375.75 152.285156 L 373.253906 136.808594 L 371.941406 129.441406 C 371.894531 129.230469 372.046875 129.015625 372.257812 128.988281 C 372.46875 128.941406 372.679688 129.09375 372.710938 129.304688 L 374.027344 136.671875 L 377.835938 160.257812 L 380.664062 177.355469 L 382.132812 186.285156 L 383.675781 195.273438 L 385.414062 204.382812 L 387.363281 213.875 L 389.464844 223.921875 L 391.628906 234.457031 L 393.804688 245.402344 L 395.984375 256.710938 L 398.160156 268.414062 C 398.207031 268.625 398.054688 268.835938 397.84375 268.867188 C 397.8125 268.898438 397.78125 268.898438 397.769531 268.898438 Z M 397.769531 268.898438 " fill-opacity="1" fill-rule="nonzero"/><path fill="rgb(90.979004%, 90.979004%, 90.979004%)" d="M 373.027344 268.714844 C 372.832031 268.714844 372.664062 268.578125 372.636719 268.382812 L 370.851562 256.648438 L 369.023438 245.28125 L 367.148438 234.308594 L 365.242188 223.910156 L 361.71875 205.824219 L 360.371094 197.503906 L 359.253906 188.605469 L 358.195312 179.144531 L 357.167969 169.761719 L 356.230469 160.757812 L 354.535156 144.34375 L 353.65625 136.703125 L 352.644531 129.335938 C 352.613281 129.125 352.765625 128.925781 352.976562 128.894531 C 353.1875 128.867188 353.386719 129.015625 353.417969 129.230469 L 354.429688 136.613281 L 355.304688 144.265625 L 357.9375 169.6875 L 358.964844 179.070312 L 360.023438 188.527344 L 361.128906 197.394531 L 362.472656 205.703125 L 365.996094 223.773438 L 367.902344 234.1875 L 369.777344 245.160156 L 371.605469 256.527344 L 373.390625 268.261719 C 373.421875 268.472656 373.269531 268.671875 373.058594 268.714844 C 373.074219 268.714844 373.058594 268.714844 373.027344 268.714844 Z M 373.027344 268.714844 " fill-opacity="1" fill-rule="nonzero"/><path fill="rgb(90.979004%, 90.979004%, 90.979004%)" d="M 276.128906 138.734375 C 276.128906 138.734375 276.113281 138.734375 276.128906 138.734375 C 275.902344 138.734375 275.738281 138.550781 275.738281 138.339844 L 275.78125 136.367188 L 275.886719 128.925781 C 275.886719 128.714844 276.070312 128.53125 276.28125 128.53125 C 276.492188 128.53125 276.675781 128.714844 276.675781 128.925781 L 276.539062 138.339844 C 276.507812 138.550781 276.339844 138.734375 276.128906 138.734375 Z M 276.128906 138.734375 " fill-opacity="1" fill-rule="nonzero"/><path fill="rgb(90.979004%, 90.979004%, 90.979004%)" d="M 348.320312 268.519531 C 348.125 268.519531 347.957031 268.367188 347.925781 268.171875 L 346.550781 256.394531 L 345.054688 244.976562 L 343.40625 234.125 L 341.667969 224.53125 L 340.046875 216.800781 L 338.855469 210.417969 L 338.160156 203.640625 L 337.539062 194.804688 L 336.644531 184.101562 L 335.890625 172.792969 L 335.40625 162.03125 L 335.074219 152.558594 L 334.664062 144.28125 L 334.121094 136.597656 L 333.410156 129.230469 C 333.394531 129.015625 333.546875 128.820312 333.757812 128.804688 C 333.984375 128.789062 334.167969 128.941406 334.179688 129.152344 L 334.890625 136.535156 L 335.4375 144.234375 L 335.84375 152.527344 L 336.175781 162 L 336.660156 172.75 L 337.417969 184.042969 L 338.308594 194.742188 L 338.929688 203.566406 L 339.625 210.296875 L 340.804688 216.632812 L 342.421875 224.363281 L 344.160156 233.988281 L 345.808594 244.871094 L 347.308594 256.300781 L 348.683594 268.078125 C 348.714844 268.292969 348.546875 268.488281 348.335938 268.519531 C 348.351562 268.519531 348.335938 268.519531 348.320312 268.519531 Z M 348.320312 268.519531 " fill-opacity="1" fill-rule="nonzero"/><path fill="rgb(90.979004%, 90.979004%, 90.979004%)" d="M 295.574219 147.433594 C 295.347656 147.433594 295.183594 147.253906 295.183594 147.039062 L 295.214844 144.359375 L 295.183594 136.429688 L 295.015625 129.03125 C 295.015625 128.820312 295.183594 128.636719 295.394531 128.625 C 295.394531 128.625 295.394531 128.625 295.410156 128.625 C 295.621094 128.625 295.804688 128.789062 295.804688 129.003906 L 295.96875 136.414062 L 296 144.359375 L 295.96875 147.054688 C 295.96875 147.253906 295.804688 147.433594 295.574219 147.433594 Z M 295.574219 147.433594 " fill-opacity="1" fill-rule="nonzero"/><path fill="rgb(90.979004%, 90.979004%, 90.979004%)" d="M 315.566406 178.933594 C 315.355469 178.933594 315.1875 178.765625 315.171875 178.570312 L 315.128906 177.855469 L 314.917969 164.230469 L 314.992188 153.089844 L 314.933594 144.265625 L 314.660156 136.503906 L 314.222656 129.125 C 314.207031 128.910156 314.371094 128.714844 314.582031 128.714844 C 314.796875 128.714844 314.992188 128.867188 314.992188 129.078125 L 315.429688 136.460938 L 315.703125 144.234375 L 315.761719 153.074219 L 315.6875 164.214844 L 315.898438 177.8125 L 315.945312 178.507812 C 315.960938 178.722656 315.792969 178.917969 315.582031 178.933594 C 315.582031 178.933594 315.566406 178.933594 315.566406 178.933594 Z M 315.566406 178.933594 " fill-opacity="1" fill-rule="nonzero"/><path fill="rgb(90.979004%, 90.979004%, 90.979004%)" d="M 238.628906 231.246094 C 238.476562 231.246094 238.339844 231.152344 238.265625 231.015625 L 235.242188 224.4375 C 235.226562 224.410156 235.226562 224.378906 235.210938 224.347656 L 233.214844 214.132812 C 233.214844 214.101562 233.214844 214.085938 233.214844 214.054688 L 233.0625 202.261719 C 233.0625 202.246094 233.0625 202.214844 233.0625 202.203125 L 234.800781 189.558594 C 234.800781 189.542969 234.800781 189.527344 234.816406 189.515625 L 238.339844 176.828125 C 238.339844 176.8125 238.355469 176.796875 238.355469 176.78125 L 243.453125 164.882812 C 243.453125 164.867188 243.46875 164.851562 243.480469 164.835938 L 249.804688 154.484375 C 249.816406 154.46875 249.832031 154.453125 249.847656 154.421875 L 256.972656 146.265625 C 257.105469 146.101562 257.363281 146.085938 257.53125 146.238281 C 257.695312 146.375 257.710938 146.632812 257.558594 146.796875 L 250.453125 154.9375 L 244.179688 165.230469 L 239.113281 177.085938 L 235.605469 189.710938 L 233.863281 202.308594 L 234.015625 214.039062 L 235.996094 224.179688 L 239.007812 230.730469 C 239.097656 230.925781 239.007812 231.152344 238.808594 231.246094 C 238.734375 231.230469 238.671875 231.246094 238.628906 231.246094 Z M 238.628906 231.246094 " fill-opacity="1" fill-rule="nonzero"/><path fill="rgb(90.979004%, 90.979004%, 90.979004%)" d="M 215.871094 171.492188 C 215.871094 171.492188 215.855469 171.492188 215.855469 171.492188 C 215.644531 171.476562 215.476562 171.292969 215.476562 171.082031 L 215.855469 164.003906 L 216.261719 152.738281 L 216.808594 143.796875 L 217.5625 135.976562 L 218.472656 128.578125 C 218.5 128.367188 218.699219 128.214844 218.910156 128.230469 C 219.121094 128.257812 219.273438 128.457031 219.257812 128.667969 L 218.351562 136.050781 L 217.59375 143.84375 L 217.050781 152.769531 L 216.640625 164.03125 L 216.261719 171.128906 C 216.25 171.339844 216.066406 171.492188 215.871094 171.492188 Z M 215.871094 171.492188 " fill-opacity="1" fill-rule="nonzero"/><path fill="rgb(90.979004%, 90.979004%, 90.979004%)" d="M 251.132812 139.15625 C 250.921875 139.15625 250.753906 138.992188 250.742188 138.792969 C 250.726562 138.582031 250.890625 138.386719 251.105469 138.386719 L 257.605469 137.992188 L 260.3125 137.460938 C 260.328125 137.460938 260.34375 137.460938 260.359375 137.460938 L 263.335938 137.203125 L 266.421875 137.21875 L 269.402344 137.507812 L 273.679688 137.445312 C 273.890625 137.445312 274.074219 137.613281 274.074219 137.839844 C 274.074219 138.050781 273.90625 138.234375 273.679688 138.234375 L 269.386719 138.292969 C 269.371094 138.292969 269.355469 138.292969 269.339844 138.292969 L 266.375 138.007812 L 263.367188 137.992188 L 260.449219 138.25 L 257.742188 138.777344 C 257.726562 138.777344 257.710938 138.777344 257.695312 138.777344 L 251.164062 139.171875 C 251.148438 139.15625 251.132812 139.15625 251.132812 139.15625 Z M 251.132812 139.15625 " fill-opacity="1" fill-rule="nonzero"/><path fill="rgb(90.979004%, 90.979004%, 90.979004%)" d="M 267.996094 137.65625 L 262.128906 137.628906 C 261.914062 137.628906 261.734375 137.445312 261.734375 137.234375 C 261.734375 137.019531 261.914062 136.839844 262.128906 136.839844 L 267.996094 136.871094 C 268.207031 136.871094 268.386719 137.050781 268.386719 137.261719 C 268.386719 137.476562 268.207031 137.65625 267.996094 137.65625 Z M 267.996094 137.65625 " fill-opacity="1" fill-rule="nonzero"/><path fill="rgb(90.979004%, 90.979004%, 90.979004%)" d="M 297.738281 228.59375 C 297.679688 228.59375 297.601562 228.578125 297.542969 228.546875 C 297.34375 228.441406 297.285156 228.199219 297.390625 228.015625 L 301.335938 220.890625 C 301.367188 220.832031 301.414062 220.785156 301.472656 220.753906 L 308.007812 216.480469 L 310.910156 206.035156 C 310.925781 205.976562 310.953125 205.929688 310.984375 205.886719 L 315.128906 200.867188 L 315.355469 189.40625 C 315.355469 189.378906 315.355469 189.347656 315.371094 189.332031 L 316.578125 184.058594 C 316.625 183.84375 316.835938 183.707031 317.046875 183.769531 C 317.261719 183.816406 317.398438 184.027344 317.335938 184.238281 L 316.140625 189.46875 L 315.914062 201.019531 C 315.914062 201.109375 315.882812 201.199219 315.824219 201.261719 L 311.636719 206.324219 L 308.714844 216.828125 C 308.6875 216.921875 308.625 216.996094 308.550781 217.058594 L 301.972656 221.363281 L 298.070312 228.394531 C 298.011719 228.515625 297.875 228.59375 297.738281 228.59375 Z M 297.738281 228.59375 " fill-opacity="1" fill-rule="nonzero"/><path fill="rgb(90.979004%, 90.979004%, 90.979004%)" d="M 313.390625 208.675781 C 313.269531 208.675781 313.148438 208.613281 313.070312 208.523438 C 312.9375 208.355469 312.980469 208.097656 313.148438 207.976562 L 317.382812 204.777344 C 317.398438 204.761719 317.425781 204.75 317.441406 204.75 L 337.765625 194.441406 C 337.78125 194.425781 337.8125 194.425781 337.839844 194.410156 L 359.554688 188.195312 C 359.570312 188.195312 359.601562 188.179688 359.632812 188.179688 L 381.707031 185.96875 L 403.574219 185.589844 L 425.214844 185.664062 C 425.425781 185.664062 425.605469 185.847656 425.605469 186.058594 C 425.605469 186.269531 425.425781 186.453125 425.214844 186.453125 L 403.589844 186.375 L 381.769531 186.753906 L 359.753906 188.96875 L 338.097656 195.167969 L 317.835938 205.445312 L 313.632812 208.628906 C 313.554688 208.660156 313.480469 208.675781 313.390625 208.675781 Z M 313.390625 208.675781 " fill-opacity="1" fill-rule="nonzero"/><path fill="rgb(90.979004%, 90.979004%, 90.979004%)" d="M 247.65625 232.140625 C 247.488281 232.140625 247.339844 232.03125 247.277344 231.867188 L 245.78125 226.984375 C 245.78125 226.96875 245.765625 226.941406 245.765625 226.925781 L 244.496094 216.84375 C 244.496094 216.828125 244.496094 216.8125 244.496094 216.800781 L 244.40625 204.960938 L 245.523438 192.074219 L 247.777344 179.007812 L 251.027344 166.625 L 255.066406 155.710938 C 255.066406 155.695312 255.082031 155.679688 255.082031 155.664062 L 259.617188 146.933594 C 259.632812 146.917969 259.648438 146.890625 259.664062 146.875 L 264.410156 140.796875 C 264.484375 140.703125 264.605469 140.644531 264.726562 140.644531 L 277.15625 140.960938 C 277.371094 140.960938 277.550781 141.144531 277.535156 141.371094 C 277.535156 141.582031 277.355469 141.765625 277.128906 141.75 L 264.894531 141.433594 L 260.296875 147.328125 L 255.792969 156.015625 L 251.769531 166.867188 L 248.53125 179.191406 L 246.28125 192.183594 L 245.175781 205.007812 L 245.265625 216.785156 L 246.535156 226.820312 L 248.019531 231.667969 C 248.078125 231.882812 247.957031 232.09375 247.761719 232.15625 C 247.746094 232.140625 247.703125 232.140625 247.65625 232.140625 Z M 247.65625 232.140625 " fill-opacity="1" fill-rule="nonzero"/><path fill="rgb(90.979004%, 90.979004%, 90.979004%)" d="M 229.765625 228.804688 C 229.675781 228.804688 229.585938 228.773438 229.511719 228.714844 L 225.789062 225.4375 C 225.773438 225.425781 225.746094 225.394531 225.730469 225.378906 L 222.464844 220.996094 L 216.492188 211.476562 C 216.371094 211.296875 216.429688 211.054688 216.609375 210.933594 C 216.792969 210.8125 217.035156 210.871094 217.15625 211.054688 L 223.097656 220.542969 L 226.320312 224.863281 L 230.007812 228.105469 C 230.175781 228.242188 230.191406 228.5 230.039062 228.667969 C 229.980469 228.757812 229.871094 228.804688 229.765625 228.804688 Z M 229.765625 228.804688 " fill-opacity="1" fill-rule="nonzero"/><path fill="rgb(90.979004%, 90.979004%, 90.979004%)" d="M 414.703125 144.902344 L 394.820312 144.796875 L 335.074219 144.644531 L 315.308594 144.628906 L 290.84375 144.75 C 290.632812 144.75 290.449219 144.570312 290.449219 144.359375 C 290.449219 144.144531 290.617188 143.964844 290.84375 143.964844 L 315.308594 143.84375 L 335.074219 143.855469 L 354.945312 143.902344 L 394.835938 144.007812 L 414.71875 144.113281 C 414.929688 144.113281 415.113281 144.296875 415.113281 144.507812 C 415.097656 144.738281 414.914062 144.902344 414.703125 144.902344 Z M 414.703125 144.902344 " fill-opacity="1" fill-rule="nonzero"/><path fill="rgb(90.979004%, 90.979004%, 90.979004%)" d="M 310.605469 165.199219 C 310.410156 165.199219 310.242188 165.046875 310.214844 164.851562 C 310.183594 164.640625 310.335938 164.441406 310.5625 164.410156 L 315.25 163.820312 L 335.769531 161.621094 L 356.589844 160.335938 L 377.429688 159.925781 L 398.144531 159.894531 L 418.710938 159.984375 C 418.921875 159.984375 419.105469 160.167969 419.105469 160.378906 C 419.105469 160.59375 418.921875 160.773438 418.710938 160.773438 L 398.160156 160.683594 L 377.460938 160.714844 L 356.652344 161.121094 L 335.859375 162.410156 L 315.355469 164.609375 L 310.667969 165.183594 C 310.636719 165.199219 310.621094 165.199219 310.605469 165.199219 Z M 310.605469 165.199219 " fill-opacity="1" fill-rule="nonzero"/><path fill="rgb(90.979004%, 90.979004%, 90.979004%)" d="M 274.464844 267.988281 C 274.238281 267.988281 274.074219 267.808594 274.074219 267.59375 L 274.195312 255.878906 L 274.222656 244.855469 L 274.074219 235.972656 L 273.710938 232.046875 C 273.695312 231.835938 273.847656 231.640625 274.058594 231.625 C 274.285156 231.609375 274.464844 231.761719 274.480469 231.972656 L 274.84375 235.929688 L 274.996094 244.855469 L 274.964844 255.890625 L 274.84375 267.625 C 274.859375 267.808594 274.679688 267.988281 274.464844 267.988281 Z M 274.464844 267.988281 " fill-opacity="1" fill-rule="nonzero"/><path fill="rgb(90.979004%, 90.979004%, 90.979004%)" d="M 258.378906 232.546875 C 258.179688 232.546875 258.015625 232.398438 257.984375 232.199219 L 257.53125 228.289062 L 257.0625 218.253906 L 257.03125 206.371094 L 257.441406 193.394531 L 258.269531 180.160156 L 259.464844 167.550781 L 260.949219 156.378906 L 262.609375 147.328125 L 264.351562 140.917969 C 264.378906 140.796875 264.472656 140.6875 264.605469 140.644531 L 271.941406 138.066406 C 271.988281 138.050781 272.046875 138.035156 272.09375 138.050781 L 278.898438 138.507812 C 279.109375 138.523438 279.273438 138.703125 279.261719 138.929688 C 279.246094 139.144531 279.046875 139.308594 278.835938 139.292969 L 272.121094 138.839844 L 265.046875 141.3125 L 263.367188 147.496094 L 261.71875 156.5 L 260.253906 167.640625 L 259.058594 180.222656 L 258.226562 193.425781 L 257.816406 206.386719 L 257.847656 218.238281 L 258.316406 228.242188 L 258.753906 232.125 C 258.785156 232.335938 258.617188 232.535156 258.40625 232.5625 C 258.40625 232.546875 258.390625 232.546875 258.378906 232.546875 Z M 258.378906 232.546875 " fill-opacity="1" fill-rule="nonzero"/><path fill="rgb(90.979004%, 90.979004%, 90.979004%)" d="M 323.65625 268.320312 C 323.460938 268.320312 323.277344 268.171875 323.265625 267.957031 L 322.339844 256.164062 L 321.222656 244.78125 L 319.832031 234.472656 L 318.273438 226.742188 L 317.0625 222.363281 C 317.046875 222.332031 317.046875 222.300781 317.046875 222.269531 L 316.898438 219.238281 C 316.882812 219.027344 317.046875 218.84375 317.277344 218.832031 C 317.488281 218.816406 317.667969 218.980469 317.683594 219.210938 L 317.820312 222.210938 L 319.015625 226.578125 L 320.585938 234.351562 L 321.976562 244.691406 L 323.097656 256.089844 L 324.019531 267.882812 C 324.035156 268.09375 323.867188 268.292969 323.65625 268.308594 C 323.6875 268.320312 323.671875 268.320312 323.65625 268.320312 Z M 323.65625 268.320312 " fill-opacity="1" fill-rule="nonzero"/><path fill="rgb(90.979004%, 90.979004%, 90.979004%)" d="M 266.132812 147.796875 L 262.988281 147.785156 L 259.933594 147.480469 C 259.917969 147.480469 259.90625 147.480469 259.890625 147.480469 L 257.167969 146.902344 C 256.957031 146.859375 256.820312 146.644531 256.863281 146.433594 C 256.910156 146.222656 257.121094 146.085938 257.332031 146.132812 L 260.039062 146.707031 L 263.035156 147.011719 L 266.105469 147.023438 L 269.082031 146.753906 L 271.804688 146.207031 L 274.089844 145.433594 L 275.78125 144.492188 L 276.796875 143.476562 L 277.113281 142.507812 L 276.796875 141.445312 C 276.734375 141.234375 276.855469 141.023438 277.050781 140.960938 C 277.265625 140.902344 277.476562 141.023438 277.535156 141.21875 L 277.898438 142.402344 C 277.929688 142.476562 277.914062 142.570312 277.898438 142.644531 L 277.519531 143.828125 C 277.503906 143.886719 277.476562 143.933594 277.429688 143.976562 L 276.3125 145.101562 C 276.28125 145.128906 276.25 145.144531 276.21875 145.160156 L 274.453125 146.144531 C 274.4375 146.160156 274.40625 146.160156 274.390625 146.175781 L 272.046875 146.964844 C 272.03125 146.964844 272.015625 146.980469 272 146.980469 L 269.234375 147.527344 C 269.21875 147.527344 269.203125 147.527344 269.1875 147.527344 Z M 266.132812 147.796875 " fill-opacity="1" fill-rule="nonzero"/><path fill="rgb(90.979004%, 90.979004%, 90.979004%)" d="M 256.699219 138.113281 C 256.699219 138.113281 256.683594 138.113281 256.683594 138.113281 C 256.472656 138.097656 256.304688 137.914062 256.304688 137.703125 L 256.367188 136.261719 L 256.742188 128.820312 C 256.757812 128.609375 256.941406 128.425781 257.152344 128.441406 C 257.363281 128.457031 257.53125 128.636719 257.53125 128.851562 L 257.089844 137.734375 C 257.078125 137.945312 256.910156 138.113281 256.699219 138.113281 Z M 256.699219 138.113281 " fill-opacity="1" fill-rule="nonzero"/><path fill="rgb(90.979004%, 90.979004%, 90.979004%)" d="M 236.785156 145.8125 C 236.785156 145.8125 236.769531 145.8125 236.769531 145.8125 C 236.558594 145.796875 236.390625 145.617188 236.390625 145.402344 L 236.4375 144.101562 L 236.964844 136.113281 L 237.613281 128.683594 C 237.628906 128.472656 237.828125 128.304688 238.039062 128.320312 C 238.25 128.335938 238.417969 128.53125 238.402344 128.746094 L 237.75 136.15625 L 237.222656 144.113281 L 237.175781 145.402344 C 237.160156 145.644531 236.996094 145.8125 236.785156 145.8125 Z M 236.785156 145.8125 " fill-opacity="1" fill-rule="nonzero"/><path fill="rgb(90.979004%, 90.979004%, 90.979004%)" d="M 299.054688 268.140625 C 298.84375 268.140625 298.675781 267.972656 298.660156 267.761719 L 298.238281 255.984375 L 297.632812 244.78125 L 296.726562 235.308594 L 295.574219 230.125 L 295.105469 229.515625 C 294.972656 229.351562 295 229.09375 295.183594 228.972656 C 295.347656 228.835938 295.605469 228.863281 295.726562 229.046875 L 296.257812 229.730469 C 296.285156 229.773438 296.316406 229.835938 296.332031 229.878906 L 297.511719 235.1875 C 297.511719 235.203125 297.511719 235.214844 297.527344 235.230469 L 298.433594 244.734375 L 299.039062 255.96875 L 299.460938 267.746094 C 299.445312 267.957031 299.28125 268.140625 299.054688 268.140625 Z M 299.054688 268.140625 " fill-opacity="1" fill-rule="nonzero"/><path fill="rgb(90.979004%, 90.979004%, 90.979004%)" d="M 315.402344 178.25 C 315.234375 178.25 315.066406 178.128906 315.023438 177.964844 C 314.960938 177.75 315.097656 177.539062 315.292969 177.476562 L 315.414062 177.449219 L 336.207031 172.386719 L 357.515625 169.324219 L 378.820312 168.308594 L 399.898438 168.1875 L 420.8125 168.277344 C 421.023438 168.277344 421.207031 168.460938 421.207031 168.671875 C 421.207031 168.882812 421.023438 169.066406 420.8125 169.066406 L 399.914062 168.972656 L 378.851562 169.097656 L 357.589844 170.097656 L 336.359375 173.144531 L 315.492188 178.222656 C 315.460938 178.25 315.429688 178.25 315.402344 178.25 Z M 315.402344 178.25 " fill-opacity="1" fill-rule="nonzero"/><path fill="rgb(90.979004%, 90.979004%, 90.979004%)" d="M 252.917969 232.609375 L 239.398438 231.410156 C 239.382812 231.410156 239.371094 231.410156 239.355469 231.398438 L 232.792969 229.957031 L 232.308594 229.804688 L 231.613281 229.546875 L 231.25 229.515625 C 231.203125 229.515625 231.160156 229.5 231.113281 229.488281 L 228.753906 228.351562 C 228.722656 228.335938 228.707031 228.320312 228.679688 228.304688 L 211.546875 214.617188 C 211.441406 214.539062 211.394531 214.402344 211.394531 214.28125 L 212.105469 204.71875 L 212.875 198.246094 L 212.378906 195.136719 C 212.378906 195.121094 212.378906 195.109375 212.378906 195.078125 L 212.152344 183.570312 C 212.152344 183.542969 212.152344 183.496094 212.164062 183.464844 L 214.976562 172.21875 C 214.976562 172.203125 214.992188 172.1875 214.992188 172.171875 L 217.019531 167.382812 C 217.019531 167.367188 217.035156 167.351562 217.035156 167.335938 L 222.492188 157.652344 C 222.507812 157.621094 222.539062 157.574219 222.570312 157.558594 L 230.523438 149.632812 C 230.523438 149.632812 230.539062 149.617188 230.539062 149.617188 L 233.835938 146.554688 C 233.863281 146.523438 233.894531 146.511719 233.925781 146.496094 L 246.445312 139.886719 C 246.460938 139.871094 246.492188 139.871094 246.507812 139.855469 L 251.011719 138.371094 C 251.027344 138.371094 251.042969 138.355469 251.058594 138.355469 L 256.320312 137.339844 C 256.351562 137.339844 256.382812 137.324219 256.410156 137.339844 L 260.402344 137.445312 C 260.480469 137.445312 260.554688 137.476562 260.628906 137.519531 L 264.59375 140.417969 L 266.089844 137.414062 C 266.148438 137.308594 266.242188 137.234375 266.359375 137.203125 L 267.933594 136.871094 C 267.980469 136.855469 268.007812 136.855469 268.054688 136.871094 L 273.742188 137.429688 C 273.753906 137.429688 273.769531 137.429688 273.785156 137.429688 L 278.972656 138.507812 C 278.988281 138.507812 279.003906 138.523438 279.019531 138.523438 L 283.433594 140.050781 C 283.449219 140.050781 283.464844 140.066406 283.480469 140.066406 L 287.273438 142.054688 L 290.84375 143.992188 L 291.128906 144.070312 C 291.160156 144.085938 291.191406 144.085938 291.222656 144.101562 L 296.03125 146.8125 C 296.058594 146.828125 296.089844 146.859375 296.121094 146.875 L 299.234375 149.980469 C 299.25 149.996094 299.25 149.996094 299.265625 150.011719 L 307.21875 157.984375 C 307.25 158.015625 307.265625 158.046875 307.28125 158.074219 L 312.785156 167.835938 C 312.800781 167.851562 312.800781 167.882812 312.816406 167.898438 L 314.523438 172.703125 L 317.351562 184.027344 C 317.367188 184.058594 317.367188 184.101562 317.367188 184.132812 L 317.140625 195.273438 L 317.140625 195.5625 L 318.015625 205.019531 L 318.167969 214.191406 C 318.167969 214.207031 318.167969 214.222656 318.167969 214.238281 L 317.714844 219.238281 C 317.699219 219.375 317.625 219.496094 317.503906 219.558594 L 299.871094 228.242188 C 299.855469 228.257812 299.839844 228.257812 299.808594 228.257812 L 295.515625 229.621094 L 289.921875 230.882812 C 289.90625 230.882812 289.890625 230.882812 289.875 230.894531 L 274.132812 232.367188 Z M 239.492188 230.636719 L 252.949219 231.835938 L 274.089844 231.609375 L 289.785156 230.136719 L 295.320312 228.894531 L 299.554688 227.546875 L 316.957031 218.980469 L 317.398438 214.222656 L 317.246094 205.097656 L 316.367188 195.636719 L 316.351562 195.304688 L 316.578125 184.207031 L 313.765625 172.976562 L 312.089844 168.230469 L 308.761719 162.335938 C 308.792969 162.410156 308.792969 162.488281 308.777344 162.5625 L 307.734375 166.640625 L 313.328125 177.554688 C 313.34375 177.585938 313.359375 177.613281 313.359375 177.644531 L 316.140625 189.316406 C 316.171875 189.4375 316.140625 189.558594 316.066406 189.664062 L 311.90625 194.59375 L 311.695312 206.128906 C 311.695312 206.265625 311.621094 206.386719 311.515625 206.445312 L 304.558594 210.917969 L 302.078125 221.132812 C 302.046875 221.253906 301.957031 221.363281 301.835938 221.40625 L 292.871094 224.9375 C 292.855469 224.9375 292.839844 224.953125 292.808594 224.953125 L 282.074219 227.425781 C 282.058594 227.425781 282.042969 227.425781 282.027344 227.441406 L 270.171875 228.683594 C 270.15625 228.683594 270.140625 228.683594 270.125 228.683594 L 257.921875 228.609375 C 257.910156 228.609375 257.894531 228.609375 257.878906 228.609375 L 246.113281 227.210938 C 246.097656 227.210938 246.082031 227.210938 246.066406 227.199219 L 235.5 224.589844 C 235.484375 224.589844 235.453125 224.574219 235.4375 224.574219 L 226.710938 220.9375 C 226.589844 220.890625 226.515625 220.785156 226.484375 220.664062 L 223.945312 210.417969 L 217.292969 205.855469 C 217.1875 205.777344 217.125 205.65625 217.125 205.535156 L 216.914062 194 L 213.089844 189.027344 C 213.074219 189.015625 213.058594 188.984375 213.042969 188.953125 L 213.164062 194.972656 L 213.664062 198.109375 C 213.664062 198.140625 213.664062 198.183594 213.664062 198.214844 L 212.890625 204.734375 L 212.195312 214.085938 L 229.148438 227.636719 L 231.398438 228.714844 L 231.734375 228.742188 C 231.761719 228.742188 231.808594 228.757812 231.839844 228.773438 L 232.566406 229.046875 L 232.988281 229.183594 Z M 257.953125 227.863281 L 270.113281 227.941406 L 281.921875 226.699219 L 292.613281 224.242188 L 301.367188 220.800781 L 303.667969 211.355469 L 294.804688 214.796875 C 294.789062 214.796875 294.773438 214.8125 294.746094 214.8125 L 283.265625 217.40625 C 283.253906 217.40625 283.238281 217.40625 283.222656 217.421875 L 270.550781 218.722656 C 270.535156 218.722656 270.519531 218.722656 270.503906 218.722656 L 257.46875 218.648438 C 257.453125 218.648438 257.441406 218.648438 257.425781 218.648438 L 244.859375 217.191406 C 244.84375 217.191406 244.828125 217.191406 244.8125 217.179688 L 233.515625 214.449219 C 233.503906 214.449219 233.472656 214.433594 233.457031 214.433594 L 224.867188 210.902344 L 227.210938 220.359375 L 235.726562 223.910156 L 246.25 226.5 Z M 257.484375 217.84375 L 270.488281 217.921875 L 283.117188 216.617188 L 294.53125 214.023438 L 303.816406 210.417969 L 304 198.972656 L 301.804688 186.648438 L 297.496094 174.796875 L 289.84375 177.570312 C 289.828125 177.570312 289.816406 177.585938 289.800781 177.585938 L 280.210938 179.617188 C 280.199219 179.617188 280.183594 179.617188 280.167969 179.617188 L 269.597656 180.632812 C 269.582031 180.632812 269.566406 180.632812 269.550781 180.632812 L 258.664062 180.570312 C 258.648438 180.570312 258.632812 180.570312 258.617188 180.570312 L 248.125 179.433594 C 248.109375 179.433594 248.09375 179.433594 248.078125 179.433594 L 238.644531 177.296875 C 238.628906 177.296875 238.613281 177.28125 238.582031 177.28125 L 230.78125 174.296875 C 230.75 174.28125 230.734375 174.28125 230.703125 174.265625 L 225.367188 170.871094 L 220.285156 182.042969 L 217.746094 193.757812 L 224.324219 198.183594 C 224.429688 198.261719 224.488281 198.382812 224.488281 198.503906 L 224.671875 209.976562 L 233.714844 213.691406 L 244.949219 216.421875 Z M 298.207031 174.476562 L 302.546875 186.4375 C 302.5625 186.453125 302.5625 186.484375 302.5625 186.496094 L 304.753906 198.898438 C 304.753906 198.925781 304.753906 198.941406 304.753906 198.972656 L 304.589844 209.992188 L 310.878906 205.945312 L 311.089844 194.484375 C 311.089844 194.394531 311.121094 194.304688 311.179688 194.242188 L 315.308594 189.363281 L 312.585938 177.917969 L 307.203125 167.414062 L 303.984375 171.019531 C 303.953125 171.050781 303.921875 171.082031 303.894531 171.097656 Z M 217.910156 205.371094 L 223.898438 209.476562 L 223.734375 198.699219 L 217.714844 194.667969 Z M 213.8125 188.742188 L 217.09375 193 L 219.515625 181.8125 C 219.515625 181.785156 219.53125 181.753906 219.542969 181.738281 L 224.730469 170.339844 L 221.554688 166.457031 C 221.511719 166.414062 221.480469 166.351562 221.480469 166.277344 L 220.890625 163.125 L 215.75 172.371094 L 216.566406 177.113281 C 216.582031 177.160156 216.566406 177.222656 216.566406 177.265625 Z M 212.9375 183.601562 L 213.042969 188.648438 L 215.792969 177.175781 L 215.28125 174.203125 Z M 258.695312 179.796875 L 269.535156 179.859375 L 280.0625 178.84375 L 289.601562 176.828125 L 297.164062 174.097656 L 291.117188 163.441406 L 284.945312 165.625 C 284.929688 165.625 284.914062 165.640625 284.898438 165.640625 L 277.171875 167.230469 C 277.15625 167.230469 277.144531 167.230469 277.128906 167.230469 L 268.628906 168.035156 L 259.84375 167.988281 L 251.375 167.09375 C 251.359375 167.09375 251.34375 167.09375 251.332031 167.09375 L 243.722656 165.414062 C 243.710938 165.414062 243.695312 165.398438 243.679688 165.398438 L 237.375 163.046875 C 237.34375 163.03125 237.328125 163.03125 237.296875 163.015625 L 232.957031 160.335938 L 225.761719 170.203125 L 231.097656 173.597656 L 238.839844 176.570312 L 248.230469 178.691406 Z M 291.824219 163.109375 L 297.875 173.765625 L 303.453125 170.414062 L 306.796875 166.6875 L 299.085938 157.546875 L 296.421875 160.410156 C 296.394531 160.441406 296.363281 160.457031 296.332031 160.484375 Z M 222.25 166.050781 L 225.183594 169.640625 L 232.367188 159.804688 L 229.84375 156.816406 C 229.796875 156.773438 229.765625 156.710938 229.753906 156.636719 L 229.222656 154.011719 L 221.527344 162.09375 Z M 251.480469 166.308594 L 259.890625 167.199219 L 268.585938 167.246094 L 277.023438 166.441406 L 284.703125 164.851562 L 290.632812 162.757812 L 283.160156 153.695312 L 278.867188 155.164062 C 278.851562 155.164062 278.835938 155.179688 278.820312 155.179688 L 273.421875 156.273438 C 273.40625 156.273438 273.394531 156.273438 273.378906 156.273438 L 267.449219 156.816406 L 261.324219 156.789062 L 255.398438 156.179688 C 255.382812 156.179688 255.367188 156.179688 255.351562 156.179688 L 250.03125 155.027344 C 250.015625 155.027344 250 155.015625 249.984375 155.015625 L 245.554688 153.40625 C 245.523438 153.390625 245.507812 153.390625 245.492188 153.375 L 242.453125 151.558594 L 233.503906 159.710938 L 237.675781 162.289062 L 243.921875 164.625 Z M 299.539062 156.847656 L 307.128906 165.851562 L 307.960938 162.578125 L 300.21875 154.363281 Z M 283.886719 153.375 L 291.386719 162.457031 L 295.910156 159.835938 L 298.539062 157.015625 L 288.890625 149.664062 L 287.015625 151.601562 C 286.988281 151.632812 286.957031 151.648438 286.925781 151.679688 Z M 300.371094 153.390625 L 308.671875 162.199219 C 308.6875 162.214844 308.6875 162.214844 308.6875 162.230469 L 306.601562 158.546875 L 302.730469 154.679688 C 302.714844 154.664062 302.714844 154.664062 302.699219 154.648438 L 301.925781 153.863281 L 299.78125 151.695312 Z M 223.175781 158.0625 L 222.28125 160.167969 L 229.117188 152.996094 L 229.707031 151.558594 Z M 230.492188 156.394531 L 232.898438 159.226562 L 241.863281 151.058594 L 240.171875 149.132812 C 240.125 149.085938 240.09375 149.027344 240.078125 148.964844 L 239.671875 147.175781 L 229.886719 153.40625 Z M 289.285156 148.964844 L 298.886719 156.273438 L 299.582031 153.753906 L 289.753906 147.402344 Z M 255.503906 155.421875 L 261.371094 156.03125 L 267.417969 156.058594 L 273.285156 155.515625 L 278.640625 154.4375 L 282.496094 153.105469 L 274.027344 146.117188 L 264.757812 141.445312 L 257.484375 146.796875 C 257.378906 146.875 257.242188 146.890625 257.121094 146.859375 L 254.839844 146.039062 C 254.808594 146.023438 254.792969 146.023438 254.777344 146.007812 L 253.265625 145.128906 L 243.179688 151.074219 L 245.871094 152.695312 L 250.242188 154.285156 Z M 267.660156 142.039062 L 274.421875 145.433594 C 274.453125 145.449219 274.464844 145.464844 274.496094 145.480469 L 283.34375 152.769531 L 286.488281 150.996094 L 288.183594 149.238281 L 277.023438 144.070312 Z M 289.859375 146.539062 L 299.296875 152.648438 L 298.585938 150.542969 L 289.46875 145.34375 Z M 231.113281 150.179688 L 230.28125 152.210938 L 239.609375 146.265625 L 240.066406 145.117188 Z M 240.820312 148.675781 L 242.5 150.574219 L 252.644531 144.601562 L 251.933594 143.828125 C 251.890625 143.78125 251.859375 143.722656 251.84375 143.660156 L 251.648438 142.886719 L 240.382812 146.78125 Z M 272.773438 142.339844 L 277.21875 143.3125 C 277.25 143.3125 277.277344 143.328125 277.292969 143.34375 L 288.589844 148.570312 L 289.042969 147.039062 L 277.429688 142.886719 Z M 289.011719 144.175781 L 296.589844 148.511719 L 295.574219 147.496094 L 290.480469 144.722656 L 288.605469 143.765625 Z M 234.320312 147.160156 L 233.488281 147.933594 L 240.609375 143.917969 L 240.761719 143.78125 Z M 268.945312 141.097656 L 277.566406 142.113281 C 277.597656 142.113281 277.625 142.128906 277.65625 142.128906 L 288.921875 146.144531 L 288.484375 144.796875 L 277.066406 141.691406 C 276.992188 141.675781 276.929688 141.628906 276.886719 141.582031 L 275.933594 140.597656 Z M 255.140625 145.328125 L 257.199219 146.054688 L 262.566406 142.097656 L 254.234375 144.78125 Z M 241.136719 144.570312 L 240.625 145.886719 L 251.648438 142.070312 L 251.753906 141.78125 Z M 252.585938 143.371094 L 253.386719 144.234375 L 260.960938 141.796875 L 252.433594 142.707031 Z M 277.371094 140.976562 L 287.484375 143.734375 L 286.457031 142.691406 L 277.234375 140.839844 Z M 243.347656 142.417969 L 242.242188 143.464844 L 252.175781 140.839844 L 253.265625 139.808594 C 253.28125 139.808594 253.28125 139.792969 253.296875 139.792969 L 246.75 140.628906 Z M 252.644531 141.582031 L 252.523438 141.917969 L 256.125 141.539062 Z M 276.824219 139.960938 L 284.3125 141.460938 L 283.160156 140.808594 Z M 253.765625 140.417969 L 253.371094 140.78125 L 261.023438 140.660156 L 255.382812 139.539062 Z M 269.460938 138.308594 L 266.511719 140.28125 L 272.816406 139.128906 L 271.972656 138.839844 Z M 274.285156 139.644531 L 271.667969 140.128906 L 274.753906 139.917969 Z M 266.695312 137.929688 L 265.742188 139.855469 L 268.886719 137.75 L 268.007812 137.65625 Z M 256.863281 139.035156 L 260.011719 139.660156 L 257.652344 138.777344 Z M 258.269531 138.171875 L 262.1875 139.628906 L 260.253906 138.21875 Z M 274.453125 138.855469 L 279.457031 139.523438 L 278.777344 139.28125 L 273.621094 138.21875 L 272.226562 138.082031 Z M 251.222656 139.144531 L 250.636719 139.339844 L 255.230469 138.765625 L 257.0625 138.15625 L 256.425781 138.140625 Z M 251.222656 139.144531 " fill-opacity="1" fill-rule="nonzero"/><path fill="rgb(90.979004%, 90.979004%, 90.979004%)" d="M 228.933594 228.394531 C 228.875 228.394531 228.8125 228.378906 228.769531 228.351562 L 211.441406 219.996094 L 189.632812 210.933594 L 166.632812 205.550781 L 143.589844 203.640625 L 120.96875 203.1875 L 98.664062 203.035156 C 98.453125 203.035156 98.269531 202.851562 98.269531 202.640625 C 98.269531 202.429688 98.453125 202.246094 98.664062 202.246094 L 120.96875 202.398438 L 143.621094 202.851562 L 166.726562 204.761719 C 166.742188 204.761719 166.769531 204.761719 166.785156 204.777344 L 189.847656 210.175781 C 189.859375 210.175781 189.890625 210.191406 189.90625 210.191406 L 211.757812 219.269531 L 229.117188 227.621094 C 229.3125 227.714844 229.390625 227.957031 229.296875 228.152344 C 229.222656 228.320312 229.085938 228.394531 228.933594 228.394531 Z M 228.933594 228.394531 " fill-opacity="1" fill-rule="nonzero"/><path fill="rgb(90.979004%, 90.979004%, 90.979004%)" d="M 231.945312 229.746094 C 231.867188 229.746094 231.792969 229.730469 231.71875 229.667969 L 231.476562 229.5 L 225.804688 225.453125 C 225.761719 225.425781 225.730469 225.378906 225.699219 225.347656 L 220.164062 216.40625 C 220.148438 216.375 220.132812 216.34375 220.121094 216.300781 L 217.15625 205.765625 L 213.300781 200.65625 C 213.253906 200.59375 213.222656 200.503906 213.222656 200.429688 L 212.996094 188.878906 L 212.152344 183.632812 C 212.121094 183.421875 212.257812 183.222656 212.46875 183.179688 C 212.679688 183.148438 212.875 183.285156 212.921875 183.496094 L 213.785156 188.769531 C 213.785156 188.785156 213.785156 188.800781 213.785156 188.832031 L 214.011719 200.292969 L 217.820312 205.355469 C 217.851562 205.398438 217.867188 205.429688 217.882812 205.492188 L 220.84375 216.054688 L 226.304688 224.878906 L 232.140625 229.03125 C 232.324219 229.152344 232.367188 229.394531 232.246094 229.578125 C 232.203125 229.683594 232.082031 229.746094 231.945312 229.746094 Z M 231.945312 229.746094 " fill-opacity="1" fill-rule="nonzero"/><path fill="rgb(90.979004%, 90.979004%, 90.979004%)" d="M 239.429688 231.410156 C 239.414062 231.410156 239.398438 231.410156 239.398438 231.410156 L 231.082031 230.667969 L 208.550781 227.46875 L 185.476562 224.847656 L 162.039062 223.4375 L 138.585938 222.96875 L 115.296875 222.863281 L 92.222656 222.785156 C 92.007812 222.785156 91.828125 222.605469 91.828125 222.390625 C 91.828125 222.179688 92.007812 222 92.222656 222 L 115.296875 222.074219 L 138.585938 222.179688 L 162.066406 222.648438 L 185.535156 224.058594 L 208.640625 226.683594 L 231.160156 229.878906 L 239.460938 230.609375 C 239.671875 230.625 239.839844 230.820312 239.824219 231.03125 C 239.808594 231.261719 239.640625 231.410156 239.429688 231.410156 Z M 239.429688 231.410156 " fill-opacity="1" fill-rule="nonzero"/><path fill="rgb(90.979004%, 90.979004%, 90.979004%)" d="M 269.792969 232.425781 C 269.777344 232.425781 269.761719 232.425781 269.761719 232.425781 C 269.550781 232.414062 269.386719 232.214844 269.414062 232.003906 L 269.75 228.289062 L 270.125 218.300781 L 270.15625 206.445312 L 269.824219 193.484375 L 269.160156 180.265625 L 268.207031 167.671875 L 267.027344 156.5 L 265.710938 147.464844 L 264.351562 141.113281 L 263.078125 137.898438 L 262.097656 137.628906 L 256.441406 138.128906 C 256.214844 138.140625 256.035156 137.992188 256.019531 137.761719 C 256.003906 137.550781 256.152344 137.355469 256.382812 137.339844 L 262.113281 136.839844 C 262.15625 136.839844 262.203125 136.839844 262.25 136.855469 L 263.488281 137.203125 C 263.609375 137.234375 263.699219 137.324219 263.746094 137.429688 L 265.089844 140.855469 C 265.105469 140.871094 265.105469 140.902344 265.105469 140.917969 L 266.480469 147.3125 L 267.8125 156.394531 L 268.992188 167.59375 L 269.945312 180.222656 L 270.609375 193.457031 L 270.941406 206.429688 L 270.914062 218.316406 L 270.535156 228.335938 L 270.203125 232.0625 C 270.171875 232.277344 269.992188 232.425781 269.792969 232.425781 Z M 269.792969 232.425781 " fill-opacity="1" fill-rule="nonzero"/><path fill="rgb(90.979004%, 90.979004%, 90.979004%)" d="M 231.292969 229.53125 C 231.25 229.53125 231.21875 229.53125 231.171875 229.515625 L 210.53125 223.179688 L 187.863281 217.449219 L 164.5625 214.238281 L 141.261719 213.101562 L 118.246094 212.828125 L 95.53125 212.722656 C 95.320312 212.722656 95.140625 212.539062 95.140625 212.328125 C 95.140625 212.113281 95.320312 211.933594 95.53125 211.933594 L 118.246094 212.039062 L 141.277344 212.3125 L 164.636719 213.449219 L 188 216.664062 C 188.015625 216.664062 188.03125 216.664062 188.046875 216.679688 L 210.757812 222.421875 L 231.429688 228.757812 C 231.640625 228.820312 231.746094 229.046875 231.6875 229.242188 C 231.613281 229.425781 231.460938 229.53125 231.292969 229.53125 Z M 231.292969 229.53125 " fill-opacity="1" fill-rule="nonzero"/><path fill="rgb(90.979004%, 90.979004%, 90.979004%)" d="M 232.882812 229.972656 C 232.835938 229.972656 232.804688 229.972656 232.761719 229.957031 L 232.308594 229.820312 L 231.867188 229.730469 C 231.808594 229.714844 231.734375 229.683594 231.6875 229.636719 L 231.386719 229.367188 C 231.355469 229.335938 231.324219 229.304688 231.308594 229.273438 L 226.589844 220.90625 L 220.300781 216.527344 C 220.269531 216.496094 220.242188 216.464844 220.210938 216.433594 L 216.535156 211.507812 C 216.503906 211.480469 216.492188 211.433594 216.476562 211.386719 L 215.265625 207.292969 L 212.300781 205.082031 L 191.796875 193.984375 L 169.960938 187.558594 L 147.914062 185.316406 L 126.183594 184.753906 L 104.679688 184.574219 C 104.46875 184.574219 104.289062 184.390625 104.289062 184.179688 C 104.289062 183.964844 104.46875 183.785156 104.679688 183.785156 L 126.199219 183.964844 L 147.960938 184.527344 L 170.082031 186.769531 C 170.113281 186.769531 170.128906 186.769531 170.15625 186.785156 L 192.070312 193.226562 C 192.097656 193.242188 192.113281 193.242188 192.144531 193.257812 L 212.695312 204.371094 C 212.710938 204.382812 212.726562 204.382812 212.738281 204.398438 L 215.824219 206.703125 C 215.886719 206.75 215.945312 206.824219 215.960938 206.902344 L 217.1875 211.054688 L 220.785156 215.875 L 227.105469 220.269531 C 227.152344 220.300781 227.195312 220.347656 227.226562 220.40625 L 231.960938 228.789062 L 232.140625 228.957031 L 232.519531 229.03125 L 233.003906 229.183594 C 233.214844 229.242188 233.320312 229.472656 233.261719 229.667969 C 233.199219 229.867188 233.046875 229.972656 232.882812 229.972656 Z M 232.882812 229.972656 " fill-opacity="1" fill-rule="nonzero"/><path fill="rgb(90.979004%, 90.979004%, 90.979004%)" d="M 280.832031 231.53125 C 280.800781 231.53125 280.757812 231.53125 280.726562 231.519531 C 280.515625 231.457031 280.394531 231.246094 280.453125 231.03125 L 281.605469 227.015625 L 282.785156 216.996094 L 282.875 205.171875 L 281.832031 192.332031 L 279.730469 179.296875 L 276.703125 166.929688 L 272.984375 156.058594 L 268.796875 147.328125 L 264.515625 141.371094 L 253.554688 140.476562 L 243.210938 142.460938 L 239.277344 144.507812 L 234.273438 147.160156 C 234.078125 147.269531 233.851562 147.191406 233.742188 146.996094 C 233.636719 146.796875 233.714844 146.570312 233.910156 146.464844 L 238.992188 143.765625 L 242.90625 141.71875 C 242.9375 141.703125 242.984375 141.691406 243.011719 141.691406 L 253.460938 139.671875 C 253.492188 139.671875 253.539062 139.660156 253.570312 139.671875 L 264.757812 140.582031 C 264.878906 140.597656 264.96875 140.660156 265.046875 140.75 L 269.460938 146.875 C 269.476562 146.890625 269.492188 146.917969 269.492188 146.933594 L 273.710938 155.710938 C 273.710938 155.726562 273.726562 155.742188 273.726562 155.757812 L 277.476562 166.6875 L 280.515625 179.117188 L 282.617188 192.210938 L 283.660156 205.113281 L 283.570312 216.996094 C 283.570312 217.011719 283.570312 217.027344 283.570312 217.042969 L 282.375 227.121094 C 282.375 227.136719 282.375 227.167969 282.359375 227.183594 L 281.210938 231.230469 C 281.164062 231.410156 281 231.53125 280.832031 231.53125 Z M 280.832031 231.53125 " fill-opacity="1" fill-rule="nonzero"/></svg>