<svg xmlns="http://www.w3.org/2000/svg" xmlns:xlink="http://www.w3.org/1999/xlink" width="236" zoomAndPan="magnify" viewBox="0 0 177 177.000001" height="236" preserveAspectRatio="xMidYMid meet" version="1.0"><defs><clipPath id="id1"><path d="M 16.328125 114 L 161 114 L 161 115.644531 L 16.328125 115.644531 Z M 16.328125 114 " clip-rule="nonzero"/></clipPath><clipPath id="id2"><path d="M 33 60.457031 L 147 60.457031 L 147 62 L 33 62 Z M 33 60.457031 " clip-rule="nonzero"/></clipPath><clipPath id="id3"><path d="M 16.328125 60.457031 L 35 60.457031 L 35 115 L 16.328125 115 Z M 16.328125 60.457031 " clip-rule="nonzero"/></clipPath><clipPath id="id4"><path d="M 25 60.457031 L 42 60.457031 L 42 115 L 25 115 Z M 25 60.457031 " clip-rule="nonzero"/></clipPath><clipPath id="id5"><path d="M 35 60.457031 L 50 60.457031 L 50 115 L 35 115 Z M 35 60.457031 " clip-rule="nonzero"/></clipPath><clipPath id="id6"><path d="M 45 60.457031 L 57 60.457031 L 57 115 L 45 115 Z M 45 60.457031 " clip-rule="nonzero"/></clipPath><clipPath id="id7"><path d="M 54 60.457031 L 65 60.457031 L 65 115 L 54 115 Z M 54 60.457031 " clip-rule="nonzero"/></clipPath><clipPath id="id8"><path d="M 73 100 L 78 100 L 78 115.644531 L 73 115.644531 Z M 73 100 " clip-rule="nonzero"/></clipPath><clipPath id="id9"><path d="M 83 101 L 86 101 L 86 115.644531 L 83 115.644531 Z M 83 101 " clip-rule="nonzero"/></clipPath><clipPath id="id10"><path d="M 146 61 L 161 61 L 161 115.644531 L 146 115.644531 Z M 146 61 " clip-rule="nonzero"/></clipPath><clipPath id="id11"><path d="M 138 61 L 152 61 L 152 115.644531 L 138 115.644531 Z M 138 61 " clip-rule="nonzero"/></clipPath><clipPath id="id12"><path d="M 131 60.457031 L 142 60.457031 L 142 115.644531 L 131 115.644531 Z M 131 60.457031 " clip-rule="nonzero"/></clipPath><clipPath id="id13"><path d="M 123 60.457031 L 132 60.457031 L 132 115.644531 L 123 115.644531 Z M 123 60.457031 " clip-rule="nonzero"/></clipPath><clipPath id="id14"><path d="M 93 60.457031 L 95 60.457031 L 95 65 L 93 65 Z M 93 60.457031 " clip-rule="nonzero"/></clipPath><clipPath id="id15"><path d="M 116 60.457031 L 123 60.457031 L 123 115.644531 L 116 115.644531 Z M 116 60.457031 " clip-rule="nonzero"/></clipPath><clipPath id="id16"><path d="M 101 60.457031 L 102 60.457031 L 102 69 L 101 69 Z M 101 60.457031 " clip-rule="nonzero"/></clipPath><clipPath id="id17"><path d="M 108 60.457031 L 110 60.457031 L 110 81 L 108 81 Z M 108 60.457031 " clip-rule="nonzero"/></clipPath><clipPath id="id18"><path d="M 70 60.457031 L 72 60.457031 L 72 78 L 70 78 Z M 70 60.457031 " clip-rule="nonzero"/></clipPath><clipPath id="id19"><path d="M 93 100 L 94 100 L 94 115.644531 L 93 115.644531 Z M 93 100 " clip-rule="nonzero"/></clipPath><clipPath id="id20"><path d="M 109 95 L 113 95 L 113 115.644531 L 109 115.644531 Z M 109 95 " clip-rule="nonzero"/></clipPath><clipPath id="id21"><path d="M 86 60.457031 L 87 60.457031 L 87 65 L 86 65 Z M 86 60.457031 " clip-rule="nonzero"/></clipPath><clipPath id="id22"><path d="M 78 60.457031 L 80 60.457031 L 80 68 L 78 68 Z M 78 60.457031 " clip-rule="nonzero"/></clipPath><clipPath id="id23"><path d="M 101 99 L 104 99 L 104 115.644531 L 101 115.644531 Z M 101 99 " clip-rule="nonzero"/></clipPath></defs><g clip-path="url(#id1)"><path fill="rgb(90.979004%, 90.979004%, 90.979004%)" d="M 160.824219 115.640625 C 160.824219 115.640625 160.820312 115.640625 160.824219 115.640625 L 151.164062 115.574219 L 131.84375 115.433594 L 112.554688 115.277344 L 102.9375 115.207031 L 93.328125 115.144531 L 54.925781 114.914062 L 35.707031 114.804688 L 26.105469 114.746094 L 16.511719 114.6875 C 16.429688 114.6875 16.355469 114.617188 16.355469 114.535156 C 16.355469 114.453125 16.429688 114.382812 16.511719 114.382812 L 26.105469 114.441406 L 35.707031 114.5 L 64.53125 114.664062 L 93.328125 114.839844 L 102.9375 114.90625 L 112.554688 114.976562 L 131.84375 115.132812 L 151.164062 115.273438 L 160.824219 115.335938 C 160.90625 115.335938 160.980469 115.410156 160.980469 115.492188 C 160.972656 115.574219 160.90625 115.640625 160.824219 115.640625 Z M 160.824219 115.640625 " fill-opacity="1" fill-rule="nonzero"/></g><path fill="rgb(90.979004%, 90.979004%, 90.979004%)" d="M 159.632812 111.085938 L 150.144531 111.019531 L 140.648438 110.949219 L 131.148438 110.867188 L 121.652344 110.773438 L 112.1875 110.691406 L 102.765625 110.625 L 83.984375 110.542969 L 74.589844 110.488281 L 65.183594 110.425781 L 55.753906 110.367188 L 46.304688 110.316406 L 36.851562 110.277344 L 27.410156 110.230469 L 17.980469 110.175781 C 17.898438 110.175781 17.828125 110.105469 17.828125 110.023438 C 17.828125 109.941406 17.898438 109.871094 17.980469 109.871094 L 27.410156 109.921875 L 36.851562 109.96875 L 46.304688 110.011719 L 55.753906 110.058594 L 65.183594 110.117188 L 74.589844 110.183594 L 83.984375 110.234375 L 102.765625 110.316406 L 112.1875 110.382812 L 121.652344 110.464844 L 131.148438 110.558594 L 140.648438 110.644531 L 150.144531 110.714844 L 159.632812 110.777344 C 159.714844 110.777344 159.785156 110.847656 159.785156 110.933594 C 159.785156 111.015625 159.714844 111.085938 159.632812 111.085938 Z M 159.632812 111.085938 " fill-opacity="1" fill-rule="nonzero"/><path fill="rgb(90.979004%, 90.979004%, 90.979004%)" d="M 158.472656 106.6875 L 149.144531 106.621094 L 139.796875 106.539062 L 130.433594 106.433594 L 121.070312 106.320312 L 111.75 106.242188 L 102.535156 106.25 L 93.390625 106.285156 L 84.253906 106.285156 L 75.109375 106.207031 L 65.902344 106.082031 L 56.632812 105.976562 L 47.324219 105.917969 L 28.695312 105.847656 L 19.417969 105.800781 C 19.335938 105.800781 19.265625 105.730469 19.265625 105.648438 C 19.265625 105.5625 19.335938 105.492188 19.417969 105.492188 L 28.695312 105.539062 L 47.324219 105.609375 L 56.632812 105.671875 L 65.902344 105.777344 L 75.109375 105.902344 L 84.253906 105.976562 L 93.390625 105.976562 L 102.535156 105.941406 L 111.757812 105.9375 L 121.074219 106.011719 L 130.445312 106.125 L 139.808594 106.230469 L 149.15625 106.3125 L 158.484375 106.378906 C 158.566406 106.378906 158.640625 106.449219 158.640625 106.53125 C 158.628906 106.621094 158.5625 106.6875 158.472656 106.6875 Z M 158.472656 106.6875 " fill-opacity="1" fill-rule="nonzero"/><path fill="rgb(90.979004%, 90.979004%, 90.979004%)" d="M 68.839844 94.382812 C 68.816406 94.382812 68.792969 94.378906 68.769531 94.367188 L 60.617188 89.917969 L 51.847656 87.386719 L 43.03125 86.496094 L 34.382812 86.265625 L 25.835938 86.195312 C 25.75 86.195312 25.679688 86.121094 25.679688 86.039062 C 25.679688 85.957031 25.75 85.886719 25.835938 85.886719 L 34.390625 85.957031 L 43.054688 86.183594 L 51.894531 87.078125 C 51.90625 87.078125 51.914062 87.078125 51.925781 87.085938 L 60.722656 89.628906 C 60.734375 89.636719 60.746094 89.636719 60.75 89.640625 L 68.917969 94.101562 C 68.992188 94.140625 69.015625 94.238281 68.976562 94.308594 C 68.945312 94.359375 68.894531 94.382812 68.839844 94.382812 Z M 68.839844 94.382812 " fill-opacity="1" fill-rule="nonzero"/><path fill="rgb(90.979004%, 90.979004%, 90.979004%)" d="M 84.542969 102.875 L 75.699219 102.648438 L 66.707031 102.238281 L 57.574219 101.898438 L 48.355469 101.71875 L 39.132812 101.660156 L 29.941406 101.628906 L 20.792969 101.59375 C 20.710938 101.59375 20.640625 101.523438 20.640625 101.441406 C 20.640625 101.359375 20.710938 101.289062 20.792969 101.289062 L 29.941406 101.324219 L 39.132812 101.351562 L 48.363281 101.414062 L 57.578125 101.589844 L 66.71875 101.933594 L 75.707031 102.339844 L 84.542969 102.570312 L 93.316406 102.515625 L 102.164062 102.246094 L 111.195312 101.921875 L 120.414062 101.777344 L 129.695312 101.847656 L 138.945312 101.96875 L 148.15625 102.066406 L 157.339844 102.140625 C 157.421875 102.140625 157.492188 102.210938 157.492188 102.292969 C 157.492188 102.375 157.421875 102.445312 157.339844 102.445312 L 148.15625 102.375 L 138.945312 102.273438 L 129.695312 102.15625 L 120.417969 102.085938 L 111.207031 102.222656 L 102.175781 102.546875 L 93.324219 102.816406 Z M 84.542969 102.875 " fill-opacity="1" fill-rule="nonzero"/><path fill="rgb(90.979004%, 90.979004%, 90.979004%)" d="M 99.332031 100.703125 C 99.253906 100.703125 99.183594 100.644531 99.179688 100.5625 C 99.171875 100.480469 99.230469 100.402344 99.316406 100.398438 L 101.695312 100.171875 L 110.574219 98.894531 L 119.726562 98.035156 L 128.949219 97.792969 L 138.109375 97.855469 L 147.1875 97.957031 L 156.226562 98.027344 C 156.3125 98.027344 156.382812 98.097656 156.382812 98.183594 C 156.382812 98.265625 156.3125 98.335938 156.226562 98.335938 L 147.1875 98.265625 L 138.109375 98.164062 L 128.957031 98.097656 L 119.746094 98.335938 L 110.609375 99.199219 L 101.730469 100.472656 L 99.34375 100.699219 C 99.34375 100.703125 99.339844 100.703125 99.332031 100.703125 Z M 99.332031 100.703125 " fill-opacity="1" fill-rule="nonzero"/><path fill="rgb(90.979004%, 90.979004%, 90.979004%)" d="M 103.183594 99.6875 C 103.121094 99.6875 103.058594 99.648438 103.035156 99.582031 C 103.011719 99.5 103.054688 99.417969 103.136719 99.386719 L 110.078125 97.191406 L 119.070312 95.023438 C 119.078125 95.023438 119.082031 95.023438 119.089844 95.015625 L 128.210938 94.09375 L 137.28125 93.941406 L 146.242188 94.011719 L 155.140625 94.078125 C 155.222656 94.078125 155.296875 94.148438 155.296875 94.230469 C 155.296875 94.3125 155.222656 94.382812 155.140625 94.382812 L 146.242188 94.320312 L 137.28125 94.25 L 128.230469 94.402344 L 119.125 95.324219 L 110.148438 97.484375 L 103.21875 99.683594 C 103.214844 99.6875 103.195312 99.6875 103.183594 99.6875 Z M 103.183594 99.6875 " fill-opacity="1" fill-rule="nonzero"/><path fill="rgb(90.979004%, 90.979004%, 90.979004%)" d="M 110.074219 96.308594 C 110.015625 96.308594 109.957031 96.273438 109.933594 96.214844 C 109.902344 96.136719 109.9375 96.050781 110.015625 96.015625 L 118.585938 92.554688 C 118.59375 92.546875 118.605469 92.546875 118.617188 92.546875 L 127.550781 90.757812 C 127.554688 90.757812 127.5625 90.757812 127.574219 90.757812 L 136.519531 90.257812 L 145.355469 90.238281 L 154.113281 90.292969 C 154.195312 90.292969 154.265625 90.363281 154.265625 90.445312 C 154.265625 90.527344 154.195312 90.597656 154.113281 90.597656 L 145.355469 90.546875 L 136.53125 90.5625 L 127.601562 91.066406 L 118.695312 92.847656 L 110.132812 96.304688 C 110.109375 96.304688 110.089844 96.308594 110.074219 96.308594 Z M 110.074219 96.308594 " fill-opacity="1" fill-rule="nonzero"/><path fill="rgb(90.979004%, 90.979004%, 90.979004%)" d="M 109.871094 85.703125 C 109.8125 85.703125 109.753906 85.667969 109.730469 85.609375 C 109.703125 85.53125 109.738281 85.445312 109.820312 85.40625 L 117.730469 82.3125 C 117.738281 82.3125 117.742188 82.308594 117.753906 82.308594 L 126.171875 80.375 C 126.179688 80.375 126.191406 80.375 126.195312 80.371094 L 134.664062 79.710938 L 143.054688 79.601562 L 151.359375 79.632812 C 151.441406 79.632812 151.515625 79.703125 151.515625 79.785156 C 151.515625 79.867188 151.441406 79.9375 151.359375 79.9375 L 143.054688 79.910156 L 134.679688 80.015625 L 126.234375 80.671875 L 117.835938 82.597656 L 109.9375 85.6875 C 109.914062 85.699219 109.890625 85.703125 109.871094 85.703125 Z M 109.871094 85.703125 " fill-opacity="1" fill-rule="nonzero"/><path fill="rgb(90.979004%, 90.979004%, 90.979004%)" d="M 69.195312 85.425781 C 69.175781 85.425781 69.152344 85.417969 69.136719 85.414062 L 61.609375 82.308594 L 53.195312 80.210938 L 44.734375 79.472656 L 36.386719 79.296875 L 28.121094 79.230469 C 28.039062 79.230469 27.96875 79.160156 27.96875 79.078125 C 27.96875 78.996094 28.039062 78.921875 28.121094 78.921875 L 36.390625 78.988281 L 44.753906 79.164062 L 53.242188 79.902344 C 53.25 79.902344 53.261719 79.902344 53.265625 79.910156 L 61.703125 82.011719 C 61.707031 82.011719 61.714844 82.019531 61.726562 82.019531 L 69.265625 85.128906 C 69.34375 85.160156 69.382812 85.253906 69.347656 85.332031 C 69.3125 85.390625 69.253906 85.425781 69.195312 85.425781 Z M 69.195312 85.425781 " fill-opacity="1" fill-rule="nonzero"/><path fill="rgb(90.979004%, 90.979004%, 90.979004%)" d="M 69.75 79.957031 C 69.738281 79.957031 69.726562 79.957031 69.707031 79.953125 L 62.15625 77.949219 L 53.863281 76.621094 L 45.566406 76.117188 L 37.347656 75.984375 L 29.207031 75.921875 C 29.125 75.921875 29.054688 75.851562 29.054688 75.769531 C 29.054688 75.6875 29.125 75.617188 29.207031 75.617188 L 37.347656 75.675781 L 45.574219 75.8125 L 53.890625 76.3125 L 62.210938 77.648438 C 62.21875 77.648438 62.222656 77.648438 62.230469 77.652344 L 69.785156 79.65625 C 69.867188 79.679688 69.914062 79.761719 69.890625 79.84375 C 69.878906 79.914062 69.816406 79.957031 69.75 79.957031 Z M 69.75 79.957031 " fill-opacity="1" fill-rule="nonzero"/><path fill="rgb(90.979004%, 90.979004%, 90.979004%)" d="M 71.707031 74.953125 C 71.699219 74.953125 71.695312 74.953125 71.683594 74.953125 L 70.554688 74.800781 L 62.566406 73.785156 L 54.472656 73.140625 L 46.359375 72.882812 L 38.289062 72.777344 L 30.277344 72.714844 C 30.195312 72.714844 30.125 72.644531 30.125 72.5625 C 30.125 72.480469 30.195312 72.410156 30.277344 72.410156 L 38.289062 72.46875 L 46.363281 72.574219 L 54.488281 72.835938 L 62.605469 73.472656 L 70.601562 74.488281 L 71.730469 74.648438 C 71.8125 74.660156 71.871094 74.738281 71.859375 74.820312 C 71.847656 74.894531 71.78125 74.953125 71.707031 74.953125 Z M 71.707031 74.953125 " fill-opacity="1" fill-rule="nonzero"/><path fill="rgb(90.979004%, 90.979004%, 90.979004%)" d="M 74.941406 70.613281 C 74.941406 70.613281 74.9375 70.613281 74.9375 70.613281 L 70.738281 70.40625 L 62.914062 70.078125 L 55.019531 69.871094 L 47.09375 69.746094 L 39.175781 69.664062 L 31.304688 69.605469 C 31.222656 69.605469 31.152344 69.535156 31.152344 69.449219 C 31.152344 69.367188 31.222656 69.296875 31.304688 69.296875 L 39.175781 69.355469 L 47.09375 69.4375 L 55.019531 69.5625 L 62.921875 69.769531 L 70.75 70.101562 L 74.949219 70.308594 C 75.03125 70.3125 75.097656 70.382812 75.097656 70.464844 C 75.097656 70.550781 75.027344 70.613281 74.941406 70.613281 Z M 74.941406 70.613281 " fill-opacity="1" fill-rule="nonzero"/><path fill="rgb(90.979004%, 90.979004%, 90.979004%)" d="M 79.539062 67.054688 L 78.625 67.042969 L 70.957031 66.921875 L 63.261719 66.835938 L 55.535156 66.765625 L 40.015625 66.632812 L 32.285156 66.585938 C 32.203125 66.585938 32.132812 66.515625 32.132812 66.433594 C 32.132812 66.351562 32.203125 66.28125 32.285156 66.28125 L 40.015625 66.328125 L 55.535156 66.457031 L 63.261719 66.527344 L 70.957031 66.617188 L 79.535156 66.746094 C 79.617188 66.746094 79.6875 66.816406 79.6875 66.898438 C 79.6875 66.988281 79.621094 67.054688 79.539062 67.054688 Z M 79.539062 67.054688 " fill-opacity="1" fill-rule="nonzero"/><path fill="rgb(90.979004%, 90.979004%, 90.979004%)" d="M 147.382812 64.234375 L 139.738281 64.195312 L 124.429688 64.136719 L 109.179688 64.066406 L 101.582031 64.035156 L 93.996094 64.011719 L 86.417969 63.976562 L 71.25 63.882812 L 63.660156 63.835938 L 56.054688 63.789062 L 40.8125 63.679688 L 33.207031 63.640625 C 33.125 63.640625 33.054688 63.570312 33.054688 63.484375 C 33.054688 63.402344 33.125 63.332031 33.207031 63.332031 L 40.8125 63.375 L 56.054688 63.480469 L 63.660156 63.527344 L 71.25 63.574219 L 86.410156 63.679688 L 93.992188 63.714844 L 101.578125 63.738281 L 109.179688 63.765625 L 124.429688 63.835938 L 139.738281 63.894531 L 147.382812 63.933594 C 147.464844 63.933594 147.539062 64.007812 147.539062 64.089844 C 147.539062 64.164062 147.464844 64.234375 147.382812 64.234375 Z M 147.382812 64.234375 " fill-opacity="1" fill-rule="nonzero"/><g clip-path="url(#id2)"><path fill="rgb(90.979004%, 90.979004%, 90.979004%)" d="M 146.664062 61.359375 L 116.519531 61.230469 L 101.519531 61.160156 L 86.566406 61.089844 L 49.148438 60.875 L 34.128906 60.78125 C 34.046875 60.78125 33.976562 60.710938 33.976562 60.628906 C 33.976562 60.546875 34.046875 60.472656 34.128906 60.472656 L 56.644531 60.609375 L 86.566406 60.777344 L 124.039062 60.953125 L 146.667969 61.046875 C 146.75 61.046875 146.824219 61.117188 146.824219 61.199219 C 146.816406 61.289062 146.746094 61.359375 146.664062 61.359375 Z M 146.664062 61.359375 " fill-opacity="1" fill-rule="nonzero"/></g><path fill="rgb(90.979004%, 90.979004%, 90.979004%)" d="M 104.914062 98.660156 C 104.867188 98.660156 104.828125 98.640625 104.796875 98.601562 C 104.746094 98.535156 104.757812 98.441406 104.820312 98.386719 L 110.15625 94.082031 C 110.160156 94.078125 110.175781 94.070312 110.1875 94.066406 L 118.308594 89.925781 C 118.320312 89.917969 118.328125 89.917969 118.339844 89.914062 L 127.019531 87.515625 C 127.023438 87.515625 127.035156 87.511719 127.046875 87.511719 L 135.84375 86.691406 L 144.542969 86.578125 L 153.144531 86.613281 C 153.226562 86.613281 153.296875 86.683594 153.296875 86.765625 C 153.296875 86.847656 153.226562 86.917969 153.144531 86.917969 L 144.542969 86.882812 L 135.855469 86.996094 L 127.089844 87.8125 L 118.441406 90.203125 L 110.339844 94.332031 L 105.015625 98.625 C 104.988281 98.648438 104.949219 98.660156 104.914062 98.660156 Z M 104.914062 98.660156 " fill-opacity="1" fill-rule="nonzero"/><path fill="rgb(90.979004%, 90.979004%, 90.979004%)" d="M 104.183594 70.726562 C 104.101562 70.726562 104.035156 70.660156 104.03125 70.578125 C 104.023438 70.496094 104.09375 70.425781 104.175781 70.417969 L 109.304688 70.230469 L 117.164062 70.019531 L 125.09375 69.917969 L 133.042969 69.886719 L 140.984375 69.898438 L 148.882812 69.933594 C 148.96875 69.933594 149.039062 70.007812 149.039062 70.089844 C 149.039062 70.171875 148.96875 70.242188 148.882812 70.242188 L 140.984375 70.207031 L 133.050781 70.199219 L 125.097656 70.230469 L 117.175781 70.332031 L 109.316406 70.542969 L 104.183594 70.726562 C 104.1875 70.726562 104.1875 70.726562 104.183594 70.726562 Z M 104.183594 70.726562 " fill-opacity="1" fill-rule="nonzero"/><path fill="rgb(90.979004%, 90.979004%, 90.979004%)" d="M 73.65625 88.226562 C 73.644531 88.226562 73.636719 88.226562 73.625 88.226562 C 73.542969 88.207031 73.488281 88.128906 73.5 88.046875 L 74.382812 83.234375 C 74.382812 83.222656 74.386719 83.21875 74.386719 83.210938 L 76.171875 78.457031 C 76.179688 78.449219 76.179688 78.4375 76.183594 78.433594 L 78.761719 74.046875 C 78.765625 74.039062 78.773438 74.027344 78.777344 74.023438 L 81.980469 70.277344 C 81.984375 70.273438 81.992188 70.265625 82.003906 70.261719 L 85.625 67.390625 C 85.636719 67.382812 85.644531 67.378906 85.65625 67.371094 L 89.464844 65.546875 C 89.5 65.53125 89.542969 65.53125 89.578125 65.542969 L 93.992188 67.023438 C 94.003906 67.03125 94.015625 67.03125 94.019531 67.035156 L 98.203125 69.570312 C 98.214844 69.574219 98.222656 69.582031 98.226562 69.585938 L 101.914062 73.023438 C 101.921875 73.03125 101.925781 73.035156 101.933594 73.046875 L 104.886719 77.167969 C 104.890625 77.175781 104.898438 77.1875 104.902344 77.191406 L 106.949219 81.746094 C 106.953125 81.757812 106.953125 81.765625 106.960938 81.777344 L 107.964844 86.472656 C 107.980469 86.554688 107.929688 86.636719 107.847656 86.652344 C 107.761719 86.671875 107.679688 86.617188 107.664062 86.535156 L 106.660156 81.851562 L 104.632812 77.328125 L 101.695312 73.230469 L 98.03125 69.816406 L 93.878906 67.300781 L 89.542969 65.84375 L 85.800781 67.632812 L 82.203125 70.480469 L 79.019531 74.199219 L 76.460938 78.5625 L 74.6875 83.292969 L 73.816406 88.09375 C 73.792969 88.171875 73.726562 88.226562 73.65625 88.226562 Z M 73.65625 88.226562 " fill-opacity="1" fill-rule="nonzero"/><path fill="rgb(90.979004%, 90.979004%, 90.979004%)" d="M 99.546875 100.46875 C 99.519531 100.46875 99.503906 100.460938 99.480469 100.457031 C 99.402344 100.421875 99.367188 100.332031 99.402344 100.253906 L 100.320312 98.207031 L 101.0625 94.261719 L 101.117188 89.683594 L 100.464844 84.765625 L 99.144531 79.828125 L 97.242188 75.183594 L 94.882812 71.144531 L 92.226562 67.957031 L 89.488281 65.835938 L 84.699219 66.816406 L 80.128906 68.867188 L 76.117188 71.847656 L 72.917969 75.582031 L 70.699219 79.84375 C 70.660156 79.921875 70.570312 79.953125 70.496094 79.910156 C 70.417969 79.867188 70.386719 79.78125 70.429688 79.703125 L 72.652344 75.425781 C 72.65625 75.414062 72.664062 75.410156 72.667969 75.398438 L 75.894531 71.640625 C 75.898438 71.636719 75.914062 71.625 75.917969 71.617188 L 79.953125 68.613281 C 79.964844 68.605469 79.972656 68.601562 79.984375 68.59375 L 84.585938 66.535156 C 84.597656 66.527344 84.609375 66.527344 84.613281 66.523438 L 89.496094 65.523438 C 89.535156 65.511719 89.582031 65.523438 89.621094 65.554688 L 92.425781 67.726562 C 92.429688 67.730469 92.441406 67.738281 92.449219 67.75 L 95.125 70.960938 C 95.132812 70.96875 95.136719 70.976562 95.136719 70.988281 L 97.507812 75.050781 C 97.511719 75.054688 97.511719 75.0625 97.519531 75.066406 L 99.433594 79.726562 C 99.433594 79.734375 99.4375 79.738281 99.4375 79.746094 L 100.769531 84.707031 C 100.769531 84.710938 100.773438 84.71875 100.773438 84.722656 L 101.429688 89.660156 C 101.429688 89.664062 101.429688 89.671875 101.429688 89.683594 L 101.375 94.285156 C 101.375 94.296875 101.375 94.300781 101.375 94.3125 L 100.625 98.289062 C 100.625 98.300781 100.621094 98.3125 100.613281 98.324219 L 99.691406 100.390625 C 99.65625 100.4375 99.605469 100.46875 99.546875 100.46875 Z M 99.546875 100.46875 " fill-opacity="1" fill-rule="nonzero"/><g clip-path="url(#id3)"><path fill="rgb(90.979004%, 90.979004%, 90.979004%)" d="M 16.503906 114.6875 C 16.488281 114.6875 16.476562 114.6875 16.457031 114.683594 C 16.375 114.660156 16.332031 114.570312 16.355469 114.488281 L 17.835938 109.964844 L 19.265625 105.597656 L 21.988281 97.332031 L 23.269531 93.421875 L 25.6875 85.992188 L 26.84375 82.457031 L 27.972656 79.03125 L 31.164062 69.402344 L 32.136719 66.378906 L 33.976562 60.582031 C 34 60.496094 34.089844 60.457031 34.171875 60.480469 C 34.253906 60.503906 34.292969 60.59375 34.269531 60.675781 L 32.433594 66.480469 L 31.457031 69.503906 L 30.425781 72.609375 L 28.261719 79.125 L 27.132812 82.550781 L 24.789062 89.742188 L 23.558594 93.515625 L 22.277344 97.425781 L 19.554688 105.695312 L 18.125 110.050781 L 16.648438 114.574219 C 16.628906 114.648438 16.570312 114.6875 16.503906 114.6875 Z M 16.503906 114.6875 " fill-opacity="1" fill-rule="nonzero"/></g><g clip-path="url(#id4)"><path fill="rgb(90.979004%, 90.979004%, 90.979004%)" d="M 26.101562 114.746094 C 26.089844 114.746094 26.070312 114.746094 26.058594 114.742188 C 25.976562 114.71875 25.929688 114.636719 25.953125 114.550781 L 27.265625 110.023438 L 28.546875 105.652344 L 31.003906 97.371094 L 32.144531 93.46875 L 33.214844 89.714844 L 34.242188 86.070312 L 35.25 82.53125 L 36.246094 79.101562 L 38.148438 72.582031 L 39.03125 69.46875 L 40.675781 63.492188 L 41.492188 60.632812 C 41.515625 60.550781 41.597656 60.503906 41.679688 60.527344 C 41.761719 60.550781 41.808594 60.632812 41.785156 60.714844 L 40.972656 63.570312 L 39.324219 69.550781 L 38.4375 72.664062 L 36.535156 79.183594 L 35.542969 82.613281 L 34.53125 86.152344 L 33.503906 89.796875 L 32.433594 93.550781 L 31.292969 97.457031 L 28.835938 105.734375 L 27.554688 110.105469 L 26.242188 114.636719 C 26.230469 114.707031 26.164062 114.746094 26.101562 114.746094 Z M 26.101562 114.746094 " fill-opacity="1" fill-rule="nonzero"/></g><g clip-path="url(#id5)"><path fill="rgb(90.979004%, 90.979004%, 90.979004%)" d="M 35.707031 114.804688 C 35.695312 114.804688 35.683594 114.804688 35.671875 114.800781 C 35.589844 114.777344 35.542969 114.695312 35.558594 114.613281 L 36.710938 110.074219 L 37.855469 105.6875 L 38.996094 101.460938 L 40.109375 97.414062 L 41.148438 93.570312 L 42.0625 89.890625 L 42.910156 86.292969 L 43.753906 82.746094 L 44.605469 79.277344 L 45.433594 75.929688 L 46.21875 72.691406 L 46.945312 69.558594 L 48.296875 63.550781 L 48.996094 60.6875 C 49.011719 60.605469 49.09375 60.558594 49.175781 60.574219 C 49.261719 60.59375 49.308594 60.675781 49.289062 60.757812 L 48.59375 63.617188 L 47.238281 69.621094 L 46.511719 72.765625 L 45.726562 76 L 44.894531 79.355469 L 44.042969 82.820312 L 43.199219 86.371094 L 42.351562 89.96875 L 41.433594 93.652344 L 40.390625 97.496094 L 39.28125 101.542969 L 38.140625 105.765625 L 37 110.148438 L 35.847656 114.683594 C 35.835938 114.757812 35.773438 114.804688 35.707031 114.804688 Z M 35.707031 114.804688 " fill-opacity="1" fill-rule="nonzero"/></g><g clip-path="url(#id6)"><path fill="rgb(90.979004%, 90.979004%, 90.979004%)" d="M 45.3125 114.859375 C 45.300781 114.859375 45.289062 114.859375 45.277344 114.855469 C 45.195312 114.835938 45.140625 114.753906 45.160156 114.671875 L 46.152344 110.125 L 47.164062 105.730469 L 48.203125 101.523438 L 49.273438 97.601562 L 50.257812 94.019531 L 51.074219 90.640625 L 51.722656 87.203125 L 52.375 83.636719 L 53.070312 80.027344 L 53.738281 76.441406 L 54.335938 72.964844 L 55.386719 66.582031 L 55.914062 63.605469 L 56.492188 60.734375 C 56.507812 60.652344 56.59375 60.597656 56.675781 60.617188 C 56.757812 60.632812 56.8125 60.710938 56.792969 60.800781 L 56.214844 63.667969 L 55.6875 66.640625 L 54.636719 73.023438 L 54.039062 76.503906 L 53.371094 80.09375 L 52.675781 83.703125 L 52.023438 87.269531 L 51.371094 90.71875 L 50.554688 94.105469 L 49.566406 97.699219 L 48.511719 101.617188 L 47.46875 105.816406 L 46.460938 110.207031 L 45.46875 114.753906 C 45.449219 114.8125 45.382812 114.859375 45.3125 114.859375 Z M 45.3125 114.859375 " fill-opacity="1" fill-rule="nonzero"/></g><g clip-path="url(#id7)"><path fill="rgb(90.979004%, 90.979004%, 90.979004%)" d="M 54.925781 114.914062 C 54.914062 114.914062 54.910156 114.914062 54.898438 114.914062 C 54.8125 114.894531 54.761719 114.816406 54.773438 114.734375 L 55.605469 110.183594 L 56.480469 105.800781 L 57.429688 101.714844 L 58.4375 98.160156 L 59.375 95.269531 L 60.085938 92.753906 L 60.519531 89.761719 L 60.933594 86.164062 L 61.503906 82.140625 L 62.035156 77.789062 L 62.433594 73.621094 L 62.761719 69.917969 L 63.109375 66.667969 L 63.511719 63.664062 L 63.976562 60.789062 C 63.988281 60.703125 64.070312 60.644531 64.15625 60.664062 C 64.238281 60.675781 64.296875 60.757812 64.277344 60.839844 L 63.816406 63.710938 L 63.417969 66.703125 L 63.066406 69.945312 L 62.742188 73.648438 L 62.339844 77.824219 L 61.808594 82.1875 L 61.242188 86.210938 L 60.828125 89.808594 L 60.386719 92.8125 C 60.386719 92.820312 60.386719 92.824219 60.378906 92.832031 L 59.664062 95.363281 L 58.726562 98.253906 L 57.722656 101.796875 L 56.777344 105.871094 L 55.902344 110.246094 L 55.066406 114.800781 C 55.0625 114.859375 54.996094 114.914062 54.925781 114.914062 Z M 54.925781 114.914062 " fill-opacity="1" fill-rule="nonzero"/></g><path fill="rgb(90.979004%, 90.979004%, 90.979004%)" d="M 64.53125 114.972656 C 64.527344 114.972656 64.519531 114.972656 64.507812 114.972656 C 64.425781 114.960938 64.367188 114.882812 64.378906 114.800781 L 65.035156 110.246094 L 65.75 105.914062 L 66.566406 102.0625 L 67.453125 99.175781 C 67.453125 99.167969 67.457031 99.164062 67.457031 99.15625 L 68.242188 97.496094 L 68.609375 96.296875 L 68.679688 94.230469 C 68.6875 94.148438 68.757812 94.078125 68.839844 94.082031 C 68.921875 94.082031 68.992188 94.152344 68.988281 94.242188 L 68.917969 96.328125 C 68.917969 96.339844 68.917969 96.355469 68.910156 96.367188 L 68.539062 97.597656 C 68.539062 97.601562 68.53125 97.609375 68.53125 97.621094 L 67.746094 99.28125 L 66.867188 102.144531 L 66.058594 105.976562 L 65.34375 110.300781 L 64.6875 114.855469 C 64.667969 114.917969 64.605469 114.972656 64.53125 114.972656 Z M 64.53125 114.972656 " fill-opacity="1" fill-rule="nonzero"/><g clip-path="url(#id8)"><path fill="rgb(90.979004%, 90.979004%, 90.979004%)" d="M 74.128906 115.03125 C 74.121094 115.03125 74.117188 115.03125 74.109375 115.03125 C 74.027344 115.023438 73.960938 114.949219 73.972656 114.867188 L 74.433594 110.316406 L 74.949219 106.042969 L 75.550781 102.476562 C 75.550781 102.46875 75.558594 102.457031 75.558594 102.453125 L 76.25 100.421875 C 76.261719 100.382812 76.285156 100.359375 76.3125 100.34375 L 76.804688 100.023438 C 76.875 99.976562 76.96875 100 77.015625 100.070312 C 77.0625 100.140625 77.039062 100.238281 76.96875 100.285156 L 76.519531 100.574219 L 75.851562 102.546875 L 75.257812 106.09375 L 74.742188 110.359375 L 74.28125 114.90625 C 74.277344 114.972656 74.210938 115.03125 74.128906 115.03125 Z M 74.128906 115.03125 " fill-opacity="1" fill-rule="nonzero"/></g><g clip-path="url(#id9)"><path fill="rgb(90.979004%, 90.979004%, 90.979004%)" d="M 83.730469 115.089844 C 83.730469 115.089844 83.722656 115.089844 83.722656 115.089844 C 83.640625 115.082031 83.574219 115.011719 83.582031 114.929688 L 83.835938 110.378906 L 84.101562 106.125 L 84.394531 102.710938 C 84.394531 102.707031 84.394531 102.695312 84.402344 102.6875 L 84.769531 101.175781 C 84.785156 101.09375 84.867188 101.046875 84.953125 101.0625 C 85.035156 101.082031 85.082031 101.164062 85.0625 101.246094 L 84.703125 102.746094 L 84.40625 106.144531 L 84.140625 110.390625 L 83.886719 114.941406 C 83.875 115.023438 83.8125 115.089844 83.730469 115.089844 Z M 83.730469 115.089844 " fill-opacity="1" fill-rule="nonzero"/></g><path fill="rgb(90.979004%, 90.979004%, 90.979004%)" d="M 91.664062 86.277344 L 86.832031 86.246094 C 86.824219 86.246094 86.820312 86.246094 86.8125 86.246094 L 82.15625 85.734375 C 82.152344 85.734375 82.144531 85.734375 82.140625 85.726562 L 77.949219 84.757812 C 77.945312 84.757812 77.9375 84.753906 77.925781 84.753906 L 74.46875 83.398438 C 74.457031 83.394531 74.453125 83.394531 74.441406 83.386719 L 71.917969 81.742188 C 71.90625 81.730469 71.894531 81.722656 71.882812 81.707031 L 70.429688 79.875 C 70.375 79.808594 70.386719 79.710938 70.453125 79.660156 C 70.519531 79.609375 70.613281 79.621094 70.664062 79.683594 L 72.101562 81.5 L 74.589844 83.121094 L 78.015625 84.464844 L 82.179688 85.425781 L 86.824219 85.941406 L 91.640625 85.96875 L 96.320312 85.507812 L 100.554688 84.59375 L 104.082031 83.289062 L 106.683594 81.695312 L 108.222656 79.921875 L 108.65625 78.113281 L 106.441406 74.117188 C 106.433594 74.109375 106.433594 74.097656 106.429688 74.09375 L 105.867188 72.5 L 104.402344 71.039062 C 104.390625 71.027344 104.382812 71.015625 104.371094 71.003906 L 104.367188 70.992188 L 104.054688 70.683594 L 102.746094 69.398438 C 102.6875 69.339844 102.6875 69.246094 102.746094 69.179688 C 102.804688 69.121094 102.902344 69.121094 102.964844 69.179688 L 104.597656 70.792969 C 104.609375 70.804688 104.613281 70.816406 104.625 70.828125 L 104.632812 70.839844 L 106.101562 72.304688 C 106.121094 72.320312 106.132812 72.339844 106.136719 72.363281 L 106.707031 73.976562 L 108.945312 78.015625 C 108.960938 78.050781 108.96875 78.085938 108.960938 78.125 L 108.507812 80.027344 C 108.5 80.050781 108.488281 80.074219 108.472656 80.09375 L 106.894531 81.910156 C 106.882812 81.921875 106.871094 81.933594 106.859375 81.941406 L 104.222656 83.558594 C 104.21875 83.566406 104.207031 83.570312 104.195312 83.570312 L 100.644531 84.882812 C 100.636719 84.882812 100.632812 84.886719 100.625 84.886719 L 96.371094 85.808594 C 96.367188 85.808594 96.359375 85.808594 96.355469 85.808594 L 91.664062 86.269531 C 91.675781 86.269531 91.667969 86.277344 91.664062 86.277344 Z M 91.664062 86.277344 " fill-opacity="1" fill-rule="nonzero"/><path fill="rgb(90.979004%, 90.979004%, 90.979004%)" d="M 70.324219 91.554688 C 70.257812 91.554688 70.191406 91.515625 70.175781 91.445312 L 69.414062 88.863281 C 69.414062 88.855469 69.40625 88.851562 69.40625 88.84375 L 69.269531 87.988281 C 69.257812 87.90625 69.3125 87.828125 69.394531 87.8125 C 69.476562 87.800781 69.554688 87.851562 69.574219 87.9375 L 69.707031 88.78125 L 70.46875 91.355469 C 70.496094 91.4375 70.445312 91.519531 70.371094 91.542969 C 70.351562 91.554688 70.339844 91.554688 70.324219 91.554688 Z M 70.324219 91.554688 " fill-opacity="1" fill-rule="nonzero"/><path fill="rgb(90.979004%, 90.979004%, 90.979004%)" d="M 105.015625 98.074219 C 104.980469 98.074219 104.945312 98.0625 104.921875 98.039062 C 104.855469 97.988281 104.84375 97.890625 104.898438 97.828125 L 105.691406 96.859375 L 107.992188 93.199219 C 108.042969 93.125 108.136719 93.101562 108.207031 93.148438 C 108.277344 93.199219 108.300781 93.292969 108.253906 93.363281 L 105.945312 97.035156 C 105.9375 97.042969 105.9375 97.046875 105.933594 97.054688 L 105.132812 98.035156 C 105.105469 98.058594 105.0625 98.074219 105.015625 98.074219 Z M 105.015625 98.074219 " fill-opacity="1" fill-rule="nonzero"/><path fill="rgb(90.979004%, 90.979004%, 90.979004%)" d="M 104.761719 98.257812 C 104.734375 98.257812 104.707031 98.253906 104.679688 98.234375 C 104.609375 98.1875 104.585938 98.097656 104.632812 98.023438 L 106.433594 95.097656 C 106.441406 95.09375 106.441406 95.085938 106.445312 95.082031 L 107.988281 93.203125 L 109.222656 89.015625 L 109.6875 86.933594 L 109.6875 86.832031 C 109.6875 86.75 109.753906 86.675781 109.835938 86.671875 C 109.835938 86.671875 109.835938 86.671875 109.84375 86.671875 C 109.925781 86.671875 109.996094 86.738281 109.996094 86.820312 L 109.996094 86.9375 C 109.996094 86.949219 109.996094 86.960938 109.992188 86.972656 L 109.511719 89.085938 L 108.265625 93.308594 C 108.257812 93.328125 108.246094 93.34375 108.234375 93.363281 L 106.683594 95.257812 L 104.886719 98.175781 C 104.867188 98.230469 104.816406 98.257812 104.761719 98.257812 Z M 104.761719 98.257812 " fill-opacity="1" fill-rule="nonzero"/><path fill="rgb(90.979004%, 90.979004%, 90.979004%)" d="M 91.792969 91.324219 L 86.671875 91.296875 C 86.664062 91.296875 86.660156 91.296875 86.652344 91.296875 L 81.71875 90.734375 C 81.714844 90.734375 81.707031 90.734375 81.703125 90.730469 L 77.269531 89.679688 C 77.265625 89.679688 77.257812 89.671875 77.246094 89.671875 L 73.597656 88.207031 C 73.519531 88.179688 73.476562 88.089844 73.511719 88.007812 C 73.542969 87.929688 73.632812 87.886719 73.714844 87.921875 L 77.355469 89.382812 L 81.765625 90.429688 L 86.683594 90.984375 L 91.789062 91.011719 L 96.746094 90.511719 L 101.230469 89.519531 L 104.957031 88.105469 L 107.726562 86.363281 C 107.796875 86.316406 107.894531 86.339844 107.941406 86.410156 C 107.988281 86.484375 107.964844 86.578125 107.894531 86.625 L 105.109375 88.371094 C 105.105469 88.378906 105.09375 88.382812 105.082031 88.382812 L 101.328125 89.808594 C 101.324219 89.808594 101.316406 89.8125 101.304688 89.8125 L 96.804688 90.8125 C 96.796875 90.8125 96.792969 90.8125 96.785156 90.8125 L 91.8125 91.3125 C 91.804688 91.324219 91.800781 91.324219 91.792969 91.324219 Z M 91.792969 91.324219 " fill-opacity="1" fill-rule="nonzero"/><g clip-path="url(#id10)"><path fill="rgb(90.979004%, 90.979004%, 90.979004%)" d="M 160.824219 115.640625 C 160.761719 115.640625 160.695312 115.589844 160.675781 115.527344 L 159.488281 110.96875 L 158.332031 106.574219 L 157.199219 102.332031 L 156.085938 98.234375 L 153.964844 90.476562 L 152.992188 86.808594 L 152.082031 83.265625 L 150.367188 76.496094 L 148.75 70.128906 L 146.519531 61.242188 C 146.503906 61.160156 146.550781 61.078125 146.632812 61.058594 C 146.714844 61.042969 146.800781 61.089844 146.816406 61.171875 L 149.839844 73.1875 L 151.515625 79.75 L 152.382812 83.1875 L 153.292969 86.730469 L 154.265625 90.398438 L 156.386719 98.160156 L 157.5 102.257812 L 158.632812 106.503906 L 159.792969 110.898438 L 160.980469 115.457031 C 161.003906 115.539062 160.949219 115.621094 160.867188 115.644531 C 160.847656 115.640625 160.835938 115.640625 160.824219 115.640625 Z M 160.824219 115.640625 " fill-opacity="1" fill-rule="nonzero"/></g><g clip-path="url(#id11)"><path fill="rgb(90.979004%, 90.979004%, 90.979004%)" d="M 151.160156 115.574219 C 151.089844 115.574219 151.023438 115.527344 151.011719 115.457031 L 149.996094 110.898438 L 148.996094 106.503906 L 148.011719 102.257812 L 147.042969 98.160156 L 146.101562 94.214844 L 145.210938 90.421875 L 144.386719 86.773438 L 143.625 83.234375 L 142.195312 76.460938 L 140.84375 70.09375 L 139.589844 64.082031 L 138.964844 61.210938 C 138.945312 61.128906 139 61.046875 139.082031 61.03125 C 139.164062 61.011719 139.25 61.066406 139.265625 61.148438 L 139.890625 64.019531 L 141.144531 70.03125 L 143.925781 83.167969 L 144.691406 86.707031 L 145.511719 90.351562 L 146.402344 94.140625 L 147.34375 98.085938 L 148.3125 102.1875 L 149.296875 106.433594 L 150.296875 110.832031 L 151.3125 115.390625 C 151.332031 115.472656 151.277344 115.554688 151.195312 115.574219 C 151.183594 115.574219 151.171875 115.574219 151.160156 115.574219 Z M 151.160156 115.574219 " fill-opacity="1" fill-rule="nonzero"/></g><g clip-path="url(#id12)"><path fill="rgb(90.979004%, 90.979004%, 90.979004%)" d="M 141.503906 115.503906 C 141.433594 115.503906 141.371094 115.449219 141.359375 115.378906 L 140.507812 110.820312 L 139.65625 106.414062 L 138.804688 102.152344 L 137.960938 98.046875 L 137.140625 94.128906 L 136.375 90.429688 L 135.699219 86.871094 L 135.09375 83.363281 L 133.960938 76.496094 L 133.417969 73.230469 L 132.902344 70.070312 L 131.929688 64.042969 L 131.414062 61.171875 C 131.394531 61.089844 131.457031 61.007812 131.539062 60.992188 C 131.621094 60.976562 131.703125 61.035156 131.714844 61.117188 L 132.230469 63.988281 L 133.71875 73.175781 L 134.824219 79.839844 L 135.394531 83.316406 L 136 86.820312 L 136.679688 90.367188 L 137.441406 94.066406 L 138.261719 97.980469 L 139.105469 102.085938 L 139.957031 106.347656 L 140.808594 110.753906 L 141.660156 115.3125 C 141.675781 115.398438 141.617188 115.480469 141.535156 115.492188 C 141.523438 115.503906 141.511719 115.503906 141.503906 115.503906 Z M 141.503906 115.503906 " fill-opacity="1" fill-rule="nonzero"/></g><g clip-path="url(#id13)"><path fill="rgb(90.979004%, 90.979004%, 90.979004%)" d="M 131.839844 115.433594 C 131.761719 115.433594 131.699219 115.378906 131.6875 115.300781 L 130.988281 110.730469 L 130.273438 106.300781 L 129.542969 102.027344 L 128.796875 97.976562 L 127.421875 90.929688 L 126.894531 87.6875 L 126.457031 84.222656 L 126.042969 80.535156 L 125.640625 76.878906 L 125.273438 73.371094 L 124.613281 66.976562 L 124.269531 64 L 123.875 61.128906 C 123.863281 61.046875 123.921875 60.96875 124.003906 60.957031 C 124.085938 60.945312 124.164062 61.007812 124.175781 61.089844 L 124.570312 63.964844 L 124.914062 66.945312 L 125.941406 76.851562 L 126.34375 80.507812 L 126.757812 84.191406 L 127.191406 87.644531 L 127.714844 90.882812 L 129.09375 97.921875 L 129.835938 101.980469 L 130.570312 106.253906 L 131.285156 110.683594 L 131.980469 115.253906 C 131.992188 115.335938 131.933594 115.414062 131.851562 115.433594 C 131.855469 115.433594 131.851562 115.433594 131.839844 115.433594 Z M 131.839844 115.433594 " fill-opacity="1" fill-rule="nonzero"/></g><g clip-path="url(#id14)"><path fill="rgb(90.979004%, 90.979004%, 90.979004%)" d="M 93.980469 64.792969 C 93.980469 64.792969 93.972656 64.792969 93.980469 64.792969 C 93.890625 64.792969 93.824219 64.71875 93.824219 64.636719 L 93.84375 63.871094 L 93.886719 60.96875 C 93.886719 60.886719 93.957031 60.816406 94.039062 60.816406 C 94.121094 60.816406 94.191406 60.886719 94.191406 60.96875 L 94.140625 64.636719 C 94.128906 64.71875 94.0625 64.792969 93.980469 64.792969 Z M 93.980469 64.792969 " fill-opacity="1" fill-rule="nonzero"/></g><g clip-path="url(#id15)"><path fill="rgb(90.979004%, 90.979004%, 90.979004%)" d="M 122.183594 115.355469 C 122.109375 115.355469 122.042969 115.296875 122.03125 115.21875 L 121.492188 110.632812 L 120.910156 106.183594 L 120.265625 101.957031 L 119.585938 98.21875 L 118.953125 95.207031 L 118.488281 92.71875 L 118.214844 90.078125 L 117.972656 86.636719 L 117.625 82.46875 L 117.328125 78.0625 L 117.140625 73.867188 L 117.007812 70.175781 L 116.851562 66.953125 L 116.636719 63.957031 L 116.359375 61.089844 C 116.355469 61.007812 116.414062 60.929688 116.496094 60.921875 C 116.585938 60.917969 116.65625 60.976562 116.660156 61.058594 L 116.9375 63.933594 L 117.152344 66.933594 L 117.3125 70.164062 L 117.441406 73.855469 L 117.628906 78.042969 L 117.925781 82.445312 L 118.273438 86.613281 L 118.515625 90.050781 L 118.789062 92.671875 L 119.25 95.140625 L 119.882812 98.152344 L 120.5625 101.902344 L 121.203125 106.144531 L 121.789062 110.59375 L 122.328125 115.183594 C 122.339844 115.265625 122.273438 115.34375 122.191406 115.355469 C 122.195312 115.355469 122.191406 115.355469 122.183594 115.355469 Z M 122.183594 115.355469 " fill-opacity="1" fill-rule="nonzero"/></g><g clip-path="url(#id16)"><path fill="rgb(90.979004%, 90.979004%, 90.979004%)" d="M 101.578125 68.179688 C 101.488281 68.179688 101.425781 68.109375 101.425781 68.027344 L 101.4375 66.980469 L 101.425781 63.894531 L 101.359375 61.011719 C 101.359375 60.929688 101.425781 60.859375 101.507812 60.851562 C 101.507812 60.851562 101.507812 60.851562 101.511719 60.851562 C 101.59375 60.851562 101.667969 60.917969 101.667969 61 L 101.730469 63.886719 L 101.742188 66.980469 L 101.730469 68.035156 C 101.730469 68.109375 101.667969 68.179688 101.578125 68.179688 Z M 101.578125 68.179688 " fill-opacity="1" fill-rule="nonzero"/></g><g clip-path="url(#id17)"><path fill="rgb(90.979004%, 90.979004%, 90.979004%)" d="M 109.386719 80.453125 C 109.304688 80.453125 109.242188 80.386719 109.234375 80.3125 L 109.214844 80.035156 L 109.132812 74.726562 L 109.164062 70.382812 L 109.140625 66.945312 L 109.035156 63.921875 L 108.863281 61.046875 C 108.855469 60.964844 108.921875 60.886719 109.003906 60.886719 C 109.085938 60.886719 109.164062 60.945312 109.164062 61.03125 L 109.335938 63.90625 L 109.441406 66.933594 L 109.464844 70.378906 L 109.433594 74.71875 L 109.519531 80.015625 L 109.535156 80.289062 C 109.542969 80.371094 109.476562 80.449219 109.394531 80.453125 C 109.394531 80.453125 109.386719 80.453125 109.386719 80.453125 Z M 109.386719 80.453125 " fill-opacity="1" fill-rule="nonzero"/></g><path fill="rgb(90.979004%, 90.979004%, 90.979004%)" d="M 79.328125 100.832031 C 79.269531 100.832031 79.214844 100.796875 79.183594 100.746094 L 78.003906 98.183594 C 77.996094 98.171875 77.996094 98.160156 77.992188 98.144531 L 77.210938 94.167969 C 77.210938 94.152344 77.210938 94.148438 77.210938 94.136719 L 77.152344 89.542969 C 77.152344 89.535156 77.152344 89.523438 77.152344 89.519531 L 77.832031 84.59375 C 77.832031 84.585938 77.832031 84.582031 77.839844 84.574219 L 79.214844 79.632812 C 79.214844 79.625 79.222656 79.621094 79.222656 79.613281 L 81.210938 74.980469 C 81.210938 74.972656 81.21875 74.96875 81.222656 74.960938 L 83.691406 70.925781 C 83.699219 70.921875 83.707031 70.914062 83.710938 70.902344 L 86.492188 67.726562 C 86.546875 67.660156 86.648438 67.65625 86.710938 67.714844 C 86.777344 67.769531 86.785156 67.867188 86.722656 67.933594 L 83.949219 71.105469 L 81.496094 75.113281 L 79.515625 79.734375 L 78.144531 84.652344 L 77.464844 89.558594 L 77.523438 94.128906 L 78.300781 98.082031 L 79.476562 100.632812 C 79.511719 100.710938 79.476562 100.796875 79.398438 100.832031 C 79.367188 100.828125 79.34375 100.832031 79.328125 100.832031 Z M 79.328125 100.832031 " fill-opacity="1" fill-rule="nonzero"/><g clip-path="url(#id18)"><path fill="rgb(90.979004%, 90.979004%, 90.979004%)" d="M 70.433594 77.554688 C 70.433594 77.554688 70.429688 77.554688 70.429688 77.554688 C 70.347656 77.546875 70.28125 77.476562 70.28125 77.394531 L 70.429688 74.636719 L 70.589844 70.25 L 70.800781 66.765625 L 71.097656 63.714844 L 71.453125 60.835938 C 71.464844 60.753906 71.539062 60.691406 71.621094 60.699219 C 71.707031 60.710938 71.765625 60.789062 71.757812 60.871094 L 71.402344 63.746094 L 71.109375 66.78125 L 70.894531 70.261719 L 70.738281 74.648438 L 70.589844 77.410156 C 70.582031 77.496094 70.511719 77.554688 70.433594 77.554688 Z M 70.433594 77.554688 " fill-opacity="1" fill-rule="nonzero"/></g><path fill="rgb(90.979004%, 90.979004%, 90.979004%)" d="M 84.214844 64.957031 C 84.128906 64.957031 84.066406 64.890625 84.058594 64.816406 C 84.054688 64.730469 84.117188 64.65625 84.203125 64.65625 L 86.742188 64.503906 L 87.800781 64.296875 C 87.804688 64.296875 87.8125 64.296875 87.816406 64.296875 L 88.980469 64.195312 L 90.1875 64.199219 L 91.351562 64.3125 L 93.023438 64.289062 C 93.105469 64.289062 93.175781 64.355469 93.175781 64.441406 C 93.175781 64.527344 93.109375 64.597656 93.023438 64.597656 L 91.34375 64.621094 C 91.339844 64.621094 91.332031 64.621094 91.328125 64.621094 L 90.167969 64.507812 L 88.992188 64.503906 L 87.851562 64.601562 L 86.796875 64.808594 C 86.789062 64.808594 86.785156 64.808594 86.777344 64.808594 L 84.226562 64.960938 C 84.21875 64.957031 84.214844 64.957031 84.214844 64.957031 Z M 84.214844 64.957031 " fill-opacity="1" fill-rule="nonzero"/><path fill="rgb(90.979004%, 90.979004%, 90.979004%)" d="M 90.800781 64.371094 L 88.507812 64.359375 C 88.425781 64.359375 88.355469 64.289062 88.355469 64.207031 C 88.355469 64.125 88.425781 64.054688 88.507812 64.054688 L 90.800781 64.066406 C 90.882812 64.066406 90.953125 64.136719 90.953125 64.21875 C 90.953125 64.300781 90.882812 64.371094 90.800781 64.371094 Z M 90.800781 64.371094 " fill-opacity="1" fill-rule="nonzero"/><path fill="rgb(90.979004%, 90.979004%, 90.979004%)" d="M 102.421875 99.800781 C 102.398438 99.800781 102.371094 99.792969 102.34375 99.78125 C 102.269531 99.742188 102.246094 99.648438 102.285156 99.574219 L 103.828125 96.800781 C 103.839844 96.777344 103.859375 96.757812 103.882812 96.746094 L 106.433594 95.082031 L 107.570312 91.011719 C 107.574219 90.988281 107.585938 90.972656 107.597656 90.953125 L 109.214844 89 L 109.304688 84.535156 C 109.304688 84.523438 109.304688 84.511719 109.3125 84.503906 L 109.785156 82.449219 C 109.800781 82.367188 109.882812 82.3125 109.96875 82.335938 C 110.050781 82.355469 110.101562 82.4375 110.078125 82.519531 L 109.613281 84.558594 L 109.523438 89.058594 C 109.523438 89.09375 109.511719 89.128906 109.488281 89.152344 L 107.851562 91.125 L 106.710938 95.21875 C 106.699219 95.253906 106.675781 95.28125 106.648438 95.304688 L 104.078125 96.984375 L 102.550781 99.722656 C 102.527344 99.769531 102.476562 99.800781 102.421875 99.800781 Z M 102.421875 99.800781 " fill-opacity="1" fill-rule="nonzero"/><path fill="rgb(90.979004%, 90.979004%, 90.979004%)" d="M 108.539062 92.039062 C 108.488281 92.039062 108.441406 92.015625 108.414062 91.980469 C 108.359375 91.917969 108.378906 91.816406 108.441406 91.769531 L 110.097656 90.523438 C 110.101562 90.515625 110.113281 90.511719 110.121094 90.511719 L 118.0625 86.496094 C 118.066406 86.488281 118.078125 86.488281 118.089844 86.484375 L 126.574219 84.0625 C 126.582031 84.0625 126.59375 84.054688 126.605469 84.054688 L 135.230469 83.195312 L 143.773438 83.046875 L 152.230469 83.074219 C 152.3125 83.074219 152.382812 83.144531 152.382812 83.230469 C 152.382812 83.3125 152.3125 83.382812 152.230469 83.382812 L 143.78125 83.351562 L 135.253906 83.5 L 126.652344 84.363281 L 118.191406 86.777344 L 110.273438 90.78125 L 108.632812 92.023438 C 108.601562 92.035156 108.574219 92.039062 108.539062 92.039062 Z M 108.539062 92.039062 " fill-opacity="1" fill-rule="nonzero"/><path fill="rgb(90.979004%, 90.979004%, 90.979004%)" d="M 82.855469 101.183594 C 82.789062 101.183594 82.730469 101.140625 82.707031 101.074219 L 82.121094 99.175781 C 82.121094 99.167969 82.117188 99.15625 82.117188 99.152344 L 81.621094 95.222656 C 81.621094 95.21875 81.621094 95.210938 81.621094 95.207031 L 81.585938 90.59375 L 82.019531 85.574219 L 82.902344 80.484375 L 84.171875 75.65625 L 85.75 71.40625 C 85.75 71.398438 85.753906 71.394531 85.753906 71.386719 L 87.527344 67.988281 C 87.535156 67.980469 87.539062 67.96875 87.546875 67.960938 L 89.402344 65.59375 C 89.429688 65.558594 89.476562 65.535156 89.523438 65.535156 L 94.382812 65.660156 C 94.464844 65.660156 94.535156 65.730469 94.527344 65.820312 C 94.527344 65.902344 94.457031 65.972656 94.371094 65.964844 L 89.589844 65.84375 L 87.792969 68.140625 L 86.03125 71.523438 L 84.460938 75.753906 L 83.195312 80.554688 L 82.316406 85.613281 L 81.886719 90.609375 L 81.921875 95.199219 L 82.417969 99.109375 L 82.996094 101 C 83.019531 101.082031 82.972656 101.164062 82.894531 101.1875 C 82.890625 101.183594 82.871094 101.183594 82.855469 101.183594 Z M 82.855469 101.183594 " fill-opacity="1" fill-rule="nonzero"/><path fill="rgb(90.979004%, 90.979004%, 90.979004%)" d="M 75.863281 99.882812 C 75.828125 99.882812 75.792969 99.871094 75.765625 99.847656 L 74.3125 98.570312 C 74.304688 98.566406 74.292969 98.554688 74.289062 98.546875 L 73.011719 96.839844 L 70.675781 93.132812 C 70.628906 93.0625 70.652344 92.96875 70.726562 92.921875 C 70.796875 92.871094 70.890625 92.894531 70.9375 92.96875 L 73.257812 96.664062 L 74.519531 98.347656 L 75.960938 99.609375 C 76.023438 99.664062 76.03125 99.765625 75.972656 99.828125 C 75.949219 99.863281 75.90625 99.882812 75.863281 99.882812 Z M 75.863281 99.882812 " fill-opacity="1" fill-rule="nonzero"/><path fill="rgb(90.979004%, 90.979004%, 90.979004%)" d="M 148.121094 67.195312 L 140.351562 67.152344 L 117.007812 67.09375 L 109.289062 67.089844 L 99.726562 67.136719 C 99.644531 67.136719 99.574219 67.066406 99.574219 66.980469 C 99.574219 66.898438 99.640625 66.828125 99.726562 66.828125 L 109.289062 66.78125 L 117.007812 66.789062 L 124.773438 66.804688 L 140.359375 66.847656 L 148.128906 66.886719 C 148.210938 66.886719 148.28125 66.957031 148.28125 67.042969 C 148.277344 67.128906 148.207031 67.195312 148.121094 67.195312 Z M 148.121094 67.195312 " fill-opacity="1" fill-rule="nonzero"/><path fill="rgb(90.979004%, 90.979004%, 90.979004%)" d="M 107.449219 75.101562 C 107.375 75.101562 107.308594 75.042969 107.296875 74.96875 C 107.285156 74.882812 107.34375 74.808594 107.433594 74.796875 L 109.265625 74.566406 L 117.28125 73.707031 L 125.417969 73.207031 L 133.558594 73.046875 L 141.652344 73.035156 L 149.6875 73.070312 C 149.769531 73.070312 149.839844 73.140625 149.839844 73.226562 C 149.839844 73.308594 149.769531 73.378906 149.6875 73.378906 L 141.660156 73.34375 L 133.570312 73.355469 L 125.441406 73.515625 L 117.316406 74.015625 L 109.304688 74.871094 L 107.472656 75.097656 C 107.460938 75.101562 107.457031 75.101562 107.449219 75.101562 Z M 107.449219 75.101562 " fill-opacity="1" fill-rule="nonzero"/><g clip-path="url(#id19)"><path fill="rgb(90.979004%, 90.979004%, 90.979004%)" d="M 93.328125 115.148438 C 93.242188 115.148438 93.175781 115.078125 93.175781 114.996094 L 93.222656 110.429688 L 93.234375 106.136719 L 93.175781 102.675781 L 93.035156 101.148438 C 93.027344 101.0625 93.085938 100.988281 93.171875 100.980469 C 93.257812 100.976562 93.328125 101.035156 93.335938 101.117188 L 93.476562 102.660156 L 93.535156 106.136719 L 93.523438 110.4375 L 93.476562 115.007812 C 93.484375 115.078125 93.414062 115.148438 93.328125 115.148438 Z M 93.328125 115.148438 " fill-opacity="1" fill-rule="nonzero"/></g><path fill="rgb(90.979004%, 90.979004%, 90.979004%)" d="M 87.042969 101.339844 C 86.964844 101.339844 86.902344 101.28125 86.890625 101.207031 L 86.710938 99.683594 L 86.527344 95.773438 L 86.515625 91.140625 L 86.675781 86.085938 L 87 80.929688 L 87.46875 76.019531 L 88.046875 71.664062 L 88.699219 68.140625 L 89.378906 65.640625 C 89.390625 65.59375 89.425781 65.554688 89.476562 65.535156 L 92.34375 64.53125 C 92.359375 64.527344 92.382812 64.519531 92.402344 64.527344 L 95.0625 64.703125 C 95.144531 64.707031 95.207031 64.78125 95.203125 64.867188 C 95.195312 64.949219 95.121094 65.015625 95.035156 65.011719 L 92.414062 64.832031 L 89.648438 65.796875 L 88.992188 68.203125 L 88.347656 71.710938 L 87.777344 76.054688 L 87.308594 80.957031 L 86.984375 86.097656 L 86.824219 91.148438 L 86.835938 95.765625 L 87.019531 99.664062 L 87.191406 101.175781 C 87.203125 101.257812 87.136719 101.335938 87.054688 101.347656 C 87.054688 101.339844 87.050781 101.339844 87.042969 101.339844 Z M 87.042969 101.339844 " fill-opacity="1" fill-rule="nonzero"/><g clip-path="url(#id20)"><path fill="rgb(90.979004%, 90.979004%, 90.979004%)" d="M 112.550781 115.277344 C 112.472656 115.277344 112.402344 115.21875 112.394531 115.136719 L 112.035156 110.542969 L 111.597656 106.105469 L 111.054688 102.089844 L 110.445312 99.078125 L 109.972656 97.371094 C 109.96875 97.359375 109.96875 97.347656 109.96875 97.335938 L 109.90625 96.15625 C 109.902344 96.074219 109.96875 96.003906 110.054688 95.996094 C 110.136719 95.992188 110.210938 96.054688 110.214844 96.144531 L 110.269531 97.3125 L 110.734375 99.015625 L 111.351562 102.042969 L 111.894531 106.070312 L 112.332031 110.511719 L 112.691406 115.109375 C 112.695312 115.191406 112.632812 115.265625 112.550781 115.273438 C 112.5625 115.277344 112.554688 115.277344 112.550781 115.277344 Z M 112.550781 115.277344 " fill-opacity="1" fill-rule="nonzero"/></g><path fill="rgb(90.979004%, 90.979004%, 90.979004%)" d="M 90.074219 68.324219 L 88.84375 68.316406 L 87.652344 68.199219 C 87.644531 68.199219 87.640625 68.199219 87.632812 68.199219 L 86.570312 67.972656 C 86.488281 67.957031 86.433594 67.875 86.453125 67.792969 C 86.46875 67.707031 86.554688 67.65625 86.636719 67.671875 L 87.691406 67.898438 L 88.863281 68.015625 L 90.0625 68.023438 L 91.226562 67.914062 L 92.289062 67.703125 L 93.183594 67.402344 L 93.84375 67.035156 L 94.238281 66.640625 L 94.363281 66.261719 L 94.238281 65.847656 C 94.214844 65.765625 94.261719 65.683594 94.339844 65.660156 C 94.421875 65.636719 94.503906 65.683594 94.527344 65.761719 L 94.671875 66.21875 C 94.683594 66.25 94.675781 66.285156 94.671875 66.316406 L 94.523438 66.777344 C 94.515625 66.800781 94.503906 66.816406 94.488281 66.835938 L 94.050781 67.273438 C 94.039062 67.285156 94.027344 67.289062 94.015625 67.296875 L 93.324219 67.679688 C 93.316406 67.683594 93.304688 67.683594 93.300781 67.691406 L 92.382812 68 C 92.378906 68 92.371094 68.003906 92.367188 68.003906 L 91.285156 68.214844 C 91.28125 68.214844 91.273438 68.214844 91.269531 68.214844 Z M 90.074219 68.324219 " fill-opacity="1" fill-rule="nonzero"/><g clip-path="url(#id21)"><path fill="rgb(90.979004%, 90.979004%, 90.979004%)" d="M 86.386719 64.550781 C 86.386719 64.550781 86.382812 64.550781 86.382812 64.550781 C 86.296875 64.542969 86.234375 64.472656 86.234375 64.390625 L 86.257812 63.828125 L 86.40625 60.929688 C 86.410156 60.847656 86.480469 60.777344 86.566406 60.78125 C 86.648438 60.789062 86.710938 60.859375 86.710938 60.941406 L 86.542969 64.402344 C 86.535156 64.484375 86.46875 64.550781 86.386719 64.550781 Z M 86.386719 64.550781 " fill-opacity="1" fill-rule="nonzero"/></g><g clip-path="url(#id22)"><path fill="rgb(90.979004%, 90.979004%, 90.979004%)" d="M 78.605469 67.550781 C 78.605469 67.550781 78.601562 67.550781 78.601562 67.550781 C 78.519531 67.542969 78.453125 67.472656 78.453125 67.390625 L 78.46875 66.882812 L 78.675781 63.769531 L 78.929688 60.875 C 78.9375 60.792969 79.015625 60.726562 79.097656 60.734375 C 79.179688 60.738281 79.246094 60.816406 79.238281 60.898438 L 78.984375 63.789062 L 78.777344 66.886719 L 78.761719 67.390625 C 78.753906 67.484375 78.6875 67.550781 78.605469 67.550781 Z M 78.605469 67.550781 " fill-opacity="1" fill-rule="nonzero"/></g><g clip-path="url(#id23)"><path fill="rgb(90.979004%, 90.979004%, 90.979004%)" d="M 102.9375 115.207031 C 102.855469 115.207031 102.789062 115.144531 102.78125 115.058594 L 102.617188 110.472656 L 102.382812 106.105469 L 102.027344 102.417969 L 101.578125 100.398438 L 101.394531 100.160156 C 101.339844 100.09375 101.351562 99.996094 101.425781 99.949219 C 101.488281 99.894531 101.589844 99.90625 101.636719 99.976562 L 101.84375 100.242188 C 101.855469 100.261719 101.867188 100.285156 101.871094 100.300781 L 102.332031 102.367188 C 102.332031 102.375 102.332031 102.378906 102.339844 102.386719 L 102.695312 106.089844 L 102.929688 110.464844 L 103.097656 115.054688 C 103.089844 115.136719 103.023438 115.207031 102.9375 115.207031 Z M 102.9375 115.207031 " fill-opacity="1" fill-rule="nonzero"/></g><path fill="rgb(90.979004%, 90.979004%, 90.979004%)" d="M 109.324219 80.1875 C 109.257812 80.1875 109.191406 80.140625 109.175781 80.074219 C 109.152344 79.992188 109.203125 79.910156 109.28125 79.886719 L 109.328125 79.875 L 117.453125 77.902344 L 125.777344 76.710938 L 134.101562 76.3125 L 142.339844 76.265625 L 150.507812 76.300781 C 150.59375 76.300781 150.664062 76.371094 150.664062 76.453125 C 150.664062 76.539062 150.59375 76.609375 150.507812 76.609375 L 142.34375 76.574219 L 134.113281 76.621094 L 125.808594 77.011719 L 117.511719 78.195312 L 109.359375 80.175781 C 109.347656 80.1875 109.335938 80.1875 109.324219 80.1875 Z M 109.324219 80.1875 " fill-opacity="1" fill-rule="nonzero"/><path fill="rgb(90.979004%, 90.979004%, 90.979004%)" d="M 84.910156 101.363281 L 79.628906 100.898438 C 79.621094 100.898438 79.617188 100.898438 79.609375 100.894531 L 77.046875 100.332031 L 76.859375 100.273438 L 76.585938 100.171875 L 76.445312 100.160156 C 76.425781 100.160156 76.410156 100.15625 76.390625 100.148438 L 75.46875 99.707031 C 75.457031 99.699219 75.453125 99.695312 75.441406 99.6875 L 68.746094 94.355469 C 68.703125 94.324219 68.6875 94.273438 68.6875 94.226562 L 68.964844 90.5 L 69.265625 87.976562 L 69.070312 86.765625 C 69.070312 86.761719 69.070312 86.753906 69.070312 86.742188 L 68.980469 82.261719 C 68.980469 82.25 68.980469 82.230469 68.988281 82.21875 L 70.085938 77.835938 C 70.085938 77.832031 70.09375 77.824219 70.09375 77.820312 L 70.882812 75.953125 C 70.882812 75.945312 70.890625 75.941406 70.890625 75.933594 L 73.023438 72.160156 C 73.027344 72.148438 73.039062 72.132812 73.050781 72.125 L 76.160156 69.039062 C 76.160156 69.039062 76.167969 69.03125 76.167969 69.03125 L 77.453125 67.839844 C 77.464844 67.828125 77.476562 67.820312 77.488281 67.816406 L 82.382812 65.242188 C 82.386719 65.234375 82.398438 65.234375 82.40625 65.226562 L 84.164062 64.648438 C 84.171875 64.648438 84.179688 64.644531 84.183594 64.644531 L 86.238281 64.25 C 86.25 64.25 86.261719 64.242188 86.273438 64.25 L 87.835938 64.289062 C 87.863281 64.289062 87.894531 64.300781 87.921875 64.320312 L 89.472656 65.445312 L 90.054688 64.277344 C 90.078125 64.234375 90.117188 64.207031 90.164062 64.195312 L 90.777344 64.066406 C 90.796875 64.058594 90.808594 64.058594 90.824219 64.066406 L 93.046875 64.285156 C 93.050781 64.285156 93.058594 64.285156 93.0625 64.285156 L 95.089844 64.703125 C 95.097656 64.703125 95.101562 64.707031 95.109375 64.707031 L 96.832031 65.304688 C 96.839844 65.304688 96.84375 65.3125 96.851562 65.3125 L 98.332031 66.085938 L 99.726562 66.839844 L 99.839844 66.871094 C 99.851562 66.875 99.863281 66.875 99.875 66.882812 L 101.753906 67.9375 C 101.765625 67.945312 101.777344 67.957031 101.789062 67.960938 L 103.007812 69.171875 C 103.011719 69.179688 103.011719 69.179688 103.019531 69.183594 L 106.125 72.292969 C 106.136719 72.304688 106.144531 72.316406 106.152344 72.328125 L 108.300781 76.128906 C 108.308594 76.136719 108.308594 76.148438 108.3125 76.152344 L 108.980469 78.027344 L 110.085938 82.4375 C 110.089844 82.449219 110.089844 82.46875 110.089844 82.480469 L 110.003906 86.820312 L 110.003906 86.933594 L 110.34375 90.617188 L 110.40625 94.191406 C 110.40625 94.195312 110.40625 94.203125 110.40625 94.207031 L 110.226562 96.15625 C 110.222656 96.210938 110.191406 96.257812 110.144531 96.28125 L 103.253906 99.664062 C 103.25 99.671875 103.242188 99.671875 103.230469 99.671875 L 101.554688 100.203125 L 99.367188 100.691406 C 99.363281 100.691406 99.355469 100.691406 99.351562 100.699219 L 93.199219 101.269531 Z M 79.664062 100.597656 L 84.921875 101.0625 L 93.183594 100.976562 L 99.316406 100.402344 L 101.476562 99.917969 L 103.132812 99.390625 L 109.933594 96.054688 L 110.101562 94.203125 L 110.042969 90.644531 L 109.703125 86.960938 L 109.695312 86.832031 L 109.785156 82.507812 L 108.683594 78.132812 L 108.027344 76.285156 L 106.730469 73.988281 C 106.742188 74.015625 106.742188 74.046875 106.734375 74.074219 L 106.328125 75.664062 L 108.515625 79.914062 C 108.519531 79.925781 108.527344 79.9375 108.527344 79.953125 L 109.613281 84.5 C 109.625 84.546875 109.613281 84.59375 109.582031 84.632812 L 107.957031 86.554688 L 107.875 91.046875 C 107.875 91.101562 107.847656 91.148438 107.804688 91.171875 L 105.085938 92.914062 L 104.117188 96.894531 C 104.105469 96.941406 104.070312 96.984375 104.023438 97 L 100.519531 98.375 C 100.515625 98.375 100.507812 98.382812 100.496094 98.382812 L 96.300781 99.34375 C 96.296875 99.34375 96.289062 99.34375 96.285156 99.351562 L 91.652344 99.835938 C 91.644531 99.835938 91.640625 99.835938 91.632812 99.835938 L 86.867188 99.804688 C 86.859375 99.804688 86.855469 99.804688 86.847656 99.804688 L 82.25 99.261719 C 82.246094 99.261719 82.238281 99.261719 82.234375 99.257812 L 78.105469 98.242188 C 78.097656 98.242188 78.085938 98.234375 78.082031 98.234375 L 74.671875 96.816406 C 74.625 96.800781 74.59375 96.757812 74.582031 96.710938 L 73.589844 92.71875 L 70.992188 90.941406 C 70.949219 90.910156 70.925781 90.863281 70.925781 90.816406 L 70.84375 86.324219 L 69.347656 84.386719 C 69.34375 84.378906 69.335938 84.367188 69.332031 84.355469 L 69.378906 86.703125 L 69.574219 87.921875 C 69.574219 87.9375 69.574219 87.953125 69.574219 87.964844 L 69.269531 90.503906 L 69 94.148438 L 75.621094 99.429688 L 76.503906 99.847656 L 76.632812 99.859375 C 76.644531 99.859375 76.664062 99.863281 76.675781 99.871094 L 76.957031 99.976562 L 77.125 100.03125 Z M 86.878906 99.515625 L 91.628906 99.546875 L 96.242188 99.0625 L 100.417969 98.105469 L 103.839844 96.765625 L 104.738281 93.085938 L 101.277344 94.425781 C 101.269531 94.425781 101.265625 94.433594 101.253906 94.433594 L 96.769531 95.441406 C 96.761719 95.441406 96.757812 95.441406 96.75 95.449219 L 91.800781 95.957031 C 91.792969 95.957031 91.789062 95.957031 91.78125 95.957031 L 86.6875 95.925781 C 86.683594 95.925781 86.675781 95.925781 86.671875 95.925781 L 81.761719 95.359375 C 81.753906 95.359375 81.75 95.359375 81.742188 95.351562 L 77.332031 94.289062 C 77.324219 94.289062 77.3125 94.285156 77.304688 94.285156 L 73.949219 92.90625 L 74.867188 96.59375 L 78.191406 97.976562 L 82.304688 98.984375 Z M 86.695312 95.613281 L 91.777344 95.640625 L 96.710938 95.132812 L 101.167969 94.125 L 104.796875 92.71875 L 104.867188 88.261719 L 104.011719 83.460938 L 102.328125 78.839844 L 99.339844 79.921875 C 99.332031 79.921875 99.328125 79.925781 99.320312 79.925781 L 95.574219 80.71875 C 95.570312 80.71875 95.5625 80.71875 95.558594 80.71875 L 91.425781 81.113281 C 91.421875 81.113281 91.414062 81.113281 91.410156 81.113281 L 87.15625 81.089844 C 87.148438 81.089844 87.144531 81.089844 87.136719 81.089844 L 83.039062 80.648438 C 83.03125 80.648438 83.027344 80.648438 83.019531 80.648438 L 79.332031 79.816406 C 79.328125 79.816406 79.320312 79.808594 79.308594 79.808594 L 76.261719 78.644531 C 76.25 78.640625 76.242188 78.640625 76.230469 78.632812 L 74.144531 77.3125 L 72.160156 81.664062 L 71.167969 86.230469 L 73.738281 87.953125 C 73.777344 87.984375 73.804688 88.03125 73.804688 88.078125 L 73.875 92.546875 L 77.40625 93.996094 L 81.796875 95.058594 Z M 102.605469 78.71875 L 104.300781 83.375 C 104.308594 83.382812 104.308594 83.394531 104.308594 83.398438 L 105.164062 88.230469 C 105.164062 88.242188 105.164062 88.25 105.164062 88.261719 L 105.097656 92.554688 L 107.554688 90.976562 L 107.640625 86.511719 C 107.640625 86.476562 107.652344 86.441406 107.675781 86.417969 L 109.289062 84.515625 L 108.222656 80.058594 L 106.121094 75.964844 L 104.863281 77.371094 C 104.851562 77.382812 104.839844 77.394531 104.828125 77.398438 Z M 71.234375 90.753906 L 73.574219 92.351562 L 73.507812 88.152344 L 71.15625 86.582031 Z M 69.632812 84.273438 L 70.914062 85.933594 L 71.859375 81.574219 C 71.859375 81.5625 71.863281 81.550781 71.871094 81.546875 L 73.898438 77.105469 L 72.65625 75.59375 C 72.640625 75.574219 72.628906 75.550781 72.628906 75.523438 L 72.398438 74.292969 L 70.386719 77.894531 L 70.707031 79.746094 C 70.714844 79.761719 70.707031 79.785156 70.707031 79.804688 Z M 69.289062 82.273438 L 69.332031 84.238281 L 70.40625 79.769531 L 70.203125 78.609375 Z M 87.167969 80.789062 L 91.402344 80.8125 L 95.515625 80.417969 L 99.242188 79.632812 L 102.199219 78.570312 L 99.835938 74.417969 L 97.425781 75.269531 C 97.417969 75.269531 97.414062 75.273438 97.40625 75.273438 L 94.386719 75.894531 C 94.382812 75.894531 94.375 75.894531 94.371094 75.894531 L 91.050781 76.207031 L 87.617188 76.1875 L 84.308594 75.839844 C 84.300781 75.839844 84.296875 75.839844 84.289062 75.839844 L 81.316406 75.183594 C 81.3125 75.183594 81.304688 75.179688 81.300781 75.179688 L 78.835938 74.265625 C 78.824219 74.257812 78.820312 74.257812 78.808594 74.253906 L 77.113281 73.207031 L 74.300781 77.050781 L 76.386719 78.375 L 79.410156 79.53125 L 83.078125 80.359375 Z M 100.113281 74.289062 L 102.476562 78.4375 L 104.65625 77.132812 L 105.960938 75.679688 L 102.949219 72.121094 L 101.910156 73.238281 C 101.898438 73.25 101.882812 73.253906 101.871094 73.265625 Z M 72.929688 75.433594 L 74.074219 76.832031 L 76.882812 73 L 75.894531 71.835938 C 75.875 71.820312 75.863281 71.796875 75.859375 71.765625 L 75.652344 70.746094 L 72.644531 73.890625 Z M 84.347656 75.535156 L 87.632812 75.882812 L 91.03125 75.898438 L 94.328125 75.585938 L 97.328125 74.96875 L 99.644531 74.152344 L 96.726562 70.621094 L 95.050781 71.191406 C 95.042969 71.191406 95.035156 71.199219 95.03125 71.199219 L 92.921875 71.625 C 92.914062 71.625 92.910156 71.625 92.902344 71.625 L 90.589844 71.835938 L 88.195312 71.824219 L 85.878906 71.589844 C 85.875 71.589844 85.867188 71.589844 85.863281 71.589844 L 83.78125 71.140625 C 83.777344 71.140625 83.769531 71.132812 83.765625 71.132812 L 82.03125 70.507812 C 82.019531 70.503906 82.015625 70.503906 82.007812 70.496094 L 80.820312 69.789062 L 77.324219 72.964844 L 78.953125 73.96875 L 81.394531 74.878906 Z M 103.125 71.847656 L 106.089844 75.355469 L 106.417969 74.082031 L 103.390625 70.878906 Z M 97.011719 70.496094 L 99.941406 74.035156 L 101.707031 73.011719 L 102.734375 71.914062 L 98.964844 69.050781 L 98.234375 69.804688 C 98.222656 69.816406 98.210938 69.824219 98.199219 69.835938 Z M 103.449219 70.503906 L 106.695312 73.933594 C 106.699219 73.9375 106.699219 73.9375 106.699219 73.945312 L 105.882812 72.511719 L 104.371094 71.003906 C 104.367188 71 104.367188 71 104.359375 70.992188 L 104.058594 70.683594 L 103.21875 69.839844 Z M 73.289062 72.320312 L 72.941406 73.140625 L 75.609375 70.347656 L 75.839844 69.789062 Z M 76.148438 71.671875 L 77.089844 72.777344 L 80.589844 69.59375 L 79.929688 68.84375 C 79.910156 68.824219 79.898438 68.800781 79.894531 68.777344 L 79.734375 68.082031 L 75.914062 70.507812 Z M 99.121094 68.777344 L 102.871094 71.625 L 103.144531 70.644531 L 99.304688 68.167969 Z M 85.921875 71.292969 L 88.214844 71.53125 L 90.578125 71.542969 L 92.867188 71.328125 L 94.960938 70.910156 L 96.46875 70.390625 L 93.160156 67.667969 L 89.535156 65.847656 L 86.695312 67.933594 C 86.652344 67.960938 86.601562 67.96875 86.554688 67.957031 L 85.660156 67.636719 C 85.648438 67.632812 85.644531 67.632812 85.636719 67.625 L 85.046875 67.285156 L 81.105469 69.597656 L 82.15625 70.230469 L 83.863281 70.851562 Z M 90.671875 66.078125 L 93.3125 67.402344 C 93.324219 67.40625 93.328125 67.414062 93.339844 67.417969 L 96.796875 70.261719 L 98.027344 69.570312 L 98.6875 68.882812 L 94.328125 66.871094 Z M 99.34375 67.832031 L 103.03125 70.210938 L 102.753906 69.390625 L 99.191406 67.367188 Z M 76.390625 69.25 L 76.066406 70.042969 L 79.710938 67.726562 L 79.886719 67.277344 Z M 80.183594 68.664062 L 80.839844 69.402344 L 84.804688 67.078125 L 84.527344 66.777344 C 84.507812 66.757812 84.496094 66.734375 84.492188 66.710938 L 84.414062 66.410156 L 80.011719 67.925781 Z M 92.667969 66.195312 L 94.40625 66.574219 C 94.417969 66.574219 94.429688 66.582031 94.433594 66.585938 L 98.847656 68.625 L 99.023438 68.027344 L 94.488281 66.410156 Z M 99.011719 66.910156 L 101.972656 68.601562 L 101.578125 68.203125 L 99.585938 67.125 L 98.855469 66.753906 Z M 77.644531 68.074219 L 77.316406 68.375 L 80.101562 66.8125 L 80.160156 66.757812 Z M 91.171875 65.710938 L 94.539062 66.109375 C 94.550781 66.109375 94.5625 66.113281 94.578125 66.113281 L 98.976562 67.679688 L 98.804688 67.152344 L 94.347656 65.941406 C 94.316406 65.9375 94.292969 65.917969 94.273438 65.902344 L 93.902344 65.519531 Z M 85.777344 67.359375 L 86.582031 67.644531 L 88.679688 66.101562 L 85.425781 67.148438 Z M 80.308594 67.066406 L 80.105469 67.578125 L 84.414062 66.089844 L 84.457031 65.976562 Z M 84.78125 66.597656 L 85.09375 66.933594 L 88.054688 65.984375 L 84.722656 66.339844 Z M 94.464844 65.664062 L 98.417969 66.742188 L 98.015625 66.332031 L 94.410156 65.613281 Z M 81.171875 66.226562 L 80.738281 66.632812 L 84.621094 65.613281 L 85.046875 65.210938 C 85.050781 65.210938 85.050781 65.203125 85.058594 65.203125 L 82.5 65.53125 Z M 84.804688 65.902344 L 84.757812 66.03125 L 86.164062 65.882812 Z M 94.25 65.269531 L 97.175781 65.855469 L 96.726562 65.601562 Z M 85.242188 65.445312 L 85.085938 65.589844 L 88.078125 65.542969 L 85.875 65.105469 Z M 91.375 64.625 L 90.222656 65.394531 L 92.6875 64.945312 L 92.355469 64.832031 Z M 93.257812 65.144531 L 92.238281 65.335938 L 93.441406 65.253906 Z M 90.292969 64.476562 L 89.921875 65.226562 L 91.148438 64.40625 L 90.808594 64.371094 Z M 86.453125 64.910156 L 87.679688 65.152344 L 86.757812 64.808594 Z M 87 64.574219 L 88.53125 65.140625 L 87.777344 64.589844 Z M 93.324219 64.839844 L 95.277344 65.097656 L 95.011719 65.003906 L 93 64.589844 L 92.457031 64.539062 Z M 84.25 64.949219 L 84.019531 65.027344 L 85.8125 64.804688 L 86.527344 64.566406 L 86.28125 64.5625 Z M 84.25 64.949219 " fill-opacity="1" fill-rule="nonzero"/><path fill="rgb(90.979004%, 90.979004%, 90.979004%)" d="M 75.539062 99.722656 C 75.515625 99.722656 75.492188 99.71875 75.476562 99.707031 L 68.703125 96.453125 L 60.183594 92.921875 L 51.199219 90.824219 L 42.195312 90.078125 L 33.355469 89.902344 L 24.640625 89.84375 C 24.558594 89.84375 24.488281 89.773438 24.488281 89.691406 C 24.488281 89.605469 24.558594 89.535156 24.640625 89.535156 L 33.355469 89.59375 L 42.207031 89.773438 L 51.234375 90.515625 C 51.238281 90.515625 51.25 90.515625 51.257812 90.523438 L 60.265625 92.625 C 60.273438 92.625 60.285156 92.628906 60.289062 92.628906 L 68.828125 96.167969 L 75.609375 99.421875 C 75.6875 99.457031 75.71875 99.550781 75.683594 99.628906 C 75.652344 99.695312 75.597656 99.722656 75.539062 99.722656 Z M 75.539062 99.722656 " fill-opacity="1" fill-rule="nonzero"/><path fill="rgb(90.979004%, 90.979004%, 90.979004%)" d="M 76.714844 100.25 C 76.6875 100.25 76.65625 100.242188 76.628906 100.21875 L 76.53125 100.15625 L 74.316406 98.578125 C 74.300781 98.566406 74.289062 98.546875 74.277344 98.535156 L 72.113281 95.050781 C 72.105469 95.039062 72.101562 95.027344 72.09375 95.011719 L 70.9375 90.90625 L 69.429688 88.914062 C 69.414062 88.890625 69.402344 88.855469 69.402344 88.828125 L 69.3125 84.328125 L 68.980469 82.285156 C 68.96875 82.203125 69.023438 82.125 69.105469 82.105469 C 69.1875 82.09375 69.265625 82.148438 69.28125 82.230469 L 69.621094 84.285156 C 69.621094 84.292969 69.621094 84.296875 69.621094 84.308594 L 69.707031 88.773438 L 71.199219 90.746094 C 71.210938 90.765625 71.214844 90.777344 71.222656 90.800781 L 72.378906 94.917969 L 74.511719 98.351562 L 76.792969 99.972656 C 76.863281 100.019531 76.882812 100.113281 76.832031 100.183594 C 76.816406 100.226562 76.769531 100.25 76.714844 100.25 Z M 76.714844 100.25 " fill-opacity="1" fill-rule="nonzero"/><path fill="rgb(90.979004%, 90.979004%, 90.979004%)" d="M 79.640625 100.898438 C 79.632812 100.898438 79.628906 100.898438 79.628906 100.898438 L 76.378906 100.609375 L 67.574219 99.363281 L 58.558594 98.339844 L 49.402344 97.792969 L 40.238281 97.609375 L 31.140625 97.566406 L 22.125 97.539062 C 22.042969 97.539062 21.96875 97.46875 21.96875 97.382812 C 21.96875 97.300781 22.042969 97.230469 22.125 97.230469 L 31.140625 97.261719 L 40.238281 97.300781 L 49.414062 97.484375 L 58.582031 98.035156 L 67.609375 99.054688 L 76.410156 100.300781 L 79.652344 100.585938 C 79.734375 100.589844 79.800781 100.667969 79.792969 100.75 C 79.789062 100.839844 79.722656 100.898438 79.640625 100.898438 Z M 79.640625 100.898438 " fill-opacity="1" fill-rule="nonzero"/><path fill="rgb(90.979004%, 90.979004%, 90.979004%)" d="M 91.503906 101.292969 C 91.496094 101.292969 91.492188 101.292969 91.492188 101.292969 C 91.410156 101.289062 91.34375 101.210938 91.355469 101.128906 L 91.484375 99.683594 L 91.632812 95.789062 L 91.644531 91.171875 L 91.515625 86.121094 L 91.253906 80.972656 L 90.882812 76.066406 L 90.421875 71.710938 L 89.910156 68.191406 L 89.378906 65.71875 L 88.878906 64.464844 L 88.496094 64.359375 L 86.285156 64.554688 C 86.199219 64.5625 86.128906 64.503906 86.121094 64.414062 C 86.117188 64.332031 86.175781 64.253906 86.261719 64.25 L 88.503906 64.054688 C 88.519531 64.054688 88.539062 64.054688 88.554688 64.058594 L 89.039062 64.195312 C 89.085938 64.207031 89.121094 64.242188 89.140625 64.285156 L 89.667969 65.617188 C 89.671875 65.625 89.671875 65.636719 89.671875 65.640625 L 90.210938 68.132812 L 90.730469 71.671875 L 91.191406 76.035156 L 91.5625 80.957031 L 91.824219 86.109375 L 91.953125 91.164062 L 91.941406 95.796875 L 91.792969 99.699219 L 91.664062 101.152344 C 91.652344 101.234375 91.582031 101.292969 91.503906 101.292969 Z M 91.503906 101.292969 " fill-opacity="1" fill-rule="nonzero"/><path fill="rgb(90.979004%, 90.979004%, 90.979004%)" d="M 76.460938 100.167969 C 76.445312 100.167969 76.433594 100.167969 76.414062 100.160156 L 68.351562 97.691406 L 59.492188 95.460938 L 50.386719 94.207031 L 41.285156 93.765625 L 32.292969 93.65625 L 23.417969 93.617188 C 23.335938 93.617188 23.265625 93.546875 23.265625 93.464844 C 23.265625 93.378906 23.335938 93.308594 23.417969 93.308594 L 32.292969 93.351562 L 41.289062 93.457031 L 50.417969 93.898438 L 59.546875 95.152344 C 59.550781 95.152344 59.558594 95.152344 59.5625 95.160156 L 68.4375 97.394531 L 76.515625 99.863281 C 76.597656 99.886719 76.640625 99.976562 76.617188 100.054688 C 76.585938 100.125 76.527344 100.167969 76.460938 100.167969 Z M 76.460938 100.167969 " fill-opacity="1" fill-rule="nonzero"/><path fill="rgb(90.979004%, 90.979004%, 90.979004%)" d="M 77.082031 100.335938 C 77.0625 100.335938 77.050781 100.335938 77.035156 100.332031 L 76.859375 100.277344 L 76.6875 100.242188 C 76.664062 100.238281 76.632812 100.226562 76.617188 100.207031 L 76.496094 100.101562 C 76.484375 100.089844 76.472656 100.078125 76.46875 100.066406 L 74.625 96.804688 L 72.167969 95.097656 C 72.15625 95.085938 72.144531 95.074219 72.132812 95.0625 L 70.695312 93.144531 C 70.683594 93.132812 70.675781 93.113281 70.671875 93.097656 L 70.199219 91.503906 L 69.039062 90.640625 L 61.03125 86.316406 L 52.496094 83.8125 L 43.882812 82.9375 L 35.394531 82.722656 L 26.992188 82.648438 C 26.910156 82.648438 26.839844 82.578125 26.839844 82.496094 C 26.839844 82.414062 26.910156 82.34375 26.992188 82.34375 L 35.398438 82.414062 L 43.902344 82.632812 L 52.546875 83.507812 C 52.558594 83.507812 52.5625 83.507812 52.574219 83.511719 L 61.136719 86.023438 C 61.148438 86.027344 61.152344 86.027344 61.164062 86.035156 L 69.195312 90.363281 C 69.199219 90.367188 69.207031 90.367188 69.210938 90.375 L 70.417969 91.273438 C 70.441406 91.289062 70.464844 91.320312 70.46875 91.347656 L 70.949219 92.96875 L 72.355469 94.84375 L 74.824219 96.558594 C 74.84375 96.570312 74.859375 96.585938 74.871094 96.609375 L 76.722656 99.875 L 76.792969 99.941406 L 76.941406 99.972656 L 77.128906 100.03125 C 77.210938 100.054688 77.253906 100.144531 77.230469 100.21875 C 77.207031 100.296875 77.148438 100.335938 77.082031 100.335938 Z M 77.082031 100.335938 " fill-opacity="1" fill-rule="nonzero"/><path fill="rgb(90.979004%, 90.979004%, 90.979004%)" d="M 95.816406 100.945312 C 95.804688 100.945312 95.789062 100.945312 95.777344 100.941406 C 95.691406 100.917969 95.644531 100.832031 95.667969 100.75 L 96.117188 99.1875 L 96.578125 95.28125 L 96.613281 90.675781 L 96.207031 85.671875 L 95.386719 80.59375 L 94.203125 75.777344 L 92.75 71.542969 L 91.113281 68.140625 L 89.441406 65.820312 L 85.160156 65.46875 L 81.117188 66.246094 L 79.582031 67.042969 L 77.625 68.074219 C 77.546875 68.117188 77.460938 68.085938 77.417969 68.011719 C 77.378906 67.933594 77.40625 67.84375 77.484375 67.804688 L 79.46875 66.753906 L 81 65.953125 C 81.011719 65.949219 81.027344 65.941406 81.039062 65.941406 L 85.125 65.15625 C 85.136719 65.15625 85.152344 65.152344 85.164062 65.15625 L 89.535156 65.511719 C 89.582031 65.519531 89.621094 65.542969 89.648438 65.578125 L 91.375 67.960938 C 91.378906 67.96875 91.386719 67.980469 91.386719 67.988281 L 93.035156 71.40625 C 93.035156 71.410156 93.039062 71.417969 93.039062 71.421875 L 94.503906 75.679688 L 95.691406 80.523438 L 96.515625 85.625 L 96.921875 90.652344 L 96.886719 95.28125 C 96.886719 95.289062 96.886719 95.292969 96.886719 95.300781 L 96.417969 99.226562 C 96.417969 99.234375 96.417969 99.246094 96.414062 99.25 L 95.964844 100.828125 C 95.945312 100.898438 95.882812 100.945312 95.816406 100.945312 Z M 95.816406 100.945312 " fill-opacity="1" fill-rule="nonzero"/></svg>